<svg version="1.1" viewBox="0.0 0.0 1280.0 960.0" fill="none" stroke="none" stroke-linecap="square" stroke-miterlimit="10" xmlns:xlink="http://www.w3.org/1999/xlink" xmlns="http://www.w3.org/2000/svg"><clipPath id="p.0"><path d="m0 0l1280.0 0l0 960.0l-1280.0 0l0 -960.0z" clip-rule="nonzero"/></clipPath><g clip-path="url(#p.0)"><path fill="#000000" fill-opacity="0.0" d="m0 0l1280.0 0l0 960.0l-1280.0 0z" fill-rule="evenodd"/><path fill="#674ea7" d="m236.59055 361.95013l0 0c0 -46.38324 39.201538 -83.98425 87.55905 -83.98425l0 0c23.222107 0 45.493103 8.848328 61.913605 24.59842c16.420502 15.750092 25.645447 37.111816 25.645447 59.385834l0 0c0 46.38321 -39.201508 83.98425 -87.55905 83.98425l0 0c-48.357513 0 -87.55905 -37.601044 -87.55905 -83.98425z" fill-rule="evenodd"/><path fill="#ffffff" d="m274.30884 352.71014l0 -16.109375l5.1875 0q2.140625 0 3.84375 0.96875q1.703125 0.96875 2.65625 2.734375q0.953125 1.765625 0.96875 3.953125l0 0.75q0 2.203125 -0.9375 3.96875q-0.9375 1.75 -2.640625 2.734375q-1.6875 0.984375 -3.78125 1.0l-5.296875 0zm3.875 -13.109375l0 10.125l1.359375 0q1.671875 0 2.5625 -1.1875q0.890625 -1.1875 0.890625 -3.53125l0 -0.703125q0 -2.328125 -0.890625 -3.515625q-0.890625 -1.1875 -2.609375 -1.1875l-1.3125 0zm16.396912 13.328125q-2.765625 0 -4.46875 -1.640625q-1.703125 -1.640625 -1.703125 -4.28125l0 -0.296875q0 -1.84375 0.671875 -3.25q0.6875 -1.40625 1.984375 -2.171875q1.3125 -0.765625 3.109375 -0.765625q2.515625 0 3.96875 1.5625q1.46875 1.5625 1.46875 4.359375l0 1.453125l-7.40625 0q0.203125 1.0 0.875 1.578125q0.671875 0.578125 1.75 0.578125q1.765625 0 2.765625 -1.234375l1.703125 2.015625q-0.703125 0.953125 -1.984375 1.53125q-1.265625 0.5625 -2.734375 0.5625zm-0.421875 -9.53125q-1.640625 0 -1.953125 2.171875l3.765625 0l0 -0.296875q0.015625 -0.890625 -0.46875 -1.375q-0.46875 -0.5 -1.34375 -0.5zm18.069183 3.421875q0 2.953125 -1.21875 4.53125q-1.21875 1.578125 -3.421875 1.578125q-1.828125 0 -2.953125 -1.453125l-0.15625 1.234375l-3.328125 0l0 -17.0l3.71875 0l0 6.0q1.046875 -1.1875 2.6875 -1.1875q2.234375 0 3.453125 1.609375q1.21875 1.59375 1.21875 4.5l0 0.1875zm-3.734375 -0.234375q0 -1.71875 -0.46875 -2.453125q-0.453125 -0.734375 -1.40625 -0.734375q-1.265625 0 -1.75 0.953125l0 4.765625q0.484375 0.953125 1.78125 0.953125q1.3125 0 1.65625 -1.28125q0.1875 -0.640625 0.1875 -2.203125zm4.9114685 0.03125q0 -1.796875 0.6875 -3.1875q0.703125 -1.40625 2.0 -2.15625q1.3125 -0.75 3.078125 -0.75q2.6875 0 4.234375 1.671875q1.546875 1.65625 1.546875 4.515625l0 0.140625q0 2.796875 -1.5625 4.4375q-1.546875 1.640625 -4.203125 1.640625q-2.546875 0 -4.109375 -1.53125q-1.546875 -1.53125 -1.65625 -4.15625l-0.015625 -0.625zm3.71875 0.234375q0 1.65625 0.515625 2.4375q0.53125 0.765625 1.546875 0.765625q2.0 0 2.03125 -3.0625l0 -0.375q0 -3.21875 -2.046875 -3.21875q-1.875 0 -2.03125 2.78125l-0.015625 0.671875zm16.596985 4.5625q-1.1875 1.515625 -3.1875 1.515625q-1.96875 0 -2.984375 -1.140625q-1.015625 -1.140625 -1.015625 -3.296875l0 -7.75l3.734375 0l0 7.78125q0 1.53125 1.484375 1.53125q1.28125 0 1.828125 -0.921875l0 -8.390625l3.75 0l0 11.96875l-3.5 0l-0.109375 -1.296875zm9.074219 -10.671875l0.125 1.40625q1.234375 -1.625 3.421875 -1.625q1.859375 0 2.78125 1.125q0.921875 1.109375 0.96875 3.359375l0 7.703125l-3.75 0l0 -7.5625q0 -0.90625 -0.359375 -1.328125q-0.359375 -0.421875 -1.328125 -0.421875q-1.09375 0 -1.625 0.859375l0 8.453125l-3.734375 0l0 -11.96875l3.5 0zm14.417938 9.3125q0.78125 0 1.203125 -0.421875q0.4375 -0.421875 0.4375 -1.1875l3.484375 0q0 1.96875 -1.40625 3.234375q-1.40625 1.25 -3.640625 1.25q-2.609375 0 -4.109375 -1.625q-1.5 -1.640625 -1.5 -4.546875l0 -0.15625q0 -1.8125 0.65625 -3.203125q0.671875 -1.390625 1.9375 -2.125q1.265625 -0.75 2.984375 -0.75q2.34375 0 3.703125 1.296875q1.375 1.28125 1.375 3.5l-3.484375 0q0 -0.921875 -0.453125 -1.421875q-0.453125 -0.5 -1.21875 -0.5q-1.453125 0 -1.703125 1.84375q-0.078125 0.59375 -0.078125 1.609375q0 1.8125 0.4375 2.515625q0.4375 0.6875 1.375 0.6875zm12.505005 2.875q-2.765625 0 -4.46875 -1.640625q-1.703125 -1.640625 -1.703125 -4.28125l0 -0.296875q0 -1.84375 0.671875 -3.25q0.6875 -1.40625 1.984375 -2.171875q1.3125 -0.765625 3.109375 -0.765625q2.515625 0 3.96875 1.5625q1.46875 1.5625 1.46875 4.359375l0 1.453125l-7.40625 0q0.203125 1.0 0.875 1.578125q0.671875 0.578125 1.75 0.578125q1.765625 0 2.765625 -1.234375l1.703125 2.015625q-0.703125 0.953125 -1.984375 1.53125q-1.265625 0.5625 -2.734375 0.5625zm-0.421875 -9.53125q-1.640625 0 -1.953125 2.171875l3.765625 0l0 -0.296875q0.015625 -0.890625 -0.46875 -1.375q-0.46875 -0.5 -1.34375 -0.5z" fill-rule="nonzero"/><path fill="#ffffff" d="m323.21826 379.04764q-0.09375 2.171875 -1.171875 3.84375q-1.0625 1.671875 -3.015625 2.59375q-1.9375 0.90625 -4.421875 0.90625q-4.109375 0 -6.484375 -2.671875q-2.359375 -2.671875 -2.359375 -7.5625l0 -1.03125q0 -3.0625 1.0625 -5.359375q1.078125 -2.296875 3.078125 -3.546875q2.0 -1.265625 4.640625 -1.265625q3.796875 0 6.09375 2.0q2.3125 2.0 2.625 5.515625l-5.015625 0q-0.046875 -1.90625 -0.953125 -2.734375q-0.90625 -0.84375 -2.75 -0.84375q-1.875 0 -2.75 1.40625q-0.875 1.40625 -0.921875 4.484375l0 1.46875q0 3.34375 0.84375 4.78125q0.84375 1.421875 2.890625 1.421875q1.734375 0 2.640625 -0.8125q0.921875 -0.8125 0.984375 -2.59375l4.984375 0z" fill-rule="nonzero"/><path fill="#ffffff" d="m327.6211 384.54764q0.453125 0 0.703125 -0.25q0.265625 -0.25 0.265625 -0.703125l2.046875 0q0 1.15625 -0.828125 1.90625q-0.828125 0.734375 -2.140625 0.734375q-1.53125 0 -2.421875 -0.953125q-0.875 -0.96875 -0.875 -2.671875l0 -0.09375q0 -1.0625 0.390625 -1.875q0.390625 -0.828125 1.125 -1.265625q0.75 -0.4375 1.765625 -0.4375q1.375 0 2.171875 0.765625q0.8125 0.75 0.8125 2.0625l-2.046875 0q0 -0.546875 -0.28125 -0.84375q-0.265625 -0.296875 -0.703125 -0.296875q-0.859375 0 -1.0 1.09375q-0.046875 0.34375 -0.046875 0.953125q0 1.0625 0.25 1.46875q0.265625 0.40625 0.8125 0.40625zm8.143127 0.796875q-0.703125 0.890625 -1.890625 0.890625q-1.15625 0 -1.75 -0.671875q-0.59375 -0.671875 -0.59375 -1.9375l0 -4.5625l2.1875 0l0 4.578125q0 0.90625 0.890625 0.90625q0.75 0 1.0625 -0.546875l0 -4.9375l2.21875 0l0 7.046875l-2.0625 0l-0.0625 -0.765625zm7.5791016 -4.296875l-0.71875 -0.046875q-1.03125 0 -1.328125 0.65625l0 4.453125l-2.203125 0l0 -7.046875l2.0625 0l0.078125 0.90625q0.546875 -1.03125 1.53125 -1.03125q0.359375 0 0.609375 0.078125l-0.03125 2.03125z" fill-rule="nonzero"/><path fill="#e69138" d="m236.59055 783.1522l0 0c0 -46.38324 39.201538 -83.98425 87.55905 -83.98425l0 0c23.222107 0 45.493103 8.848328 61.913605 24.59845c16.420502 15.750061 25.645447 37.111816 25.645447 59.385803l0 0c0 46.38324 -39.201508 83.98425 -87.55905 83.98425l0 0c-48.357513 0 -87.55905 -37.601013 -87.55905 -83.98425z" fill-rule="evenodd"/><path fill="#ffffff" d="m292.2995 768.9529l-2.71875 0l0 7.359375l-5.03125 0l0 -20.84375l8.203125 0q3.703125 0 5.796875 1.640625q2.09375 1.640625 2.09375 4.65625q0 2.171875 -0.890625 3.609375q-0.875 1.421875 -2.75 2.3125l4.359375 8.40625l0 0.21875l-5.390625 0l-3.671875 -7.359375zm-2.71875 -3.875l3.171875 0q1.4375 0 2.15625 -0.75q0.71875 -0.765625 0.71875 -2.109375q0 -1.34375 -0.734375 -2.109375q-0.71875 -0.765625 -2.140625 -0.765625l-3.171875 0l0 5.734375zm21.366394 11.515625q-3.5625 0 -5.765625 -2.125q-2.203125 -2.125 -2.203125 -5.53125l0 -0.40625q0 -2.375 0.875 -4.1875q0.890625 -1.828125 2.578125 -2.8125q1.6875 -1.0 4.0 -1.0q3.265625 0 5.15625 2.03125q1.890625 2.015625 1.890625 5.640625l0 1.875l-9.59375 0q0.265625 1.3125 1.140625 2.0625q0.875 0.734375 2.25 0.734375q2.296875 0 3.59375 -1.609375l2.203125 2.609375q-0.90625 1.25 -2.5625 1.984375q-1.65625 0.734375 -3.5625 0.734375zm-0.53125 -12.34375q-2.125 0 -2.53125 2.8125l4.875 0l0 -0.375q0.03125 -1.15625 -0.59375 -1.796875q-0.609375 -0.640625 -1.75 -0.640625zm17.732819 12.0625q-0.25 -0.46875 -0.453125 -1.390625q-1.328125 1.671875 -3.7187195 1.671875q-2.203125 0 -3.734375 -1.3125q-1.53125 -1.328125 -1.53125 -3.34375q0 -2.515625 1.859375 -3.796875q1.875 -1.296875 5.421875 -1.296875l1.4843445 0l0 -0.8125q0 -2.140625 -1.8437195 -2.140625q-1.71875 0 -1.71875 1.703125l-4.828125 0q0 -2.25 1.90625 -3.65625q1.921875 -1.40625 4.875 -1.40625q2.9687195 0 4.6874695 1.453125q1.71875 1.4375 1.765625 3.953125l0 6.859375q0.03125 2.140625 0.65625 3.265625l0 0.25l-4.828125 0zm-3.0155945 -3.15625q0.90625 0 1.4999695 -0.375q0.59375 -0.390625 0.84375 -0.875l0 -2.484375l-1.4062195 0q-2.515625 0 -2.515625 2.265625q0 0.65625 0.4375 1.0625q0.453125 0.40625 1.140625 0.40625zm9.253723 -4.703125q0 -3.6875 1.578125 -5.796875q1.59375 -2.125 4.453125 -2.125q2.0625 0 3.484375 1.625l0 -7.84375l4.84375 0l0 22.0l-4.34375 0l-0.234375 -1.65625q-1.5 1.9375 -3.78125 1.9375q-2.765625 0 -4.390625 -2.109375q-1.609375 -2.125 -1.609375 -6.03125zm4.828125 0.296875q0 4.125 2.390625 4.125q1.609375 0 2.296875 -1.34375l0 -5.90625q-0.65625 -1.375 -2.265625 -1.375q-2.234375 0 -2.421875 3.609375l0 0.890625zm18.46582 0.796875l2.578125 -8.734375l5.171875 0l-6.3125 18.09375l-0.28125 0.65625q-1.34375 3.015625 -4.75 3.015625q-0.953125 0 -1.984375 -0.296875l0 -3.453125l0.625 0q1.015625 0 1.546875 -0.296875q0.546875 -0.28125 0.796875 -1.046875l0.390625 -1.03125l-5.390625 -15.640625l5.15625 0l2.453125 8.734375z" fill-rule="nonzero"/><path fill="#ffffff" d="m323.21826 804.24976q-0.09375 2.171875 -1.171875 3.84375q-1.0625 1.671875 -3.015625 2.59375q-1.9375 0.90625 -4.421875 0.90625q-4.109375 0 -6.484375 -2.671875q-2.359375 -2.671875 -2.359375 -7.5625l0 -1.03125q0 -3.0625 1.0625 -5.359375q1.078125 -2.296875 3.078125 -3.546875q2.0 -1.265625 4.640625 -1.265625q3.796875 0 6.09375 2.0q2.3125 2.0 2.625 5.515625l-5.015625 0q-0.046875 -1.90625 -0.953125 -2.734375q-0.90625 -0.84375 -2.75 -0.84375q-1.875 0 -2.75 1.40625q-0.875 1.40625 -0.921875 4.484375l0 1.46875q0 3.34375 0.84375 4.78125q0.84375 1.421875 2.890625 1.421875q1.734375 0 2.640625 -0.8125q0.921875 -0.8125 0.984375 -2.59375l4.984375 0z" fill-rule="nonzero"/><path fill="#ffffff" d="m327.6211 809.74976q0.453125 0 0.703125 -0.25q0.265625 -0.25 0.265625 -0.703125l2.046875 0q0 1.15625 -0.828125 1.90625q-0.828125 0.734375 -2.140625 0.734375q-1.53125 0 -2.421875 -0.953125q-0.875 -0.96875 -0.875 -2.671875l0 -0.09375q0 -1.0625 0.390625 -1.875q0.390625 -0.828125 1.125 -1.265625q0.75 -0.4375 1.765625 -0.4375q1.375 0 2.171875 0.765625q0.8125 0.75 0.8125 2.0625l-2.046875 0q0 -0.546875 -0.28125 -0.84375q-0.265625 -0.296875 -0.703125 -0.296875q-0.859375 0 -1.0 1.09375q-0.046875 0.34375 -0.046875 0.953125q0 1.0625 0.25 1.46875q0.265625 0.40625 0.8125 0.40625zm8.143127 0.796875q-0.703125 0.890625 -1.890625 0.890625q-1.15625 0 -1.75 -0.671875q-0.59375 -0.671875 -0.59375 -1.9375l0 -4.5625l2.1875 0l0 4.578125q0 0.90625 0.890625 0.90625q0.75 0 1.0625 -0.546875l0 -4.9375l2.21875 0l0 7.046875l-2.0625 0l-0.0625 -0.765625zm7.5791016 -4.296875l-0.71875 -0.046875q-1.03125 0 -1.328125 0.65625l0 4.453125l-2.203125 0l0 -7.046875l2.0625 0l0.078125 0.90625q0.546875 -1.03125 1.53125 -1.03125q0.359375 0 0.609375 0.078125l-0.03125 2.03125z" fill-rule="nonzero"/><path fill="#000000" fill-opacity="0.0" d="m262.236 421.33597c0 24.79892 -27.847885 58.081543 -55.698044 49.59784c-27.850143 -8.483673 -55.70256 -58.733673 -55.69806 -108.98367c0.004501343 -50.25 27.865906 -100.5 55.729553 -108.98367c27.863647 -8.483688 55.72957 24.79892 55.72957 49.59784" fill-rule="evenodd"/><path stroke="#674ea7" stroke-width="4.0" stroke-linejoin="round" stroke-linecap="butt" d="m262.236 421.33597c0 24.79892 -27.847885 58.081573 -55.698044 49.59784c-27.850143 -8.483673 -55.70256 -58.733673 -55.69806 -108.98367c0.004501343 -50.24997 27.865906 -100.49997 55.72957 -108.98369c13.931808 -4.2418365 27.864182 1.9578857 38.313614 12.317947c2.612381 2.5900269 5.0070343 5.4400635 7.129593 8.451965c1.0612793 1.5059509 2.054535 3.0523682 2.9729614 4.627014c0.11479187 0.19683838 0.22842407 0.394104 0.34088135 0.5917969l0.31025696 0.55236816" fill-rule="evenodd"/><path fill="#674ea7" stroke="#674ea7" stroke-width="4.0" stroke-linecap="butt" d="m249.28949 281.34158l11.38623 15.604919l1.3083191 -19.27301z" fill-rule="evenodd"/><path fill="#000000" fill-opacity="0.0" d="m827.16534 499.6824c0 49.871063 -125.75592 74.80502 -251.51178 99.742035c-125.75592 24.937012 -251.51184 49.877014 -251.51184 99.75403" fill-rule="evenodd"/><path stroke="#674ea7" stroke-width="4.0" stroke-linejoin="round" stroke-linecap="butt" d="m827.16534 499.6824c0 49.871063 -125.75592 74.80502 -251.51178 99.742035c-62.87799 12.468506 -125.75592 24.937744 -172.9144 40.524536c-23.579224 7.793335 -43.228577 16.366089 -56.983124 26.10785c-3.4386597 2.4354248 -6.5088806 4.9439087 -9.179962 7.531555c-0.6677551 0.6469116 -1.3105774 1.2987671 -1.9279785 1.9556885c-0.3086853 0.32843018 -0.61105347 0.6581421 -0.9069824 0.98913574l-0.4163208 0.47161865" fill-rule="evenodd"/><path fill="#674ea7" stroke="#674ea7" stroke-width="4.0" stroke-linecap="butt" d="m327.22064 674.4768l-0.8414612 19.299072l13.049805 -14.243042z" fill-rule="evenodd"/><path fill="#6aa84f" d="m235.06299 100.603676l0 0c0 -46.383224 39.201538 -83.98425 87.55905 -83.98425l0 0c23.222107 0 45.493103 8.848314 61.913605 24.59842c16.420502 15.750099 25.645447 37.111824 25.645447 59.385834l0 0c0 46.383217 -39.201508 83.984245 -87.55905 83.984245l0 0c-48.357513 0 -87.55905 -37.60103 -87.55905 -83.984245z" fill-rule="evenodd"/><path fill="#ffffff" d="m291.95422 111.26368l-5.015625 0l0 -20.84375l5.015625 0l0 20.84375zm7.6937256 -15.5l0.15625 1.828125q1.609375 -2.109375 4.4375 -2.109375q2.40625 0 3.59375 1.453125q1.203125 1.4375 1.25 4.34375l0 9.984375l-4.84375 0l0 -9.78125q0 -1.171875 -0.46875 -1.71875q-0.46875 -0.5625 -1.71875 -0.5625q-1.40625 0 -2.09375 1.125l0 10.9375l-4.828125 0l0 -15.5l4.515625 0zm17.19629 15.5l-4.828125 0l0 -15.5l4.828125 0l0 15.5zm-5.125 -19.484375q0 -1.03125 0.75 -1.6875q0.75 -0.671875 1.9375 -0.671875q1.1875 0 1.921875 0.671875q0.75 0.65625 0.75 1.6875q0 1.03125 -0.75 1.6875q-0.734375 0.65625 -1.921875 0.65625q-1.1875 0 -1.9375 -0.65625q-0.75 -0.65625 -0.75 -1.6875zm13.718628 0.140625l0 3.84375l2.546875 0l0 3.359375l-2.546875 0l0 7.078125q0 0.875 0.3125 1.21875q0.328125 0.34375 1.25 0.34375q0.71875 0 1.203125 -0.078125l0 3.453125q-1.296875 0.40625 -2.71875 0.40625q-2.484375 0 -3.6875 -1.171875q-1.1875 -1.171875 -1.1875 -3.5625l0 -7.6875l-1.96875 0l0 -3.359375l1.96875 0l0 -3.84375l4.828125 0zm9.53598 19.34375l-4.828125 0l0 -15.5l4.828125 0l0 15.5zm-5.125 -19.484375q0 -1.03125 0.75 -1.6875q0.75 -0.671875 1.9375 -0.671875q1.1875 0 1.921875 0.671875q0.75 0.65625 0.75 1.6875q0 1.03125 -0.75 1.6875q-0.734375 0.65625 -1.921875 0.65625q-1.1875 0 -1.9375 -0.65625q-0.75 -0.65625 -0.75 -1.6875zm16.828003 19.484375q-0.25 -0.46875 -0.453125 -1.390625q-1.328125 1.671875 -3.71875 1.671875q-2.203125 0 -3.734375 -1.3125q-1.53125 -1.328125 -1.53125 -3.34375q0 -2.515625 1.859375 -3.796875q1.875 -1.296875 5.421875 -1.296875l1.484375 0l0 -0.8125q0 -2.140625 -1.84375 -2.140625q-1.71875 0 -1.71875 1.703125l-4.828125 0q0 -2.25 1.90625 -3.65625q1.921875 -1.40625 4.875 -1.40625q2.96875 0 4.6875 1.453125q1.71875 1.4375 1.765625 3.953125l0 6.859375q0.03125 2.140625 0.65625 3.265625l0 0.25l-4.828125 0zm-3.015625 -3.15625q0.90625 0 1.5 -0.375q0.59375 -0.390625 0.84375 -0.875l0 -2.484375l-1.40625 0q-2.515625 0 -2.515625 2.265625q0 0.65625 0.4375 1.0625q0.453125 0.40625 1.140625 0.40625zm14.941254 3.15625l-4.828125 0l0 -22.0l4.828125 0l0 22.0z" fill-rule="nonzero"/><path fill="#000000" fill-opacity="0.0" d="m322.62204 184.58792c0 23.34459 0.38583374 35.01596 0.7716675 46.68918c0.38583374 11.673233 0.77163696 23.348328 0.77163696 46.696655" fill-rule="evenodd"/><path stroke="#6aa84f" stroke-width="4.0" stroke-linejoin="round" stroke-linecap="butt" d="m322.62204 184.58792c0 23.34459 0.38583374 35.01596 0.7716675 46.689194c0.19290161 5.836609 0.38583374 11.673691 0.5305176 18.970154c0.018066406 0.9120636 0.03540039 1.8469086 0.051879883 2.807434l0.014556885 0.919693" fill-rule="evenodd"/><path fill="#6aa84f" stroke="#6aa84f" stroke-width="4.0" stroke-linecap="butt" d="m317.3839 254.02248l6.7388916 18.103836l6.4746094 -18.200012z" fill-rule="evenodd"/><path fill="#000000" fill-opacity="0.0" d="m827.16534 645.4199c0 -49.871094 -110.27557 -71.73041 -220.55115 -99.74219c-110.275604 -28.01184 -220.55121 -62.176147 -220.55121 -124.352264" fill-rule="evenodd"/><path stroke="#e69138" stroke-width="4.0" stroke-linejoin="round" stroke-linecap="butt" d="m827.16534 645.4199c0 -49.871094 -110.27557 -71.73035 -220.55115 -99.74219c-55.137817 -14.00592 -110.275604 -29.549927 -151.62897 -49.364502c-20.676666 -9.907318 -37.907227 -20.882202 -49.968628 -33.266327c-3.0153198 -3.0960388 -5.7076416 -6.280121 -8.049896 -9.557648c-1.1711426 -1.6387329 -2.2547607 -3.3008423 -3.2475586 -4.9869995c-0.4963684 -0.8430481 -0.97006226 -1.6921387 -1.4205933 -2.5473022c-0.11264038 -0.21377563 -0.22384644 -0.42791748 -0.33358765 -0.6424866l-0.3244629 -0.6441345" fill-rule="evenodd"/><path fill="#e69138" stroke="#e69138" stroke-width="4.0" stroke-linecap="butt" d="m398.06656 443.13293l-10.644592 -16.119965l-2.207489 19.190826z" fill-rule="evenodd"/><path fill="#000000" fill-opacity="0.0" d="m411.70865 783.1522c28.124298 0 42.185608 0.01574707 56.248596 0.03149414c14.062988 0.01574707 28.127686 0.03149414 56.25534 0.03149414" fill-rule="evenodd"/><path stroke="#e69138" stroke-width="4.0" stroke-linejoin="round" stroke-linecap="butt" d="m411.70865 783.1522c28.124329 0 42.18564 0.01574707 56.248627 0.03149414c7.031494 0.007873535 14.063385 0.01574707 22.853424 0.02166748l9.401886 0.0045776367" fill-rule="evenodd"/><path fill="#e69138" stroke="#e69138" stroke-width="4.0" stroke-linecap="butt" d="m500.21115 789.8169l18.15384 -6.6029663l-18.15094 -6.610901z" fill-rule="evenodd"/><path fill="#000000" fill-opacity="0.0" d="m39.328083 341.2021l124.598434 0l0 51.716553l-124.598434 0z" fill-rule="evenodd"/><path fill="#000000" d="m81.37744 367.77084l-7.1875 0l0 4.515625l8.484375 0l0 3.515625l-13.046875 0l0 -18.953125l13.078125 0l0 3.53125l-8.515625 0l0 4.0l7.1875 0l0 3.390625zm8.233749 2.8125l2.234375 -8.859375l4.609375 0l-4.59375 14.078125l-4.46875 0l-4.59375 -14.078125l4.625 0l2.1875 8.859375zm14.804527 5.484375q-3.2500076 0 -5.2500076 -1.9375q-2.0 -1.9375 -2.0 -5.03125l0 -0.359375q0 -2.171875 0.796875 -3.8125q0.796875 -1.65625 2.328125 -2.5625q1.546875 -0.90625 3.6562576 -0.90625q2.96875 0 4.6875 1.84375q1.71875 1.84375 1.71875 5.140625l0 1.703125l-8.718758 0q0.234375 1.171875 1.015625 1.859375q0.7968826 0.671875 2.0625076 0.671875q2.078125 0 3.25 -1.453125l2.0 2.359375q-0.8125 1.140625 -2.3125 1.8125q-1.5 0.671875 -3.234375 0.671875zm-0.5 -11.21875q-1.9218826 0 -2.2812576 2.546875l4.4218826 0l0 -0.34375q0.015625 -1.046875 -0.546875 -1.625q-0.546875 -0.578125 -1.59375 -0.578125zm12.231308 -3.125l0.140625 1.640625q1.453125 -1.90625 4.015625 -1.90625q2.203125 0 3.28125 1.3125q1.09375 1.3125 1.125 3.953125l0 9.078125l-4.390625 0l0 -8.890625q0 -1.0625 -0.4375 -1.5625q-0.421875 -0.5 -1.5625 -0.5q-1.28125 0 -1.90625 1.015625l0 9.9375l-4.390625 0l0 -14.078125l4.125 0zm16.111305 -3.5l0 3.5l2.3125 0l0 3.046875l-2.3125 0l0 6.4375q0 0.796875 0.28125 1.109375q0.28125 0.3125 1.125 0.3125q0.65625 0 1.09375 -0.078125l0 3.140625q-1.171875 0.375 -2.46875 0.375q-2.265625 0 -3.34375 -1.0625q-1.0781174 -1.078125 -1.0781174 -3.25l0 -6.984375l-1.796875 0l0 -3.046875l1.796875 0l0 -3.5l4.3906174 0z" fill-rule="nonzero"/><path fill="#e69138" d="m524.2047 783.1522l302.96063 -137.7323l302.96063 137.7323l-302.96063 137.7323z" fill-rule="evenodd"/><path fill="#ffffff" d="m729.37134 727.3304q-0.09375 1.984375 -1.078125 3.5q-0.96875 1.515625 -2.734375 2.359375q-1.765625 0.828125 -4.03125 0.828125q-3.734375 0 -5.890625 -2.4375q-2.140625 -2.4375 -2.140625 -6.875l0 -0.9375q0 -2.78125 0.96875 -4.875q0.984375 -2.09375 2.796875 -3.21875q1.828125 -1.140625 4.21875 -1.140625q3.453125 0 5.546875 1.8125q2.09375 1.8125 2.375 5.0l-4.546875 0q-0.046875 -1.734375 -0.875 -2.484375q-0.8125 -0.75 -2.5 -0.75q-1.703125 0 -2.5 1.28125q-0.796875 1.265625 -0.828125 4.0625l0 1.34375q0 3.03125 0.75 4.34375q0.765625 1.296875 2.625 1.296875q1.578125 0 2.40625 -0.734375q0.84375 -0.75 0.890625 -2.375l4.546875 0z" fill-rule="nonzero"/><path fill="#ffffff" d="m732.7239 726.7054l0.078125 0.828125q0.71875 -0.953125 2.015625 -0.953125q1.09375 0 1.625 0.65625q0.546875 0.65625 0.578125 1.984375l0 4.53125l-2.203125 0l0 -4.4375q0 -0.546875 -0.21875 -0.796875q-0.21875 -0.25 -0.78125 -0.25q-0.640625 0 -0.953125 0.515625l0 4.96875l-2.1875 0l0 -7.046875l2.046875 0zm8.907227 7.171875q-1.609375 0 -2.625 -0.953125q-1.0 -0.96875 -1.0 -2.515625l0 -0.1875q0 -1.078125 0.40625 -1.90625q0.40625 -0.828125 1.171875 -1.28125q0.765625 -0.453125 1.8125 -0.453125q1.484375 0 2.34375 0.921875q0.859375 0.921875 0.859375 2.5625l0 0.859375l-4.359375 0q0.125 0.59375 0.515625 0.9375q0.40625 0.328125 1.03125 0.328125q1.046875 0 1.625 -0.734375l1.0 1.1875q-0.40625 0.5625 -1.15625 0.90625q-0.75 0.328125 -1.625 0.328125zm-0.234375 -5.609375q-0.96875 0 -1.15625 1.28125l2.21875 0l0 -0.171875q0.015625 -0.53125 -0.265625 -0.8125q-0.28125 -0.296875 -0.796875 -0.296875zm6.9437866 0.375l1.015625 -1.9375l2.28125 0l-1.859375 3.4375l1.953125 3.609375l-2.296875 0l-1.09375 -2.078125l-1.09375 2.078125l-2.296875 0l1.953125 -3.609375l-1.859375 -3.4375l2.3125 0l0.984375 1.9375zm6.562378 -3.6875l0 1.75l1.15625 0l0 1.53125l-1.15625 0l0 3.21875q0 0.390625 0.140625 0.546875q0.140625 0.15625 0.5625 0.15625q0.328125 0 0.546875 -0.03125l0 1.5625q-0.59375 0.1875 -1.234375 0.1875q-1.125 0 -1.671875 -0.53125q-0.546875 -0.53125 -0.546875 -1.625l0 -3.484375l-0.890625 0l0 -1.53125l0.890625 0l0 -1.75l2.203125 0z" fill-rule="nonzero"/><path fill="#ffffff" d="m768.80347 733.75226l-4.40625 0l0 -14.078125l4.40625 0l0 14.078125zm-4.65625 -17.71875q0 -0.9375 0.671875 -1.53125q0.671875 -0.59375 1.75 -0.59375q1.09375 0 1.765625 0.59375q0.671875 0.59375 0.671875 1.53125q0 0.9375 -0.671875 1.546875q-0.671875 0.59375 -1.765625 0.59375q-1.078125 0 -1.75 -0.59375q-0.671875 -0.609375 -0.671875 -1.546875zm11.390381 3.640625l0.140625 1.640625q1.453125 -1.90625 4.015625 -1.90625q2.203125 0 3.28125 1.3125q1.09375 1.3125 1.125 3.953125l0 9.078125l-4.390625 0l0 -8.890625q0 -1.0625 -0.4375 -1.5625q-0.421875 -0.5 -1.5625 -0.5q-1.28125 0 -1.90625 1.015625l0 9.9375l-4.390625 0l0 -14.078125l4.125 0zm23.749329 -4.921875l-1.53125 0l0 20.359375l1.53125 0l0 3.1875l-5.9375 0l0 -26.75l5.9375 0l0 3.203125zm11.369507 13.96875q0 -1.015625 -0.71875 -1.5625q-0.703125 -0.5625 -2.484375 -1.15625q-1.78125 -0.609375 -2.90625 -1.171875q-3.6875 -1.796875 -3.6875 -4.96875q0 -1.578125 0.90625 -2.78125q0.921875 -1.203125 2.59375 -1.875q1.6875 -0.671875 3.78125 -0.671875q2.046875 0 3.671875 0.734375q1.625 0.734375 2.515625 2.078125q0.90625 1.34375 0.90625 3.078125l-4.5625 0q0 -1.15625 -0.71875 -1.796875q-0.703125 -0.640625 -1.90625 -0.640625q-1.234375 0 -1.9375 0.546875q-0.703125 0.53125 -0.703125 1.375q0 0.71875 0.78125 1.3125q0.78125 0.59375 2.734375 1.234375q1.96875 0.625 3.234375 1.359375q3.078125 1.765625 3.078125 4.875q0 2.484375 -1.875 3.90625q-1.875 1.421875 -5.140625 1.421875q-2.3125 0 -4.1875 -0.828125q-1.859375 -0.828125 -2.8125 -2.265625q-0.9375 -1.4375 -0.9375 -3.3125l4.59375 0q0 1.515625 0.78125 2.25q0.78125 0.71875 2.5625 0.71875q1.125 0 1.78125 -0.484375q0.65625 -0.5 0.65625 -1.375zm21.795532 -10.390625l-5.6875 0l0 15.421875l-4.578125 0l0 -15.421875l-5.578125 0l0 -3.53125l15.84375 0l0 3.53125zm17.610657 6.34375q0 2.765625 -1.03125 4.90625q-1.03125 2.125 -2.921875 3.28125q-1.890625 1.15625 -4.3125 1.15625q-2.421875 0 -4.296875 -1.109375q-1.875 -1.125 -2.921875 -3.1875q-1.046875 -2.078125 -1.109375 -4.75l0 -1.078125q0 -2.78125 1.015625 -4.90625q1.03125 -2.125 2.9375 -3.28125q1.90625 -1.171875 4.34375 -1.171875q2.40625 0 4.296875 1.15625q1.890625 1.140625 2.9375 3.265625q1.046875 2.109375 1.0625 4.84375l0 0.875zm-4.65625 -0.796875q0 -2.828125 -0.9375 -4.28125q-0.9375 -1.46875 -2.703125 -1.46875q-3.4375 0 -3.625 5.140625l-0.015625 1.40625q0 2.78125 0.921875 4.28125q0.921875 1.484375 2.75 1.484375q1.734375 0 2.671875 -1.46875q0.9375 -1.46875 0.9375 -4.21875l0 -0.875zm11.576111 3.4375l0 6.4375l-4.5625 0l0 -18.953125l7.5625 0q2.171875 0 3.84375 0.8125q1.671875 0.796875 2.578125 2.28125q0.921875 1.46875 0.921875 3.34375q0 2.765625 -1.984375 4.421875q-1.984375 1.65625 -5.4375 1.65625l-2.921875 0zm0 -3.515625l3.0 0q1.328125 0 2.015625 -0.65625q0.703125 -0.671875 0.703125 -1.890625q0 -1.328125 -0.71875 -2.109375q-0.71875 -0.796875 -1.953125 -0.8125l-3.046875 0l0 5.46875zm8.855225 15.0625l-2.203125 -1.046875l0.4375 -0.890625q0.90625 -1.6875 0.953125 -3.21875l0 -3.265625l3.515625 0l-0.015625 2.828125q-0.015625 1.5 -0.765625 3.046875q-0.75 1.546875 -1.921875 2.546875zm17.057068 -8.625l7.953125 0l0 3.515625l-12.515625 0l0 -18.953125l4.5625 0l0 15.4375zm21.63501 -4.515625l-7.1875 0l0 4.515625l8.484375 0l0 3.515625l-13.046875 0l0 -18.953125l13.078125 0l0 3.53125l-8.515625 0l0 4.0l7.1875 0l0 3.390625zm15.087891 0.484375l-7.359375 0l0 7.546875l-4.5625 0l0 -18.953125l12.671875 0l0 3.53125l-8.109375 0l0 4.359375l7.359375 0l0 3.515625zm17.791199 -7.875l-5.6875 0l0 15.421875l-4.578125 0l0 -15.421875l-5.578125 0l0 -3.53125l15.84375 0l0 3.53125zm-0.10290527 20.53125l-2.203125 -1.046875l0.4375 -0.890625q0.90625 -1.6875 0.953125 -3.21875l0 -3.265625l3.515625 0l-0.015625 2.828125q-0.015625 1.5 -0.765625 3.046875q-0.75 1.546875 -1.921875 2.546875z" fill-rule="nonzero"/><path fill="#ffffff" d="m743.57446 759.06476l-2.46875 0l0 6.6875l-4.5625 0l0 -18.953125l7.453125 0q3.375 0 5.265625 1.5q1.90625 1.5 1.90625 4.234375q0 1.96875 -0.8125 3.28125q-0.796875 1.296875 -2.5 2.109375l3.96875 7.640625l0 0.1875l-4.90625 0l-3.34375 -6.6875zm-2.46875 -3.53125l2.890625 0q1.296875 0 1.953125 -0.671875q0.65625 -0.6875 0.65625 -1.90625q0 -1.234375 -0.671875 -1.921875q-0.65625 -0.703125 -1.9375 -0.703125l-2.890625 0l0 5.203125zm17.685913 10.21875l-4.546875 0l0 -18.953125l4.546875 0l0 18.953125zm18.699951 -2.34375q-1.0625 1.171875 -3.09375 1.890625q-2.03125 0.71875 -4.453125 0.71875q-3.71875 0 -5.953125 -2.28125q-2.21875 -2.28125 -2.375 -6.34375l-0.015625 -1.640625q0 -2.796875 0.984375 -4.875q1.0 -2.09375 2.84375 -3.21875q1.84375 -1.125 4.265625 -1.125q3.53125 0 5.484375 1.625q1.96875 1.609375 2.296875 4.828125l-4.40625 0q-0.234375 -1.59375 -1.015625 -2.265625q-0.78125 -0.671875 -2.203125 -0.671875q-1.71875 0 -2.65625 1.453125q-0.9375 1.453125 -0.953125 4.15625l0 1.15625q0 2.828125 0.96875 4.265625q0.96875 1.421875 3.046875 1.421875q1.78125 0 2.65625 -0.796875l0 -2.9375l-3.171875 0l0 -3.140625l7.75 0l0 7.78125zm18.482483 2.34375l-4.53125 0l0 -7.90625l-6.734375 0l0 7.90625l-4.5625 0l0 -18.953125l4.5625 0l0 7.53125l6.734375 0l0 -7.53125l4.53125 0l0 18.953125zm17.398926 -15.421875l-5.6875 0l0 15.421875l-4.578125 0l0 -15.421875l-5.578125 0l0 -3.53125l15.84375 0l0 3.53125zm-0.10290527 20.53125l-2.203125 -1.046875l0.4375 -0.890625q0.90625 -1.6875 0.953125 -3.21875l0 -3.265625l3.515625 0l-0.015625 2.828125q-0.015625 1.5 -0.765625 3.046875q-0.75 1.546875 -1.921875 2.546875zm28.010254 -7.453125q-1.0625 1.171875 -3.09375 1.890625q-2.03125 0.71875 -4.453125 0.71875q-3.71875 0 -5.953125 -2.28125q-2.21875 -2.28125 -2.375 -6.34375l-0.015625 -1.640625q0 -2.796875 0.984375 -4.875q1.0 -2.09375 2.84375 -3.21875q1.84375 -1.125 4.265625 -1.125q3.53125 0 5.484375 1.625q1.96875 1.609375 2.296875 4.828125l-4.40625 0q-0.234375 -1.59375 -1.015625 -2.265625q-0.78125 -0.671875 -2.203125 -0.671875q-1.71875 0 -2.65625 1.453125q-0.9375 1.453125 -0.953125 4.15625l0 1.15625q0 2.828125 0.96875 4.265625q0.96875 1.421875 3.046875 1.421875q1.78125 0 2.65625 -0.796875l0 -2.9375l-3.171875 0l0 -3.140625l7.75 0l0 7.78125zm18.701233 -6.734375q0 2.765625 -1.03125 4.90625q-1.03125 2.125 -2.921875 3.28125q-1.890625 1.15625 -4.3125 1.15625q-2.421875 0 -4.296875 -1.109375q-1.875 -1.125 -2.921875 -3.1875q-1.046875 -2.078125 -1.109375 -4.75l0 -1.078125q0 -2.78125 1.015625 -4.90625q1.03125 -2.125 2.9375 -3.28125q1.90625 -1.171875 4.34375 -1.171875q2.40625 0 4.296875 1.15625q1.890625 1.140625 2.9375 3.265625q1.046875 2.109375 1.0625 4.84375l0 0.875zm-4.65625 -0.796875q0 -2.828125 -0.9375 -4.28125q-0.9375 -1.46875 -2.703125 -1.46875q-3.4375 0 -3.625 5.140625l-0.015625 1.40625q0 2.78125 0.921875 4.28125q0.921875 1.484375 2.75 1.484375q1.734375 0 2.671875 -1.46875q0.9375 -1.46875 0.9375 -4.21875l0 -0.875zm5.763611 -12.328125l5.9375 0l0 26.75l-5.9375 0l0 -3.1875l1.546875 0l0 -20.359375l-1.546875 0l0 -3.203125zm23.116882 22.203125q-0.234375 -0.421875 -0.40625 -1.265625q-1.21875 1.53125 -3.390625 1.53125q-1.984375 0 -3.390625 -1.203125q-1.390625 -1.203125 -1.390625 -3.03125q0 -2.296875 1.6875 -3.46875q1.703125 -1.171875 4.9375 -1.171875l1.34375 0l0 -0.734375q0 -1.9375 -1.671875 -1.9375q-1.5625 0 -1.5625 1.53125l-4.390625 0q0 -2.046875 1.734375 -3.3125q1.75 -1.28125 4.4375 -1.28125q2.6875 0 4.25 1.3125q1.5625 1.3125 1.609375 3.609375l0 6.234375q0.03125 1.9375 0.59375 2.96875l0 0.21875l-4.390625 0zm-2.734375 -2.859375q0.8125 0 1.34375 -0.34375q0.546875 -0.359375 0.78125 -0.8125l0 -2.25l-1.265625 0q-2.296875 0 -2.296875 2.0625q0 0.59375 0.40625 0.96875q0.40625 0.375 1.03125 0.375zm12.991882 -11.21875l0.140625 1.640625q1.453125 -1.90625 4.015625 -1.90625q2.203125 0 3.28125 1.3125q1.09375 1.3125 1.125 3.953125l0 9.078125l-4.390625 0l0 -8.890625q0 -1.0625 -0.4375 -1.5625q-0.421875 -0.5 -1.5625 -0.5q-1.28125 0 -1.90625 1.015625l0 9.9375l-4.390625 0l0 -14.078125l4.125 0zm10.439392 6.9375q0 -3.34375 1.4375 -5.265625q1.453125 -1.9375 4.046875 -1.9375q1.890625 0 3.171875 1.484375l0 -7.140625l4.40625 0l0 20.0l-3.953125 0l-0.21875 -1.515625q-1.34375 1.78125 -3.4375 1.78125q-2.5 0 -3.984375 -1.921875q-1.46875 -1.9375 -1.46875 -5.484375zm4.390625 0.265625q0 3.75 2.1875 3.75q1.453125 0 2.078125 -1.21875l0 -5.359375q-0.59375 -1.25 -2.046875 -1.25q-2.03125 0 -2.203125 3.28125l-0.015625 0.796875z" fill-rule="nonzero"/><path fill="#ffffff" d="m761.7235 791.3304q-0.09375 1.984375 -1.078125 3.5q-0.96875 1.515625 -2.734375 2.359375q-1.765625 0.828125 -4.03125 0.828125q-3.734375 0 -5.890625 -2.4375q-2.140625 -2.4375 -2.140625 -6.875l0 -0.9375q0 -2.78125 0.96875 -4.875q0.984375 -2.09375 2.796875 -3.21875q1.828125 -1.140625 4.21875 -1.140625q3.453125 0 5.546875 1.8125q2.09375 1.8125 2.375 5.0l-4.546875 0q-0.046875 -1.734375 -0.875 -2.484375q-0.8125 -0.75 -2.5 -0.75q-1.703125 0 -2.5 1.28125q-0.796875 1.265625 -0.828125 4.0625l0 1.34375q0 3.03125 0.75 4.34375q0.765625 1.296875 2.625 1.296875q1.578125 0 2.40625 -0.734375q0.84375 -0.75 0.890625 -2.375l4.546875 0z" fill-rule="nonzero"/><path fill="#ffffff" d="m765.07605 790.7054l0.078125 0.828125q0.71875 -0.953125 2.015625 -0.953125q1.09375 0 1.625 0.65625q0.546875 0.65625 0.578125 1.984375l0 4.53125l-2.203125 0l0 -4.4375q0 -0.546875 -0.21875 -0.796875q-0.21875 -0.25 -0.78125 -0.25q-0.640625 0 -0.953125 0.515625l0 4.96875l-2.1875 0l0 -7.046875l2.046875 0zm8.907227 7.171875q-1.609375 0 -2.625 -0.953125q-1.0 -0.96875 -1.0 -2.515625l0 -0.1875q0 -1.078125 0.40625 -1.90625q0.40625 -0.828125 1.171875 -1.28125q0.765625 -0.453125 1.8125 -0.453125q1.484375 0 2.34375 0.921875q0.859375 0.921875 0.859375 2.5625l0 0.859375l-4.359375 0q0.125 0.59375 0.515625 0.9375q0.40625 0.328125 1.03125 0.328125q1.046875 0 1.625 -0.734375l1.0 1.1875q-0.40625 0.5625 -1.15625 0.90625q-0.75 0.328125 -1.625 0.328125zm-0.234375 -5.609375q-0.96875 0 -1.15625 1.28125l2.21875 0l0 -0.171875q0.015625 -0.53125 -0.265625 -0.8125q-0.28125 -0.296875 -0.796875 -0.296875zm6.9437866 0.375l1.015625 -1.9375l2.28125 0l-1.859375 3.4375l1.953125 3.609375l-2.296875 0l-1.09375 -2.078125l-1.09375 2.078125l-2.296875 0l1.953125 -3.609375l-1.859375 -3.4375l2.3125 0l0.984375 1.9375zm6.562439 -3.6875l0 1.75l1.15625 0l0 1.53125l-1.15625 0l0 3.21875q0 0.390625 0.140625 0.546875q0.140625 0.15625 0.5625 0.15625q0.328125 0 0.546875 -0.03125l0 1.5625q-0.59375 0.1875 -1.234375 0.1875q-1.125 0 -1.671875 -0.53125q-0.546875 -0.53125 -0.546875 -1.625l0 -3.484375l-0.890625 0l0 -1.53125l0.890625 0l0 -1.75l2.203125 0z" fill-rule="nonzero"/><path fill="#ffffff" d="m800.87445 791.75226l-3.546875 0l-0.5625 -12.953125l4.671875 0l-0.5625 12.953125zm-4.234375 4.03125q0 -0.953125 0.6875 -1.578125q0.703125 -0.625 1.734375 -0.625q1.046875 0 1.734375 0.625q0.703125 0.625 0.703125 1.59375q0 0.953125 -0.703125 1.578125q-0.6875 0.609375 -1.734375 0.609375q-1.03125 0 -1.734375 -0.609375q-0.6875 -0.625 -0.6875 -1.59375zm19.728882 -7.421875l-12.046875 0l0 -3.390625l12.046875 0l0 3.390625zm0 5.703125l-12.046875 0l0 -3.375l12.046875 0l0 3.375zm25.290771 -2.734375q-0.09375 1.984375 -1.078125 3.5q-0.96875 1.515625 -2.734375 2.359375q-1.765625 0.828125 -4.03125 0.828125q-3.734375 0 -5.890625 -2.4375q-2.140625 -2.4375 -2.140625 -6.875l0 -0.9375q0 -2.78125 0.96875 -4.875q0.984375 -2.09375 2.796875 -3.21875q1.828125 -1.140625 4.21875 -1.140625q3.453125 0 5.546875 1.8125q2.09375 1.8125 2.375 5.0l-4.546875 0q-0.046875 -1.734375 -0.875 -2.484375q-0.8125 -0.75 -2.5 -0.75q-1.703125 0 -2.5 1.28125q-0.796875 1.265625 -0.828125 4.0625l0 1.34375q0 3.03125 0.75 4.34375q0.765625 1.296875 2.625 1.296875q1.578125 0 2.40625 -0.734375q0.84375 -0.75 0.890625 -2.375l4.546875 0z" fill-rule="nonzero"/><path fill="#ffffff" d="m845.981 796.18976q0.453125 0 0.703125 -0.25q0.265625 -0.25 0.265625 -0.703125l2.046875 0q0 1.15625 -0.828125 1.90625q-0.828125 0.734375 -2.140625 0.734375q-1.53125 0 -2.421875 -0.953125q-0.875 -0.96875 -0.875 -2.671875l0 -0.09375q0 -1.0625 0.390625 -1.875q0.390625 -0.828125 1.125 -1.265625q0.75 -0.4375 1.765625 -0.4375q1.375 0 2.171875 0.765625q0.8125 0.75 0.8125 2.0625l-2.046875 0q0 -0.546875 -0.28125 -0.84375q-0.265625 -0.296875 -0.703125 -0.296875q-0.859375 0 -1.0 1.09375q-0.046875 0.34375 -0.046875 0.953125q0 1.0625 0.25 1.46875q0.265625 0.40625 0.8125 0.40625zm8.143127 0.796875q-0.703125 0.890625 -1.890625 0.890625q-1.15625 0 -1.75 -0.671875q-0.59375 -0.671875 -0.59375 -1.9375l0 -4.5625l2.1875 0l0 4.578125q0 0.90625 0.890625 0.90625q0.75 0 1.0625 -0.546875l0 -4.9375l2.21875 0l0 7.046875l-2.0625 0l-0.0625 -0.765625zm7.5791016 -4.296875l-0.71875 -0.046875q-1.03125 0 -1.328125 0.65625l0 4.453125l-2.203125 0l0 -7.046875l2.0625 0l0.078125 0.90625q0.546875 -1.03125 1.53125 -1.03125q0.359375 0 0.609375 0.078125l-0.03125 2.03125z" fill-rule="nonzero"/><path fill="#ffffff" d="m874.35364 797.75226q-0.234375 -0.421875 -0.40625 -1.265625q-1.21875 1.53125 -3.390625 1.53125q-1.984375 0 -3.390625 -1.203125q-1.390625 -1.203125 -1.390625 -3.03125q0 -2.296875 1.6875 -3.46875q1.703125 -1.171875 4.9375 -1.171875l1.34375 0l0 -0.734375q0 -1.9375 -1.671875 -1.9375q-1.5625 0 -1.5625 1.53125l-4.390625 0q0 -2.046875 1.734375 -3.3125q1.75 -1.28125 4.4375 -1.28125q2.6875 0 4.25 1.3125q1.5625 1.3125 1.609375 3.609375l0 6.234375q0.03125 1.9375 0.59375 2.96875l0 0.21875l-4.390625 0zm-2.734375 -2.859375q0.8125 0 1.34375 -0.34375q0.546875 -0.359375 0.78125 -0.8125l0 -2.25l-1.265625 0q-2.296875 0 -2.296875 2.0625q0 0.59375 0.40625 0.96875q0.40625 0.375 1.03125 0.375zm12.991882 -11.21875l0.140625 1.640625q1.453125 -1.90625 4.015625 -1.90625q2.203125 0 3.28125 1.3125q1.09375 1.3125 1.125 3.953125l0 9.078125l-4.390625 0l0 -8.890625q0 -1.0625 -0.4375 -1.5625q-0.421875 -0.5 -1.5625 -0.5q-1.28125 0 -1.90625 1.015625l0 9.9375l-4.390625 0l0 -14.078125l4.125 0zm10.439392 6.9375q0 -3.34375 1.4375 -5.265625q1.453125 -1.9375 4.046875 -1.9375q1.890625 0 3.171875 1.484375l0 -7.140625l4.40625 0l0 20.0l-3.953125 0l-0.21875 -1.515625q-1.34375 1.78125 -3.4375 1.78125q-2.5 0 -3.984375 -1.921875q-1.46875 -1.9375 -1.46875 -5.484375zm4.390625 0.265625q0 3.75 2.1875 3.75q1.453125 0 2.078125 -1.21875l0 -5.359375q-0.59375 -1.25 -2.046875 -1.25q-2.03125 0 -2.203125 3.28125l-0.015625 0.796875z" fill-rule="nonzero"/><path fill="#ffffff" d="m729.355 823.31476l0 6.4375l-4.5625 0l0 -18.953125l7.5625 0q2.171875 0 3.84375 0.8125q1.671875 0.796875 2.578125 2.28125q0.921875 1.46875 0.921875 3.34375q0 2.765625 -1.984375 4.421875q-1.984375 1.65625 -5.4375 1.65625l-2.921875 0zm0 -3.515625l3.0 0q1.328125 0 2.015625 -0.65625q0.703125 -0.671875 0.703125 -1.890625q0 -1.328125 -0.71875 -2.109375q-0.71875 -0.796875 -1.953125 -0.8125l-3.046875 0l0 5.46875z" fill-rule="nonzero"/><path fill="#ffffff" d="m743.33 822.7054l0.078125 0.828125q0.71875 -0.953125 2.015625 -0.953125q1.09375 0 1.625 0.65625q0.546875 0.65625 0.578125 1.984375l0 4.53125l-2.203125 0l0 -4.4375q0 -0.546875 -0.21875 -0.796875q-0.21875 -0.25 -0.78125 -0.25q-0.640625 0 -0.953125 0.515625l0 4.96875l-2.1875 0l0 -7.046875l2.046875 0zm8.907227 7.171875q-1.609375 0 -2.625 -0.953125q-1.0 -0.96875 -1.0 -2.515625l0 -0.1875q0 -1.078125 0.40625 -1.90625q0.40625 -0.828125 1.171875 -1.28125q0.765625 -0.453125 1.8125 -0.453125q1.484375 0 2.34375 0.921875q0.859375 0.921875 0.859375 2.5625l0 0.859375l-4.359375 0q0.125 0.59375 0.515625 0.9375q0.40625 0.328125 1.03125 0.328125q1.046875 0 1.625 -0.734375l1.0 1.1875q-0.40625 0.5625 -1.15625 0.90625q-0.75 0.328125 -1.625 0.328125zm-0.234375 -5.609375q-0.96875 0 -1.15625 1.28125l2.21875 0l0 -0.171875q0.015625 -0.53125 -0.265625 -0.8125q-0.28125 -0.296875 -0.796875 -0.296875zm6.9437866 0.375l1.015625 -1.9375l2.28125 0l-1.859375 3.4375l1.953125 3.609375l-2.296875 0l-1.09375 -2.078125l-1.09375 2.078125l-2.296875 0l1.953125 -3.609375l-1.859375 -3.4375l2.3125 0l0.984375 1.9375zm6.562378 -3.6875l0 1.75l1.15625 0l0 1.53125l-1.15625 0l0 3.21875q0 0.390625 0.140625 0.546875q0.140625 0.15625 0.5625 0.15625q0.328125 0 0.546875 -0.03125l0 1.5625q-0.59375 0.1875 -1.234375 0.1875q-1.125 0 -1.671875 -0.53125q-0.546875 -0.53125 -0.546875 -1.625l0 -3.484375l-0.890625 0l0 -1.53125l0.890625 0l0 -1.75l2.203125 0z" fill-rule="nonzero"/><path fill="#ffffff" d="m782.0815 821.7835l-7.09375 -2.40625l0 -3.984375l11.453125 4.6875l0 3.46875l-11.453125 4.6875l0 -3.984375l7.09375 -2.46875zm17.773315 1.53125l0 6.4375l-4.5625 0l0 -18.953125l7.5625 0q2.171875 0 3.84375 0.8125q1.671875 0.796875 2.578125 2.28125q0.921875 1.46875 0.921875 3.34375q0 2.765625 -1.984375 4.421875q-1.984375 1.65625 -5.4375 1.65625l-2.921875 0zm0 -3.515625l3.0 0q1.328125 0 2.015625 -0.65625q0.703125 -0.671875 0.703125 -1.890625q0 -1.328125 -0.71875 -2.109375q-0.71875 -0.796875 -1.953125 -0.8125l-3.046875 0l0 5.46875z" fill-rule="nonzero"/><path fill="#ffffff" d="m814.3767 820.9554l0 1.75l1.15625 0l0 1.53125l-1.15625 0l0 3.21875q0 0.390625 0.140625 0.546875q0.140625 0.15625 0.5625 0.15625q0.328125 0 0.546875 -0.03125l0 1.5625q-0.59375 0.1875 -1.234375 0.1875q-1.125 0 -1.671875 -0.53125q-0.546875 -0.53125 -0.546875 -1.625l0 -3.484375l-0.890625 0l0 -1.53125l0.890625 0l0 -1.75l2.203125 0zm4.168762 2.515625q0.703125 -0.890625 1.796875 -0.890625q1.15625 0 1.75 0.6875q0.59375 0.6875 0.609375 2.046875l0 4.4375l-2.203125 0l0 -4.390625q0 -0.5625 -0.234375 -0.828125q-0.21875 -0.265625 -0.765625 -0.265625q-0.671875 0 -0.953125 0.4375l0 5.046875l-2.203125 0l0 -10.0l2.203125 0l0 3.71875zm9.632507 1.21875l-0.71875 -0.046875q-1.03125 0 -1.328125 0.65625l0 4.453125l-2.203125 0l0 -7.046875l2.0625 0l0.078125 0.90625q0.546875 -1.03125 1.53125 -1.03125q0.359375 0 0.609375 0.078125l-0.03125 2.03125zm4.0670166 5.1875q-1.609375 0 -2.625 -0.953125q-1.0 -0.96875 -1.0 -2.515625l0 -0.1875q0 -1.078125 0.40625 -1.90625q0.40625 -0.828125 1.171875 -1.28125q0.765625 -0.453125 1.8125 -0.453125q1.484375 0 2.34375 0.921875q0.859375 0.921875 0.859375 2.5625l0 0.859375l-4.359375 0q0.125 0.59375 0.515625 0.9375q0.40625 0.328125 1.03125 0.328125q1.046875 0 1.625 -0.734375l1.0 1.1875q-0.40625 0.5625 -1.15625 0.90625q-0.75 0.328125 -1.625 0.328125zm-0.234375 -5.609375q-0.96875 0 -1.15625 1.28125l2.21875 0l0 -0.171875q0.015625 -0.53125 -0.265625 -0.8125q-0.28125 -0.296875 -0.796875 -0.296875zm7.7719116 3.5q0 -0.28125 -0.296875 -0.4375q-0.28125 -0.171875 -1.109375 -0.359375q-0.8125 -0.1875 -1.34375 -0.46875q-0.53125 -0.296875 -0.8125 -0.71875q-0.28125 -0.4375 -0.28125 -0.984375q0 -0.96875 0.796875 -1.59375q0.796875 -0.625 2.09375 -0.625q1.390625 0 2.234375 0.640625q0.859375 0.625 0.859375 1.65625l-2.203125 0q0 -0.859375 -0.890625 -0.859375q-0.34375 0 -0.578125 0.203125q-0.234375 0.1875 -0.234375 0.46875q0 0.296875 0.28125 0.484375q0.28125 0.171875 0.90625 0.296875q0.640625 0.109375 1.109375 0.28125q1.59375 0.546875 1.59375 1.953125q0 0.96875 -0.859375 1.578125q-0.859375 0.59375 -2.21875 0.59375q-0.90625 0 -1.625 -0.3125q-0.703125 -0.328125 -1.09375 -0.890625q-0.390625 -0.5625 -0.390625 -1.1875l2.046875 0q0.015625 0.5 0.328125 0.71875q0.3125 0.21875 0.796875 0.21875q0.453125 0 0.671875 -0.171875q0.21875 -0.1875 0.21875 -0.484375zm5.295532 -4.296875q0.703125 -0.890625 1.796875 -0.890625q1.15625 0 1.75 0.6875q0.59375 0.6875 0.609375 2.046875l0 4.4375l-2.203125 0l0 -4.390625q0 -0.5625 -0.234375 -0.828125q-0.21875 -0.265625 -0.765625 -0.265625q-0.671875 0 -0.953125 0.4375l0 5.046875l-2.203125 0l0 -10.0l2.203125 0l0 3.71875zm5.1011963 2.703125q0 -1.0625 0.40625 -1.875q0.40625 -0.828125 1.171875 -1.265625q0.765625 -0.453125 1.8125 -0.453125q1.578125 0 2.484375 0.984375q0.90625 0.96875 0.90625 2.65625l0 0.078125q0 1.65625 -0.921875 2.625q-0.90625 0.953125 -2.46875 0.953125q-1.5 0 -2.40625 -0.890625q-0.90625 -0.90625 -0.984375 -2.453125l0 -0.359375zm2.1875 0.125q0 0.984375 0.296875 1.4375q0.3125 0.453125 0.90625 0.453125q1.171875 0 1.203125 -1.796875l0 -0.21875q0 -1.90625 -1.203125 -1.90625q-1.109375 0 -1.203125 1.640625l0 0.390625zm7.874695 3.453125l-2.1875 0l0 -10.0l2.1875 0l0 10.0zm1.0858154 -3.578125q0 -1.671875 0.71875 -2.625q0.71875 -0.96875 2.015625 -0.96875q0.9375 0 1.59375 0.734375l0 -3.5625l2.1875 0l0 10.0l-1.96875 0l-0.109375 -0.75q-0.671875 0.875 -1.71875 0.875q-1.25 0 -1.984375 -0.953125q-0.734375 -0.96875 -0.734375 -2.75zm2.1875 0.140625q0 1.875 1.09375 1.875q0.734375 0 1.046875 -0.609375l0 -2.6875q-0.3125 -0.625 -1.03125 -0.625q-1.015625 0 -1.109375 1.640625l0 0.40625z" fill-rule="nonzero"/><path fill="#ffffff" d="m870.0431 822.04913q0 -3.171875 0.84375 -5.90625q0.84375 -2.734375 2.328125 -4.625q1.5 -1.90625 3.328125 -2.671875l0.828125 2.15625q-1.828125 1.34375 -2.828125 4.1875q-0.984375 2.84375 -1.0 6.671875l0 0.578125q0 3.921875 0.984375 6.796875q1.0 2.875 2.84375 4.21875l-0.828125 2.15625q-1.796875 -0.734375 -3.3125 -2.671875q-1.515625 -1.921875 -2.34375 -4.59375q-0.8125 -2.6875 -0.84375 -5.71875l0 -0.578125zm24.613464 1.28125q-0.09375 1.984375 -1.078125 3.5q-0.96875 1.515625 -2.734375 2.359375q-1.765625 0.828125 -4.03125 0.828125q-3.734375 0 -5.890625 -2.4375q-2.140625 -2.4375 -2.140625 -6.875l0 -0.9375q0 -2.78125 0.96875 -4.875q0.984375 -2.09375 2.796875 -3.21875q1.828125 -1.140625 4.21875 -1.140625q3.453125 0 5.546875 1.8125q2.09375 1.8125 2.375 5.0l-4.546875 0q-0.046875 -1.734375 -0.875 -2.484375q-0.8125 -0.75 -2.5 -0.75q-1.703125 0 -2.5 1.28125q-0.796875 1.265625 -0.828125 4.0625l0 1.34375q0 3.03125 0.75 4.34375q0.765625 1.296875 2.625 1.296875q1.578125 0 2.40625 -0.734375q0.84375 -0.75 0.890625 -2.375l4.546875 0z" fill-rule="nonzero"/><path fill="#ffffff" d="m898.00916 822.7054l0.078125 0.828125q0.71875 -0.953125 2.015625 -0.953125q1.09375 0 1.625 0.65625q0.546875 0.65625 0.578125 1.984375l0 4.53125l-2.203125 0l0 -4.4375q0 -0.546875 -0.21875 -0.796875q-0.21875 -0.25 -0.78125 -0.25q-0.640625 0 -0.953125 0.515625l0 4.96875l-2.1875 0l0 -7.046875l2.046875 0zm8.907227 7.171875q-1.609375 0 -2.625 -0.953125q-1.0 -0.96875 -1.0 -2.515625l0 -0.1875q0 -1.078125 0.40625 -1.90625q0.40625 -0.828125 1.171875 -1.28125q0.765625 -0.453125 1.8125 -0.453125q1.484375 0 2.34375 0.921875q0.859375 0.921875 0.859375 2.5625l0 0.859375l-4.359375 0q0.125 0.59375 0.515625 0.9375q0.40625 0.328125 1.03125 0.328125q1.046875 0 1.625 -0.734375l1.0 1.1875q-0.40625 0.5625 -1.15625 0.90625q-0.75 0.328125 -1.625 0.328125zm-0.234375 -5.609375q-0.96875 0 -1.15625 1.28125l2.21875 0l0 -0.171875q0.015625 -0.53125 -0.265625 -0.8125q-0.28125 -0.296875 -0.796875 -0.296875zm6.9437866 0.375l1.015625 -1.9375l2.28125 0l-1.859375 3.4375l1.953125 3.609375l-2.296875 0l-1.09375 -2.078125l-1.09375 2.078125l-2.296875 0l1.953125 -3.609375l-1.859375 -3.4375l2.3125 0l0.984375 1.9375zm6.562378 -3.6875l0 1.75l1.15625 0l0 1.53125l-1.15625 0l0 3.21875q0 0.390625 0.140625 0.546875q0.140625 0.15625 0.5625 0.15625q0.328125 0 0.546875 -0.03125l0 1.5625q-0.59375 0.1875 -1.234375 0.1875q-1.125 0 -1.671875 -0.53125q-0.546875 -0.53125 -0.546875 -1.625l0 -3.484375l-0.890625 0l0 -1.53125l0.890625 0l0 -1.75l2.203125 0z" fill-rule="nonzero"/><path fill="#ffffff" d="m929.732 822.4085q0 3.0625 -0.890625 5.8125q-0.890625 2.734375 -2.484375 4.703125q-1.578125 1.984375 -3.40625 2.6875l-0.84375 -2.15625q1.8125 -1.359375 2.796875 -4.171875q1.0 -2.8125 1.03125 -6.46875l0 -0.796875q0 -3.921875 -1.0 -6.796875q-0.984375 -2.875 -2.828125 -4.21875l0.84375 -2.15625q1.8125 0.71875 3.375 2.65625q1.578125 1.921875 2.484375 4.640625q0.90625 2.71875 0.921875 5.703125l0 0.5625z" fill-rule="nonzero"/><path fill="#000000" fill-opacity="0.0" d="m269.5013 492.0118l249.19687 0l0 84.031525l-249.19687 0z" fill-rule="evenodd"/><path fill="#000000" d="m356.08206 520.18994q-0.09375 1.984375 -1.078125 3.5q-0.96875 1.515625 -2.734375 2.359375q-1.765625 0.828125 -4.03125 0.828125q-3.734375 0 -5.890625 -2.4375q-2.140625 -2.4375 -2.140625 -6.875l0 -0.9375q0 -2.78125 0.96875 -4.875q0.984375 -2.09375 2.796875 -3.21875q1.828125 -1.140625 4.21875 -1.140625q3.453125 0 5.546875 1.8125q2.09375 1.8125 2.375 5.0l-4.546875 0q-0.046875 -1.734375 -0.875 -2.484375q-0.8125 -0.75 -2.5 -0.75q-1.703125 0 -2.5 1.28125q-0.796875 1.265625 -0.828125 4.0625l0 1.34375q0 3.03125 0.75 4.34375q0.765625 1.296875 2.625 1.296875q1.578125 0 2.40625 -0.734375q0.84375 -0.75 0.890625 -2.375l4.546875 0z" fill-rule="nonzero"/><path fill="#000000" d="m360.40335 525.0493q0.453125 0 0.703125 -0.25q0.265625 -0.25 0.265625 -0.703125l2.046875 0q0 1.15625 -0.828125 1.90625q-0.828125 0.734375 -2.140625 0.734375q-1.53125 0 -2.421875 -0.953125q-0.875 -0.96875 -0.875 -2.671875l0 -0.09375q0 -1.0625 0.390625 -1.875q0.390625 -0.828125 1.125 -1.265625q0.75 -0.4375 1.765625 -0.4375q1.375 0 2.171875 0.765625q0.8125 0.75 0.8125 2.0625l-2.046875 0q0 -0.546875 -0.28125 -0.84375q-0.265625 -0.296875 -0.703125 -0.296875q-0.859375 0 -1.0 1.09375q-0.046875 0.34375 -0.046875 0.953125q0 1.0625 0.25 1.46875q0.265625 0.40625 0.8125 0.40625zm8.143127 0.796875q-0.703125 0.890625 -1.890625 0.890625q-1.15625 0 -1.75 -0.671875q-0.59375 -0.671875 -0.59375 -1.9375l0 -4.5625l2.1875 0l0 4.578125q0 0.90625 0.890625 0.90625q0.75 0 1.0625 -0.546875l0 -4.9375l2.21875 0l0 7.046875l-2.0625 0l-0.0625 -0.765625zm7.5791016 -4.296875l-0.71875 -0.046875q-1.03125 0 -1.328125 0.65625l0 4.453125l-2.203125 0l0 -7.046875l2.0625 0l0.078125 0.90625q0.546875 -1.03125 1.53125 -1.03125q0.359375 0 0.609375 0.078125l-0.03125 2.03125z" fill-rule="nonzero"/><path fill="#000000" d="m396.65747 517.2212l-12.046875 0l0 -3.390625l12.046875 0l0 3.390625zm0 5.703125l-12.046875 0l0 -3.375l12.046875 0l0 3.375zm25.290802 -2.734375q-0.09375 1.984375 -1.078125 3.5q-0.96875 1.515625 -2.734375 2.359375q-1.765625 0.828125 -4.03125 0.828125q-3.734375 0 -5.890625 -2.4375q-2.140625 -2.4375 -2.140625 -6.875l0 -0.9375q0 -2.78125 0.96875 -4.875q0.984375 -2.09375 2.796875 -3.21875q1.828125 -1.140625 4.21875 -1.140625q3.453125 0 5.546875 1.8125q2.09375 1.8125 2.375 5.0l-4.546875 0q-0.046875 -1.734375 -0.875 -2.484375q-0.8125 -0.75 -2.5 -0.75q-1.703125 0 -2.5 1.28125q-0.796875 1.265625 -0.828125 4.0625l0 1.34375q0 3.03125 0.75 4.34375q0.765625 1.296875 2.625 1.296875q1.578125 0 2.40625 -0.734375q0.84375 -0.75 0.890625 -2.375l4.546875 0z" fill-rule="nonzero"/><path fill="#000000" d="m425.3008 519.56494l0.078125 0.828125q0.71875 -0.953125 2.015625 -0.953125q1.09375 0 1.625 0.65625q0.546875 0.65625 0.578125 1.984375l0 4.53125l-2.203125 0l0 -4.4375q0 -0.546875 -0.21875 -0.796875q-0.21875 -0.25 -0.78125 -0.25q-0.640625 0 -0.953125 0.515625l0 4.96875l-2.1875 0l0 -7.046875l2.046875 0zm8.907227 7.171875q-1.609375 0 -2.625 -0.953125q-1.0 -0.96875 -1.0 -2.515625l0 -0.1875q0 -1.078125 0.40625 -1.90625q0.40625 -0.828125 1.171875 -1.28125q0.765625 -0.453125 1.8125 -0.453125q1.484375 0 2.34375 0.921875q0.859375 0.921875 0.859375 2.5625l0 0.859375l-4.359375 0q0.125 0.59375 0.515625 0.9375q0.40625 0.328125 1.03125 0.328125q1.046875 0 1.625 -0.734375l1.0 1.1875q-0.40625 0.5625 -1.15625 0.90625q-0.75 0.328125 -1.625 0.328125zm-0.234375 -5.609375q-0.96875 0 -1.15625 1.28125l2.21875 0l0 -0.171875q0.015625 -0.53125 -0.265625 -0.8125q-0.28125 -0.296875 -0.796875 -0.296875zm6.9437866 0.375l1.015625 -1.9375l2.28125 0l-1.859375 3.4375l1.953125 3.609375l-2.296875 0l-1.09375 -2.078125l-1.09375 2.078125l-2.296875 0l1.953125 -3.609375l-1.859375 -3.4375l2.3125 0l0.984375 1.9375zm6.562439 -3.6875l0 1.75l1.15625 0l0 1.53125l-1.15625 0l0 3.21875q0 0.390625 0.140625 0.546875q0.140625 0.15625 0.5625 0.15625q0.328125 0 0.546875 -0.03125l0 1.5625q-0.59375 0.1875 -1.234375 0.1875q-1.125 0 -1.671875 -0.53125q-0.546875 -0.53125 -0.546875 -1.625l0 -3.484375l-0.890625 0l0 -1.53125l0.890625 0l0 -1.75l2.203125 0z" fill-rule="nonzero"/><path fill="#000000" d="m367.24255 543.18994l-5.6875 0l0 15.421875l-4.578125 0l0 -15.421875l-5.578125 0l0 -3.53125l15.84375 0l0 3.53125zm20.066376 6.03125l-12.046875 0l0 -3.390625l12.046875 0l0 3.390625zm0 5.703125l-12.046875 0l0 -3.375l12.046875 0l0 3.375zm24.056396 -11.734375l-5.6875 0l0 15.421875l-4.578125 0l0 -15.421875l-5.578125 0l0 -3.53125l15.84375 0l0 3.53125z" fill-rule="nonzero"/><path fill="#000000" d="m414.54367 551.56494l0.078125 0.828125q0.734375 -0.953125 2.0 -0.953125q1.34375 0 1.8125 1.0625q0.703125 -1.0625 2.0625 -1.0625q2.140625 0 2.203125 2.59375l0 4.578125l-2.203125 0l0 -4.4375q0 -0.546875 -0.1875 -0.796875q-0.171875 -0.25 -0.65625 -0.25q-0.65625 0 -0.96875 0.578125l0 0.09375l0 4.8125l-2.1875 0l0 -4.4375q0 -0.546875 -0.1875 -0.796875q-0.171875 -0.25 -0.671875 -0.25q-0.625 0 -0.953125 0.578125l0 4.90625l-2.203125 0l0 -7.046875l2.0625 0zm13.370514 7.046875q-0.109375 -0.21875 -0.203125 -0.625q-0.609375 0.75 -1.6875 0.75q-1.0 0 -1.703125 -0.59375q-0.6875 -0.609375 -0.6875 -1.515625q0 -1.140625 0.84375 -1.71875q0.84375 -0.59375 2.453125 -0.59375l0.6875 0l0 -0.375q0 -0.96875 -0.84375 -0.96875q-0.78125 0 -0.78125 0.765625l-2.1875 0q0 -1.015625 0.859375 -1.65625q0.875 -0.640625 2.21875 -0.640625q1.34375 0 2.125 0.65625q0.78125 0.65625 0.796875 1.796875l0 3.125q0.015625 0.96875 0.3125 1.484375l0 0.109375l-2.203125 0zm-1.375 -1.4375q0.421875 0 0.6875 -0.171875q0.265625 -0.171875 0.390625 -0.390625l0 -1.125l-0.640625 0q-1.140625 0 -1.140625 1.015625q0 0.3125 0.1875 0.5q0.203125 0.171875 0.515625 0.171875zm7.339691 -3.671875l1.015625 -1.9375l2.28125 0l-1.859375 3.4375l1.953125 3.609375l-2.296875 0l-1.09375 -2.078125l-1.09375 2.078125l-2.296875 0l1.953125 -3.609375l-1.859375 -3.4375l2.3125 0l0.984375 1.9375z" fill-rule="nonzero"/><path fill="#000000" fill-opacity="0.0" d="m827.16534 593.7034l124.59845 0l0 51.71649l-124.59845 0z" fill-rule="evenodd"/><path fill="#000000" d="m873.6693 617.58466l3.484375 -8.234375l4.9375 0l-6.109375 12.140625l0 6.8125l-4.640625 0l0 -6.8125l-6.078125 -12.140625l4.90625 0l3.5 8.234375zm21.550781 2.6875l-7.1875 0l0 4.515625l8.484375 0l0 3.515625l-13.046875 0l0 -18.953125l13.078125 0l0 3.53125l-8.515625 0l0 4.0l7.1875 0l0 3.390625zm12.931641 3.0q0 -1.015625 -0.71875 -1.5625q-0.703125 -0.5625 -2.484375 -1.15625q-1.78125 -0.609375 -2.90625 -1.171875q-3.6875 -1.796875 -3.6875 -4.96875q0 -1.578125 0.90625 -2.78125q0.921875 -1.203125 2.59375 -1.875q1.6875 -0.671875 3.78125 -0.671875q2.046875 0 3.671875 0.734375q1.625 0.734375 2.515625 2.078125q0.90625 1.34375 0.90625 3.078125l-4.5625 0q0 -1.15625 -0.71875 -1.796875q-0.703125 -0.640625 -1.90625 -0.640625q-1.234375 0 -1.9375 0.546875q-0.703125 0.53125 -0.703125 1.375q0 0.71875 0.78125 1.3125q0.78125 0.59375 2.734375 1.234375q1.96875 0.625 3.234375 1.359375q3.078125 1.765625 3.078125 4.875q0 2.484375 -1.875 3.90625q-1.875 1.421875 -5.140625 1.421875q-2.3125 0 -4.1875 -0.828125q-1.859375 -0.828125 -2.8125 -2.265625q-0.9375 -1.4375 -0.9375 -3.3125l4.59375 0q0 1.515625 0.78125 2.25q0.78125 0.71875 2.5625 0.71875q1.125 0 1.78125 -0.484375q0.65625 -0.5 0.65625 -1.375z" fill-rule="nonzero"/><path fill="#000000" fill-opacity="0.0" d="m1123.7296 731.43567l124.59851 0l0 51.716553l-124.59851 0z" fill-rule="evenodd"/><path fill="#000000" d="m1184.734 766.0357l-4.546875 0l-6.71875 -11.796875l0 11.796875l-4.5625 0l0 -18.953125l4.5625 0l6.703125 11.796875l0 -11.796875l4.5625 0l0 18.953125zm18.935425 -9.078125q0 2.765625 -1.03125 4.90625q-1.03125 2.125 -2.921875 3.28125q-1.890625 1.15625 -4.3125 1.15625q-2.421875 0 -4.296875 -1.109375q-1.875 -1.125 -2.921875 -3.1875q-1.046875 -2.078125 -1.109375 -4.75l0 -1.078125q0 -2.78125 1.015625 -4.90625q1.03125 -2.125 2.9375 -3.28125q1.90625 -1.171875 4.34375 -1.171875q2.40625 0 4.296875 1.15625q1.890625 1.140625 2.9375 3.265625q1.046875 2.109375 1.0625 4.84375l0 0.875zm-4.65625 -0.796875q0 -2.828125 -0.9375 -4.28125q-0.9375 -1.46875 -2.703125 -1.46875q-3.4375 0 -3.625 5.140625l-0.015625 1.40625q0 2.78125 0.921875 4.28125q0.921875 1.484375 2.75 1.484375q1.734375 0 2.671875 -1.46875q0.9375 -1.46875 0.9375 -4.21875l0 -0.875z" fill-rule="nonzero"/><path fill="#000000" fill-opacity="0.0" d="m1130.126 783.1522c12.5008545 0 77.06714 40.770874 25.001587 81.36621c-52.06543 40.595276 -220.76282 81.01495 -415.49292 81.36615c-194.73004 0.3511963 -415.49292 -39.36615 -415.49292 -78.73236" fill-rule="evenodd"/><path stroke="#e69138" stroke-width="4.0" stroke-linejoin="round" stroke-linecap="butt" d="m1130.126 783.1522c12.5008545 0 77.06714 40.770935 25.001709 81.36615c-52.06555 40.595337 -220.76294 81.015015 -415.49298 81.36621c-97.36511 0.17559814 -201.23828 -9.666016 -280.7703 -24.472168c-39.76599 -7.403137 -73.446625 -16.047424 -97.18582 -25.30127c-5.934784 -2.3134766 -11.2482605 -4.665039 -15.880127 -7.044861c-1.1579285 -0.59490967 -2.2733154 -1.1917114 -3.3451233 -1.789978c-0.5359192 -0.29919434 -1.0609436 -0.5987549 -1.5749512 -0.89868164c-0.25701904 -0.15002441 -0.5112915 -0.30004883 -0.76278687 -0.4501953l-0.5883789 -0.35546875" fill-rule="evenodd"/><path fill="#e69138" stroke="#e69138" stroke-width="4.0" stroke-linecap="butt" d="m344.59796 881.3365l-16.70755 -9.696289l6.5660706 18.167236z" fill-rule="evenodd"/><path fill="#674ea7" d="m524.2047 361.95013l302.96063 -137.73228l302.96063 137.73228l-302.96063 137.73227z" fill-rule="evenodd"/><path fill="#ffffff" d="m805.5046 345.12827l-5.6875 0l0 15.421875l-4.578125 0l0 -15.421875l-5.578125 0l0 -3.53125l15.84375 0l0 3.53125zm20.066345 6.03125l-12.046875 0l0 -3.390625l12.046875 0l0 3.390625zm0 5.703125l-12.046875 0l0 -3.375l12.046875 0l0 3.375zm15.605896 -5.703125l-12.046875 0l0 -3.390625l12.046875 0l0 3.390625zm0 5.703125l-12.046875 0l0 -3.375l12.046875 0l0 3.375zm22.837646 -4.0625q0 3.84375 -1.71875 5.9375q-1.71875 2.078125 -4.859375 2.078125q-3.171875 0 -4.90625 -2.09375q-1.71875 -2.109375 -1.71875 -5.921875l0 -3.453125q0 -3.84375 1.71875 -5.921875q1.734375 -2.09375 4.875 -2.09375q3.15625 0 4.875 2.109375q1.734375 2.09375 1.734375 5.921875l0 3.4375zm-4.375 -4.015625q0 -2.046875 -0.546875 -3.046875q-0.53125 -1.015625 -1.6875 -1.015625q-1.125 0 -1.640625 0.9375q-0.515625 0.9375 -0.5625 2.84375l0 4.84375q0 2.109375 0.53125 3.09375q0.546875 0.984375 1.703125 0.984375q1.109375 0 1.640625 -0.953125q0.546875 -0.953125 0.5625 -3.0l0 -4.6875z" fill-rule="nonzero"/><path fill="#000000" fill-opacity="0.0" d="m411.70865 361.95013c28.124298 0 42.185608 0.01574707 56.248596 0.03149414c14.062988 0.01574707 28.127686 0.03149414 56.25534 0.03149414" fill-rule="evenodd"/><path stroke="#674ea7" stroke-width="4.0" stroke-linejoin="round" stroke-linecap="butt" d="m411.70865 361.95013c28.124329 0 42.18564 0.01574707 56.248627 0.03149414c7.031494 0.007873535 14.063385 0.01574707 22.853424 0.02166748l9.401886 0.004547119" fill-rule="evenodd"/><path fill="#674ea7" stroke="#674ea7" stroke-width="4.0" stroke-linecap="butt" d="m500.21115 368.61478l18.15384 -6.602936l-18.15094 -6.6109314z" fill-rule="evenodd"/><path fill="#000000" fill-opacity="0.0" d="m405.6614 299.67978l124.59842 0l0 51.716553l-124.59842 0z" fill-rule="evenodd"/><path fill="#000000" d="m457.99432 318.8579l-5.6875 0l0 15.421875l-4.578125 0l0 -15.421875l-5.578125 0l0 -3.53125l15.84375 0l0 3.53125zm6.3502197 15.421875l-4.40625 0l0 -14.078125l4.40625 0l0 14.078125zm-4.65625 -17.71875q0 -0.9375 0.671875 -1.53125q0.671875 -0.59375 1.75 -0.59375q1.09375 0 1.765625 0.59375q0.671875 0.59375 0.671875 1.53125q0 0.9375 -0.671875 1.546875q-0.671875 0.59375 -1.765625 0.59375q-1.078125 0 -1.75 -0.59375q-0.671875 -0.609375 -0.671875 -1.546875zm13.312225 14.59375q0.921875 0 1.421875 -0.5q0.515625 -0.5 0.5 -1.40625l4.109375 0q0 2.328125 -1.65625 3.8125q-1.65625 1.484375 -4.28125 1.484375q-3.0625 0 -4.84375 -1.921875q-1.765625 -1.9375 -1.765625 -5.34375l0 -0.1875q0 -2.125 0.78125 -3.765625q0.796875 -1.640625 2.28125 -2.515625q1.484375 -0.875 3.515625 -0.875q2.75 0 4.359375 1.53125q1.609375 1.515625 1.609375 4.125l-4.109375 0q0 -1.09375 -0.53125 -1.671875q-0.53125 -0.59375 -1.4375 -0.59375q-1.703125 0 -1.984375 2.171875q-0.09375 0.6875 -0.09375 1.890625q0 2.125 0.5 2.953125q0.515625 0.8125 1.625 0.8125zm13.55188 -2.125l-1.234375 1.234375l0 4.015625l-4.390625 0l0 -20.0l4.390625 0l0 10.609375l0.4375 -0.578125l3.296875 -4.109375l5.265625 0l-4.9375 5.78125l5.265625 8.296875l-5.03125 0l-3.0625 -5.25z" fill-rule="nonzero"/><path fill="#000000" fill-opacity="0.0" d="m1130.126 362.01312l124.59839 0l0 51.716522l-124.59839 0z" fill-rule="evenodd"/><path fill="#000000" d="m1191.1304 396.61313l-4.546875 0l-6.71875 -11.796875l0 11.796875l-4.5625 0l0 -18.953125l4.5625 0l6.703125 11.796875l0 -11.796875l4.5625 0l0 18.953125zm18.935425 -9.078125q0 2.765625 -1.03125 4.90625q-1.03125 2.125 -2.921875 3.28125q-1.890625 1.15625 -4.3125 1.15625q-2.421875 0 -4.296875 -1.109375q-1.875 -1.125 -2.921875 -3.1875q-1.046875 -2.078125 -1.109375 -4.75l0 -1.078125q0 -2.78125 1.015625 -4.90625q1.03125 -2.125 2.9375 -3.28125q1.90625 -1.171875 4.34375 -1.171875q2.40625 0 4.296875 1.15625q1.890625 1.140625 2.9375 3.265625q1.046875 2.109375 1.0625 4.84375l0 0.875zm-4.65625 -0.796875q0 -2.828125 -0.9375 -4.28125q-0.9375 -1.46875 -2.703125 -1.46875q-3.4375 0 -3.625 5.140625l-0.015625 1.40625q0 2.78125 0.921875 4.28125q0.921875 1.484375 2.75 1.484375q1.734375 0 2.671875 -1.46875q0.9375 -1.46875 0.9375 -4.21875l0 -0.875z" fill-rule="nonzero"/><path fill="#000000" fill-opacity="0.0" d="m335.3622 793.73096l249.19687 0l0 84.031494l-249.19687 0z" fill-rule="evenodd"/><path fill="#000000" d="m435.70844 820.29974l-7.1875 0l0 4.515625l8.484375 0l0 3.515625l-13.046875 0l0 -18.953125l13.078125 0l0 3.53125l-8.515625 0l0 4.0l7.1875 0l0 3.390625zm8.233734 2.8125l2.234375 -8.859375l4.609375 0l-4.59375 14.078125l-4.46875 0l-4.59375 -14.078125l4.625 0l2.1875 8.859375zm14.804535 5.484375q-3.25 0 -5.25 -1.9375q-2.0 -1.9375 -2.0 -5.03125l0 -0.359375q0 -2.171875 0.796875 -3.8125q0.796875 -1.65625 2.328125 -2.5625q1.546875 -0.90625 3.65625 -0.90625q2.96875 0 4.6875 1.84375q1.71875 1.84375 1.71875 5.140625l0 1.703125l-8.71875 0q0.234375 1.171875 1.015625 1.859375q0.796875 0.671875 2.0625 0.671875q2.078125 0 3.25 -1.453125l2.0 2.359375q-0.8125 1.140625 -2.3125 1.8125q-1.5 0.671875 -3.234375 0.671875zm-0.5 -11.21875q-1.921875 0 -2.28125 2.546875l4.421875 0l0 -0.34375q0.015625 -1.046875 -0.546875 -1.625q-0.546875 -0.578125 -1.59375 -0.578125zm12.231323 -3.125l0.140625 1.640625q1.453125 -1.90625 4.015625 -1.90625q2.203125 0 3.28125 1.3125q1.09375 1.3125 1.125 3.953125l0 9.078125l-4.390625 0l0 -8.890625q0 -1.0625 -0.4375 -1.5625q-0.421875 -0.5 -1.5625 -0.5q-1.28125 0 -1.90625 1.015625l0 9.9375l-4.390625 0l0 -14.078125l4.125 0zm16.111298 -3.5l0 3.5l2.3125 0l0 3.046875l-2.3125 0l0 6.4375q0 0.796875 0.28125 1.109375q0.28125 0.3125 1.125 0.3125q0.65625 0 1.09375 -0.078125l0 3.140625q-1.171875 0.375 -2.46875 0.375q-2.265625 0 -3.34375 -1.0625q-1.078125 -1.078125 -1.078125 -3.25l0 -6.984375l-1.796875 0l0 -3.046875l1.796875 0l0 -3.5l4.390625 0zm6.7594604 13.328125q1.046875 0 1.734375 0.625q0.6875 0.609375 0.6875 1.578125q0 0.953125 -0.6875 1.578125q-0.6875 0.609375 -1.734375 0.609375q-1.046875 0 -1.734375 -0.625q-0.6875 -0.625 -0.6875 -1.5625q0 -0.953125 0.6875 -1.578125q0.6875 -0.625 1.734375 -0.625zm0 -10.390625q1.046875 0 1.734375 0.625q0.6875 0.609375 0.6875 1.578125q0 0.953125 -0.6875 1.578125q-0.6875 0.609375 -1.734375 0.609375q-1.046875 0 -1.734375 -0.625q-0.6875 -0.625 -0.6875 -1.5625q0 -0.953125 0.6875 -1.578125q0.6875 -0.625 1.734375 -0.625z" fill-rule="nonzero"/><path fill="#000000" d="m429.64175 853.9091q-0.09375 1.984375 -1.078125 3.5q-0.96875 1.515625 -2.734375 2.359375q-1.765625 0.828125 -4.03125 0.828125q-3.734375 0 -5.890625 -2.4375q-2.140625 -2.4375 -2.140625 -6.875l0 -0.9375q0 -2.78125 0.96875 -4.875q0.984375 -2.09375 2.796875 -3.21875q1.828125 -1.140625 4.21875 -1.140625q3.453125 0 5.546875 1.8125q2.09375 1.8125 2.375 5.0l-4.546875 0q-0.046875 -1.734375 -0.875 -2.484375q-0.8125 -0.75 -2.5 -0.75q-1.703125 0 -2.5 1.28125q-0.796875 1.265625 -0.828125 4.0625l0 1.34375q0 3.03125 0.75 4.34375q0.765625 1.296875 2.625 1.296875q1.578125 0 2.40625 -0.734375q0.84375 -0.75 0.890625 -2.375l4.546875 0z" fill-rule="nonzero"/><path fill="#000000" d="m432.9943 853.2841l0.078125 0.828125q0.71875 -0.953125 2.015625 -0.953125q1.09375 0 1.625 0.65625q0.546875 0.65625 0.578125 1.984375l0 4.53125l-2.203125 0l0 -4.4375q0 -0.546875 -0.21875 -0.796875q-0.21875 -0.25 -0.78125 -0.25q-0.640625 0 -0.953125 0.515625l0 4.96875l-2.1875 0l0 -7.046875l2.046875 0zm8.907227 7.171875q-1.609375 0 -2.625 -0.953125q-1.0 -0.96875 -1.0 -2.515625l0 -0.1875q0 -1.078125 0.40625 -1.90625q0.40625 -0.828125 1.171875 -1.28125q0.765625 -0.453125 1.8125 -0.453125q1.484375 0 2.34375 0.921875q0.859375 0.921875 0.859375 2.5625l0 0.859375l-4.359375 0q0.125 0.59375 0.515625 0.9375q0.40625 0.328125 1.03125 0.328125q1.046875 0 1.625 -0.734375l1.0 1.1875q-0.40625 0.5625 -1.15625 0.90625q-0.75 0.328125 -1.625 0.328125zm-0.234375 -5.609375q-0.96875 0 -1.15625 1.28125l2.21875 0l0 -0.171875q0.015625 -0.53125 -0.265625 -0.8125q-0.28125 -0.296875 -0.796875 -0.296875zm6.9437866 0.375l1.015625 -1.9375l2.28125 0l-1.859375 3.4375l1.953125 3.609375l-2.296875 0l-1.09375 -2.078125l-1.09375 2.078125l-2.296875 0l1.953125 -3.609375l-1.859375 -3.4375l2.3125 0l0.984375 1.9375zm6.562439 -3.6875l0 1.75l1.15625 0l0 1.53125l-1.15625 0l0 3.21875q0 0.390625 0.140625 0.546875q0.140625 0.15625 0.5625 0.15625q0.328125 0 0.546875 -0.03125l0 1.5625q-0.59375 0.1875 -1.234375 0.1875q-1.125 0 -1.671875 -0.53125q-0.546875 -0.53125 -0.546875 -1.625l0 -3.484375l-0.890625 0l0 -1.53125l0.890625 0l0 -1.75l2.203125 0zm2.7937927 11.34375l-1.109375 -0.515625l0.21875 -0.4375q0.453125 -0.859375 0.46875 -1.625l0 -1.625l1.765625 0l0 1.421875q-0.015625 0.734375 -0.390625 1.515625q-0.375 0.78125 -0.953125 1.265625z" fill-rule="nonzero"/><path fill="#000000" d="m469.4879 853.8935l0 6.4375l-4.5625 0l0 -18.953125l7.5625 0q2.171875 0 3.84375 0.8125q1.671875 0.796875 2.578125 2.28125q0.921875 1.46875 0.921875 3.34375q0 2.765625 -1.984375 4.421875q-1.984375 1.65625 -5.4375 1.65625l-2.921875 0zm0 -3.515625l3.0 0q1.328125 0 2.015625 -0.65625q0.703125 -0.671875 0.703125 -1.890625q0 -1.328125 -0.71875 -2.109375q-0.71875 -0.796875 -1.953125 -0.8125l-3.046875 0l0 5.46875z" fill-rule="nonzero"/><path fill="#000000" d="m483.4629 853.2841l0.078125 0.828125q0.71875 -0.953125 2.015625 -0.953125q1.09375 0 1.625 0.65625q0.546875 0.65625 0.578125 1.984375l0 4.53125l-2.203125 0l0 -4.4375q0 -0.546875 -0.21875 -0.796875q-0.21875 -0.25 -0.78125 -0.25q-0.640625 0 -0.953125 0.515625l0 4.96875l-2.1875 0l0 -7.046875l2.046875 0zm8.907227 7.171875q-1.609375 0 -2.625 -0.953125q-1.0 -0.96875 -1.0 -2.515625l0 -0.1875q0 -1.078125 0.40625 -1.90625q0.40625 -0.828125 1.171875 -1.28125q0.765625 -0.453125 1.8125 -0.453125q1.484375 0 2.34375 0.921875q0.859375 0.921875 0.859375 2.5625l0 0.859375l-4.359375 0q0.125 0.59375 0.515625 0.9375q0.40625 0.328125 1.03125 0.328125q1.046875 0 1.625 -0.734375l1.0 1.1875q-0.40625 0.5625 -1.15625 0.90625q-0.75 0.328125 -1.625 0.328125zm-0.234375 -5.609375q-0.96875 0 -1.15625 1.28125l2.21875 0l0 -0.171875q0.015625 -0.53125 -0.265625 -0.8125q-0.28125 -0.296875 -0.796875 -0.296875zm6.9437866 0.375l1.015625 -1.9375l2.28125 0l-1.859375 3.4375l1.953125 3.609375l-2.296875 0l-1.09375 -2.078125l-1.09375 2.078125l-2.296875 0l1.953125 -3.609375l-1.859375 -3.4375l2.3125 0l0.984375 1.9375zm6.5624084 -3.6875l0 1.75l1.15625 0l0 1.53125l-1.15625 0l0 3.21875q0 0.390625 0.140625 0.546875q0.140625 0.15625 0.5625 0.15625q0.328125 0 0.546875 -0.03125l0 1.5625q-0.59375 0.1875 -1.234375 0.1875q-1.125 0 -1.671875 -0.53125q-0.546875 -0.53125 -0.546875 -1.625l0 -3.484375l-0.890625 0l0 -1.53125l0.890625 0l0 -1.75l2.203125 0z" fill-rule="nonzero"/><path fill="#000000" fill-opacity="0.0" d="m1130.126 361.95013c12.500244 0 72.93799 -61.66861 25.000488 -127.90407c-47.9375 -66.23544 -204.25024 -137.03772 -384.53174 -127.90407c-180.2815 9.133667 -384.53174 98.20328 -384.53174 196.40656" fill-rule="evenodd"/><path stroke="#674ea7" stroke-width="4.0" stroke-linejoin="round" stroke-linecap="butt" d="m1130.126 361.95013c12.500244 0 72.93799 -61.66861 25.000488 -127.90405c-47.9375 -66.23547 -204.25024 -137.03775 -384.53174 -127.90408c-90.14075 4.566826 -186.27368 29.11766 -259.87143 64.80217c-36.79889 17.84227 -67.96396 38.46794 -89.92929 60.770782c-10.982697 11.151413 -19.665436 22.722122 -25.60254 34.573807c-1.4842529 2.9629211 -2.7969055 5.94339 -3.9309998 8.939301c-0.28356934 0.7489624 -0.5559082 1.4989014 -0.8169861 2.2497864c-0.13058472 0.37542725 -0.25827026 0.7510681 -0.38320923 1.1269836l-0.08685303 0.26446533" fill-rule="evenodd"/><path fill="#674ea7" stroke="#674ea7" stroke-width="4.0" stroke-linecap="butt" d="m383.4548 277.7928l3.5609741 18.986298l9.476318 -16.833313z" fill-rule="evenodd"/><path fill="#000000" fill-opacity="0.0" d="m827.16534 499.6824l124.59845 0l0 51.716522l-124.59845 0z" fill-rule="evenodd"/><path fill="#000000" d="m873.6693 523.56366l3.484375 -8.234375l4.9375 0l-6.109375 12.140625l0 6.8125l-4.640625 0l0 -6.8125l-6.078125 -12.140625l4.90625 0l3.5 8.234375zm21.550781 2.6875l-7.1875 0l0 4.515625l8.484375 0l0 3.515625l-13.046875 0l0 -18.953125l13.078125 0l0 3.53125l-8.515625 0l0 4.0l7.1875 0l0 3.390625zm12.931641 3.0q0 -1.015625 -0.71875 -1.5625q-0.703125 -0.5625 -2.484375 -1.15625q-1.78125 -0.609375 -2.90625 -1.171875q-3.6875 -1.796875 -3.6875 -4.96875q0 -1.578125 0.90625 -2.78125q0.921875 -1.203125 2.59375 -1.875q1.6875 -0.671875 3.78125 -0.671875q2.046875 0 3.671875 0.734375q1.625 0.734375 2.515625 2.078125q0.90625 1.34375 0.90625 3.078125l-4.5625 0q0 -1.15625 -0.71875 -1.796875q-0.703125 -0.640625 -1.90625 -0.640625q-1.234375 0 -1.9375 0.546875q-0.703125 0.53125 -0.703125 1.375q0 0.71875 0.78125 1.3125q0.78125 0.59375 2.734375 1.234375q1.96875 0.625 3.234375 1.359375q3.078125 1.765625 3.078125 4.875q0 2.484375 -1.875 3.90625q-1.875 1.421875 -5.140625 1.421875q-2.3125 0 -4.1875 -0.828125q-1.859375 -0.828125 -2.8125 -2.265625q-0.9375 -1.4375 -0.9375 -3.3125l4.59375 0q0 1.515625 0.78125 2.25q0.78125 0.71875 2.5625 0.71875q1.125 0 1.78125 -0.484375q0.65625 -0.5 0.65625 -1.375z" fill-rule="nonzero"/><path fill="#000000" fill-opacity="0.0" d="m262.236 842.5381c0 24.79889 -31.683197 58.081543 -63.368652 49.59784c-31.685455 -8.483704 -63.373154 -58.733704 -63.368652 -108.9837c0.004501343 -50.25 31.701202 -100.5 63.40016 -108.98364c31.698944 -8.483704 63.40016 24.79889 63.40016 49.59784" fill-rule="evenodd"/><path stroke="#e69138" stroke-width="4.0" stroke-linejoin="round" stroke-linecap="butt" d="m262.236 842.5381c0 24.79895 -31.683197 58.081482 -63.368637 49.59784c-31.68547 -8.483704 -63.37317 -58.733704 -63.368668 -108.9837c0.004501343 -50.25 31.701202 -100.5 63.40016 -108.98364c15.849472 -4.2418823 31.699493 1.9578857 43.587173 12.317932c2.9719238 2.5900269 5.6961823 5.4400635 8.110886 8.451965c1.2073517 1.5059814 2.3373108 3.0524292 3.382141 4.626953c0.2611847 0.3937378 0.5170746 0.78912354 0.76753235 1.1861572l0.121032715 0.19433594" fill-rule="evenodd"/><path fill="#e69138" stroke="#e69138" stroke-width="4.0" stroke-linecap="butt" d="m248.5854 702.9917l11.902939 15.214478l0.661499 -19.30603z" fill-rule="evenodd"/><path fill="#000000" fill-opacity="0.0" d="m26.900263 757.32544l124.59843 0l0 51.716553l-124.59843 0z" fill-rule="evenodd"/><path fill="#000000" d="m79.233185 776.5036l-5.6875 0l0 15.421875l-4.578125 0l0 -15.421875l-5.578129 0l0 -3.53125l15.843754 0l0 3.53125zm6.3502045 15.421875l-4.40625 0l0 -14.078125l4.40625 0l0 14.078125zm-4.65625 -17.71875q0 -0.9375 0.671875 -1.53125q0.671875 -0.59375 1.75 -0.59375q1.09375 0 1.765625 0.59375q0.671875 0.59375 0.671875 1.53125q0 0.9375 -0.671875 1.546875q-0.671875 0.59375 -1.765625 0.59375q-1.078125 0 -1.75 -0.59375q-0.671875 -0.609375 -0.671875 -1.546875zm13.312233 14.59375q0.921875 0 1.421875 -0.5q0.515625 -0.5 0.5 -1.40625l4.109375 0q0 2.328125 -1.65625 3.8125q-1.65625 1.484375 -4.28125 1.484375q-3.0625 0 -4.8437424 -1.921875q-1.765625 -1.9375 -1.765625 -5.34375l0 -0.1875q0 -2.125 0.78125 -3.765625q0.796875 -1.640625 2.28125 -2.515625q1.4843674 -0.875 3.5156174 -0.875q2.75 0 4.359375 1.53125q1.609375 1.515625 1.609375 4.125l-4.109375 0q0 -1.09375 -0.53125 -1.671875q-0.53125 -0.59375 -1.4375 -0.59375q-1.703125 0 -1.984375 2.171875q-0.09375 0.6875 -0.09375 1.890625q0 2.125 0.5 2.953125q0.515625 0.8125 1.625 0.8125zm13.55188 -2.125l-1.234375 1.234375l0 4.015625l-4.390625 0l0 -20.0l4.390625 0l0 10.609375l0.4375 -0.578125l3.296875 -4.109375l5.265625 0l-4.9375 5.78125l5.265625 8.296875l-5.03125 0l-3.0625 -5.25z" fill-rule="nonzero"/><path fill="#000000" fill-opacity="0.0" d="m686.88715 110.46326l249.19684 0l0 51.716537l-249.19684 0z" fill-rule="evenodd"/><path fill="#000000" d="m777.37555 129.64137l-5.6875 0l0 15.421875l-4.578125 0l0 -15.421875l-5.578125 0l0 -3.5312424l15.84375 0l0 3.5312424zm20.066345 6.03125l-12.046875 0l0 -3.390625l12.046875 0l0 3.390625zm0 5.703125l-12.046875 0l0 -3.375l12.046875 0l0 3.375zm24.056396 -11.734375l-5.6875 0l0 15.421875l-4.578125 0l0 -15.421875l-5.578125 0l0 -3.5312424l15.84375 0l0 3.5312424zm16.14447 8.953125l-7.8125 0l0 -3.390625l7.8125 0l0 3.390625zm19.703674 6.46875l-4.390625 0l0 -14.0l-4.328125 1.25l0 -3.328125l8.328125 -2.8749924l0.390625 0l0 18.953117z" fill-rule="nonzero"/><path fill="#000000" fill-opacity="0.0" d="m73.42519 175.80446l249.19684 0l0 84.03151l-249.19684 0z" fill-rule="evenodd"/><path fill="#000000" d="m147.41655 203.98259q-0.09375 1.984375 -1.078125 3.5q-0.96875 1.515625 -2.734375 2.359375q-1.765625 0.828125 -4.03125 0.828125q-3.734375 0 -5.890625 -2.4375q-2.140625 -2.4375 -2.140625 -6.875l0 -0.9375q0 -2.78125 0.96875 -4.875q0.984375 -2.09375 2.796875 -3.21875q1.828125 -1.140625 4.21875 -1.140625q3.453125 0 5.546875 1.8125q2.09375 1.8125 2.375 5.0l-4.546875 0q-0.046875 -1.734375 -0.875 -2.484375q-0.8125 -0.75 -2.5 -0.75q-1.703125 0 -2.5 1.28125q-0.796875 1.265625 -0.828125 4.0625l0 1.34375q0 3.03125 0.75 4.34375q0.765625 1.296875 2.625 1.296875q1.578125 0 2.40625 -0.734375q0.84375 -0.75 0.890625 -2.375l4.546875 0z" fill-rule="nonzero"/><path fill="#000000" d="m151.73784 208.84196q0.453125 0 0.703125 -0.25q0.265625 -0.25 0.265625 -0.703125l2.046875 0q0 1.15625 -0.828125 1.90625q-0.828125 0.734375 -2.140625 0.734375q-1.53125 0 -2.421875 -0.953125q-0.875 -0.96875 -0.875 -2.671875l0 -0.09375q0 -1.0625 0.390625 -1.875q0.390625 -0.828125 1.125 -1.265625q0.75 -0.4375 1.765625 -0.4375q1.375 0 2.171875 0.765625q0.8125 0.75 0.8125 2.0625l-2.046875 0q0 -0.546875 -0.28125 -0.84375q-0.265625 -0.296875 -0.703125 -0.296875q-0.859375 0 -1.0 1.09375q-0.046875 0.34375 -0.046875 0.953125q0 1.0625 0.25 1.46875q0.265625 0.40625 0.8125 0.40625zm8.143127 0.796875q-0.703125 0.890625 -1.890625 0.890625q-1.15625 0 -1.75 -0.671875q-0.59375 -0.671875 -0.59375 -1.9375l0 -4.5625l2.1875 0l0 4.578125q0 0.90625 0.890625 0.90625q0.75 0 1.0625 -0.546875l0 -4.9375l2.21875 0l0 7.046875l-2.0625 0l-0.0625 -0.765625zm7.5791016 -4.296875l-0.71875 -0.046875q-1.03125 0 -1.328125 0.65625l0 4.453125l-2.203125 0l0 -7.046875l2.0625 0l0.078125 0.90625q0.546875 -1.03125 1.53125 -1.03125q0.359375 0 0.609375 0.078125l-0.03125 2.03125z" fill-rule="nonzero"/><path fill="#000000" d="m187.99196 201.01384l-12.046875 0l0 -3.390625l12.046875 0l0 3.390625zm0 5.703125l-12.046875 0l0 -3.375l12.046875 0l0 3.375zm19.728287 -1.34375q0 -1.015625 -0.71875 -1.5625q-0.703125 -0.5625 -2.484375 -1.15625q-1.78125 -0.609375 -2.90625 -1.171875q-3.6875 -1.796875 -3.6875 -4.96875q0 -1.578125 0.90625 -2.78125q0.921875 -1.203125 2.59375 -1.875q1.6875 -0.671875 3.78125 -0.671875q2.046875 0 3.671875 0.734375q1.625 0.734375 2.515625 2.078125q0.90625 1.34375 0.90625 3.078125l-4.5625 0q0 -1.15625 -0.71875 -1.796875q-0.703125 -0.640625 -1.90625 -0.640625q-1.234375 0 -1.9375 0.546875q-0.703125 0.53125 -0.703125 1.375q0 0.71875 0.78125 1.3125q0.78125 0.59375 2.734375 1.234375q1.96875 0.625 3.234375 1.359375q3.078125 1.765625 3.078125 4.875q0 2.484375 -1.875 3.90625q-1.875 1.421875 -5.140625 1.421875q-2.3125 0 -4.1875 -0.828125q-1.859375 -0.828125 -2.8125 -2.265625q-0.9375 -1.4375 -0.9375 -3.3125l4.59375 0q0 1.515625 0.78125 2.25q0.78125 0.71875 2.5625 0.71875q1.125 0 1.78125 -0.484375q0.65625 -0.5 0.65625 -1.375zm21.795563 -10.390625l-5.6875 0l0 15.421875l-4.578125 0l0 -15.421875l-5.578125 0l0 -3.53125l15.84375 0l0 3.53125zm17.610626 6.34375q0 2.765625 -1.03125 4.90625q-1.03125 2.125 -2.921875 3.28125q-1.890625 1.15625 -4.3125 1.15625q-2.421875 0 -4.296875 -1.109375q-1.875 -1.125 -2.921875 -3.1875q-1.046875 -2.078125 -1.109375 -4.75l0 -1.078125q0 -2.78125 1.015625 -4.90625q1.03125 -2.125 2.9375 -3.28125q1.90625 -1.171875 4.34375 -1.171875q2.40625 0 4.296875 1.15625q1.890625 1.140625 2.9375 3.265625q1.046875 2.109375 1.0625 4.84375l0 0.875zm-4.65625 -0.796875q0 -2.828125 -0.9375 -4.28125q-0.9375 -1.46875 -2.703125 -1.46875q-3.4375 0 -3.625 5.140625l-0.015625 1.40625q0 2.78125 0.921875 4.28125q0.921875 1.484375 2.75 1.484375q1.734375 0 2.671875 -1.46875q0.9375 -1.46875 0.9375 -4.21875l0 -0.875zm11.576141 3.4375l0 6.4375l-4.5625 0l0 -18.953125l7.5625 0q2.171875 0 3.84375 0.8125q1.671875 0.796875 2.578125 2.28125q0.921875 1.46875 0.921875 3.34375q0 2.765625 -1.984375 4.421875q-1.984375 1.65625 -5.4375 1.65625l-2.921875 0zm0 -3.515625l3.0 0q1.328125 0 2.015625 -0.65625q0.703125 -0.671875 0.703125 -1.890625q0 -1.328125 -0.71875 -2.109375q-0.71875 -0.796875 -1.953125 -0.8125l-3.046875 0l0 5.46875z" fill-rule="nonzero"/><path fill="#000000" d="m171.16644 226.98259l-5.6875 0l0 15.421875l-4.578125 0l0 -15.421875l-5.578125 0l0 -3.53125l15.84375 0l0 3.53125zm20.06636 6.03125l-12.046875 0l0 -3.390625l12.046875 0l0 3.390625zm0 5.703125l-12.046875 0l0 -3.375l12.046875 0l0 3.375zm24.056412 -11.734375l-5.6875 0l0 15.421875l-4.578125 0l0 -15.421875l-5.578125 0l0 -3.53125l15.84375 0l0 3.53125z" fill-rule="nonzero"/><path fill="#000000" d="m218.46756 235.35759l0.078125 0.828125q0.734375 -0.953125 2.0 -0.953125q1.34375 0 1.8125 1.0625q0.703125 -1.0625 2.0625 -1.0625q2.140625 0 2.203125 2.59375l0 4.578125l-2.203125 0l0 -4.4375q0 -0.546875 -0.1875 -0.796875q-0.171875 -0.25 -0.65625 -0.25q-0.65625 0 -0.96875 0.578125l0 0.09375l0 4.8125l-2.1875 0l0 -4.4375q0 -0.546875 -0.1875 -0.796875q-0.171875 -0.25 -0.671875 -0.25q-0.625 0 -0.953125 0.578125l0 4.90625l-2.203125 0l0 -7.046875l2.0625 0zm13.370514 7.046875q-0.109375 -0.21875 -0.203125 -0.625q-0.609375 0.75 -1.6875 0.75q-1.0 0 -1.703125 -0.59375q-0.6875 -0.609375 -0.6875 -1.515625q0 -1.140625 0.84375 -1.71875q0.84375 -0.59375 2.453125 -0.59375l0.6875 0l0 -0.375q0 -0.96875 -0.84375 -0.96875q-0.78125 0 -0.78125 0.765625l-2.1875 0q0 -1.015625 0.859375 -1.65625q0.875 -0.640625 2.21875 -0.640625q1.34375 0 2.125 0.65625q0.78125 0.65625 0.796875 1.796875l0 3.125q0.015625 0.96875 0.3125 1.484375l0 0.109375l-2.203125 0zm-1.375 -1.4375q0.421875 0 0.6875 -0.171875q0.265625 -0.171875 0.390625 -0.390625l0 -1.125l-0.640625 0q-1.140625 0 -1.140625 1.015625q0 0.3125 0.1875 0.5q0.203125 0.171875 0.515625 0.171875zm7.339691 -3.671875l1.015625 -1.9375l2.28125 0l-1.859375 3.4375l1.953125 3.609375l-2.296875 0l-1.09375 -2.078125l-1.09375 2.078125l-2.296875 0l1.953125 -3.609375l-1.859375 -3.4375l2.3125 0l0.984375 1.9375z" fill-rule="nonzero"/></g></svg>