<svg version="1.1" viewBox="0.0 0.0 1280.0 960.0" fill="none" stroke="none" stroke-linecap="square" stroke-miterlimit="10" xmlns:xlink="http://www.w3.org/1999/xlink" xmlns="http://www.w3.org/2000/svg"><clipPath id="p.0"><path d="m0 0l1280.0 0l0 960.0l-1280.0 0l0 -960.0z" clip-rule="nonzero"/></clipPath><g clip-path="url(#p.0)"><path fill="#000000" fill-opacity="0.0" d="m0 0l1280.0 0l0 960.0l-1280.0 0z" fill-rule="evenodd"/><path fill="#3c78d8" d="m540.063 686.1522l152.69293 0l0 111.968506l-152.69293 0z" fill-rule="evenodd"/><path fill="#ffffff" d="m567.3361 744.4758q-0.0625 1.59375 -0.84375 2.8125q-0.78125 1.203125 -2.203125 1.875q-1.40625 0.65625 -3.21875 0.65625q-2.984375 0 -4.703125 -1.9375q-1.71875 -1.953125 -1.71875 -5.5l0 -0.75q0 -2.234375 0.765625 -3.90625q0.78125 -1.671875 2.234375 -2.578125q1.46875 -0.90625 3.390625 -0.90625q2.75 0 4.421875 1.453125q1.6875 1.453125 1.90625 4.0l-3.640625 0q-0.03125 -1.390625 -0.6875 -1.984375q-0.65625 -0.609375 -2.0 -0.609375q-1.375 0 -2.015625 1.015625q-0.625 1.015625 -0.65625 3.265625l0 1.0625q0 2.4375 0.609375 3.484375q0.609375 1.03125 2.09375 1.03125q1.265625 0 1.921875 -0.59375q0.671875 -0.59375 0.71875 -1.890625l3.625 0zm5.387207 0l0 5.140625l-3.65625 0l0 -15.15625l6.0625 0q1.734375 0 3.0625 0.640625q1.34375 0.640625 2.078125 1.828125q0.734375 1.171875 0.734375 2.671875q0 2.21875 -1.59375 3.546875q-1.578125 1.328125 -4.34375 1.328125l-2.34375 0zm0 -2.828125l2.40625 0q1.0625 0 1.609375 -0.53125q0.5625 -0.53125 0.5625 -1.5q0 -1.0625 -0.578125 -1.6875q-0.5625 -0.640625 -1.5625 -0.65625l-2.4375 0l0 4.375zm22.116455 -7.1875l0 9.921875q0 1.6875 -0.71875 2.921875q-0.71875 1.234375 -2.0625 1.875q-1.328125 0.640625 -3.171875 0.640625q-2.765625 0 -4.359375 -1.4375q-1.59375 -1.4375 -1.625 -3.9375l0 -9.984375l3.671875 0l0 10.0625q0.0625 2.484375 2.3125 2.484375q1.140625 0 1.71875 -0.625q0.59375 -0.625 0.59375 -2.03125l0 -9.890625l3.640625 0zm13.766052 6.546875l3.546875 0l0 3.015625l-3.546875 0l0 4.078125l-3.28125 0l0 -4.078125l-3.5625 0l0 -3.015625l3.5625 0l0 -3.953125l3.28125 0l0 3.953125zm10.53241 8.609375l0 -15.15625l5.453125 0q2.921875 0 4.4375 1.078125q1.53125 1.0625 1.53125 3.109375q0 1.171875 -0.546875 2.0q-0.53125 0.828125 -1.578125 1.234375q1.1875 0.3125 1.8125 1.171875q0.640625 0.84375 0.640625 2.078125q0 2.21875 -1.40625 3.34375q-1.40625 1.125 -4.1875 1.140625l-6.15625 0zm3.65625 -6.453125l0 3.640625l2.40625 0q0.984375 0 1.515625 -0.453125q0.53125 -0.453125 0.53125 -1.28125q0 -1.890625 -1.890625 -1.90625l-2.5625 0zm0 -2.390625l1.90625 0q1.203125 -0.015625 1.703125 -0.4375q0.515625 -0.421875 0.515625 -1.265625q0 -0.953125 -0.546875 -1.375q-0.546875 -0.421875 -1.78125 -0.421875l-1.796875 0l0 3.5zm15.741394 3.484375l-1.984375 0l0 5.359375l-3.65625 0l0 -15.15625l5.96875 0q2.703125 0 4.21875 1.203125q1.515625 1.1875 1.515625 3.375q0 1.578125 -0.640625 2.625q-0.640625 1.03125 -2.0 1.6875l3.171875 6.109375l0 0.15625l-3.921875 0l-2.671875 -5.359375zm-1.984375 -2.8125l2.3125 0q1.046875 0 1.5625 -0.546875q0.53125 -0.546875 0.53125 -1.515625q0 -0.984375 -0.53125 -1.546875q-0.53125 -0.5625 -1.5625 -0.5625l-2.3125 0l0 4.171875zm18.882019 5.34375l-5.015625 0l-0.875 2.828125l-3.90625 0l5.5625 -15.15625l3.4375 0l5.59375 15.15625l-3.921875 0l-0.875 -2.828125zm-4.140625 -2.828125l3.265625 0l-1.640625 -5.25l-1.625 5.25zm14.855835 -9.5l3.375061 10.546875l3.375 -10.546875l4.8125 0l0 15.15625l-3.671875 0l0 -3.546875l0.359375 -7.234375l-3.65625 10.78125l-2.421875 0l-3.671936 -10.796875l0.34375 7.25l0 3.546875l-3.65625 0l0 -15.15625l4.8125 0z" fill-rule="nonzero"/><path fill="#000000" fill-opacity="0.0" d="m616.4094 570.08923l0 116.06299" fill-rule="evenodd"/><path stroke="#741b47" stroke-width="2.0" stroke-linejoin="round" stroke-linecap="butt" d="m616.4094 582.08923l0 92.06299" fill-rule="evenodd"/><path fill="#741b47" stroke="#741b47" stroke-width="2.0" stroke-linecap="butt" d="m619.7129 582.08923l-3.3034668 -9.076172l-3.3034668 9.076172z" fill-rule="evenodd"/><path fill="#741b47" stroke="#741b47" stroke-width="2.0" stroke-linecap="butt" d="m613.10596 674.1522l3.3034668 9.076233l3.3034668 -9.076233z" fill-rule="evenodd"/><path fill="#e69138" d="m540.063 110.97113l152.69293 0l0 111.968506l-152.69293 0z" fill-rule="evenodd"/><path fill="#ffffff" d="m570.20966 171.60725l-5.015625 0l-0.875 2.828125l-3.90625 0l5.5625 -15.15625l3.4375 0l5.59375 15.15625l-3.921875 0l-0.875 -2.828125zm-4.140625 -2.828125l3.265625 0l-1.640625 -5.25l-1.625 5.25zm14.65271 3.15625q0.734375 0 1.140625 -0.390625q0.40625 -0.40625 0.40625 -1.125l3.28125 0q0 1.84375 -1.328125 3.03125q-1.328125 1.1875 -3.421875 1.1875q-2.453125 0 -3.875 -1.53125q-1.40625 -1.546875 -1.40625 -4.28125l0 -0.140625q0 -1.703125 0.625 -3.015625q0.625 -1.3125 1.8125 -2.0q1.1875 -0.703125 2.8125 -0.703125q2.203125 0 3.484375 1.21875q1.296875 1.203125 1.296875 3.296875l-3.28125 0q0 -0.875 -0.4375 -1.34375q-0.421875 -0.46875 -1.140625 -0.46875q-1.359375 0 -1.59375 1.734375q-0.078125 0.546875 -0.078125 1.515625q0 1.703125 0.40625 2.359375q0.40625 0.65625 1.296875 0.65625zm11.080627 0q0.734375 0 1.140625 -0.390625q0.40625 -0.40625 0.40625 -1.125l3.28125 0q0 1.84375 -1.328125 3.03125q-1.328125 1.1875 -3.421875 1.1875q-2.453125 0 -3.875 -1.53125q-1.40625 -1.546875 -1.40625 -4.28125l0 -0.140625q0 -1.703125 0.625 -3.015625q0.625 -1.3125 1.8125 -2.0q1.1875 -0.703125 2.8125 -0.703125q2.203125 0 3.484375 1.21875q1.296875 1.203125 1.296875 3.296875l-3.28125 0q0 -0.875 -0.4375 -1.34375q-0.421875 -0.46875 -1.140625 -0.46875q-1.359375 0 -1.59375 1.734375q-0.078125 0.546875 -0.078125 1.515625q0 1.703125 0.40625 2.359375q0.40625 0.65625 1.296875 0.65625zm11.768127 2.703125q-2.59375 0 -4.203125 -1.546875q-1.59375 -1.546875 -1.59375 -4.015625l0 -0.296875q0 -1.734375 0.640625 -3.046875q0.640625 -1.328125 1.859375 -2.046875q1.234375 -0.71875 2.921875 -0.71875q2.375 0 3.75 1.46875q1.375 1.46875 1.375 4.109375l0 1.359375l-6.984375 0q0.1875 0.953125 0.828125 1.5q0.640625 0.53125 1.640625 0.53125q1.671875 0 2.609375 -1.171875l1.59375 1.90625q-0.640625 0.90625 -1.84375 1.4375q-1.203125 0.53125 -2.59375 0.53125zm-0.390625 -8.96875q-1.546875 0 -1.84375 2.03125l3.546875 0l0 -0.265625q0.015625 -0.84375 -0.4375 -1.296875q-0.4375 -0.46875 -1.265625 -0.46875zm10.25238 8.765625l-3.515625 0l0 -16.0l3.515625 0l0 16.0zm7.613159 0.203125q-2.59375 0 -4.203125 -1.546875q-1.59375 -1.546875 -1.59375 -4.015625l0 -0.296875q0 -1.734375 0.640625 -3.046875q0.640625 -1.328125 1.859375 -2.046875q1.234375 -0.71875 2.921875 -0.71875q2.375 0 3.75 1.46875q1.375 1.46875 1.375 4.109375l0 1.359375l-6.984375 0q0.1875 0.953125 0.828125 1.5q0.640625 0.53125 1.640625 0.53125q1.671875 0 2.609375 -1.171875l1.59375 1.90625q-0.640625 0.90625 -1.84375 1.4375q-1.203125 0.53125 -2.59375 0.53125zm-0.390625 -8.96875q-1.546875 0 -1.84375 2.03125l3.546875 0l0 -0.265625q0.015625 -0.84375 -0.4375 -1.296875q-0.4375 -0.46875 -1.265625 -0.46875zm13.361755 0.671875l-1.15625 -0.078125q-1.65625 0 -2.125 1.03125l0 7.140625l-3.5 0l0 -11.265625l3.28125 0l0.125 1.4375q0.875 -1.640625 2.46875 -1.640625q0.5625 0 0.96875 0.125l-0.0625 3.25zm7.30011 8.09375q-0.1875 -0.34375 -0.328125 -1.015625q-0.96875 1.21875 -2.703125 1.21875q-1.59375 0 -2.71875 -0.953125q-1.109375 -0.96875 -1.109375 -2.421875q0 -1.84375 1.34375 -2.78125q1.359375 -0.9375 3.953125 -0.9375l1.078125 0l0 -0.59375q0 -1.546875 -1.34375 -1.546875q-1.25 0 -1.25 1.234375l-3.515625 0q0 -1.640625 1.390625 -2.65625q1.390625 -1.015625 3.546875 -1.015625q2.15625 0 3.40625 1.046875q1.25 1.046875 1.28125 2.875l0 5.0q0.03125 1.546875 0.484375 2.375l0 0.171875l-3.515625 0zm-2.1875 -2.296875q0.65625 0 1.078125 -0.28125q0.4375 -0.28125 0.625 -0.625l0 -1.8125l-1.015625 0q-1.84375 0 -1.84375 1.65625q0 0.46875 0.328125 0.765625q0.328125 0.296875 0.828125 0.296875zm11.257629 -11.765625l0 2.796875l1.84375 0l0 2.4375l-1.84375 0l0 5.15625q0 0.625 0.21875 0.875q0.234375 0.25 0.90625 0.25q0.53125 0 0.875 -0.0625l0 2.515625q-0.9375 0.296875 -1.96875 0.296875q-1.8125 0 -2.6875 -0.84375q-0.859375 -0.859375 -0.859375 -2.59375l0 -5.59375l-1.4375 0l0 -2.4375l1.4375 0l0 -2.796875l3.515625 0zm2.477417 8.328125q0 -1.6875 0.65625 -3.0q0.65625 -1.328125 1.875 -2.03125q1.234375 -0.703125 2.890625 -0.703125q2.53125 0 3.984375 1.5625q1.453125 1.5625 1.453125 4.265625l0 0.125q0 2.625 -1.46875 4.171875q-1.453125 1.546875 -3.953125 1.546875q-2.40625 0 -3.859375 -1.4375q-1.453125 -1.4375 -1.578125 -3.90625l0 -0.59375zm3.5 0.21875q0 1.5625 0.484375 2.296875q0.5 0.71875 1.453125 0.71875q1.875 0 1.921875 -2.890625l0 -0.34375q0 -3.03125 -1.9375 -3.03125q-1.765625 0 -1.90625 2.609375l-0.015625 0.640625zm15.726196 -2.578125l-1.15625 -0.078125q-1.65625 0 -2.125 1.03125l0 7.140625l-3.5 0l0 -11.265625l3.28125 0l0.125 1.4375q0.875 -1.640625 2.46875 -1.640625q0.5625 0 0.96875 0.125l-0.0625 3.25z" fill-rule="nonzero"/><path fill="#e69138" d="m889.7638 398.56168l152.69287 0l0 111.968506l-152.69287 0z" fill-rule="evenodd"/><path fill="#ffffff" d="m919.9104 459.1978l-5.015625 0l-0.875 2.828125l-3.90625 0l5.5625 -15.15625l3.4375 0l5.59375 15.15625l-3.921875 0l-0.875 -2.828125zm-4.140625 -2.828125l3.265625 0l-1.640625 -5.25l-1.625 5.25zm14.65271 3.15625q0.734375 0 1.140625 -0.390625q0.40625 -0.40625 0.40625 -1.125l3.28125 0q0 1.84375 -1.328125 3.03125q-1.328125 1.1875 -3.421875 1.1875q-2.453125 0 -3.875 -1.53125q-1.40625 -1.546875 -1.40625 -4.28125l0 -0.140625q0 -1.703125 0.625 -3.015625q0.625 -1.3125 1.8125 -2.0q1.1875 -0.703125 2.8125 -0.703125q2.203125 0 3.484375 1.21875q1.296875 1.203125 1.296875 3.296875l-3.28125 0q0 -0.875 -0.4375 -1.34375q-0.421875 -0.46875 -1.140625 -0.46875q-1.359375 0 -1.59375 1.734375q-0.078125 0.546875 -0.078125 1.515625q0 1.703125 0.40625 2.359375q0.40625 0.65625 1.296875 0.65625zm11.080627 0q0.734375 0 1.140625 -0.390625q0.40625 -0.40625 0.40625 -1.125l3.28125 0q0 1.84375 -1.328125 3.03125q-1.328125 1.1875 -3.421875 1.1875q-2.453125 0 -3.875 -1.53125q-1.40625 -1.546875 -1.40625 -4.28125l0 -0.140625q0 -1.703125 0.625 -3.015625q0.625 -1.3125 1.8125 -2.0q1.1875 -0.703125 2.8125 -0.703125q2.203125 0 3.484375 1.21875q1.296875 1.203125 1.296875 3.296875l-3.28125 0q0 -0.875 -0.4375 -1.34375q-0.421875 -0.46875 -1.140625 -0.46875q-1.359375 0 -1.59375 1.734375q-0.078125 0.546875 -0.078125 1.515625q0 1.703125 0.40625 2.359375q0.40625 0.65625 1.296875 0.65625zm11.768127 2.703125q-2.59375 0 -4.203125 -1.546875q-1.59375 -1.546875 -1.59375 -4.015625l0 -0.296875q0 -1.734375 0.640625 -3.046875q0.640625 -1.328125 1.859375 -2.046875q1.234375 -0.71875 2.921875 -0.71875q2.375 0 3.75 1.46875q1.375 1.46875 1.375 4.109375l0 1.359375l-6.984375 0q0.1875 0.953125 0.828125 1.5q0.640625 0.53125 1.640625 0.53125q1.671875 0 2.609375 -1.171875l1.59375 1.90625q-0.640625 0.90625 -1.84375 1.4375q-1.203125 0.53125 -2.59375 0.53125zm-0.390625 -8.96875q-1.546875 0 -1.84375 2.03125l3.546875 0l0 -0.265625q0.015625 -0.84375 -0.4375 -1.296875q-0.4375 -0.46875 -1.265625 -0.46875zm10.25238 8.765625l-3.515625 0l0 -16.0l3.515625 0l0 16.0zm7.613159 0.203125q-2.59375 0 -4.203125 -1.546875q-1.59375 -1.546875 -1.59375 -4.015625l0 -0.296875q0 -1.734375 0.640625 -3.046875q0.640625 -1.328125 1.859375 -2.046875q1.234375 -0.71875 2.921875 -0.71875q2.375 0 3.75 1.46875q1.375 1.46875 1.375 4.109375l0 1.359375l-6.984375 0q0.1875 0.953125 0.828125 1.5q0.640625 0.53125 1.640625 0.53125q1.671875 0 2.609375 -1.171875l1.59375 1.90625q-0.640625 0.90625 -1.84375 1.4375q-1.203125 0.53125 -2.59375 0.53125zm-0.390625 -8.96875q-1.546875 0 -1.84375 2.03125l3.546875 0l0 -0.265625q0.015625 -0.84375 -0.4375 -1.296875q-0.4375 -0.46875 -1.265625 -0.46875zm13.361755 0.671875l-1.15625 -0.078125q-1.65625 0 -2.125 1.03125l0 7.140625l-3.5 0l0 -11.265625l3.28125 0l0.125 1.4375q0.875 -1.640625 2.46875 -1.640625q0.5625 0 0.96875 0.125l-0.0625 3.25zm7.30011 8.09375q-0.1875 -0.34375 -0.328125 -1.015625q-0.96875 1.21875 -2.703125 1.21875q-1.59375 0 -2.71875 -0.953125q-1.109375 -0.96875 -1.109375 -2.421875q0 -1.84375 1.34375 -2.78125q1.359375 -0.9375 3.953125 -0.9375l1.078125 0l0 -0.59375q0 -1.546875 -1.34375 -1.546875q-1.25 0 -1.25 1.234375l-3.515625 0q0 -1.640625 1.390625 -2.65625q1.390625 -1.015625 3.546875 -1.015625q2.15625 0 3.40625 1.046875q1.25 1.046875 1.28125 2.875l0 5.0q0.03125 1.546875 0.484375 2.375l0 0.171875l-3.515625 0zm-2.1875 -2.296875q0.65625 0 1.078125 -0.28125q0.4375 -0.28125 0.625 -0.625l0 -1.8125l-1.015625 0q-1.84375 0 -1.84375 1.65625q0 0.46875 0.328125 0.765625q0.328125 0.296875 0.828125 0.296875zm11.25769 -11.765625l0 2.796875l1.84375 0l0 2.4375l-1.84375 0l0 5.15625q0 0.625 0.21875 0.875q0.234375 0.25 0.90625 0.25q0.53125 0 0.875 -0.0625l0 2.515625q-0.9375 0.296875 -1.96875 0.296875q-1.8125 0 -2.6875 -0.84375q-0.859375 -0.859375 -0.859375 -2.59375l0 -5.59375l-1.4375 0l0 -2.4375l1.4375 0l0 -2.796875l3.515625 0zm2.477356 8.328125q0 -1.6875 0.65625 -3.0q0.65625 -1.328125 1.875 -2.03125q1.234375 -0.703125 2.890625 -0.703125q2.53125 0 3.984375 1.5625q1.453125 1.5625 1.453125 4.265625l0 0.125q0 2.625 -1.46875 4.171875q-1.453125 1.546875 -3.953125 1.546875q-2.40625 0 -3.859375 -1.4375q-1.453125 -1.4375 -1.578125 -3.90625l0 -0.59375zm3.5 0.21875q0 1.5625 0.484375 2.296875q0.5 0.71875 1.453125 0.71875q1.875 0 1.921875 -2.890625l0 -0.34375q0 -3.03125 -1.9375 -3.03125q-1.765625 0 -1.90625 2.609375l-0.015625 0.640625zm15.726257 -2.578125l-1.15625 -0.078125q-1.65625 0 -2.125 1.03125l0 7.140625l-3.5 0l0 -11.265625l3.28125 0l0.125 1.4375q0.875 -1.640625 2.46875 -1.640625q0.5625 0 0.96875 0.125l-0.0625 3.25z" fill-rule="nonzero"/><path fill="#e69138" d="m190.3622 398.56168l152.69292 0l0 111.968506l-152.69292 0z" fill-rule="evenodd"/><path fill="#ffffff" d="m220.50883 459.1978l-5.015625 0l-0.875 2.828125l-3.90625 0l5.5625 -15.15625l3.4375 0l5.59375 15.15625l-3.921875 0l-0.875 -2.828125zm-4.140625 -2.828125l3.265625 0l-1.640625 -5.25l-1.625 5.25zm14.65271 3.15625q0.734375 0 1.140625 -0.390625q0.40625 -0.40625 0.40625 -1.125l3.28125 0q0 1.84375 -1.328125 3.03125q-1.328125 1.1875 -3.421875 1.1875q-2.453125 0 -3.875 -1.53125q-1.40625 -1.546875 -1.40625 -4.28125l0 -0.140625q0 -1.703125 0.625 -3.015625q0.625 -1.3125 1.8125 -2.0q1.1875 -0.703125 2.8125 -0.703125q2.203125 0 3.484375 1.21875q1.296875 1.203125 1.296875 3.296875l-3.28125 0q0 -0.875 -0.4375 -1.34375q-0.421875 -0.46875 -1.140625 -0.46875q-1.359375 0 -1.59375 1.734375q-0.078125 0.546875 -0.078125 1.515625q0 1.703125 0.40625 2.359375q0.40625 0.65625 1.296875 0.65625zm11.080627 0q0.734375 0 1.140625 -0.390625q0.40625 -0.40625 0.40625 -1.125l3.28125 0q0 1.84375 -1.328125 3.03125q-1.328125 1.1875 -3.421875 1.1875q-2.453125 0 -3.875 -1.53125q-1.40625 -1.546875 -1.40625 -4.28125l0 -0.140625q0 -1.703125 0.625 -3.015625q0.625 -1.3125 1.8125 -2.0q1.1875 -0.703125 2.8125 -0.703125q2.203125 0 3.484375 1.21875q1.296875 1.203125 1.296875 3.296875l-3.28125 0q0 -0.875 -0.4375 -1.34375q-0.421875 -0.46875 -1.140625 -0.46875q-1.359375 0 -1.59375 1.734375q-0.078125 0.546875 -0.078125 1.515625q0 1.703125 0.40625 2.359375q0.40625 0.65625 1.296875 0.65625zm11.768127 2.703125q-2.59375 0 -4.203125 -1.546875q-1.59375 -1.546875 -1.59375 -4.015625l0 -0.296875q0 -1.734375 0.640625 -3.046875q0.640625 -1.328125 1.859375 -2.046875q1.234375 -0.71875 2.921875 -0.71875q2.375 0 3.7500153 1.46875q1.375 1.46875 1.375 4.109375l0 1.359375l-6.9843903 0q0.1875 0.953125 0.828125 1.5q0.640625 0.53125 1.640625 0.53125q1.671875 0 2.6093903 -1.171875l1.59375 1.90625q-0.640625 0.90625 -1.84375 1.4375q-1.2031403 0.53125 -2.5937653 0.53125zm-0.390625 -8.96875q-1.546875 0 -1.84375 2.03125l3.546875 0l0 -0.265625q0.015625 -0.84375 -0.4375 -1.296875q-0.4375 -0.46875 -1.265625 -0.46875zm10.252396 8.765625l-3.515625 0l0 -16.0l3.515625 0l0 16.0zm7.613159 0.203125q-2.59375 0 -4.203125 -1.546875q-1.59375 -1.546875 -1.59375 -4.015625l0 -0.296875q0 -1.734375 0.640625 -3.046875q0.640625 -1.328125 1.859375 -2.046875q1.234375 -0.71875 2.921875 -0.71875q2.375 0 3.75 1.46875q1.375 1.46875 1.375 4.109375l0 1.359375l-6.984375 0q0.1875 0.953125 0.828125 1.5q0.640625 0.53125 1.640625 0.53125q1.671875 0 2.609375 -1.171875l1.59375 1.90625q-0.640625 0.90625 -1.84375 1.4375q-1.203125 0.53125 -2.59375 0.53125zm-0.390625 -8.96875q-1.546875 0 -1.84375 2.03125l3.546875 0l0 -0.265625q0.015625 -0.84375 -0.4375 -1.296875q-0.4375 -0.46875 -1.265625 -0.46875zm13.361755 0.671875l-1.15625 -0.078125q-1.65625 0 -2.125 1.03125l0 7.140625l-3.5 0l0 -11.265625l3.28125 0l0.125 1.4375q0.875 -1.640625 2.46875 -1.640625q0.5625 0 0.96875 0.125l-0.0625 3.25zm7.30011 8.09375q-0.1875 -0.34375 -0.328125 -1.015625q-0.96875 1.21875 -2.703125 1.21875q-1.59375 0 -2.71875 -0.953125q-1.109375 -0.96875 -1.109375 -2.421875q0 -1.84375 1.34375 -2.78125q1.359375 -0.9375 3.953125 -0.9375l1.078125 0l0 -0.59375q0 -1.546875 -1.34375 -1.546875q-1.25 0 -1.25 1.234375l-3.515625 0q0 -1.640625 1.390625 -2.65625q1.390625 -1.015625 3.546875 -1.015625q2.15625 0 3.40625 1.046875q1.25 1.046875 1.28125 2.875l0 5.0q0.03125 1.546875 0.484375 2.375l0 0.171875l-3.515625 0zm-2.1875 -2.296875q0.65625 0 1.078125 -0.28125q0.4375 -0.28125 0.625 -0.625l0 -1.8125l-1.015625 0q-1.84375 0 -1.84375 1.65625q0 0.46875 0.328125 0.765625q0.328125 0.296875 0.828125 0.296875zm11.25766 -11.765625l0 2.796875l1.84375 0l0 2.4375l-1.84375 0l0 5.15625q0 0.625 0.21875 0.875q0.234375 0.25 0.90625 0.25q0.53125 0 0.875 -0.0625l0 2.515625q-0.9375 0.296875 -1.96875 0.296875q-1.8125 0 -2.6875 -0.84375q-0.859375 -0.859375 -0.859375 -2.59375l0 -5.59375l-1.4375 0l0 -2.4375l1.4375 0l0 -2.796875l3.515625 0zm2.4773865 8.328125q0 -1.6875 0.65625 -3.0q0.65625 -1.328125 1.875 -2.03125q1.234375 -0.703125 2.890625 -0.703125q2.53125 0 3.984375 1.5625q1.453125 1.5625 1.453125 4.265625l0 0.125q0 2.625 -1.46875 4.171875q-1.453125 1.546875 -3.953125 1.546875q-2.40625 0 -3.859375 -1.4375q-1.453125 -1.4375 -1.578125 -3.90625l0 -0.59375zm3.5 0.21875q0 1.5625 0.484375 2.296875q0.5 0.71875 1.453125 0.71875q1.875 0 1.921875 -2.890625l0 -0.34375q0 -3.03125 -1.9375 -3.03125q-1.765625 0 -1.90625 2.609375l-0.015625 0.640625zm15.726227 -2.578125l-1.15625 -0.078125q-1.65625 0 -2.125 1.03125l0 7.140625l-3.5 0l0 -11.265625l3.28125 0l0.125 1.4375q0.875 -1.640625 2.46875 -1.640625q0.5625 0 0.96875 0.125l-0.0625 3.25z" fill-rule="nonzero"/><path fill="#a64d79" d="m591.98425 247.36482l24.42517 -24.425186l24.425232 24.425186l-12.212585 0l0 67.2126l12.212585 0l-24.425232 24.425201l-24.42517 -24.425201l12.212585 0l0 -67.2126z" fill-rule="evenodd"/><path fill="#a64d79" d="m865.3307 430.12073l24.425232 24.425201l-24.425232 24.425201l0 -12.212585l-54.992126 0l0 12.212585l-24.42517 -24.425201l24.42517 -24.425201l0 12.212616l54.992126 0z" fill-rule="evenodd"/><path fill="#a64d79" d="m422.48032 430.12073l24.425201 24.425201l-24.425201 24.425201l0 -12.212585l-54.992126 0l0 12.212585l-24.425201 -24.425201l24.425201 -24.425201l0 12.212616l54.992126 0z" fill-rule="evenodd"/><path fill="#000000" fill-opacity="0.0" d="m694.2992 744.16797l271.81104 0l0 -233.63779" fill-rule="evenodd"/><path stroke="#e69138" stroke-width="2.0" stroke-linejoin="round" stroke-linecap="butt" d="m694.2992 744.16797l271.81104 0l0 -221.63776" fill-rule="evenodd"/><path fill="#e69138" stroke="#e69138" stroke-width="2.0" stroke-linecap="butt" d="m969.4137 522.5302l-3.3034668 -9.076233l-3.3034668 9.076233z" fill-rule="evenodd"/><path fill="#000000" fill-opacity="0.0" d="m540.063 742.1365l-273.35434 0l0 -231.62204" fill-rule="evenodd"/><path stroke="#e69138" stroke-width="2.0" stroke-linejoin="round" stroke-linecap="butt" d="m540.063 742.1365l-273.35434 0l0 -219.62201" fill-rule="evenodd"/><path fill="#e69138" stroke="#e69138" stroke-width="2.0" stroke-linecap="butt" d="m270.01212 522.51447l-3.3034668 -9.076233l-3.3034668 9.076233z" fill-rule="evenodd"/><path fill="#000000" fill-opacity="0.0" d="m616.4094 798.1207l0 24.998535l101.3465 0l0 -737.1466l-101.28351 0l0 24.998505" fill-rule="evenodd"/><path stroke="#e69138" stroke-width="2.0" stroke-linejoin="round" stroke-linecap="butt" d="m616.4094 798.1207l0 24.998535l101.3465 0l0 -737.1466l-101.28351 0l0 12.998505" fill-rule="evenodd"/><path fill="#e69138" stroke="#e69138" stroke-width="2.0" stroke-linecap="butt" d="m613.169 98.97113l3.3034058 9.076195l3.3034668 -9.076195z" fill-rule="evenodd"/><path fill="#a64d79" d="m446.9134 339.00262l338.99213 0l0 231.08661l-338.99213 0z" fill-rule="evenodd"/><path fill="#ffffff" d="m570.5824 462.02594l0 -15.15625l4.890564 0q2.015625 0 3.609375 0.90625q1.609375 0.90625 2.5 2.578125q0.90625 1.65625 0.921875 3.71875l0 0.6875q0 2.09375 -0.890625 3.75q-0.875 1.640625 -2.46875 2.578125q-1.59375 0.921875 -3.5625 0.9375l-4.999939 0zm3.65625 -12.34375l0 9.53125l1.281189 0q1.5625 0 2.40625 -1.109375q0.84375 -1.125 0.84375 -3.34375l0 -0.65625q0 -2.1875 -0.84375 -3.296875q-0.84375 -1.125 -2.453125 -1.125l-1.234314 0zm10.132019 12.34375l0 -15.15625l4.890625 0q2.015625 0 3.609375 0.90625q1.609375 0.90625 2.5 2.578125q0.90625 1.65625 0.921875 3.71875l0 0.6875q0 2.09375 -0.890625 3.75q-0.875 1.640625 -2.46875 2.578125q-1.59375 0.921875 -3.5625 0.9375l-5.0 0zm3.65625 -12.34375l0 9.53125l1.28125 0q1.5625 0 2.40625 -1.109375q0.84375 -1.125 0.84375 -3.34375l0 -0.65625q0 -2.1875 -0.84375 -3.296875q-0.84375 -1.125 -2.453125 -1.125l-1.234375 0zm15.772644 6.984375l-1.984375 0l0 5.359375l-3.65625 0l0 -15.15625l5.96875 0q2.703125 0 4.21875 1.203125q1.515625 1.1875 1.515625 3.375q0 1.578125 -0.640625 2.625q-0.640625 1.03125 -2.0 1.6875l3.171875 6.109375l0 0.15625l-3.921875 0l-2.671875 -5.359375zm-1.984375 -2.8125l2.3125 0q1.046875 0 1.5625 -0.546875q0.53125 -0.546875 0.53125 -1.515625q0 -0.984375 -0.53125 -1.546875q-0.53125 -0.5625 -1.5625 -0.5625l-2.3125 0l0 4.171875zm21.208862 2.8125l-1.984375 0l0 5.359375l-3.65625 0l0 -15.15625l5.96875 0q2.703125 0 4.21875 1.203125q1.515625 1.1875 1.515625 3.375q0 1.578125 -0.640625 2.625q-0.640625 1.03125 -2.0 1.6875l3.171875 6.109375l0 0.15625l-3.921875 0l-2.671875 -5.359375zm-1.984375 -2.8125l2.3125 0q1.046875 0 1.5625 -0.546875q0.53125 -0.546875 0.53125 -1.515625q0 -0.984375 -0.53125 -1.546875q-0.53125 -0.5625 -1.5625 -0.5625l-2.3125 0l0 4.171875zm18.882019 5.34375l-5.015625 0l-0.875 2.828125l-3.90625 0l5.5625 -15.15625l3.4375 0l5.59375 15.15625l-3.921875 0l-0.875 -2.828125zm-4.140625 -2.828125l3.265625 0l-1.640625 -5.25l-1.625 5.25zm14.855835 -9.5l3.375 10.546875l3.375 -10.546875l4.8125 0l0 15.15625l-3.671875 0l0 -3.546875l0.359375 -7.234375l-3.65625 10.78125l-2.421875 0l-3.671875 -10.796875l0.34375 7.25l0 3.546875l-3.65625 0l0 -15.15625l4.8125 0z" fill-rule="nonzero"/><path fill="#000000" fill-opacity="0.0" d="m529.3779 259.96326l74.834656 0l0 42.015747l-74.834656 0z" fill-rule="evenodd"/><path fill="#000000" d="m547.15314 286.88324l0 -13.265625l4.28125 0q1.75 0 3.15625 0.796875q1.40625 0.796875 2.1875 2.25q0.796875 1.453125 0.796875 3.265625l0 0.609375q0 1.8125 -0.765625 3.265625q-0.765625 1.4375 -2.171875 2.25q-1.390625 0.8125 -3.125 0.828125l-4.359375 0zm3.203125 -10.796875l0 8.34375l1.109375 0q1.375 0 2.109375 -0.984375q0.734375 -0.984375 0.734375 -2.90625l0 -0.578125q0 -1.921875 -0.734375 -2.890625q-0.734375 -0.984375 -2.140625 -0.984375l-1.078125 0zm13.060974 -2.46875l2.953125 9.234375l2.953125 -9.234375l4.21875 0l0 13.265625l-3.21875 0l0 -3.09375l0.3125 -6.34375l-3.203125 9.4375l-2.109375 0l-3.21875 -9.453125l0.3125 6.359375l0 3.09375l-3.203125 0l0 -13.265625l4.203125 0zm19.843689 10.78125l-4.375 0l-0.765625 2.484375l-3.421875 0l4.875 -13.265625l3.0 0l4.90625 13.265625l-3.4375 0l-0.78125 -2.484375zm-3.609375 -2.46875l2.84375 0l-1.421875 -4.59375l-1.421875 4.59375z" fill-rule="nonzero"/><path fill="#000000" fill-opacity="0.0" d="m357.56693 488.73227l74.834656 0l0 42.015778l-74.834656 0z" fill-rule="evenodd"/><path fill="#000000" d="m375.34207 515.6523l0 -13.265625l4.28125 0q1.75 0 3.15625 0.796875q1.40625 0.796875 2.1875 2.25q0.796875 1.453125 0.796875 3.265625l0 0.609375q0 1.8125 -0.765625 3.265625q-0.765625 1.4375 -2.171875 2.25q-1.390625 0.8125 -3.125 0.828125l-4.359375 0zm3.203125 -10.796875l0 8.34375l1.109375 0q1.375 0 2.109375 -0.984375q0.734375 -0.984375 0.734375 -2.90625l0 -0.578125q0 -1.921875 -0.734375 -2.890625q-0.734375 -0.984375 -2.140625 -0.984375l-1.078125 0zm13.060974 -2.46875l2.953125 9.234375l2.953125 -9.234375l4.21875 0l0 13.265625l-3.21875 0l0 -3.09375l0.3125 -6.34375l-3.203125 9.4375l-2.109375 0l-3.21875 -9.453125l0.3125 6.359375l0 3.09375l-3.203125 0l0 -13.265625l4.203125 0zm19.84375 10.78125l-4.375 0l-0.765625 2.484375l-3.421875 0l4.875 -13.265625l3.0 0l4.90625 13.265625l-3.4375 0l-0.78125 -2.484375zm-3.609375 -2.46875l2.84375 0l-1.421875 -4.59375l-1.421875 4.59375z" fill-rule="nonzero"/><path fill="#000000" fill-opacity="0.0" d="m800.4173 488.73227l74.834656 0l0 42.015778l-74.834656 0z" fill-rule="evenodd"/><path fill="#000000" d="m818.1925 515.6523l0 -13.265625l4.28125 0q1.75 0 3.15625 0.796875q1.40625 0.796875 2.1875 2.25q0.796875 1.453125 0.796875 3.265625l0 0.609375q0 1.8125 -0.765625 3.265625q-0.765625 1.4375 -2.171875 2.25q-1.390625 0.8125 -3.125 0.828125l-4.359375 0zm3.203125 -10.796875l0 8.34375l1.109375 0q1.375 0 2.109375 -0.984375q0.734375 -0.984375 0.734375 -2.90625l0 -0.578125q0 -1.921875 -0.734375 -2.890625q-0.734375 -0.984375 -2.140625 -0.984375l-1.078125 0zm13.060974 -2.46875l2.953125 9.234375l2.953125 -9.234375l4.21875 0l0 13.265625l-3.21875 0l0 -3.09375l0.3125 -6.34375l-3.203125 9.4375l-2.109375 0l-3.21875 -9.453125l0.3125 6.359375l0 3.09375l-3.203125 0l0 -13.265625l4.203125 0zm19.843689 10.78125l-4.375 0l-0.765625 2.484375l-3.421875 0l4.875 -13.265625l3.0 0l4.90625 13.265625l-3.4375 0l-0.78125 -2.484375zm-3.609375 -2.46875l2.84375 0l-1.421875 -4.59375l-1.421875 4.59375z" fill-rule="nonzero"/><path fill="#000000" fill-opacity="0.0" d="m531.77954 31.931759l169.25983 0l0 42.01575l-169.25983 0z" fill-rule="evenodd"/><path fill="#000000" d="m554.3616 54.367382q-0.0625 1.375 -0.75 2.4375q-0.6875 1.0625 -1.921875 1.65625q-1.234375 0.578125 -2.8125 0.578125q-2.609375 0 -4.125 -1.703125q-1.5 -1.703125 -1.5 -4.8125l0 -0.65625q0 -1.953125 0.671875 -3.40625q0.6875 -1.46875 1.953125 -2.265625q1.28125 -0.796875 2.96875 -0.796875q2.40625 0 3.875 1.28125q1.46875 1.265625 1.671875 3.484375l-3.1875 0q-0.046875 -1.203125 -0.625 -1.734375q-0.5625 -0.53125 -1.734375 -0.53125q-1.203125 0 -1.765625 0.890625q-0.546875 0.890625 -0.578125 2.859375l0 0.9375q0 2.125 0.53125 3.03125q0.546875 0.90625 1.84375 0.90625q1.09375 0 1.671875 -0.515625q0.59375 -0.515625 0.625 -1.640625l3.1875 0zm0.97753906 -0.53125q0 -1.484375 0.578125 -2.625q0.578125 -1.15625 1.640625 -1.765625q1.078125 -0.625 2.53125 -0.625q2.21875 0 3.484375 1.375q1.28125 1.359375 1.28125 3.71875l0 0.109375q0 2.3125 -1.28125 3.671875q-1.28125 1.34375 -3.46875 1.34375q-2.09375 0 -3.375 -1.265625q-1.28125 -1.265625 -1.375 -3.421875l-0.015625 -0.515625zm3.078125 0.1875q0 1.359375 0.421875 2.0q0.4375 0.640625 1.265625 0.640625q1.640625 0 1.6875 -2.515625l0 -0.3125q0 -2.65625 -1.703125 -2.65625q-1.53125 0 -1.671875 2.28125l0 0.5625zm10.616516 -5.03125l0.09375 1.15625q1.015625 -1.328125 2.8125 -1.328125q1.546875 0 2.296875 0.921875q0.765625 0.90625 0.796875 2.765625l0 6.34375l-3.078125 0l0 -6.21875q0 -0.75 -0.3125 -1.09375q-0.296875 -0.359375 -1.09375 -0.359375q-0.890625 0 -1.328125 0.71875l0 6.953125l-3.078125 0l0 -9.859375l2.890625 0zm11.271484 -2.453125l0 2.453125l1.625 0l0 2.140625l-1.625 0l0 4.5q0 0.5625 0.203125 0.78125q0.203125 0.21875 0.78125 0.21875q0.46875 0 0.765625 -0.0625l0 2.203125q-0.828125 0.265625 -1.71875 0.265625q-1.59375 0 -2.359375 -0.75q-0.75 -0.75 -0.75 -2.265625l0 -4.890625l-1.25 0l0 -2.140625l1.25 0l0 -2.453125l3.078125 0zm8.794617 5.234375l-1.015625 -0.078125q-1.453125 0 -1.859375 0.921875l0 6.234375l-3.0625 0l0 -9.859375l2.875 0l0.09375 1.265625q0.78125 -1.4375 2.15625 -1.4375q0.5 0 0.859375 0.109375l-0.046875 2.84375zm0.38146973 2.0625q0 -1.484375 0.578125 -2.625q0.578125 -1.15625 1.640625 -1.765625q1.078125 -0.625 2.53125 -0.625q2.21875 0 3.484375 1.375q1.28125 1.359375 1.28125 3.71875l0 0.109375q0 2.3125 -1.28125 3.671875q-1.28125 1.34375 -3.46875 1.34375q-2.09375 0 -3.375 -1.265625q-1.28125 -1.265625 -1.375 -3.421875l-0.015625 -0.515625zm3.078125 0.1875q0 1.359375 0.421875 2.0q0.4375 0.640625 1.265625 0.640625q1.640625 0 1.6875 -2.515625l0 -0.3125q0 -2.65625 -1.703125 -2.65625q-1.53125 0 -1.671875 2.28125l0 0.5625zm11.022766 4.828125l-3.078125 0l0 -14.0l3.078125 0l0 14.0zm11.618225 -4.6875l-1.734375 0l0 4.6875l-3.203125 0l0 -13.265625l5.21875 0q2.359375 0 3.6875 1.046875q1.328125 1.046875 1.328125 2.96875q0 1.375 -0.5625 2.296875q-0.546875 0.90625 -1.75 1.46875l2.78125 5.34375l0 0.140625l-3.4375 0l-2.328125 -4.6875zm-1.734375 -2.46875l2.015625 0q0.90625 0 1.359375 -0.46875q0.46875 -0.484375 0.46875 -1.328125q0 -0.859375 -0.46875 -1.34375q-0.453125 -0.5 -1.359375 -0.5l-2.015625 0l0 3.640625zm13.592163 7.34375q-2.265625 0 -3.671875 -1.34375q-1.390625 -1.359375 -1.390625 -3.53125l0 -0.265625q0 -1.5 0.546875 -2.65625q0.5625 -1.15625 1.640625 -1.78125q1.078125 -0.640625 2.546875 -0.640625q2.078125 0 3.28125 1.296875q1.203125 1.28125 1.203125 3.578125l0 1.1875l-6.09375 0q0.15625 0.828125 0.703125 1.3125q0.5625 0.46875 1.453125 0.46875q1.453125 0 2.265625 -1.015625l1.40625 1.65625q-0.5625 0.796875 -1.625 1.265625q-1.046875 0.46875 -2.265625 0.46875zm-0.34375 -7.859375q-1.34375 0 -1.59375 1.78125l3.09375 0l0 -0.234375q0.015625 -0.734375 -0.375 -1.140625q-0.390625 -0.40625 -1.125 -0.40625zm5.3758545 2.671875q0 -1.5 0.484375 -2.640625q0.5 -1.15625 1.421875 -1.765625q0.921875 -0.625 2.140625 -0.625q1.53125 0 2.40625 1.03125l0.109375 -0.859375l2.78125 0l0 9.484375q0 1.296875 -0.609375 2.25q-0.59375 0.96875 -1.75 1.484375q-1.140625 0.515625 -2.65625 0.515625q-1.078125 0 -2.09375 -0.40625q-1.015625 -0.40625 -1.5625 -1.0625l1.28125 -1.8125q0.859375 1.015625 2.265625 1.015625q2.046875 0 2.046875 -2.09375l0 -0.3125q-0.890625 0.984375 -2.234375 0.984375q-1.8125 0 -2.921875 -1.375q-1.109375 -1.390625 -1.109375 -3.703125l0 -0.109375zm3.078125 0.1875q0 1.21875 0.453125 1.921875q0.453125 0.703125 1.28125 0.703125q0.984375 0 1.453125 -0.65625l0 -4.15625q-0.453125 -0.671875 -1.4375 -0.671875q-0.8125 0 -1.28125 0.734375q-0.46875 0.734375 -0.46875 2.125zm11.246643 4.8125l-3.078125 0l0 -9.859375l3.078125 0l0 9.859375zm-3.25 -12.390625q0 -0.65625 0.46875 -1.078125q0.46875 -0.421875 1.21875 -0.421875q0.765625 0 1.234375 0.421875q0.484375 0.421875 0.484375 1.078125q0 0.65625 -0.484375 1.078125q-0.46875 0.40625 -1.234375 0.40625q-0.75 0 -1.21875 -0.40625q-0.46875 -0.421875 -0.46875 -1.078125zm10.300476 9.625q0 -0.390625 -0.40625 -0.625q-0.40625 -0.25 -1.5625 -0.5q-1.140625 -0.25 -1.890625 -0.65625q-0.75 -0.421875 -1.140625 -1.015625q-0.390625 -0.59375 -0.390625 -1.359375q0 -1.359375 1.125 -2.234375q1.125 -0.875 2.9375 -0.875q1.9375 0 3.125 0.890625q1.1875 0.875 1.1875 2.3125l-3.078125 0q0 -1.1875 -1.25 -1.1875q-0.484375 0 -0.8125 0.265625q-0.328125 0.265625 -0.328125 0.671875q0 0.40625 0.40625 0.671875q0.40625 0.25 1.28125 0.421875q0.875 0.15625 1.546875 0.375q2.21875 0.765625 2.21875 2.75q0 1.34375 -1.203125 2.203125q-1.1875 0.84375 -3.09375 0.84375q-1.265625 0 -2.265625 -0.453125q-0.984375 -0.46875 -1.546875 -1.25q-0.5625 -0.78125 -0.5625 -1.640625l2.875 0q0.015625 0.671875 0.453125 1.0q0.4375 0.3125 1.125 0.3125q0.625 0 0.9375 -0.25q0.3125 -0.265625 0.3125 -0.671875zm7.977783 -9.546875l0 2.453125l1.625 0l0 2.140625l-1.625 0l0 4.5q0 0.5625 0.203125 0.78125q0.203125 0.21875 0.78125 0.21875q0.46875 0 0.765625 -0.0625l0 2.203125q-0.828125 0.265625 -1.71875 0.265625q-1.59375 0 -2.359375 -0.75q-0.75 -0.75 -0.75 -2.265625l0 -4.890625l-1.25 0l0 -2.140625l1.25 0l0 -2.453125l3.078125 0zm7.5914307 12.5q-2.265625 0 -3.671875 -1.34375q-1.390625 -1.359375 -1.390625 -3.53125l0 -0.265625q0 -1.5 0.546875 -2.65625q0.5625 -1.15625 1.640625 -1.78125q1.078125 -0.640625 2.546875 -0.640625q2.078125 0 3.28125 1.296875q1.203125 1.28125 1.203125 3.578125l0 1.1875l-6.09375 0q0.15625 0.828125 0.703125 1.3125q0.5625 0.46875 1.453125 0.46875q1.453125 0 2.265625 -1.015625l1.40625 1.65625q-0.5625 0.796875 -1.625 1.265625q-1.046875 0.46875 -2.265625 0.46875zm-0.34375 -7.859375q-1.34375 0 -1.59375 1.78125l3.09375 0l0 -0.234375q0.015625 -0.734375 -0.375 -1.140625q-0.390625 -0.40625 -1.125 -0.40625zm11.7039795 0.59375l-1.015625 -0.078125q-1.453125 0 -1.859375 0.921875l0 6.234375l-3.0625 0l0 -9.859375l2.875 0l0.09375 1.265625q0.78125 -1.4375 2.15625 -1.4375q0.5 0 0.859375 0.109375l-0.046875 2.84375zm6.2564697 4.3125q0 -0.390625 -0.40625 -0.625q-0.40625 -0.25 -1.5625 -0.5q-1.140625 -0.25 -1.890625 -0.65625q-0.75 -0.421875 -1.140625 -1.015625q-0.390625 -0.59375 -0.390625 -1.359375q0 -1.359375 1.125 -2.234375q1.125 -0.875 2.9375 -0.875q1.9375 0 3.125 0.890625q1.1875 0.875 1.1875 2.3125l-3.078125 0q0 -1.1875 -1.25 -1.1875q-0.484375 0 -0.8125 0.265625q-0.328125 0.265625 -0.328125 0.671875q0 0.40625 0.40625 0.671875q0.40625 0.25 1.28125 0.421875q0.875 0.15625 1.546875 0.375q2.21875 0.765625 2.21875 2.75q0 1.34375 -1.203125 2.203125q-1.1875 0.84375 -3.09375 0.84375q-1.265625 0 -2.265625 -0.453125q-0.984375 -0.46875 -1.546875 -1.25q-0.5625 -0.78125 -0.5625 -1.640625l2.875 0q0.015625 0.671875 0.453125 1.0q0.4375 0.3125 1.125 0.3125q0.625 0 0.9375 -0.25q0.3125 -0.265625 0.3125 -0.671875z" fill-rule="nonzero"/><path fill="#000000" fill-opacity="0.0" d="m987.56696 530.74805l169.25983 0l0 42.015747l-169.25983 0z" fill-rule="evenodd"/><path fill="#000000" d="m1010.1489 553.18365q-0.0625 1.375 -0.75 2.4375q-0.6875 1.0625 -1.921875 1.65625q-1.234375 0.578125 -2.8125 0.578125q-2.609375 0 -4.125 -1.703125q-1.5 -1.703125 -1.5 -4.8125l0 -0.65625q0 -1.953125 0.671875 -3.40625q0.6875 -1.46875 1.953125 -2.265625q1.28125 -0.796875 2.96875 -0.796875q2.40625 0 3.875 1.28125q1.46875 1.265625 1.671875 3.484375l-3.1875 0q-0.046875 -1.203125 -0.625 -1.734375q-0.5625 -0.53125 -1.734375 -0.53125q-1.203125 0 -1.765625 0.890625q-0.546875 0.890625 -0.578125 2.859375l0 0.9375q0 2.125 0.53125 3.03125q0.546875 0.90625 1.84375 0.90625q1.09375 0 1.671875 -0.515625q0.59375 -0.515625 0.625 -1.640625l3.1875 0zm0.97753906 -0.53125q0 -1.484375 0.578125 -2.625q0.578125 -1.15625 1.640625 -1.765625q1.078125 -0.625 2.53125 -0.625q2.21875 0 3.484375 1.375q1.28125 1.359375 1.28125 3.71875l0 0.109375q0 2.3125 -1.28125 3.671875q-1.28125 1.34375 -3.46875 1.34375q-2.09375 0 -3.375 -1.265625q-1.28125 -1.265625 -1.375 -3.421875l-0.015625 -0.515625zm3.078125 0.1875q0 1.359375 0.421875 2.0q0.4375 0.640625 1.265625 0.640625q1.640625 0 1.6875 -2.515625l0 -0.3125q0 -2.65625 -1.703125 -2.65625q-1.53125 0 -1.671875 2.28125l0 0.5625zm10.616577 -5.03125l0.09375 1.15625q1.015625 -1.328125 2.8125 -1.328125q1.546875 0 2.296875 0.921875q0.765625 0.90625 0.796875 2.765625l0 6.34375l-3.078125 0l0 -6.21875q0 -0.75 -0.3125 -1.09375q-0.296875 -0.359375 -1.09375 -0.359375q-0.890625 0 -1.328125 0.71875l0 6.953125l-3.078125 0l0 -9.859375l2.890625 0zm11.271484 -2.453125l0 2.453125l1.625 0l0 2.140625l-1.625 0l0 4.5q0 0.5625 0.203125 0.78125q0.203125 0.21875 0.78125 0.21875q0.46875 0 0.765625 -0.0625l0 2.203125q-0.828125 0.265625 -1.71875 0.265625q-1.59375 0 -2.359375 -0.75q-0.75 -0.75 -0.75 -2.265625l0 -4.890625l-1.25 0l0 -2.140625l1.25 0l0 -2.453125l3.078125 0zm8.794556 5.234375l-1.015625 -0.078125q-1.453125 0 -1.859375 0.921875l0 6.234375l-3.0625 0l0 -9.859375l2.875 0l0.09375 1.265625q0.78125 -1.4375 2.15625 -1.4375q0.5 0 0.859375 0.109375l-0.046875 2.84375zm0.38146973 2.0625q0 -1.484375 0.578125 -2.625q0.578125 -1.15625 1.640625 -1.765625q1.078125 -0.625 2.53125 -0.625q2.21875 0 3.484375 1.375q1.28125 1.359375 1.28125 3.71875l0 0.109375q0 2.3125 -1.28125 3.671875q-1.28125 1.34375 -3.46875 1.34375q-2.09375 0 -3.375 -1.265625q-1.28125 -1.265625 -1.375 -3.421875l-0.015625 -0.515625zm3.078125 0.1875q0 1.359375 0.421875 2.0q0.4375 0.640625 1.265625 0.640625q1.640625 0 1.6875 -2.515625l0 -0.3125q0 -2.65625 -1.703125 -2.65625q-1.53125 0 -1.671875 2.28125l0 0.5625zm11.022827 4.828125l-3.078125 0l0 -14.0l3.078125 0l0 14.0zm11.618286 -4.6875l-1.734375 0l0 4.6875l-3.203125 0l0 -13.265625l5.21875 0q2.359375 0 3.6875 1.046875q1.328125 1.046875 1.328125 2.96875q0 1.375 -0.5625 2.296875q-0.546875 0.90625 -1.75 1.46875l2.78125 5.34375l0 0.140625l-3.4375 0l-2.328125 -4.6875zm-1.734375 -2.46875l2.015625 0q0.90625 0 1.359375 -0.46875q0.46875 -0.484375 0.46875 -1.328125q0 -0.859375 -0.46875 -1.34375q-0.453125 -0.5 -1.359375 -0.5l-2.015625 0l0 3.640625zm13.592163 7.34375q-2.265625 0 -3.671875 -1.34375q-1.390625 -1.359375 -1.390625 -3.53125l0 -0.265625q0 -1.5 0.546875 -2.65625q0.5625 -1.15625 1.640625 -1.78125q1.078125 -0.640625 2.546875 -0.640625q2.078125 0 3.28125 1.296875q1.203125 1.28125 1.203125 3.578125l0 1.1875l-6.09375 0q0.15625 0.828125 0.703125 1.3125q0.5625 0.46875 1.453125 0.46875q1.453125 0 2.265625 -1.015625l1.40625 1.65625q-0.5625 0.796875 -1.625 1.265625q-1.046875 0.46875 -2.265625 0.46875zm-0.34375 -7.859375q-1.34375 0 -1.59375 1.78125l3.09375 0l0 -0.234375q0.015625 -0.734375 -0.375 -1.140625q-0.390625 -0.40625 -1.125 -0.40625zm5.3757324 2.671875q0 -1.5 0.484375 -2.640625q0.5 -1.15625 1.421875 -1.765625q0.921875 -0.625 2.140625 -0.625q1.53125 0 2.40625 1.03125l0.109375 -0.859375l2.78125 0l0 9.484375q0 1.296875 -0.609375 2.25q-0.59375 0.96875 -1.75 1.484375q-1.140625 0.515625 -2.65625 0.515625q-1.078125 0 -2.09375 -0.40625q-1.015625 -0.40625 -1.5625 -1.0625l1.28125 -1.8125q0.859375 1.015625 2.265625 1.015625q2.046875 0 2.046875 -2.09375l0 -0.3125q-0.890625 0.984375 -2.234375 0.984375q-1.8125 0 -2.921875 -1.375q-1.109375 -1.390625 -1.109375 -3.703125l0 -0.109375zm3.078125 0.1875q0 1.21875 0.453125 1.921875q0.453125 0.703125 1.28125 0.703125q0.984375 0 1.453125 -0.65625l0 -4.15625q-0.453125 -0.671875 -1.4375 -0.671875q-0.8125 0 -1.28125 0.734375q-0.46875 0.734375 -0.46875 2.125zm11.246704 4.8125l-3.078125 0l0 -9.859375l3.078125 0l0 9.859375zm-3.25 -12.390625q0 -0.65625 0.46875 -1.078125q0.46875 -0.421875 1.21875 -0.421875q0.765625 0 1.234375 0.421875q0.484375 0.421875 0.484375 1.078125q0 0.65625 -0.484375 1.078125q-0.46875 0.40625 -1.234375 0.40625q-0.75 0 -1.21875 -0.40625q-0.46875 -0.421875 -0.46875 -1.078125zm10.300537 9.625q0 -0.390625 -0.40625 -0.625q-0.40625 -0.25 -1.5625 -0.5q-1.140625 -0.25 -1.890625 -0.65625q-0.75 -0.421875 -1.140625 -1.015625q-0.390625 -0.59375 -0.390625 -1.359375q0 -1.359375 1.125 -2.234375q1.125 -0.875 2.9375 -0.875q1.9375 0 3.125 0.890625q1.1875 0.875 1.1875 2.3125l-3.078125 0q0 -1.1875 -1.25 -1.1875q-0.484375 0 -0.8125 0.265625q-0.328125 0.265625 -0.328125 0.671875q0 0.40625 0.40625 0.671875q0.40625 0.25 1.28125 0.421875q0.875 0.15625 1.546875 0.375q2.21875 0.765625 2.21875 2.75q0 1.34375 -1.203125 2.203125q-1.1875 0.84375 -3.09375 0.84375q-1.265625 0 -2.265625 -0.453125q-0.984375 -0.46875 -1.546875 -1.25q-0.5625 -0.78125 -0.5625 -1.640625l2.875 0q0.015625 0.671875 0.453125 1.0q0.4375 0.3125 1.125 0.3125q0.625 0 0.9375 -0.25q0.3125 -0.265625 0.3125 -0.671875zm7.977661 -9.546875l0 2.453125l1.625 0l0 2.140625l-1.625 0l0 4.5q0 0.5625 0.203125 0.78125q0.203125 0.21875 0.78125 0.21875q0.46875 0 0.765625 -0.0625l0 2.203125q-0.828125 0.265625 -1.71875 0.265625q-1.59375 0 -2.359375 -0.75q-0.75 -0.75 -0.75 -2.265625l0 -4.890625l-1.25 0l0 -2.140625l1.25 0l0 -2.453125l3.078125 0zm7.5915527 12.5q-2.265625 0 -3.671875 -1.34375q-1.390625 -1.359375 -1.390625 -3.53125l0 -0.265625q0 -1.5 0.546875 -2.65625q0.5625 -1.15625 1.640625 -1.78125q1.078125 -0.640625 2.546875 -0.640625q2.078125 0 3.28125 1.296875q1.203125 1.28125 1.203125 3.578125l0 1.1875l-6.09375 0q0.15625 0.828125 0.703125 1.3125q0.5625 0.46875 1.453125 0.46875q1.453125 0 2.265625 -1.015625l1.40625 1.65625q-0.5625 0.796875 -1.625 1.265625q-1.046875 0.46875 -2.265625 0.46875zm-0.34375 -7.859375q-1.34375 0 -1.59375 1.78125l3.09375 0l0 -0.234375q0.015625 -0.734375 -0.375 -1.140625q-0.390625 -0.40625 -1.125 -0.40625zm11.703857 0.59375l-1.015625 -0.078125q-1.453125 0 -1.859375 0.921875l0 6.234375l-3.0625 0l0 -9.859375l2.875 0l0.09375 1.265625q0.78125 -1.4375 2.15625 -1.4375q0.5 0 0.859375 0.109375l-0.046875 2.84375zm6.2564697 4.3125q0 -0.390625 -0.40625 -0.625q-0.40625 -0.25 -1.5625 -0.5q-1.140625 -0.25 -1.890625 -0.65625q-0.75 -0.421875 -1.140625 -1.015625q-0.390625 -0.59375 -0.390625 -1.359375q0 -1.359375 1.125 -2.234375q1.125 -0.875 2.9375 -0.875q1.9375 0 3.125 0.890625q1.1875 0.875 1.1875 2.3125l-3.078125 0q0 -1.1875 -1.25 -1.1875q-0.484375 0 -0.8125 0.265625q-0.328125 0.265625 -0.328125 0.671875q0 0.40625 0.40625 0.671875q0.40625 0.25 1.28125 0.421875q0.875 0.15625 1.546875 0.375q2.21875 0.765625 2.21875 2.75q0 1.34375 -1.203125 2.203125q-1.1875 0.84375 -3.09375 0.84375q-1.265625 0 -2.265625 -0.453125q-0.984375 -0.46875 -1.546875 -1.25q-0.5625 -0.78125 -0.5625 -1.640625l2.875 0q0.015625 0.671875 0.453125 1.0q0.4375 0.3125 1.125 0.3125q0.625 0 0.9375 -0.25q0.3125 -0.265625 0.3125 -0.671875z" fill-rule="nonzero"/><path fill="#000000" fill-opacity="0.0" d="m75.99213 544.7113l169.25984 0l0 42.015747l-169.25984 0z" fill-rule="evenodd"/><path fill="#000000" d="m98.57414 567.1469q-0.0625 1.375 -0.75 2.4375q-0.6875 1.0625 -1.921875 1.65625q-1.234375 0.578125 -2.8125 0.578125q-2.609375 0 -4.125 -1.703125q-1.5 -1.703125 -1.5 -4.8125l0 -0.65625q0 -1.953125 0.671875 -3.40625q0.6875 -1.46875 1.953125 -2.265625q1.28125 -0.796875 2.96875 -0.796875q2.40625 0 3.875 1.28125q1.46875 1.265625 1.671875 3.484375l-3.1875 0q-0.046875 -1.203125 -0.625 -1.734375q-0.5625 -0.53125 -1.734375 -0.53125q-1.203125 0 -1.765625 0.890625q-0.546875 0.890625 -0.578125 2.859375l0 0.9375q0 2.125 0.53125 3.03125q0.546875 0.90625 1.84375 0.90625q1.09375 0 1.671875 -0.515625q0.59375 -0.515625 0.625 -1.640625l3.1875 0zm0.97753906 -0.53125q0 -1.484375 0.578125 -2.625q0.578125 -1.15625 1.640625 -1.765625q1.078125 -0.625 2.53125 -0.625q2.21875 0 3.484375 1.375q1.28125 1.359375 1.28125 3.71875l0 0.109375q0 2.3125 -1.28125 3.671875q-1.28125 1.34375 -3.46875 1.34375q-2.09375 0 -3.375 -1.265625q-1.28125 -1.265625 -1.375 -3.421875l-0.015625 -0.515625zm3.078125 0.1875q0 1.359375 0.421875 2.0q0.4375 0.640625 1.265625 0.640625q1.640625 0 1.6875 -2.515625l0 -0.3125q0 -2.65625 -1.703125 -2.65625q-1.53125 0 -1.671875 2.28125l0 0.5625zm10.616547 -5.03125l0.09375 1.15625q1.015625 -1.328125 2.8125 -1.328125q1.546875 0 2.296875 0.921875q0.765625 0.90625 0.796875 2.765625l0 6.34375l-3.078125 0l0 -6.21875q0 -0.75 -0.3125 -1.09375q-0.296875 -0.359375 -1.09375 -0.359375q-0.890625 0 -1.328125 0.71875l0 6.953125l-3.078125 0l0 -9.859375l2.890625 0zm11.271469 -2.453125l0 2.453125l1.625 0l0 2.140625l-1.625 0l0 4.5q0 0.5625 0.203125 0.78125q0.203125 0.21875 0.78125 0.21875q0.46875 0 0.765625 -0.0625l0 2.203125q-0.828125 0.265625 -1.71875 0.265625q-1.59375 0 -2.359375 -0.75q-0.75 -0.75 -0.75 -2.265625l0 -4.890625l-1.25 0l0 -2.140625l1.25 0l0 -2.453125l3.078125 0zm8.794601 5.234375l-1.015625 -0.078125q-1.453125 0 -1.859375 0.921875l0 6.234375l-3.0625 0l0 -9.859375l2.875 0l0.09375 1.265625q0.78125 -1.4375 2.15625 -1.4375q0.5 0 0.859375 0.109375l-0.046875 2.84375zm0.38146973 2.0625q0 -1.484375 0.578125 -2.625q0.578125 -1.15625 1.640625 -1.765625q1.078125 -0.625 2.53125 -0.625q2.21875 0 3.484375 1.375q1.28125 1.359375 1.28125 3.71875l0 0.109375q0 2.3125 -1.28125 3.671875q-1.28125 1.34375 -3.46875 1.34375q-2.09375 0 -3.375 -1.265625q-1.28125 -1.265625 -1.375 -3.421875l-0.015625 -0.515625zm3.078125 0.1875q0 1.359375 0.421875 2.0q0.4375 0.640625 1.265625 0.640625q1.640625 0 1.6875 -2.515625l0 -0.3125q0 -2.65625 -1.703125 -2.65625q-1.53125 0 -1.671875 2.28125l0 0.5625zm11.022797 4.828125l-3.078125 0l0 -14.0l3.078125 0l0 14.0zm11.61824 -4.6875l-1.734375 0l0 4.6875l-3.203125 0l0 -13.265625l5.21875 0q2.359375 0 3.6875 1.046875q1.328125 1.046875 1.328125 2.96875q0 1.375 -0.5625 2.296875q-0.546875 0.90625 -1.75 1.46875l2.78125 5.34375l0 0.140625l-3.4375 0l-2.328125 -4.6875zm-1.734375 -2.46875l2.015625 0q0.90625 0 1.359375 -0.46875q0.46875 -0.484375 0.46875 -1.328125q0 -0.859375 -0.46875 -1.34375q-0.453125 -0.5 -1.359375 -0.5l-2.015625 0l0 3.640625zm13.592163 7.34375q-2.265625 0 -3.671875 -1.34375q-1.390625 -1.359375 -1.390625 -3.53125l0 -0.265625q0 -1.5 0.546875 -2.65625q0.5625 -1.15625 1.640625 -1.78125q1.078125 -0.640625 2.546875 -0.640625q2.078125 0 3.28125 1.296875q1.203125 1.28125 1.203125 3.578125l0 1.1875l-6.09375 0q0.15625 0.828125 0.703125 1.3125q0.5625 0.46875 1.453125 0.46875q1.453125 0 2.265625 -1.015625l1.40625 1.65625q-0.5625 0.796875 -1.625 1.265625q-1.046875 0.46875 -2.265625 0.46875zm-0.34375 -7.859375q-1.34375 0 -1.59375 1.78125l3.09375 0l0 -0.234375q0.015625 -0.734375 -0.375 -1.140625q-0.390625 -0.40625 -1.125 -0.40625zm5.375839 2.671875q0 -1.5 0.484375 -2.640625q0.5 -1.15625 1.421875 -1.765625q0.921875 -0.625 2.140625 -0.625q1.53125 0 2.40625 1.03125l0.109375 -0.859375l2.78125 0l0 9.484375q0 1.296875 -0.609375 2.25q-0.59375 0.96875 -1.75 1.484375q-1.140625 0.515625 -2.65625 0.515625q-1.078125 0 -2.09375 -0.40625q-1.015625 -0.40625 -1.5625 -1.0625l1.28125 -1.8125q0.859375 1.015625 2.265625 1.015625q2.046875 0 2.046875 -2.09375l0 -0.3125q-0.890625 0.984375 -2.234375 0.984375q-1.8125 0 -2.921875 -1.375q-1.109375 -1.390625 -1.109375 -3.703125l0 -0.109375zm3.078125 0.1875q0 1.21875 0.453125 1.921875q0.453125 0.703125 1.28125 0.703125q0.984375 0 1.453125 -0.65625l0 -4.15625q-0.453125 -0.671875 -1.4375 -0.671875q-0.8125 0 -1.28125 0.734375q-0.46875 0.734375 -0.46875 2.125zm11.246613 4.8125l-3.078125 0l0 -9.859375l3.078125 0l0 9.859375zm-3.25 -12.390625q0 -0.65625 0.46875 -1.078125q0.46875 -0.421875 1.21875 -0.421875q0.765625 0 1.234375 0.421875q0.484375 0.421875 0.484375 1.078125q0 0.65625 -0.484375 1.078125q-0.46875 0.40625 -1.234375 0.40625q-0.75 0 -1.21875 -0.40625q-0.46875 -0.421875 -0.46875 -1.078125zm10.300522 9.625q0 -0.390625 -0.40625 -0.625q-0.40625 -0.25 -1.5625 -0.5q-1.140625 -0.25 -1.890625 -0.65625q-0.75 -0.421875 -1.140625 -1.015625q-0.390625 -0.59375 -0.390625 -1.359375q0 -1.359375 1.125 -2.234375q1.125 -0.875 2.9375 -0.875q1.9375 0 3.125 0.890625q1.1875 0.875 1.1875 2.3125l-3.078125 0q0 -1.1875 -1.25 -1.1875q-0.484375 0 -0.8125 0.265625q-0.328125 0.265625 -0.328125 0.671875q0 0.40625 0.40625 0.671875q0.40625 0.25 1.28125 0.421875q0.875 0.15625 1.546875 0.375q2.21875 0.765625 2.21875 2.75q0 1.34375 -1.203125 2.203125q-1.1875 0.84375 -3.09375 0.84375q-1.265625 0 -2.265625 -0.453125q-0.984375 -0.46875 -1.546875 -1.25q-0.5625 -0.78125 -0.5625 -1.640625l2.875 0q0.015625 0.671875 0.453125 1.0q0.4375 0.3125 1.125 0.3125q0.625 0 0.9375 -0.25q0.3125 -0.265625 0.3125 -0.671875zm7.9777374 -9.546875l0 2.453125l1.625 0l0 2.140625l-1.625 0l0 4.5q0 0.5625 0.203125 0.78125q0.203125 0.21875 0.78125 0.21875q0.46875 0 0.765625 -0.0625l0 2.203125q-0.828125 0.265625 -1.71875 0.265625q-1.59375 0 -2.359375 -0.75q-0.75 -0.75 -0.75 -2.265625l0 -4.890625l-1.25 0l0 -2.140625l1.25 0l0 -2.453125l3.078125 0zm7.5914764 12.5q-2.265625 0 -3.671875 -1.34375q-1.390625 -1.359375 -1.390625 -3.53125l0 -0.265625q0 -1.5 0.546875 -2.65625q0.5625 -1.15625 1.640625 -1.78125q1.078125 -0.640625 2.546875 -0.640625q2.078125 0 3.28125 1.296875q1.203125 1.28125 1.203125 3.578125l0 1.1875l-6.09375 0q0.15625 0.828125 0.703125 1.3125q0.5625 0.46875 1.453125 0.46875q1.453125 0 2.265625 -1.015625l1.40625 1.65625q-0.5625 0.796875 -1.625 1.265625q-1.046875 0.46875 -2.265625 0.46875zm-0.34375 -7.859375q-1.34375 0 -1.59375 1.78125l3.09375 0l0 -0.234375q0.015625 -0.734375 -0.375 -1.140625q-0.390625 -0.40625 -1.125 -0.40625zm11.703964 0.59375l-1.015625 -0.078125q-1.453125 0 -1.859375 0.921875l0 6.234375l-3.0625 0l0 -9.859375l2.875 0l0.09375 1.265625q0.78125 -1.4375 2.15625 -1.4375q0.5 0 0.859375 0.109375l-0.046875 2.84375zm6.2564697 4.3125q0 -0.390625 -0.40625 -0.625q-0.40625 -0.25 -1.5625 -0.5q-1.140625 -0.25 -1.890625 -0.65625q-0.75 -0.421875 -1.140625 -1.015625q-0.390625 -0.59375 -0.390625 -1.359375q0 -1.359375 1.125 -2.234375q1.125 -0.875 2.9375 -0.875q1.9375 0 3.125 0.890625q1.1875 0.875 1.1875 2.3125l-3.078125 0q0 -1.1875 -1.25 -1.1875q-0.484375 0 -0.8125 0.265625q-0.328125 0.265625 -0.328125 0.671875q0 0.40625 0.40625 0.671875q0.40625 0.25 1.28125 0.421875q0.875 0.15625 1.546875 0.375q2.21875 0.765625 2.21875 2.75q0 1.34375 -1.203125 2.203125q-1.1875 0.84375 -3.09375 0.84375q-1.265625 0 -2.265625 -0.453125q-0.984375 -0.46875 -1.546875 -1.25q-0.5625 -0.78125 -0.5625 -1.640625l2.875 0q0.015625 0.671875 0.453125 1.0q0.4375 0.3125 1.125 0.3125q0.625 0 0.9375 -0.25q0.3125 -0.265625 0.3125 -0.671875z" fill-rule="nonzero"/></g></svg>