<svg version="1.1" viewBox="0.0 0.0 1280.0 960.0" fill="none" stroke="none" stroke-linecap="square" stroke-miterlimit="10" xmlns:xlink="http://www.w3.org/1999/xlink" xmlns="http://www.w3.org/2000/svg"><clipPath id="p.0"><path d="m0 0l1280.0 0l0 960.0l-1280.0 0l0 -960.0z" clip-rule="nonzero"/></clipPath><g clip-path="url(#p.0)"><path fill="#000000" fill-opacity="0.0" d="m0 0l1280.0 0l0 960.0l-1280.0 0z" fill-rule="evenodd"/><path fill="#cc4125" d="m76.35171 367.5092l121.13386 0l0 102.834656l-121.13386 0z" fill-rule="evenodd"/><path fill="#ffffff" d="m139.83173 398.54837l-4.265625 0l0 11.578125l-3.421875 0l0 -11.578125l-4.1875076 0l0 -2.640625l11.875008 0l0 2.640625zm5.1074066 11.578125l-3.421875 0l0 -14.21875l3.421875 0l0 14.21875z" fill-rule="nonzero"/><path fill="#ffffff" d="m96.81219 435.47025l-4.703125 0l-0.8125 2.65625l-3.671875 0l5.21875 -14.21875l3.21875 0l5.25 14.21875l-3.671875 0l-0.828125 -2.65625zm-3.875 -2.640625l3.046875 0l-1.53125 -4.9375l-1.515625 4.9375zm9.419922 5.296875l0 -14.21875l4.578125 0q1.890625 0 3.390625 0.859375q1.5 0.84375 2.34375 2.40625q0.84375 1.5625 0.859375 3.484375l0 0.65625q0 1.953125 -0.828125 3.5q-0.828125 1.546875 -2.328125 2.421875q-1.5 0.875 -3.34375 0.890625l-4.671875 0zm3.421875 -11.578125l0 8.9375l1.1875 0q1.484375 0 2.265625 -1.046875q0.796875 -1.046875 0.796875 -3.125l0 -0.609375q0 -2.0625 -0.796875 -3.109375q-0.78125 -1.046875 -2.296875 -1.046875l-1.15625 0zm21.007812 6.765625q-0.0625 1.484375 -0.796875 2.625q-0.734375 1.125 -2.0625 1.765625q-1.3125 0.625 -3.015625 0.625q-2.8125 0 -4.421875 -1.828125q-1.609375 -1.828125 -1.609375 -5.15625l0 -0.703125q0 -2.09375 0.71875 -3.65625q0.734375 -1.578125 2.09375 -2.421875q1.375 -0.859375 3.171875 -0.859375q2.59375 0 4.15625 1.359375q1.578125 1.359375 1.796875 3.75l-3.421875 0q-0.03125 -1.296875 -0.65625 -1.859375q-0.609375 -0.5625 -1.875 -0.5625q-1.28125 0 -1.875 0.953125q-0.59375 0.953125 -0.625 3.0625l0 1.0q0 2.28125 0.5625 3.265625q0.578125 0.96875 1.984375 0.96875q1.171875 0 1.796875 -0.5625q0.625 -0.5625 0.671875 -1.765625l3.40625 0zm8.953133 1.03125q0 -0.75 -0.53125 -1.171875q-0.53125 -0.421875 -1.875 -0.859375q-1.328125 -0.453125 -2.1875 -0.875q-2.75 -1.359375 -2.75 -3.734375q0 -1.1875 0.6875 -2.078125q0.6875 -0.90625 1.9375 -1.40625q1.265625 -0.515625 2.84375 -0.515625q1.53125 0 2.734375 0.546875q1.21875 0.546875 1.890625 1.5625q0.6875 1.015625 0.6875 2.3125l-3.421875 0q0 -0.875 -0.53125 -1.34375q-0.53125 -0.484375 -1.4375 -0.484375q-0.921875 0 -1.453125 0.40625q-0.53125 0.40625 -0.53125 1.03125q0 0.546875 0.578125 1.0q0.59375 0.4375 2.0625 0.90625q1.46875 0.46875 2.421875 1.015625q2.3125 1.328125 2.3125 3.671875q0 1.859375 -1.40625 2.9375q-1.40625 1.0625 -3.859375 1.0625q-1.734375 0 -3.140625 -0.625q-1.390625 -0.625 -2.109375 -1.703125q-0.7031326 -1.078125 -0.7031326 -2.484375l3.4375076 0q0 1.140625 0.59375 1.6875q0.59375 0.53125 1.921875 0.53125q0.84375 0 1.328125 -0.359375q0.5 -0.359375 0.5 -1.03125zm14.863266 -8.6875l-5.3125 12.46875l-3.46875 0l5.3125 -11.6875l-6.765625 0l0 -2.53125l10.234375 0l0 1.75zm10.394531 6.90625l1.4375 0l0 2.546875l-1.4375 0l0 3.015625l-3.296875 0l0 -3.015625l-5.5 0l-0.1875 -2.015625l5.6875 -9.15625l0 -0.03125l3.296875 0l0 8.65625zm-5.84375 0l2.546875 0l0 -4.375l-0.203125 0.34375l-2.34375 4.03125zm18.613281 -6.90625l-5.3125 12.46875l-3.46875 0l5.3125 -11.6875l-6.765625 0l0 -2.53125l10.234375 0l0 1.75zm9.644531 -1.953125l0 2.578125l-0.140625 0q-1.84375 0 -3.03125 0.890625q-1.1875 0.890625 -1.453125 2.453125q1.109375 -1.09375 2.8125 -1.09375q1.84375 0 2.9375 1.359375q1.09375 1.34375 1.09375 3.53125q0 1.359375 -0.640625 2.5q-0.640625 1.125 -1.796875 1.765625q-1.140625 0.640625 -2.53125 0.640625q-1.515625 0 -2.71875 -0.6875q-1.1875 -0.703125 -1.859375 -1.96875q-0.65625 -1.28125 -0.671875 -2.953125l0 -1.328125q0 -2.1875 0.9375 -3.9375q0.953125 -1.765625 2.6875 -2.75q1.75 -1.0 3.890625 -1.0l0.484375 0zm-2.96875 7.34375q-0.640625 0 -1.09375 0.3125q-0.4375 0.296875 -0.640625 0.734375l0 0.984375q0 2.703125 1.859375 2.703125q0.75 0 1.25 -0.671875q0.5 -0.671875 0.5 -1.6875q0 -1.046875 -0.515625 -1.703125q-0.5 -0.671875 -1.359375 -0.671875z" fill-rule="nonzero"/><path fill="#6d9eeb" d="m321.40945 367.5092l121.13385 0l0 102.834656l-121.13385 0z" fill-rule="evenodd"/><path fill="#ffffff" d="m342.51447 393.47025l-4.703125 0l-0.8125 2.65625l-3.671875 0l5.21875 -14.21875l3.21875 0l5.25 14.21875l-3.671875 0l-0.828125 -2.65625zm-3.875 -2.640625l3.046875 0l-1.53125 -4.9375l-1.515625 4.9375zm9.419922 5.296875l0 -14.21875l4.578125 0q1.890625 0 3.390625 0.859375q1.5 0.84375 2.34375 2.40625q0.84375 1.5625 0.859375 3.484375l0 0.65625q0 1.953125 -0.828125 3.5q-0.828125 1.546875 -2.328125 2.421875q-1.5 0.875 -3.34375 0.890625l-4.671875 0zm3.421875 -11.578125l0 8.9375l1.1875 0q1.484375 0 2.265625 -1.046875q0.796875 -1.046875 0.796875 -3.125l0 -0.609375q0 -2.0625 -0.796875 -3.109375q-0.78125 -1.046875 -2.296875 -1.046875l-1.15625 0zm21.007812 6.765625q-0.0625 1.484375 -0.796875 2.625q-0.734375 1.125 -2.0625 1.765625q-1.3125 0.625 -3.015625 0.625q-2.8125 0 -4.421875 -1.828125q-1.609375 -1.828125 -1.609375 -5.15625l0 -0.703125q0 -2.09375 0.71875 -3.65625q0.734375 -1.578125 2.09375 -2.421875q1.375 -0.859375 3.171875 -0.859375q2.59375 0 4.15625 1.359375q1.578125 1.359375 1.796875 3.75l-3.421875 0q-0.03125 -1.296875 -0.65625 -1.859375q-0.609375 -0.5625 -1.875 -0.5625q-1.28125 0 -1.875 0.953125q-0.59375 0.953125 -0.625 3.0625l0 1.0q0 2.28125 0.5625 3.265625q0.578125 0.96875 1.984375 0.96875q1.171875 0 1.796875 -0.5625q0.625 -0.5625 0.671875 -1.765625l3.40625 0zm8.953125 1.03125q0 -0.75 -0.53125 -1.171875q-0.53125 -0.421875 -1.875 -0.859375q-1.328125 -0.453125 -2.1875 -0.875q-2.75 -1.359375 -2.75 -3.734375q0 -1.1875 0.6875 -2.078125q0.6875 -0.90625 1.9375 -1.40625q1.265625 -0.515625 2.84375 -0.515625q1.53125 0 2.734375 0.546875q1.21875 0.546875 1.890625 1.5625q0.6875 1.015625 0.6875 2.3125l-3.421875 0q0 -0.875 -0.53125 -1.34375q-0.53125 -0.484375 -1.4375 -0.484375q-0.921875 0 -1.453125 0.40625q-0.53125 0.40625 -0.53125 1.03125q0 0.546875 0.578125 1.0q0.59375 0.4375 2.0625 0.90625q1.46875 0.46875 2.421875 1.015625q2.3125 1.328125 2.3125 3.671875q0 1.859375 -1.40625 2.9375q-1.40625 1.0625 -3.859375 1.0625q-1.734375 0 -3.140625 -0.625q-1.390625 -0.625 -2.109375 -1.703125q-0.703125 -1.078125 -0.703125 -2.484375l3.4375 0q0 1.140625 0.59375 1.6875q0.59375 0.53125 1.921875 0.53125q0.84375 0 1.328125 -0.359375q0.5 -0.359375 0.5 -1.03125zm14.863281 -8.6875l-5.3125 12.46875l-3.46875 0l5.3125 -11.6875l-6.765625 0l0 -2.53125l10.234375 0l0 1.75zm10.394531 6.90625l1.4375 0l0 2.546875l-1.4375 0l0 3.015625l-3.296875 0l0 -3.015625l-5.5 0l-0.1875 -2.015625l5.6875 -9.15625l0 -0.03125l3.296875 0l0 8.65625zm-5.84375 0l2.546875 0l0 -4.375l-0.203125 0.34375l-2.34375 4.03125zm18.613281 -6.90625l-5.3125 12.46875l-3.46875 0l5.3125 -11.6875l-6.765625 0l0 -2.53125l10.234375 0l0 1.75zm6.0351562 4.8125l1.53125 -2.90625l3.421875 0l-2.78125 5.140625l2.921875 5.421875l-3.4375 0l-1.65625 -3.125l-1.640625 3.125l-3.453125 0l2.921875 -5.421875l-2.765625 -5.140625l3.453125 0l1.484375 2.90625z" fill-rule="nonzero"/><path fill="#ffffff" d="m377.825 410.939l0 2.625l1.75 0l0 2.28125l-1.75 0l0 4.828125q0 0.59375 0.21875 0.828125q0.21875 0.234375 0.859375 0.234375q0.484375 0 0.8125 -0.046875l0 2.34375q-0.890625 0.296875 -1.859375 0.296875q-1.6875 0 -2.5 -0.796875q-0.8125 -0.8125 -0.8125 -2.4375l0 -5.25l-1.34375 0l0 -2.28125l1.34375 0l0 -2.625l3.28125 0zm2.3378906 7.8125q0 -1.59375 0.609375 -2.828125q0.609375 -1.234375 1.765625 -1.890625q1.15625 -0.671875 2.703125 -0.671875q2.375 0 3.734375 1.46875q1.375 1.46875 1.375 4.0l0 0.125q0 2.46875 -1.375 3.921875q-1.375 1.453125 -3.71875 1.453125q-2.25 0 -3.625 -1.359375q-1.359375 -1.359375 -1.46875 -3.671875l0 -0.546875zm3.28125 0.203125q0 1.453125 0.453125 2.140625q0.46875 0.6875 1.359375 0.6875q1.765625 0 1.796875 -2.703125l0 -0.328125q0 -2.84375 -1.8125 -2.84375q-1.640625 0 -1.78125 2.453125l-0.015625 0.59375z" fill-rule="nonzero"/><path fill="#ffffff" d="m362.8709 449.47025l-4.703125 0l-0.8125 2.65625l-3.671875 0l5.21875 -14.21875l3.21875 0l5.25 14.21875l-3.671875 0l-0.828125 -2.65625zm-3.875 -2.640625l3.046875 0l-1.53125 -4.9375l-1.515625 4.9375zm14.716797 -4.203125l2.328125 -4.71875l3.921875 0l-3.984375 7.046875l4.078125 7.171875l-3.953125 0l-2.390625 -4.8125l-2.390625 4.8125l-3.9375 0l4.0625 -7.171875l-3.96875 -7.046875l3.90625 0l2.328125 4.71875zm11.123047 9.5l-3.421875 0l0 -14.21875l3.421875 0l0 14.21875zm10.863281 -5.5625l1.4375 0l0 2.546875l-1.4375 0l0 3.015625l-3.296875 0l0 -3.015625l-5.5 0l-0.1875 -2.015625l5.6875 -9.15625l0 -0.03125l3.296875 0l0 8.65625zm-5.84375 0l2.546875 0l0 -4.375l-0.203125 0.34375l-2.34375 4.03125zm16.269531 1.78125q0 -0.75 -0.53125 -1.171875q-0.53125 -0.421875 -1.875 -0.859375q-1.328125 -0.453125 -2.1875 -0.875q-2.75 -1.359375 -2.75 -3.734375q0 -1.1875 0.6875 -2.078125q0.6875 -0.90625 1.9375 -1.40625q1.265625 -0.515625 2.84375 -0.515625q1.53125 0 2.734375 0.546875q1.21875 0.546875 1.890625 1.5625q0.6875 1.015625 0.6875 2.3125l-3.421875 0q0 -0.875 -0.53125 -1.34375q-0.53125 -0.484375 -1.4375 -0.484375q-0.921875 0 -1.453125 0.40625q-0.53125 0.40625 -0.53125 1.03125q0 0.546875 0.578125 1.0q0.59375 0.4375 2.0625 0.90625q1.46875 0.46875 2.421875 1.015625q2.3125 1.328125 2.3125 3.671875q0 1.859375 -1.40625 2.9375q-1.40625 1.0625 -3.859375 1.0625q-1.734375 0 -3.140625 -0.625q-1.390625 -0.625 -2.109375 -1.703125q-0.703125 -1.078125 -0.703125 -2.484375l3.4375 0q0 1.140625 0.59375 1.6875q0.59375 0.53125 1.921875 0.53125q0.84375 0 1.328125 -0.359375q0.5 -0.359375 0.5 -1.03125z" fill-rule="nonzero"/><path fill="#000000" fill-opacity="0.0" d="m197.48557 418.9265l123.93701 0" fill-rule="evenodd"/><path stroke="#e06666" stroke-width="2.0" stroke-linejoin="round" stroke-linecap="butt" d="m197.48557 418.9265l111.93701 0" fill-rule="evenodd"/><path fill="#e06666" stroke="#e06666" stroke-width="2.0" stroke-linecap="butt" d="m309.42258 422.22998l9.076202 -3.3034668l-9.076202 -3.3034668z" fill-rule="evenodd"/><path fill="#000000" fill-opacity="0.0" d="m232.97375 375.5092l52.944885 0l0 42.015747l-52.944885 0z" fill-rule="evenodd"/><path fill="#000000" d="m252.56444 398.89795q0 -0.703125 -0.5 -1.09375q-0.5 -0.390625 -1.75 -0.796875q-1.234375 -0.421875 -2.03125 -0.8125q-2.578125 -1.265625 -2.578125 -3.484375q0 -1.109375 0.640625 -1.9375q0.640625 -0.84375 1.8125 -1.3125q1.1875 -0.484375 2.640625 -0.484375q1.4375 0 2.5625 0.515625q1.140625 0.515625 1.765625 1.453125q0.640625 0.9375 0.640625 2.15625l-3.1875 0q0 -0.8125 -0.5 -1.25q-0.5 -0.453125 -1.34375 -0.453125q-0.859375 0 -1.359375 0.375q-0.5 0.375 -0.5 0.96875q0 0.5 0.546875 0.921875q0.546875 0.40625 1.921875 0.859375q1.375 0.4375 2.265625 0.953125q2.15625 1.234375 2.15625 3.40625q0 1.75 -1.3125 2.75q-1.3125 0.984375 -3.609375 0.984375q-1.609375 0 -2.921875 -0.578125q-1.296875 -0.578125 -1.96875 -1.578125q-0.65625 -1.015625 -0.65625 -2.328125l3.21875 0q0 1.0625 0.546875 1.578125q0.546875 0.5 1.78125 0.5q0.796875 0 1.25 -0.34375q0.46875 -0.34375 0.46875 -0.96875zm8.0377655 -0.96875l0 4.5l-3.203125 0l0 -13.265625l5.296875 0q1.515625 0 2.6875 0.5625q1.171875 0.5625 1.8125 1.59375q0.640625 1.03125 0.640625 2.34375q0 1.9375 -1.390625 3.109375q-1.390625 1.15625 -3.8125 1.15625l-2.03125 0zm0 -2.46875l2.09375 0q0.921875 0 1.40625 -0.453125q0.5 -0.46875 0.5 -1.328125q0 -0.921875 -0.5 -1.46875q-0.5 -0.5625 -1.375 -0.578125l-2.125 0l0 3.828125zm12.346069 6.96875l-3.1875 0l0 -13.265625l3.1875 0l0 13.265625z" fill-rule="nonzero"/><path fill="#8e7cc3" d="m566.46716 367.5092l121.13391 0l0 102.834656l-121.13391 0z" fill-rule="evenodd"/><path fill="#ffffff" d="m602.4528 395.9065l-3.65625 0l0 -15.15625l3.65625 0l0 15.15625zm15.201599 0l-3.640625 0l-5.375 -9.4375l0 9.4375l-3.65625 0l0 -15.15625l3.65625 0l5.375 9.421875l0 -9.421875l3.640625 0l0 15.15625zm13.907776 -12.34375l-4.546875 0l0 12.34375l-3.65625 0l0 -12.34375l-4.46875 0l0 -2.8125l12.671875 0l0 2.8125zm9.100891 12.34375l-3.515625 0l0 -11.203125l-3.453125 1.0l0 -2.65625l6.65625 -2.296875l0.3125 0l0 15.15625zm13.05426 -15.375l0 2.75l-0.15625 0q-1.96875 0 -3.234375 0.953125q-1.265625 0.9375 -1.5625 2.609375q1.1875 -1.171875 3.0 -1.171875q1.96875 0 3.125 1.4375q1.171875 1.4375 1.171875 3.78125q0 1.4375 -0.6875 2.65625q-0.671875 1.203125 -1.890625 1.890625q-1.21875 0.671875 -2.71875 0.671875q-1.609375 0 -2.890625 -0.734375q-1.265625 -0.734375 -1.96875 -2.09375q-0.703125 -1.359375 -0.734375 -3.140625l0 -1.40625q0 -2.34375 1.0 -4.203125q1.015625 -1.875 2.875 -2.9375q1.875 -1.0625 4.140625 -1.0625l0.53125 0zm-3.171875 7.828125q-0.6875 0 -1.15625 0.328125q-0.46875 0.328125 -0.703125 0.796875l0 1.046875q0 2.875 1.984375 2.875q0.8125 0 1.34375 -0.71875q0.53125 -0.71875 0.53125 -1.796875q0 -1.125 -0.546875 -1.828125q-0.546875 -0.703125 -1.453125 -0.703125z" fill-rule="nonzero"/><path fill="#ffffff" d="m622.6198 410.844l0 2.796875l1.84375 0l0 2.4375l-1.84375 0l0 5.15625q0 0.625 0.21875 0.875q0.234375 0.25 0.90625 0.25q0.53125 0 0.875 -0.0625l0 2.515625q-0.9375 0.296875 -1.96875 0.296875q-1.8125 0 -2.6875 -0.84375q-0.859375 -0.859375 -0.859375 -2.59375l0 -5.59375l-1.4375 0l0 -2.4375l1.4375 0l0 -2.796875l3.515625 0zm2.477356 8.328125q0 -1.6875 0.65625 -3.0q0.65625 -1.328125 1.875 -2.03125q1.234375 -0.703125 2.890625 -0.703125q2.53125 0 3.984375 1.5625q1.453125 1.5625 1.453125 4.265625l0 0.125q0 2.625 -1.46875 4.171875q-1.453125 1.546875 -3.953125 1.546875q-2.40625 0 -3.859375 -1.4375q-1.453125 -1.4375 -1.578125 -3.90625l0 -0.59375zm3.5 0.21875q0 1.5625 0.484375 2.296875q0.5 0.71875 1.453125 0.71875q1.875 0 1.921875 -2.890625l0 -0.34375q0 -3.03125 -1.9375 -3.03125q-1.765625 0 -1.90625 2.609375l-0.015625 0.640625z" fill-rule="nonzero"/><path fill="#ffffff" d="m593.4775 447.85965l-5.890625 0l0 6.046875l-3.65625 0l0 -15.15625l10.140625 0l0 2.8125l-6.484375 0l0 3.484375l5.890625 0l0 2.8125zm5.7731934 3.234375l6.359375 0l0 2.8125l-10.015625 0l0 -15.15625l3.65625 0l0 12.34375zm20.080505 -4.453125q0 2.21875 -0.828125 3.921875q-0.8125 1.703125 -2.328125 2.625q-1.515625 0.921875 -3.453125 0.921875q-1.9375 0 -3.4375 -0.890625q-1.5 -0.890625 -2.34375 -2.546875q-0.828125 -1.65625 -0.875 -3.796875l0 -0.859375q0 -2.21875 0.8125 -3.921875q0.828125 -1.703125 2.34375 -2.625q1.53125 -0.9375 3.484375 -0.9375q1.921875 0 3.421875 0.921875q1.515625 0.921875 2.34375 2.609375q0.84375 1.6875 0.859375 3.875l0 0.703125zm-3.71875 -0.640625q0 -2.265625 -0.75 -3.421875q-0.75 -1.171875 -2.15625 -1.171875q-2.75 0 -2.90625 4.109375l-0.015625 1.125q0 2.21875 0.734375 3.421875q0.75 1.203125 2.203125 1.203125q1.390625 0 2.140625 -1.171875q0.75 -1.1875 0.75 -3.390625l0 -0.703125zm14.006836 5.078125l-5.015625 0l-0.875 2.828125l-3.90625 0l5.5625 -15.15625l3.4375 0l5.59375 15.15625l-3.921875 0l-0.875 -2.828125zm-4.140625 -2.828125l3.265625 0l-1.640625 -5.25l-1.625 5.25zm20.699585 -6.6875l-4.546875 0l0 12.34375l-3.65625 0l0 -12.34375l-4.46875 0l0 -2.8125l12.671875 0l0 2.8125zm9.100891 12.34375l-3.515625 0l0 -11.203125l-3.453125 1.0l0 -2.65625l6.65625 -2.296875l0.3125 0l0 15.15625zm13.05426 -15.375l0 2.75l-0.15625 0q-1.96875 0 -3.234375 0.953125q-1.265625 0.9375 -1.5625 2.609375q1.1875 -1.171875 3.0 -1.171875q1.96875 0 3.125 1.4375q1.171875 1.4375 1.171875 3.78125q0 1.4375 -0.6875 2.65625q-0.671875 1.203125 -1.890625 1.890625q-1.21875 0.671875 -2.71875 0.671875q-1.609375 0 -2.890625 -0.734375q-1.265625 -0.734375 -1.96875 -2.09375q-0.703125 -1.359375 -0.734375 -3.140625l0 -1.40625q0 -2.34375 1.0 -4.203125q1.015625 -1.875 2.875 -2.9375q1.875 -1.0625 4.140625 -1.0625l0.53125 0zm-3.171875 7.828125q-0.6875 0 -1.15625 0.328125q-0.46875 0.328125 -0.703125 0.796875l0 1.046875q0 2.875 1.984375 2.875q0.8125 0 1.34375 -0.71875q0.53125 -0.71875 0.53125 -1.796875q0 -1.125 -0.546875 -1.828125q-0.546875 -0.703125 -1.453125 -0.703125z" fill-rule="nonzero"/><path fill="#8e7cc3" d="m811.52496 367.5092l121.13385 0l0 102.834656l-121.13385 0z" fill-rule="evenodd"/><path fill="#ffffff" d="m841.4727 421.47028l-4.703125 0l-0.8125 2.65625l-3.671875 0l5.21875 -14.21875l3.21875 0l5.25 14.21875l-3.671875 0l-0.828125 -2.65625zm-3.875 -2.640625l3.046875 0l-1.53125 -4.9375l-1.515625 4.9375zm16.759766 -4.046875l-3.1875 -0.875l0.640625 -1.84375l3.109375 1.28125l-0.234375 -3.4375l2.078125 0l-0.25 3.5l3.03125 -1.25l0.640625 1.875l-3.234375 0.875l2.140625 2.59375l-1.6875 1.140625l-1.78125 -2.859375l-1.796875 2.765625l-1.6875 -1.109375l2.21875 -2.65625zm11.917969 9.34375l0 -14.21875l5.109375 0q2.734375 0 4.15625 1.015625q1.4375 1.0 1.4375 2.90625q0 1.109375 -0.515625 1.890625q-0.5 0.78125 -1.484375 1.15625q1.125 0.28125 1.71875 1.09375q0.59375 0.796875 0.59375 1.953125q0 2.078125 -1.328125 3.140625q-1.328125 1.046875 -3.921875 1.0625l-5.765625 0zm3.421875 -6.046875l0 3.40625l2.25 0q0.921875 0 1.421875 -0.421875q0.5 -0.421875 0.5 -1.203125q0 -1.765625 -1.765625 -1.78125l-2.40625 0zm0 -2.25l1.796875 0q1.109375 0 1.59375 -0.40625q0.484375 -0.40625 0.484375 -1.1875q0 -0.890625 -0.53125 -1.28125q-0.515625 -0.40625 -1.65625 -0.40625l-1.6875 0l0 3.28125zm20.240234 0.234375l3.328125 0l0 2.8125l-3.328125 0l0 3.828125l-3.078125 0l0 -3.828125l-3.34375 0l0 -2.8125l3.34375 0l0 -3.71875l3.078125 0l0 3.71875zm21.382812 3.25q-0.0625 1.484375 -0.796875 2.625q-0.734375 1.125 -2.0625 1.765625q-1.3125 0.625 -3.015625 0.625q-2.8125 0 -4.421875 -1.828125q-1.609375 -1.828125 -1.609375 -5.15625l0 -0.703125q0 -2.09375 0.71875 -3.65625q0.734375 -1.578125 2.09375 -2.421875q1.375 -0.859375 3.171875 -0.859375q2.59375 0 4.15625 1.359375q1.578125 1.359375 1.796875 3.75l-3.421875 0q-0.03125 -1.296875 -0.65625 -1.859375q-0.609375 -0.5625 -1.875 -0.5625q-1.28125 0 -1.875 0.953125q-0.59375 0.953125 -0.625 3.0625l0 1.0q0 2.28125 0.5625 3.265625q0.578125 0.96875 1.984375 0.96875q1.171875 0 1.796875 -0.5625q0.625 -0.5625 0.671875 -1.765625l3.40625 0z" fill-rule="nonzero"/><path fill="#000000" fill-opacity="0.0" d="m442.5433 418.9265l123.93698 0" fill-rule="evenodd"/><path stroke="#3c78d8" stroke-width="2.0" stroke-linejoin="round" stroke-linecap="butt" d="m442.5433 418.9265l111.93698 0" fill-rule="evenodd"/><path fill="#3c78d8" stroke="#3c78d8" stroke-width="2.0" stroke-linecap="butt" d="m554.4803 422.22998l9.076233 -3.3034668l-9.076233 -3.3034668z" fill-rule="evenodd"/><path fill="#000000" fill-opacity="0.0" d="m687.6011 418.9265l123.93701 0" fill-rule="evenodd"/><path stroke="#674ea7" stroke-width="2.0" stroke-linejoin="round" stroke-linecap="butt" d="m687.6011 418.9265l111.93701 0" fill-rule="evenodd"/><path fill="#674ea7" stroke="#674ea7" stroke-width="2.0" stroke-linecap="butt" d="m799.5381 422.22998l9.076172 -3.3034668l-9.076172 -3.3034668z" fill-rule="evenodd"/><path fill="#000000" fill-opacity="0.0" d="m461.02493 375.5092l86.9606 0l0 42.015747l-86.9606 0z" fill-rule="evenodd"/><path fill="#000000" d="m486.6736 399.94482l-4.375 0l-0.765625 2.484375l-3.421875 0l4.875 -13.265625l3.0 0l4.90625 13.265625l-3.4375 0l-0.78125 -2.484375zm-3.609375 -2.46875l2.84375 0l-1.421875 -4.59375l-1.421875 4.59375zm13.739014 -3.90625l2.15625 -4.40625l3.65625 0l-3.703125 6.578125l3.8125 6.6875l-3.6875 0l-2.234375 -4.484375l-2.234375 4.484375l-3.6875 0l3.796875 -6.6875l-3.6875 -6.578125l3.640625 0l2.171875 4.40625zm10.359222 8.859375l-3.1875 0l0 -13.265625l3.1875 0l0 13.265625zm10.145325 -5.1875l1.34375 0l0 2.375l-1.34375 0l0 2.8125l-3.078125 0l0 -2.8125l-5.1250305 0l-0.1875 -1.875l5.3125305 -8.546875l0 -0.03125l3.078125 0l0 8.078125zm-5.4531555 0l2.3750305 0l0 -4.078125l-0.1875 0.3125l-2.1875305 3.765625zm15.178864 1.65625q0 -0.703125 -0.5 -1.09375q-0.5 -0.390625 -1.75 -0.796875q-1.234375 -0.421875 -2.03125 -0.8125q-2.578125 -1.265625 -2.578125 -3.484375q0 -1.109375 0.640625 -1.9375q0.640625 -0.84375 1.8125 -1.3125q1.1875 -0.484375 2.640625 -0.484375q1.4375 0 2.5625 0.515625q1.140625 0.515625 1.765625 1.453125q0.640625 0.9375 0.640625 2.15625l-3.1875 0q0 -0.8125 -0.5 -1.25q-0.5 -0.453125 -1.34375 -0.453125q-0.859375 0 -1.359375 0.375q-0.5 0.375 -0.5 0.96875q0 0.5 0.546875 0.921875q0.546875 0.40625 1.921875 0.859375q1.375 0.4375 2.265625 0.953125q2.15625 1.234375 2.15625 3.40625q0 1.75 -1.3125 2.75q-1.3125 0.984375 -3.609375 0.984375q-1.609375 0 -2.921875 -0.578125q-1.296875 -0.578125 -1.96875 -1.578125q-0.65625 -1.015625 -0.65625 -2.328125l3.21875 0q0 1.0625 0.546875 1.578125q0.546875 0.5 1.78125 0.5q0.796875 0 1.25 -0.34375q0.46875 -0.34375 0.46875 -0.96875z" fill-rule="nonzero"/><path fill="#000000" fill-opacity="0.0" d="m706.08136 375.5092l86.96063 0l0 42.015747l-86.96063 0z" fill-rule="evenodd"/><path fill="#000000" d="m731.73004 399.94482l-4.375 0l-0.765625 2.484375l-3.421875 0l4.875 -13.265625l3.0 0l4.90625 13.265625l-3.4375 0l-0.78125 -2.484375zm-3.609375 -2.46875l2.84375 0l-1.421875 -4.59375l-1.421875 4.59375zm13.739014 -3.90625l2.15625 -4.40625l3.65625 0l-3.703125 6.578125l3.8125 6.6875l-3.6875 0l-2.234375 -4.484375l-2.234375 4.484375l-3.6875 0l3.796875 -6.6875l-3.6875 -6.578125l3.640625 0l2.171875 4.40625zm10.359253 8.859375l-3.1875 0l0 -13.265625l3.1875 0l0 13.265625zm10.145264 -5.1875l1.34375 0l0 2.375l-1.34375 0l0 2.8125l-3.078125 0l0 -2.8125l-5.125 0l-0.1875 -1.875l5.3125 -8.546875l0 -0.03125l3.078125 0l0 8.078125zm-5.453125 0l2.375 0l0 -4.078125l-0.1875 0.3125l-2.1875 3.765625zm15.178894 1.65625q0 -0.703125 -0.5 -1.09375q-0.5 -0.390625 -1.75 -0.796875q-1.234375 -0.421875 -2.03125 -0.8125q-2.578125 -1.265625 -2.578125 -3.484375q0 -1.109375 0.640625 -1.9375q0.640625 -0.84375 1.8125 -1.3125q1.1875 -0.484375 2.640625 -0.484375q1.4375 0 2.5625 0.515625q1.140625 0.515625 1.765625 1.453125q0.640625 0.9375 0.640625 2.15625l-3.1875 0q0 -0.8125 -0.5 -1.25q-0.5 -0.453125 -1.34375 -0.453125q-0.859375 0 -1.359375 0.375q-0.5 0.375 -0.5 0.96875q0 0.5 0.546875 0.921875q0.546875 0.40625 1.921875 0.859375q1.375 0.4375 2.265625 0.953125q2.15625 1.234375 2.15625 3.40625q0 1.75 -1.3125 2.75q-1.3125 0.984375 -3.609375 0.984375q-1.609375 0 -2.921875 -0.578125q-1.296875 -0.578125 -1.96875 -1.578125q-0.65625 -1.015625 -0.65625 -2.328125l3.21875 0q0 1.0625 0.546875 1.578125q0.546875 0.5 1.78125 0.5q0.796875 0 1.25 -0.34375q0.46875 -0.34375 0.46875 -0.96875z" fill-rule="nonzero"/><path fill="#cc4125" d="m76.35171 240.62993l0 0c0 -31.693329 27.116737 -57.385834 60.566933 -57.385834l0 0c16.06334 0 31.46878 6.04599 42.827286 16.807922c11.358505 10.761932 17.73964 25.35823 17.73964 40.57791l0 0c0 31.693314 -27.116745 57.38582 -60.566925 57.38582l0 0c-33.450195 0 -60.566933 -25.692505 -60.566933 -57.38582z" fill-rule="evenodd"/><path fill="#ffffff" d="m125.78777 231.61118l3.1718826 9.890625l3.171875 -9.890625l4.5 0l0 14.21875l-3.4375 0l0 -3.328125l0.34375 -6.796875l-3.4375 10.125l-2.2656326 0l-3.453125 -10.125l0.328125 6.796875l0 3.328125l-3.421875 0l0 -14.21875l4.5 0zm16.341805 14.21875l-3.296875 0l0 -10.5625l3.296875 0l0 10.5625zm-3.484375 -13.296875q0 -0.703125 0.5 -1.140625q0.515625 -0.453125 1.3125 -0.453125q0.8125 0 1.3125 0.453125q0.515625 0.4375 0.515625 1.140625q0 0.703125 -0.515625 1.15625q-0.5 0.453125 -1.3125 0.453125q-0.796875 0 -1.3125 -0.453125q-0.5 -0.453125 -0.5 -1.15625zm9.982422 10.953125q0.6875 0 1.0625 -0.375q0.390625 -0.375 0.390625 -1.046875l3.078125 0q0 1.734375 -1.25 2.859375q-1.234375 1.109375 -3.203125 1.109375q-2.296875 0 -3.625 -1.453125q-1.328125 -1.453125 -1.328125 -4.0l0 -0.140625q0 -1.609375 0.578125 -2.828125q0.59375 -1.21875 1.703125 -1.875q1.125 -0.671875 2.640625 -0.671875q2.0625 0 3.265625 1.140625q1.21875 1.140625 1.21875 3.09375l-3.078125 0q0 -0.8125 -0.40625 -1.25q-0.40625 -0.4375 -1.078125 -0.4375q-1.28125 0 -1.484375 1.625q-0.078125 0.515625 -0.078125 1.421875q0 1.59375 0.375 2.21875q0.390625 0.609375 1.21875 0.609375z" fill-rule="nonzero"/><path fill="#000000" fill-opacity="0.0" d="m136.91864 298.01575l0 69.480316" fill-rule="evenodd"/><path stroke="#e06666" stroke-width="2.0" stroke-linejoin="round" stroke-linecap="butt" d="m136.91864 298.01575l0 57.480316" fill-rule="evenodd"/><path fill="#e06666" stroke="#e06666" stroke-width="2.0" stroke-linecap="butt" d="m133.61517 355.49606l3.3034668 9.076202l3.3034668 -9.076202z" fill-rule="evenodd"/><path fill="#000000" fill-opacity="0.0" d="m118.666664 305.6483l121.13386 0l0 42.015747l-121.13386 0z" fill-rule="evenodd"/><path fill="#000000" d="m158.2502 330.08392l-4.375 0l-0.765625 2.484375l-3.421875 0l4.875 -13.265625l3.0 0l4.90625 13.265625l-3.4375 0l-0.78125 -2.484375zm-3.609375 -2.46875l2.84375 0l-1.421875 -4.59375l-1.421875 4.59375zm11.035873 -4.90625l0.09375 1.15625q1.015625 -1.328125 2.8125 -1.328125q1.546875 0 2.296875 0.921875q0.765625 0.90625 0.796875 2.765625l0 6.34375l-3.078125 0l0 -6.21875q0 -0.75 -0.3125 -1.09375q-0.296875 -0.359375 -1.09375 -0.359375q-0.890625 0 -1.328125 0.71875l0 6.953125l-3.078125 0l0 -9.859375l2.890625 0zm13.240219 9.859375q-0.15625 -0.296875 -0.28125 -0.890625q-0.84375 1.078125 -2.375 1.078125q-1.390625 0 -2.375 -0.84375q-0.96875 -0.84375 -0.96875 -2.125q0 -1.59375 1.1875 -2.40625q1.1875 -0.828125 3.4375 -0.828125l0.953125 0l0 -0.53125q0 -1.34375 -1.171875 -1.34375q-1.09375 0 -1.09375 1.0625l-3.078125 0q0 -1.421875 1.21875 -2.3125q1.21875 -0.890625 3.09375 -0.890625q1.890625 0 2.984375 0.921875q1.09375 0.90625 1.125 2.515625l0 4.359375q0.015625 1.359375 0.421875 2.078125l0 0.15625l-3.078125 0zm-1.921875 -2.0q0.578125 0 0.953125 -0.25q0.390625 -0.25 0.546875 -0.5625l0 -1.5625l-0.890625 0q-1.609375 0 -1.609375 1.4375q0 0.421875 0.28125 0.6875q0.28125 0.25 0.71875 0.25zm9.511398 2.0l-3.078125 0l0 -14.0l3.078125 0l0 14.0zm1.5036469 -5.015625q0 -1.484375 0.578125 -2.625q0.578125 -1.15625 1.640625 -1.765625q1.078125 -0.625 2.53125 -0.625q2.21875 0 3.484375 1.375q1.28125 1.359375 1.28125 3.71875l0 0.109375q0 2.3125 -1.28125 3.671875q-1.28125 1.34375 -3.46875 1.34375q-2.09375 0 -3.375 -1.265625q-1.28125 -1.265625 -1.375 -3.421875l-0.015625 -0.515625zm3.078125 0.1875q0 1.359375 0.421875 2.0q0.4375 0.640625 1.265625 0.640625q1.640625 0 1.6875 -2.515625l0 -0.3125q0 -2.65625 -1.703125 -2.65625q-1.53125 0 -1.671875 2.28125l0 0.5625zm7.4290466 -0.171875q0 -1.5 0.484375 -2.640625q0.5 -1.15625 1.421875 -1.765625q0.921875 -0.625 2.140625 -0.625q1.53125 0 2.40625 1.03125l0.109375 -0.859375l2.78125 0l0 9.484375q0 1.296875 -0.609375 2.25q-0.59375 0.96875 -1.75 1.484375q-1.140625 0.515625 -2.65625 0.515625q-1.078125 0 -2.09375 -0.40625q-1.015625 -0.40625 -1.5625 -1.0625l1.28125 -1.8125q0.859375 1.015625 2.265625 1.015625q2.046875 0 2.046875 -2.09375l0 -0.3125q-0.890625 0.984375 -2.234375 0.984375q-1.8125 0 -2.921875 -1.375q-1.109375 -1.390625 -1.109375 -3.703125l0 -0.109375zm3.078125 0.1875q0 1.21875 0.453125 1.921875q0.453125 0.703125 1.28125 0.703125q0.984375 0 1.453125 -0.65625l0 -4.15625q-0.453125 -0.671875 -1.4375 -0.671875q-0.8125 0 -1.28125 0.734375q-0.46875 0.734375 -0.46875 2.125z" fill-rule="nonzero"/><path fill="#8e7cc3" d="m811.52496 562.68243l121.13385 0l0 102.834656l-121.13385 0z" fill-rule="evenodd"/><path fill="#ffffff" d="m856.0575 598.3141q0 2.21875 -0.828125 3.921875q-0.8125 1.703125 -2.328125 2.625q-1.515625 0.921875 -3.453125 0.921875q-1.9375 0 -3.4375 -0.890625q-1.5 -0.890625 -2.34375 -2.546875q-0.828125 -1.65625 -0.875 -3.796875l0 -0.859375q0 -2.21875 0.8125 -3.921875q0.828125 -1.703125 2.34375 -2.625q1.53125 -0.9375 3.484375 -0.9375q1.921875 0 3.421875 0.921875q1.515625 0.921875 2.34375 2.609375q0.84375 1.6875 0.859375 3.875l0 0.703125zm-3.71875 -0.640625q0 -2.265625 -0.75 -3.421875q-0.75 -1.171875 -2.15625 -1.171875q-2.75 0 -2.90625 4.109375l-0.015625 1.125q0 2.21875 0.734375 3.421875q0.75 1.203125 2.203125 1.203125q1.390625 0 2.140625 -1.171875q0.75 -1.1875 0.75 -3.390625l0 -0.703125zm6.225586 7.90625l0 -8.828125l-1.640625 0l0 -2.4375l1.640625 0l0 -0.890625q0 -1.9375 1.125 -3.0q1.140625 -1.0625 3.1875 -1.0625q0.75 0 1.65625 0.21875l0 2.59375q-0.3125 -0.09375 -0.859375 -0.09375q-1.59375 0 -1.59375 1.375l0 0.859375l2.203125 0l0 2.4375l-2.203125 0l0 8.828125l-3.515625 0zm7.727295 0l0 -8.828125l-1.640625 0l0 -2.4375l1.640625 0l0 -0.890625q0 -1.9375 1.125 -3.0q1.140625 -1.0625 3.1875 -1.0625q0.75 0 1.65625 0.21875l0 2.59375q-0.3125 -0.09375 -0.859375 -0.09375q-1.59375 0 -1.59375 1.375l0 0.859375l2.203125 0l0 2.4375l-2.203125 0l0 8.828125l-3.515625 0zm12.852295 -3.171875q0 -0.4375 -0.46875 -0.703125q-0.46875 -0.28125 -1.78125 -0.5625q-1.3125 -0.296875 -2.171875 -0.765625q-0.859375 -0.484375 -1.3125 -1.15625q-0.4375 -0.6875 -0.4375 -1.5625q0 -1.546875 1.28125 -2.546875q1.28125 -1.0 3.359375 -1.0q2.21875 0 3.578125 1.015625q1.359375 1.0 1.359375 2.640625l-3.53125 0q0 -1.359375 -1.421875 -1.359375q-0.546875 0 -0.921875 0.3125q-0.375 0.3125 -0.375 0.765625q0 0.46875 0.453125 0.765625q0.453125 0.28125 1.453125 0.46875q1.015625 0.1875 1.78125 0.453125q2.53125 0.875 2.53125 3.140625q0 1.53125 -1.375 2.5q-1.359375 0.96875 -3.53125 0.96875q-1.453125 0 -2.59375 -0.515625q-1.125 -0.515625 -1.765625 -1.40625q-0.640625 -0.90625 -0.640625 -1.890625l3.28125 0q0.03125 0.78125 0.53125 1.140625q0.5 0.359375 1.28125 0.359375q0.71875 0 1.078125 -0.296875q0.359375 -0.296875 0.359375 -0.765625zm10.471252 3.375q-2.59375 0 -4.203125 -1.546875q-1.59375 -1.546875 -1.59375 -4.015625l0 -0.296875q0 -1.734375 0.640625 -3.046875q0.640625 -1.328125 1.859375 -2.046875q1.234375 -0.71875 2.921875 -0.71875q2.375 0 3.75 1.46875q1.375 1.46875 1.375 4.109375l0 1.359375l-6.984375 0q0.1875 0.953125 0.828125 1.5q0.640625 0.53125 1.640625 0.53125q1.671875 0 2.609375 -1.171875l1.59375 1.90625q-0.640625 0.90625 -1.84375 1.4375q-1.203125 0.53125 -2.59375 0.53125zm-0.390625 -8.96875q-1.546875 0 -1.84375 2.03125l3.546875 0l0 -0.265625q0.015625 -0.84375 -0.4375 -1.296875q-0.4375 -0.46875 -1.265625 -0.46875zm10.643005 -5.296875l0 2.796875l1.84375 0l0 2.4375l-1.84375 0l0 5.15625q0 0.625 0.21875 0.875q0.234375 0.25 0.90625 0.25q0.53125 0 0.875 -0.0625l0 2.515625q-0.9375 0.296875 -1.96875 0.296875q-1.8125 0 -2.6875 -0.84375q-0.859375 -0.859375 -0.859375 -2.59375l0 -5.59375l-1.4375 0l0 -2.4375l1.4375 0l0 -2.796875l3.515625 0z" fill-rule="nonzero"/><path fill="#ffffff" d="m842.04 629.4391q-0.0625 1.59375 -0.84375 2.8125q-0.78125 1.203125 -2.203125 1.875q-1.40625 0.65625 -3.21875 0.65625q-2.984375 0 -4.703125 -1.9375q-1.71875 -1.953125 -1.71875 -5.5l0 -0.75q0 -2.234375 0.765625 -3.90625q0.78125 -1.671875 2.234375 -2.578125q1.46875 -0.90625 3.390625 -0.90625q2.75 0 4.421875 1.453125q1.6875 1.453125 1.90625 4.0l-3.640625 0q-0.03125 -1.390625 -0.6875 -1.984375q-0.65625 -0.609375 -2.0 -0.609375q-1.375 0 -2.015625 1.015625q-0.625 1.015625 -0.65625 3.265625l0 1.0625q0 2.4375 0.609375 3.484375q0.609375 1.03125 2.09375 1.03125q1.265625 0 1.921875 -0.59375q0.671875 -0.59375 0.71875 -1.890625l3.625 0zm1.137207 -0.59375q0 -1.6875 0.65625 -3.0q0.65625 -1.328125 1.875 -2.03125q1.234375 -0.703125 2.890625 -0.703125q2.53125 0 3.984375 1.5625q1.453125 1.5625 1.453125 4.265625l0 0.125q0 2.625 -1.46875 4.171875q-1.453125 1.546875 -3.953125 1.546875q-2.40625 0 -3.859375 -1.4375q-1.453125 -1.4375 -1.578125 -3.90625l0 -0.59375zm3.5 0.21875q0 1.5625 0.484375 2.296875q0.5 0.71875 1.453125 0.71875q1.875 0 1.921875 -2.890625l0 -0.34375q0 -3.03125 -1.9375 -3.03125q-1.765625 0 -1.90625 2.609375l-0.015625 0.640625zm12.132446 -5.75l0.125 1.3125q1.15625 -1.515625 3.21875 -1.515625q1.75 0 2.609375 1.046875q0.875 1.046875 0.90625 3.15625l0 7.265625l-3.515625 0l0 -7.109375q0 -0.859375 -0.34375 -1.25q-0.34375 -0.40625 -1.25 -0.40625q-1.03125 0 -1.53125 0.8125l0 7.953125l-3.5 0l0 -11.265625l3.28125 0zm14.71582 8.09375q0 -0.4375 -0.46875 -0.703125q-0.46875 -0.28125 -1.78125 -0.5625q-1.3125 -0.296875 -2.171875 -0.765625q-0.859375 -0.484375 -1.3125 -1.15625q-0.4375 -0.6875 -0.4375 -1.5625q0 -1.546875 1.28125 -2.546875q1.28125 -1.0 3.359375 -1.0q2.21875 0 3.578125 1.015625q1.359375 1.0 1.359375 2.640625l-3.53125 0q0 -1.359375 -1.421875 -1.359375q-0.546875 0 -0.921875 0.3125q-0.375 0.3125 -0.375 0.765625q0 0.46875 0.453125 0.765625q0.453125 0.28125 1.453125 0.46875q1.015625 0.1875 1.78125 0.453125q2.53125 0.875 2.53125 3.140625q0 1.53125 -1.375 2.5q-1.359375 0.96875 -3.53125 0.96875q-1.453125 0 -2.59375 -0.515625q-1.125 -0.515625 -1.765625 -1.40625q-0.640625 -0.90625 -0.640625 -1.890625l3.28125 0q0.03125 0.78125 0.53125 1.140625q0.5 0.359375 1.28125 0.359375q0.71875 0 1.078125 -0.296875q0.359375 -0.296875 0.359375 -0.765625zm9.111938 -10.890625l0 2.796875l1.84375 0l0 2.4375l-1.84375 0l0 5.15625q0 0.625 0.21875 0.875q0.234375 0.25 0.90625 0.25q0.53125 0 0.875 -0.0625l0 2.515625q-0.9375 0.296875 -1.96875 0.296875q-1.8125 0 -2.6875 -0.84375q-0.859375 -0.859375 -0.859375 -2.59375l0 -5.59375l-1.4375 0l0 -2.4375l1.4375 0l0 -2.796875l3.515625 0zm9.571167 14.0625q-0.1875 -0.34375 -0.328125 -1.015625q-0.96875 1.21875 -2.703125 1.21875q-1.59375 0 -2.71875 -0.953125q-1.109375 -0.96875 -1.109375 -2.421875q0 -1.84375 1.34375 -2.78125q1.359375 -0.9375 3.953125 -0.9375l1.078125 0l0 -0.59375q0 -1.546875 -1.34375 -1.546875q-1.25 0 -1.25 1.234375l-3.515625 0q0 -1.640625 1.390625 -2.65625q1.390625 -1.015625 3.546875 -1.015625q2.15625 0 3.40625 1.046875q1.25 1.046875 1.28125 2.875l0 5.0q0.03125 1.546875 0.484375 2.375l0 0.171875l-3.515625 0zm-2.1875 -2.296875q0.65625 0 1.078125 -0.28125q0.4375 -0.28125 0.625 -0.625l0 -1.8125l-1.015625 0q-1.84375 0 -1.84375 1.65625q0 0.46875 0.328125 0.765625q0.328125 0.296875 0.828125 0.296875zm10.382629 -8.96875l0.125 1.3125q1.15625 -1.515625 3.21875 -1.515625q1.75 0 2.609375 1.046875q0.875 1.046875 0.90625 3.15625l0 7.265625l-3.515625 0l0 -7.109375q0 -0.859375 -0.34375 -1.25q-0.34375 -0.40625 -1.25 -0.40625q-1.03125 0 -1.53125 0.8125l0 7.953125l-3.5 0l0 -11.265625l3.28125 0zm12.90332 -2.796875l0 2.796875l1.84375 0l0 2.4375l-1.84375 0l0 5.15625q0 0.625 0.21875 0.875q0.234375 0.25 0.90625 0.25q0.53125 0 0.875 -0.0625l0 2.515625q-0.9375 0.296875 -1.96875 0.296875q-1.8125 0 -2.6875 -0.84375q-0.859375 -0.859375 -0.859375 -2.59375l0 -5.59375l-1.4375 0l0 -2.4375l1.4375 0l0 -2.796875l3.515625 0z" fill-rule="nonzero"/><path fill="#8e7cc3" d="m811.52496 172.33595l121.13385 0l0 102.83464l-121.13385 0z" fill-rule="evenodd"/><path fill="#ffffff" d="m854.4473 211.20203q0 -0.796875 -0.578125 -1.25q-0.5625 -0.453125 -1.984375 -0.921875q-1.421875 -0.484375 -2.328125 -0.9375q-2.953125 -1.4375 -2.953125 -3.96875q0 -1.265625 0.734375 -2.21875q0.734375 -0.96875 2.078125 -1.5q1.34375 -0.546875 3.015625 -0.546875q1.640625 0 2.9375 0.59375q1.296875 0.578125 2.015625 1.65625q0.71875 1.078125 0.71875 2.453125l-3.640625 0q0 -0.921875 -0.578125 -1.421875q-0.5625 -0.515625 -1.53125 -0.515625q-0.984375 0 -1.546875 0.4375q-0.5625 0.421875 -0.5625 1.09375q0 0.578125 0.625 1.0625q0.625 0.46875 2.1875 0.96875q1.578125 0.5 2.59375 1.09375q2.453125 1.40625 2.453125 3.90625q0 1.984375 -1.5 3.125q-1.5 1.125 -4.109375 1.125q-1.84375 0 -3.34375 -0.65625q-1.5 -0.65625 -2.25 -1.8125q-0.75 -1.15625 -0.75 -2.65625l3.65625 0q0 1.21875 0.625 1.796875q0.640625 0.578125 2.0625 0.578125q0.90625 0 1.421875 -0.390625q0.53125 -0.390625 0.53125 -1.09375zm10.132141 1.53125q0.734375 0 1.140625 -0.390625q0.40625 -0.40625 0.40625 -1.125l3.28125 0q0 1.84375 -1.328125 3.03125q-1.328125 1.1875 -3.421875 1.1875q-2.453125 0 -3.875 -1.53125q-1.40625 -1.546875 -1.40625 -4.28125l0 -0.140625q0 -1.703125 0.625 -3.015625q0.625 -1.3125 1.8125 -2.0q1.1875 -0.703125 2.8125 -0.703125q2.203125 0 3.484375 1.21875q1.296875 1.203125 1.296875 3.296875l-3.28125 0q0 -0.875 -0.4375 -1.34375q-0.421875 -0.46875 -1.140625 -0.46875q-1.359375 0 -1.59375 1.734375q-0.078125 0.546875 -0.078125 1.515625q0 1.703125 0.40625 2.359375q0.40625 0.65625 1.296875 0.65625zm12.658752 2.5q-0.1875 -0.34375 -0.328125 -1.015625q-0.96875 1.21875 -2.703125 1.21875q-1.59375 0 -2.71875 -0.953125q-1.109375 -0.96875 -1.109375 -2.421875q0 -1.84375 1.34375 -2.78125q1.359375 -0.9375 3.953125 -0.9375l1.078125 0l0 -0.59375q0 -1.546875 -1.34375 -1.546875q-1.25 0 -1.25 1.234375l-3.515625 0q0 -1.640625 1.390625 -2.65625q1.390625 -1.015625 3.546875 -1.015625q2.15625 0 3.40625 1.046875q1.25 1.046875 1.28125 2.875l0 5.0q0.03125 1.546875 0.484375 2.375l0 0.171875l-3.515625 0zm-2.1875 -2.296875q0.65625 0 1.078125 -0.28125q0.4375 -0.28125 0.625 -0.625l0 -1.8125l-1.015625 0q-1.84375 0 -1.84375 1.65625q0 0.46875 0.328125 0.765625q0.328125 0.296875 0.828125 0.296875zm10.867065 2.296875l-3.515625 0l0 -16.0l3.515625 0l0 16.0zm7.613159 0.203125q-2.59375 0 -4.203125 -1.546875q-1.59375 -1.546875 -1.59375 -4.015625l0 -0.296875q0 -1.734375 0.640625 -3.046875q0.640625 -1.328125 1.859375 -2.046875q1.234375 -0.71875 2.921875 -0.71875q2.375 0 3.75 1.46875q1.375 1.46875 1.375 4.109375l0 1.359375l-6.984375 0q0.1875 0.953125 0.828125 1.5q0.640625 0.53125 1.640625 0.53125q1.671875 0 2.609375 -1.171875l1.59375 1.90625q-0.640625 0.90625 -1.84375 1.4375q-1.203125 0.53125 -2.59375 0.53125zm-0.390625 -8.96875q-1.546875 0 -1.84375 2.03125l3.546875 0l0 -0.265625q0.015625 -0.84375 -0.4375 -1.296875q-0.4375 -0.46875 -1.265625 -0.46875z" fill-rule="nonzero"/><path fill="#ffffff" d="m842.04 239.09265q-0.0625 1.59375 -0.84375 2.8125q-0.78125 1.203125 -2.203125 1.875q-1.40625 0.65625 -3.21875 0.65625q-2.984375 0 -4.703125 -1.9375q-1.71875 -1.953125 -1.71875 -5.5l0 -0.75q0 -2.234375 0.765625 -3.90625q0.78125 -1.671875 2.234375 -2.578125q1.46875 -0.90625 3.390625 -0.90625q2.75 0 4.421875 1.453125q1.6875 1.453125 1.90625 4.0l-3.640625 0q-0.03125 -1.390625 -0.6875 -1.984375q-0.65625 -0.609375 -2.0 -0.609375q-1.375 0 -2.015625 1.015625q-0.625 1.015625 -0.65625 3.265625l0 1.0625q0 2.4375 0.609375 3.484375q0.609375 1.03125 2.09375 1.03125q1.265625 0 1.921875 -0.59375q0.671875 -0.59375 0.71875 -1.890625l3.625 0zm1.137207 -0.59375q0 -1.6875 0.65625 -3.0q0.65625 -1.328125 1.875 -2.03125q1.234375 -0.703125 2.890625 -0.703125q2.53125 0 3.984375 1.5625q1.453125 1.5625 1.453125 4.265625l0 0.125q0 2.625 -1.46875 4.171875q-1.453125 1.546875 -3.953125 1.546875q-2.40625 0 -3.859375 -1.4375q-1.453125 -1.4375 -1.578125 -3.90625l0 -0.59375zm3.5 0.21875q0 1.5625 0.484375 2.296875q0.5 0.71875 1.453125 0.71875q1.875 0 1.921875 -2.890625l0 -0.34375q0 -3.03125 -1.9375 -3.03125q-1.765625 0 -1.90625 2.609375l-0.015625 0.640625zm12.132446 -5.75l0.125 1.3125q1.15625 -1.515625 3.21875 -1.515625q1.75 0 2.609375 1.046875q0.875 1.046875 0.90625 3.15625l0 7.265625l-3.515625 0l0 -7.109375q0 -0.859375 -0.34375 -1.25q-0.34375 -0.40625 -1.25 -0.40625q-1.03125 0 -1.53125 0.8125l0 7.953125l-3.5 0l0 -11.265625l3.28125 0zm14.71582 8.09375q0 -0.4375 -0.46875 -0.703125q-0.46875 -0.28125 -1.78125 -0.5625q-1.3125 -0.296875 -2.171875 -0.765625q-0.859375 -0.484375 -1.3125 -1.15625q-0.4375 -0.6875 -0.4375 -1.5625q0 -1.546875 1.28125 -2.546875q1.28125 -1.0 3.359375 -1.0q2.21875 0 3.578125 1.015625q1.359375 1.0 1.359375 2.640625l-3.53125 0q0 -1.359375 -1.421875 -1.359375q-0.546875 0 -0.921875 0.3125q-0.375 0.3125 -0.375 0.765625q0 0.46875 0.453125 0.765625q0.453125 0.28125 1.453125 0.46875q1.015625 0.1875 1.78125 0.453125q2.53125 0.875 2.53125 3.140625q0 1.53125 -1.375 2.5q-1.359375 0.96875 -3.53125 0.96875q-1.453125 0 -2.59375 -0.515625q-1.125 -0.515625 -1.765625 -1.40625q-0.640625 -0.90625 -0.640625 -1.890625l3.28125 0q0.03125 0.78125 0.53125 1.140625q0.5 0.359375 1.28125 0.359375q0.71875 0 1.078125 -0.296875q0.359375 -0.296875 0.359375 -0.765625zm9.111938 -10.890625l0 2.796875l1.84375 0l0 2.4375l-1.84375 0l0 5.15625q0 0.625 0.21875 0.875q0.234375 0.25 0.90625 0.25q0.53125 0 0.875 -0.0625l0 2.515625q-0.9375 0.296875 -1.96875 0.296875q-1.8125 0 -2.6875 -0.84375q-0.859375 -0.859375 -0.859375 -2.59375l0 -5.59375l-1.4375 0l0 -2.4375l1.4375 0l0 -2.796875l3.515625 0zm9.571167 14.0625q-0.1875 -0.34375 -0.328125 -1.015625q-0.96875 1.21875 -2.703125 1.21875q-1.59375 0 -2.71875 -0.953125q-1.109375 -0.96875 -1.109375 -2.421875q0 -1.84375 1.34375 -2.78125q1.359375 -0.9375 3.953125 -0.9375l1.078125 0l0 -0.59375q0 -1.546875 -1.34375 -1.546875q-1.25 0 -1.25 1.234375l-3.515625 0q0 -1.640625 1.390625 -2.65625q1.390625 -1.015625 3.546875 -1.015625q2.15625 0 3.40625 1.046875q1.25 1.046875 1.28125 2.875l0 5.0q0.03125 1.546875 0.484375 2.375l0 0.171875l-3.515625 0zm-2.1875 -2.296875q0.65625 0 1.078125 -0.28125q0.4375 -0.28125 0.625 -0.625l0 -1.8125l-1.015625 0q-1.84375 0 -1.84375 1.65625q0 0.46875 0.328125 0.765625q0.328125 0.296875 0.828125 0.296875zm10.382629 -8.96875l0.125 1.3125q1.15625 -1.515625 3.21875 -1.515625q1.75 0 2.609375 1.046875q0.875 1.046875 0.90625 3.15625l0 7.265625l-3.515625 0l0 -7.109375q0 -0.859375 -0.34375 -1.25q-0.34375 -0.40625 -1.25 -0.40625q-1.03125 0 -1.53125 0.8125l0 7.953125l-3.5 0l0 -11.265625l3.28125 0zm12.90332 -2.796875l0 2.796875l1.84375 0l0 2.4375l-1.84375 0l0 5.15625q0 0.625 0.21875 0.875q0.234375 0.25 0.90625 0.25q0.53125 0 0.875 -0.0625l0 2.515625q-0.9375 0.296875 -1.96875 0.296875q-1.8125 0 -2.6875 -0.84375q-0.859375 -0.859375 -0.859375 -2.59375l0 -5.59375l-1.4375 0l0 -2.4375l1.4375 0l0 -2.796875l3.515625 0z" fill-rule="nonzero"/><path fill="#000000" fill-opacity="0.0" d="m872.09186 275.1706l0 92.346466" fill-rule="evenodd"/><path stroke="#674ea7" stroke-width="2.0" stroke-linejoin="round" stroke-linecap="butt" d="m872.09186 275.1706l0 80.346466" fill-rule="evenodd"/><path fill="#674ea7" stroke="#674ea7" stroke-width="2.0" stroke-linecap="butt" d="m868.7884 355.51706l3.3034668 9.076202l3.3034668 -9.076202z" fill-rule="evenodd"/><path fill="#000000" fill-opacity="0.0" d="m872.09186 562.68243l0 -92.346466" fill-rule="evenodd"/><path stroke="#674ea7" stroke-width="2.0" stroke-linejoin="round" stroke-linecap="butt" d="m872.09186 562.68243l0 -80.346466" fill-rule="evenodd"/><path fill="#674ea7" stroke="#674ea7" stroke-width="2.0" stroke-linecap="butt" d="m875.3953 482.33597l-3.3034668 -9.076202l-3.3034668 9.076202z" fill-rule="evenodd"/><path fill="#000000" fill-opacity="0.0" d="m793.1312 494.6299l86.96063 0l0 42.015778l-86.96063 0z" fill-rule="evenodd"/><path fill="#000000" d="m818.7799 519.06555l-4.375 0l-0.765625 2.484375l-3.421875 0l4.875 -13.265625l3.0 0l4.90625 13.265625l-3.4375 0l-0.78125 -2.484375zm-3.609375 -2.46875l2.84375 0l-1.421875 -4.59375l-1.421875 4.59375zm13.739014 -3.90625l2.15625 -4.40625l3.65625 0l-3.703125 6.578125l3.8125 6.6875l-3.6875 0l-2.234375 -4.484375l-2.234375 4.484375l-3.6875 0l3.796875 -6.6875l-3.6875 -6.578125l3.640625 0l2.171875 4.40625zm10.359253 8.859375l-3.1875 0l0 -13.265625l3.1875 0l0 13.265625zm10.145264 -5.1875l1.34375 0l0 2.375l-1.34375 0l0 2.8125l-3.078125 0l0 -2.8125l-5.125 0l-0.1875 -1.875l5.3125 -8.546875l0 -0.03125l3.078125 0l0 8.078125zm-5.453125 0l2.375 0l0 -4.078125l-0.1875 0.3125l-2.1875 3.765625zm15.178894 1.65625q0 -0.703125 -0.5 -1.09375q-0.5 -0.390625 -1.75 -0.796875q-1.234375 -0.421875 -2.03125 -0.8125q-2.578125 -1.265625 -2.578125 -3.484375q0 -1.109375 0.640625 -1.9375q0.640625 -0.84375 1.8125 -1.3125q1.1875 -0.484375 2.640625 -0.484375q1.4375 0 2.5625 0.515625q1.140625 0.515625 1.765625 1.453125q0.640625 0.9375 0.640625 2.15625l-3.1875 0q0 -0.8125 -0.5 -1.25q-0.5 -0.453125 -1.34375 -0.453125q-0.859375 0 -1.359375 0.375q-0.5 0.375 -0.5 0.96875q0 0.5 0.546875 0.921875q0.546875 0.40625 1.921875 0.859375q1.375 0.4375 2.265625 0.953125q2.15625 1.234375 2.15625 3.40625q0 1.75 -1.3125 2.75q-1.3125 0.984375 -3.609375 0.984375q-1.609375 0 -2.921875 -0.578125q-1.296875 -0.578125 -1.96875 -1.578125q-0.65625 -1.015625 -0.65625 -2.328125l3.21875 0q0 1.0625 0.546875 1.578125q0.546875 0.5 1.78125 0.5q0.796875 0 1.25 -0.34375q0.46875 -0.34375 0.46875 -0.96875z" fill-rule="nonzero"/><path fill="#000000" fill-opacity="0.0" d="m866.7139 300.33072l86.96063 0l0 42.015747l-86.96063 0z" fill-rule="evenodd"/><path fill="#000000" d="m892.3626 324.76633l-4.375 0l-0.765625 2.484375l-3.421875 0l4.875 -13.265625l3.0 0l4.90625 13.265625l-3.4375 0l-0.78125 -2.484375zm-3.609375 -2.46875l2.84375 0l-1.421875 -4.59375l-1.421875 4.59375zm13.738953 -3.90625l2.15625 -4.40625l3.65625 0l-3.703125 6.578125l3.8125 6.6875l-3.6875 0l-2.234375 -4.484375l-2.234375 4.484375l-3.6875 0l3.796875 -6.6875l-3.6875 -6.578125l3.640625 0l2.171875 4.40625zm10.359253 8.859375l-3.1875 0l0 -13.265625l3.1875 0l0 13.265625zm10.145325 -5.1875l1.34375 0l0 2.375l-1.34375 0l0 2.8125l-3.078125 0l0 -2.8125l-5.125 0l-0.1875 -1.875l5.3125 -8.546875l0 -0.03125l3.078125 0l0 8.078125zm-5.453125 0l2.375 0l0 -4.078125l-0.1875 0.3125l-2.1875 3.765625zm15.178833 1.65625q0 -0.703125 -0.5 -1.09375q-0.5 -0.390625 -1.75 -0.796875q-1.234375 -0.421875 -2.03125 -0.8125q-2.578125 -1.265625 -2.578125 -3.484375q0 -1.109375 0.640625 -1.9375q0.640625 -0.84375 1.8125 -1.3125q1.1875 -0.484375 2.640625 -0.484375q1.4375 0 2.5625 0.515625q1.140625 0.515625 1.765625 1.453125q0.640625 0.9375 0.640625 2.15625l-3.1875 0q0 -0.8125 -0.5 -1.25q-0.5 -0.453125 -1.34375 -0.453125q-0.859375 0 -1.359375 0.375q-0.5 0.375 -0.5 0.96875q0 0.5 0.546875 0.921875q0.546875 0.40625 1.921875 0.859375q1.375 0.4375 2.265625 0.953125q2.15625 1.234375 2.15625 3.40625q0 1.75 -1.3125 2.75q-1.3125 0.984375 -3.609375 0.984375q-1.609375 0 -2.921875 -0.578125q-1.296875 -0.578125 -1.96875 -1.578125q-0.65625 -1.015625 -0.65625 -2.328125l3.21875 0q0 1.0625 0.546875 1.578125q0.546875 0.5 1.78125 0.5q0.796875 0 1.25 -0.34375q0.46875 -0.34375 0.46875 -0.96875z" fill-rule="nonzero"/><path fill="#000000" fill-opacity="0.0" d="m774.0131 420.32022l45.51184 0l0 42.015747l-45.51184 0z" fill-rule="evenodd"/><path fill="#351c75" d="m798.9464 444.75583l-4.375 0l-0.765625 2.484375l-3.421875 0l4.875 -13.265625l3.0 0l4.90625 13.265625l-3.4375 0l-0.78125 -2.484375zm-3.609375 -2.46875l2.84375 0l-1.421875 -4.59375l-1.421875 4.59375z" fill-rule="nonzero"/><path fill="#000000" fill-opacity="0.0" d="m829.71655 329.1391l45.51178 0l0 42.015747l-45.51178 0z" fill-rule="evenodd"/><path fill="#351c75" d="m847.4556 356.0591l0 -13.265625l4.765625 0q2.5625 0 3.890625 0.9375q1.34375 0.9375 1.34375 2.734375q0 1.015625 -0.484375 1.75q-0.46875 0.734375 -1.390625 1.078125q1.046875 0.265625 1.59375 1.015625q0.5625 0.75 0.5625 1.828125q0 1.9375 -1.234375 2.921875q-1.234375 0.984375 -3.65625 1.0l-5.390625 0zm3.203125 -5.640625l0 3.1875l2.09375 0q0.859375 0 1.328125 -0.390625q0.46875 -0.40625 0.46875 -1.125q0 -1.65625 -1.65625 -1.671875l-2.234375 0zm0 -2.09375l1.65625 0q1.0625 -0.015625 1.5 -0.375q0.453125 -0.375 0.453125 -1.109375q0 -0.84375 -0.484375 -1.203125q-0.484375 -0.375 -1.5625 -0.375l-1.5625 0l0 3.0625z" fill-rule="nonzero"/><path fill="#000000" fill-opacity="0.0" d="m868.6903 466.69815l45.51178 0l0 42.015747l-45.51178 0z" fill-rule="evenodd"/><path fill="#351c75" d="m897.05896 489.1338q-0.0625 1.375 -0.75 2.4375q-0.6875 1.0625 -1.921875 1.65625q-1.234375 0.578125 -2.8125 0.578125q-2.609375 0 -4.125 -1.703125q-1.5 -1.703125 -1.5 -4.8125l0 -0.65625q0 -1.953125 0.671875 -3.40625q0.6875 -1.46875 1.953125 -2.265625q1.28125 -0.796875 2.96875 -0.796875q2.40625 0 3.875 1.28125q1.46875 1.265625 1.671875 3.484375l-3.1875 0q-0.046875 -1.203125 -0.625 -1.734375q-0.5625 -0.53125 -1.734375 -0.53125q-1.203125 0 -1.765625 0.890625q-0.546875 0.890625 -0.578125 2.859375l0 0.9375q0 2.125 0.53125 3.03125q0.546875 0.90625 1.84375 0.90625q1.09375 0 1.671875 -0.515625q0.59375 -0.515625 0.625 -1.640625l3.1875 0z" fill-rule="nonzero"/><path fill="#000000" fill-opacity="0.0" d="m932.6588 418.9265l123.93701 0" fill-rule="evenodd"/><path stroke="#674ea7" stroke-width="2.0" stroke-linejoin="round" stroke-linecap="butt" d="m932.6588 418.9265l111.93701 0" fill-rule="evenodd"/><path fill="#674ea7" stroke="#674ea7" stroke-width="2.0" stroke-linecap="butt" d="m1044.5958 422.22998l9.076172 -3.3034668l-9.076172 -3.3034668z" fill-rule="evenodd"/><path fill="#000000" fill-opacity="0.0" d="m951.1417 375.5092l86.96069 0l0 42.015747l-86.96069 0z" fill-rule="evenodd"/><path fill="#000000" d="m976.7904 399.94482l-4.375 0l-0.765625 2.484375l-3.421875 0l4.875 -13.265625l3.0 0l4.90625 13.265625l-3.4375 0l-0.78125 -2.484375zm-3.609375 -2.46875l2.84375 0l-1.421875 -4.59375l-1.421875 4.59375zm13.739014 -3.90625l2.15625 -4.40625l3.65625 0l-3.703125 6.578125l3.8125 6.6875l-3.6875 0l-2.234375 -4.484375l-2.234375 4.484375l-3.6875 0l3.796875 -6.6875l-3.6875 -6.578125l3.640625 0l2.171875 4.40625zm10.359253 8.859375l-3.1875 0l0 -13.265625l3.1875 0l0 13.265625zm10.145264 -5.1875l1.34375 0l0 2.375l-1.34375 0l0 2.8125l-3.078125 0l0 -2.8125l-5.125 0l-0.1875 -1.875l5.3125 -8.546875l0 -0.03125l3.078125 0l0 8.078125zm-5.453125 0l2.375 0l0 -4.078125l-0.1875 0.3125l-2.1875 3.765625zm15.178894 1.65625q0 -0.703125 -0.5 -1.09375q-0.5 -0.390625 -1.75 -0.796875q-1.234375 -0.421875 -2.03125 -0.8125q-2.578125 -1.265625 -2.578125 -3.484375q0 -1.109375 0.640625 -1.9375q0.640625 -0.84375 1.8125 -1.3125q1.1875 -0.484375 2.640625 -0.484375q1.4375 0 2.5625 0.515625q1.140625 0.515625 1.765625 1.453125q0.640625 0.9375 0.640625 2.15625l-3.1875 0q0 -0.8125 -0.5 -1.25q-0.5 -0.453125 -1.34375 -0.453125q-0.859375 0 -1.359375 0.375q-0.5 0.375 -0.5 0.96875q0 0.5 0.546875 0.921875q0.546875 0.40625 1.921875 0.859375q1.375 0.4375 2.265625 0.953125q2.15625 1.234375 2.15625 3.40625q0 1.75 -1.3125 2.75q-1.3125 0.984375 -3.609375 0.984375q-1.609375 0 -2.921875 -0.578125q-1.296875 -0.578125 -1.96875 -1.578125q-0.65625 -1.015625 -0.65625 -2.328125l3.21875 0q0 1.0625 0.546875 1.578125q0.546875 0.5 1.78125 0.5q0.796875 0 1.25 -0.34375q0.46875 -0.34375 0.46875 -0.96875z" fill-rule="nonzero"/><path fill="#8e7cc3" d="m1056.5853 367.5092l121.13379 0l0 102.834656l-121.13379 0z" fill-rule="evenodd"/><path fill="#ffffff" d="m1094.6945 424.90652l0 -15.15625l4.890625 0q2.015625 0 3.609375 0.90625q1.609375 0.90625 2.5 2.578125q0.90625 1.65625 0.921875 3.71875l0 0.6875q0 2.09375 -0.890625 3.75q-0.875 1.640625 -2.46875 2.578125q-1.59375 0.921875 -3.5625 0.9375l-5.0 0zm3.65625 -12.34375l0 9.53125l1.28125 0q1.5625 0 2.40625 -1.109375q0.84375 -1.125 0.84375 -3.34375l0 -0.65625q0 -2.1875 -0.84375 -3.296875q-0.84375 -1.125 -2.453125 -1.125l-1.234375 0zm14.944458 -2.8125l3.375 10.546875l3.375 -10.546875l4.8125 0l0 15.15625l-3.671875 0l0 -3.546875l0.359375 -7.234375l-3.65625 10.78125l-2.421875 0l-3.671875 -10.796875l0.34375 7.25l0 3.546875l-3.65625 0l0 -15.15625l4.8125 0zm22.69336 12.328125l-5.015625 0l-0.875 2.828125l-3.90625 0l5.5625 -15.15625l3.4375 0l5.59375 15.15625l-3.921875 0l-0.875 -2.828125zm-4.140625 -2.828125l3.265625 0l-1.640625 -5.25l-1.625 5.25z" fill-rule="nonzero"/><path fill="#000000" fill-opacity="0.0" d="m274.61154 284.25198l211.93701 0l0 64.62991l-211.93701 0z" fill-rule="evenodd"/><path fill="#000000" d="m303.21713 305.89072l-5.15625 0l0 5.28125l-3.203125 0l0 -13.265625l8.875 0l0 2.46875l-5.671875 0l0 3.046875l5.15625 0l0 2.46875zm1.1206055 0.265625q0 -1.484375 0.578125 -2.625q0.578125 -1.15625 1.640625 -1.765625q1.078125 -0.625 2.53125 -0.625q2.21875 0 3.484375 1.375q1.28125 1.359375 1.28125 3.71875l0 0.109375q0 2.3125 -1.28125 3.671875q-1.28125 1.34375 -3.46875 1.34375q-2.09375 0 -3.375 -1.265625q-1.28125 -1.265625 -1.375 -3.421875l-0.015625 -0.515625zm3.078125 0.1875q0 1.359375 0.421875 2.0q0.4375 0.640625 1.265625 0.640625q1.640625 0 1.6875 -2.515625l0 -0.3125q0 -2.65625 -1.703125 -2.65625q-1.53125 0 -1.671875 2.28125l0 0.5625zm13.757172 -2.25l-1.015625 -0.078125q-1.453125 0 -1.859375 0.921875l0 6.234375l-3.0625 0l0 -9.859375l2.875 0l0.09375 1.265625q0.78125 -1.4375 2.15625 -1.4375q0.5 0 0.859375 0.109375l-0.046875 2.84375zm4.0064697 -2.78125l0.09375 1.15625q1.046875 -1.328125 2.8125 -1.328125q1.875 0 2.53125 1.484375q1.0 -1.484375 2.890625 -1.484375q3.0 0 3.078125 3.625l0 6.40625l-3.078125 0l0 -6.21875q0 -0.765625 -0.25 -1.109375q-0.25 -0.34375 -0.9375 -0.34375q-0.90625 0 -1.34375 0.8125l0 0.125l0 6.734375l-3.078125 0l0 -6.203125q0 -0.78125 -0.25 -1.125q-0.234375 -0.34375 -0.9375 -0.34375q-0.875 0 -1.34375 0.8125l0 6.859375l-3.0625 0l0 -9.859375l2.875 0zm18.319153 7.09375q0 -0.390625 -0.40625 -0.625q-0.40625 -0.25 -1.5625 -0.5q-1.140625 -0.25 -1.890625 -0.65625q-0.75 -0.421875 -1.140625 -1.015625q-0.390625 -0.59375 -0.390625 -1.359375q0 -1.359375 1.125 -2.234375q1.125 -0.875 2.9375 -0.875q1.9375 0 3.125 0.890625q1.1875 0.875 1.1875 2.3125l-3.078125 0q0 -1.1875 -1.25 -1.1875q-0.484375 0 -0.8125 0.265625q-0.328125 0.265625 -0.328125 0.671875q0 0.40625 0.40625 0.671875q0.40625 0.25 1.28125 0.421875q0.875 0.15625 1.546875 0.375q2.21875 0.765625 2.21875 2.75q0 1.34375 -1.203125 2.203125q-1.1875 0.84375 -3.09375 0.84375q-1.265625 0 -2.265625 -0.453125q-0.984375 -0.46875 -1.546875 -1.25q-0.5625 -0.78125 -0.5625 -1.640625l2.875 0q0.015625 0.671875 0.453125 1.0q0.4375 0.3125 1.125 0.3125q0.625 0 0.9375 -0.25q0.3125 -0.265625 0.3125 -0.671875zm18.20169 -2.09375q0 2.296875 -1.046875 3.671875q-1.03125 1.375 -2.78125 1.375q-1.359375 0 -2.234375 -1.0l0 4.609375l-3.0625 0l0 -13.65625l2.859375 0l0.09375 0.90625q0.890625 -1.078125 2.328125 -1.078125q1.8125 0 2.828125 1.34375q1.015625 1.34375 1.015625 3.6875l0 0.140625zm-3.078125 -0.1875q0 -2.625 -1.53125 -2.625q-1.09375 0 -1.453125 0.78125l0 3.890625q0.40625 0.8125 1.46875 0.8125q1.46875 0 1.515625 -2.53125l0 -0.328125zm9.972015 5.046875q-0.15625 -0.296875 -0.28125 -0.890625q-0.84375 1.078125 -2.375 1.078125q-1.390625 0 -2.375 -0.84375q-0.96875 -0.84375 -0.96875 -2.125q0 -1.59375 1.1875 -2.40625q1.1875 -0.828125 3.4375 -0.828125l0.953125 0l0 -0.53125q0 -1.34375 -1.171875 -1.34375q-1.09375 0 -1.09375 1.0625l-3.078125 0q0 -1.421875 1.21875 -2.3125q1.21875 -0.890625 3.09375 -0.890625q1.890625 0 2.984375 0.921875q1.09375 0.90625 1.125 2.515625l0 4.359375q0.015625 1.359375 0.421875 2.078125l0 0.15625l-3.078125 0zm-1.921875 -2.0q0.578125 0 0.953125 -0.25q0.390625 -0.25 0.546875 -0.5625l0 -1.5625l-0.890625 0q-1.609375 0 -1.609375 1.4375q0 0.421875 0.28125 0.6875q0.28125 0.25 0.71875 0.25zm10.448883 -0.1875q0.640625 0 1.0 -0.34375q0.359375 -0.359375 0.34375 -0.984375l2.875 0q0 1.625 -1.15625 2.671875q-1.15625 1.03125 -3.0 1.03125q-2.140625 0 -3.390625 -1.34375q-1.234375 -1.359375 -1.234375 -3.75l0 -0.125q0 -1.484375 0.546875 -2.625q0.5625 -1.15625 1.59375 -1.765625q1.046875 -0.609375 2.46875 -0.609375q1.921875 0 3.046875 1.0625q1.125 1.0625 1.125 2.890625l-2.875 0q0 -0.765625 -0.375 -1.171875q-0.375 -0.421875 -1.0 -0.421875q-1.1875 0 -1.390625 1.515625q-0.0625 0.484375 -0.0625 1.34375q0 1.484375 0.34375 2.0625q0.359375 0.5625 1.140625 0.5625zm9.473755 -1.484375l-0.859375 0.859375l0 2.8125l-3.0625 0l0 -14.0l3.0625 0l0 7.4375l0.3125 -0.421875l2.3125 -2.875l3.671875 0l-3.4375 4.0625l3.671875 5.796875l-3.515625 0l-2.15625 -3.671875zm10.832855 3.859375q-2.265625 0 -3.671875 -1.34375q-1.390625 -1.359375 -1.390625 -3.53125l0 -0.265625q0 -1.5 0.546875 -2.65625q0.5625 -1.15625 1.640625 -1.78125q1.078125 -0.640625 2.546875 -0.640625q2.078125 0 3.28125 1.296875q1.203125 1.28125 1.203125 3.578125l0 1.1875l-6.09375 0q0.15625 0.828125 0.703125 1.3125q0.5625 0.46875 1.453125 0.46875q1.453125 0 2.265625 -1.015625l1.40625 1.65625q-0.5625 0.796875 -1.625 1.265625q-1.046875 0.46875 -2.265625 0.46875zm-0.34375 -7.859375q-1.34375 0 -1.59375 1.78125l3.09375 0l0 -0.234375q0.015625 -0.734375 -0.375 -1.140625q-0.390625 -0.40625 -1.125 -0.40625zm9.313324 -4.640625l0 2.453125l1.625 0l0 2.140625l-1.625 0l0 4.5q0 0.5625 0.203125 0.78125q0.203125 0.21875 0.78125 0.21875q0.46875 0 0.765625 -0.0625l0 2.203125q-0.828125 0.265625 -1.71875 0.265625q-1.59375 0 -2.359375 -0.75q-0.75 -0.75 -0.75 -2.265625l0 -4.890625l-1.25 0l0 -2.140625l1.25 0l0 -2.453125l3.078125 0zm7.081085 7.296875q0 -1.484375 0.578125 -2.625q0.578125 -1.15625 1.640625 -1.765625q1.078125 -0.625 2.53125 -0.625q2.21875 0 3.484375 1.375q1.28125 1.359375 1.28125 3.71875l0 0.109375q0 2.3125 -1.28125 3.671875q-1.28125 1.34375 -3.46875 1.34375q-2.09375 0 -3.375 -1.265625q-1.28125 -1.265625 -1.375 -3.421875l-0.015625 -0.515625zm3.078125 0.1875q0 1.359375 0.421875 2.0q0.4375 0.640625 1.265625 0.640625q1.640625 0 1.6875 -2.515625l0 -0.3125q0 -2.65625 -1.703125 -2.65625q-1.53125 0 -1.671875 2.28125l0 0.5625zm8.475922 4.828125l0 -7.71875l-1.4375 0l0 -2.140625l1.4375 0l0 -0.78125q0 -1.6875 0.984375 -2.609375q1.0 -0.9375 2.78125 -0.9375q0.65625 0 1.453125 0.1875l0 2.265625q-0.28125 -0.078125 -0.75 -0.078125q-1.390625 0 -1.390625 1.203125l0 0.75l1.921875 0l0 2.140625l-1.921875 0l0 7.71875l-3.078125 0zm17.46759 0l-3.078125 0l0 -9.796875l-3.015625 0.875l0 -2.328125l5.8125 -2.015625l0.28125 0l0 13.265625zm13.256989 0l-9.25 0l0 -2.0l4.265625 -4.484375q1.578125 -1.796875 1.578125 -2.859375q0 -0.84375 -0.375 -1.296875q-0.375 -0.453125 -1.09375 -0.453125q-0.703125 0 -1.140625 0.609375q-0.4375 0.59375 -0.4375 1.484375l-3.078125 0q0 -1.21875 0.609375 -2.25q0.625 -1.03125 1.703125 -1.609375q1.078125 -0.59375 2.421875 -0.59375q2.15625 0 3.3125 1.0q1.15625 0.984375 1.15625 2.84375q0 0.78125 -0.296875 1.53125q-0.28125 0.734375 -0.90625 1.546875q-0.609375 0.8125 -1.96875 2.1875l-1.71875 1.96875l5.21875 0l0 2.375zm10.491364 -9.71875q0 0.96875 -0.484375 1.703125q-0.46875 0.734375 -1.296875 1.1875q0.9375 0.453125 1.484375 1.265625q0.5625 0.8125 0.5625 1.90625q0 1.78125 -1.234375 2.8125q-1.21875 1.03125 -3.359375 1.03125q-2.15625 0 -3.40625 -1.03125q-1.25 -1.046875 -1.25 -2.8125q0 -1.0625 0.546875 -1.875q0.546875 -0.828125 1.546875 -1.296875q-0.84375 -0.453125 -1.328125 -1.1875q-0.484375 -0.734375 -0.484375 -1.703125q0 -1.734375 1.171875 -2.734375q1.171875 -1.0 3.171875 -1.0q2.015625 0 3.1875 1.0q1.171875 1.0 1.171875 2.734375zm-2.8125 5.8125q0 -0.8125 -0.421875 -1.25q-0.421875 -0.453125 -1.125 -0.453125q-0.6875 0 -1.109375 0.453125q-0.421875 0.4375 -0.421875 1.25q0 0.796875 0.421875 1.265625q0.4375 0.453125 1.140625 0.453125q0.6875 0 1.09375 -0.453125q0.421875 -0.453125 0.421875 -1.265625zm-1.546875 -7.1875q-0.625 0 -0.953125 0.40625q-0.3125 0.40625 -0.3125 1.125q0 0.71875 0.328125 1.15625q0.328125 0.4375 0.96875 0.4375q0.625 0 0.9375 -0.4375q0.3125 -0.4375 0.3125 -1.140625q0 -0.71875 -0.328125 -1.125q-0.3125 -0.421875 -0.953125 -0.421875z" fill-rule="nonzero"/><path fill="#000000" d="m307.91238 330.80634q0 -0.390625 -0.40625 -0.625q-0.40625 -0.25 -1.5625 -0.5q-1.140625 -0.25 -1.890625 -0.65625q-0.75 -0.421875 -1.140625 -1.015625q-0.390625 -0.59375 -0.390625 -1.359375q0 -1.359375 1.125 -2.234375q1.125 -0.875 2.9375 -0.875q1.9375 0 3.125 0.890625q1.1875 0.875 1.1875 2.3125l-3.078125 0q0 -1.1875 -1.25 -1.1875q-0.484375 0 -0.8125 0.265625q-0.328125 0.265625 -0.328125 0.671875q0 0.40625 0.40625 0.671875q0.40625 0.25 1.28125 0.421875q0.875 0.15625 1.546875 0.375q2.21875 0.765625 2.21875 2.75q0 1.34375 -1.203125 2.203125q-1.1875 0.84375 -3.09375 0.84375q-1.265625 0 -2.265625 -0.453125q-0.984375 -0.46875 -1.546875 -1.25q-0.5625 -0.78125 -0.5625 -1.640625l2.875 0q0.015625 0.671875 0.453125 1.0q0.4375 0.3125 1.125 0.3125q0.625 0 0.9375 -0.25q0.3125 -0.265625 0.3125 -0.671875zm9.946503 2.765625q-0.15625 -0.296875 -0.28125 -0.890625q-0.84375 1.078125 -2.375 1.078125q-1.390625 0 -2.375 -0.84375q-0.96875 -0.84375 -0.96875 -2.125q0 -1.59375 1.1875 -2.40625q1.1875 -0.828125 3.4375 -0.828125l0.953125 0l0 -0.53125q0 -1.34375 -1.171875 -1.34375q-1.09375 0 -1.09375 1.0625l-3.078125 0q0 -1.421875 1.21875 -2.3125q1.21875 -0.890625 3.09375 -0.890625q1.890625 0 2.984375 0.921875q1.09375 0.90625 1.125 2.515625l0 4.359375q0.015625 1.359375 0.421875 2.078125l0 0.15625l-3.078125 0zm-1.921875 -2.0q0.578125 0 0.953125 -0.25q0.390625 -0.25 0.546875 -0.5625l0 -1.5625l-0.890625 0q-1.609375 0 -1.609375 1.4375q0 0.421875 0.28125 0.6875q0.28125 0.25 0.71875 0.25zm9.183258 -7.859375l0.09375 1.15625q1.046875 -1.328125 2.8125 -1.328125q1.875 0 2.53125 1.484375q1.0 -1.484375 2.890625 -1.484375q3.0 0 3.078125 3.625l0 6.40625l-3.078125 0l0 -6.21875q0 -0.765625 -0.25 -1.109375q-0.25 -0.34375 -0.9375 -0.34375q-0.90625 0 -1.34375 0.8125l0 0.125l0 6.734375l-3.078125 0l0 -6.203125q0 -0.78125 -0.25 -1.125q-0.234375 -0.34375 -0.9375 -0.34375q-0.875 0 -1.34375 0.8125l0 6.859375l-3.0625 0l0 -9.859375l2.875 0zm22.319153 5.0q0 2.296875 -1.046875 3.671875q-1.03125 1.375 -2.78125 1.375q-1.359375 0 -2.234375 -1.0l0 4.609375l-3.0625 0l0 -13.65625l2.859375 0l0.09375 0.90625q0.890625 -1.078125 2.328125 -1.078125q1.8125 0 2.828125 1.34375q1.015625 1.34375 1.015625 3.6875l0 0.140625zm-3.078125 -0.1875q0 -2.625 -1.53125 -2.625q-1.09375 0 -1.453125 0.78125l0 3.890625q0.40625 0.8125 1.46875 0.8125q1.46875 0 1.515625 -2.53125l0 -0.328125zm7.6595154 5.046875l-3.078125 0l0 -14.0l3.078125 0l0 14.0zm6.6598816 0.1875q-2.265625 0 -3.671875 -1.34375q-1.390625 -1.359375 -1.390625 -3.53125l0 -0.265625q0 -1.5 0.546875 -2.65625q0.5625 -1.15625 1.640625 -1.78125q1.078125 -0.640625 2.546875 -0.640625q2.078125 0 3.28125 1.296875q1.203125 1.28125 1.203125 3.578125l0 1.1875l-6.09375 0q0.15625 0.828125 0.703125 1.3125q0.5625 0.46875 1.453125 0.46875q1.453125 0 2.265625 -1.015625l1.40625 1.65625q-0.5625 0.796875 -1.625 1.265625q-1.046875 0.46875 -2.265625 0.46875zm-0.34375 -7.859375q-1.34375 0 -1.59375 1.78125l3.09375 0l0 -0.234375q0.015625 -0.734375 -0.375 -1.140625q-0.390625 -0.40625 -1.125 -0.40625zm10.8914795 4.90625q0 -0.390625 -0.40625 -0.625q-0.40625 -0.25 -1.5625 -0.5q-1.140625 -0.25 -1.890625 -0.65625q-0.75 -0.421875 -1.140625 -1.015625q-0.390625 -0.59375 -0.390625 -1.359375q0 -1.359375 1.125 -2.234375q1.125 -0.875 2.9375 -0.875q1.9375 0 3.125 0.890625q1.1875 0.875 1.1875 2.3125l-3.078125 0q0 -1.1875 -1.25 -1.1875q-0.484375 0 -0.8125 0.265625q-0.328125 0.265625 -0.328125 0.671875q0 0.40625 0.40625 0.671875q0.40625 0.25 1.28125 0.421875q0.875 0.15625 1.546875 0.375q2.21875 0.765625 2.21875 2.75q0 1.34375 -1.203125 2.203125q-1.1875 0.84375 -3.09375 0.84375q-1.265625 0 -2.265625 -0.453125q-0.984375 -0.46875 -1.546875 -1.25q-0.5625 -0.78125 -0.5625 -1.640625l2.875 0q0.015625 0.671875 0.453125 1.0q0.4375 0.3125 1.125 0.3125q0.625 0 0.9375 -0.25q0.3125 -0.265625 0.3125 -0.671875zm14.592316 2.765625q-0.15625 -0.296875 -0.28125 -0.890625q-0.84375 1.078125 -2.375 1.078125q-1.390625 0 -2.375 -0.84375q-0.96875 -0.84375 -0.96875 -2.125q0 -1.59375 1.1875 -2.40625q1.1875 -0.828125 3.4375 -0.828125l0.953125 0l0 -0.53125q0 -1.34375 -1.171875 -1.34375q-1.09375 0 -1.09375 1.0625l-3.078125 0q0 -1.421875 1.21875 -2.3125q1.21875 -0.890625 3.09375 -0.890625q1.890625 0 2.984375 0.921875q1.09375 0.90625 1.125 2.515625l0 4.359375q0.015625 1.359375 0.421875 2.078125l0 0.15625l-3.078125 0zm-1.921875 -2.0q0.578125 0 0.953125 -0.25q0.390625 -0.25 0.546875 -0.5625l0 -1.5625l-0.890625 0q-1.609375 0 -1.609375 1.4375q0 0.421875 0.28125 0.6875q0.28125 0.25 0.71875 0.25zm9.855164 -10.3125l0 2.453125l1.625 0l0 2.140625l-1.625 0l0 4.5q0 0.5625 0.203125 0.78125q0.203125 0.21875 0.78125 0.21875q0.46875 0 0.765625 -0.0625l0 2.203125q-0.828125 0.265625 -1.71875 0.265625q-1.59375 0 -2.359375 -0.75q-0.75 -0.75 -0.75 -2.265625l0 -4.890625l-1.25 0l0 -2.140625l1.25 0l0 -2.453125l3.078125 0zm14.22168 12.3125l-3.078125 0l0 -9.796875l-3.015625 0.875l0 -2.328125l5.8125 -2.015625l0.28125 0l0 13.265625zm11.413239 -13.453125l0 2.40625l-0.125 0q-1.71875 0 -2.828125 0.828125q-1.109375 0.828125 -1.359375 2.296875q1.03125 -1.03125 2.609375 -1.03125q1.734375 0 2.75 1.265625q1.015625 1.25 1.015625 3.296875q0 1.265625 -0.59375 2.328125q-0.59375 1.046875 -1.671875 1.65625q-1.0625 0.59375 -2.375 0.59375q-1.40625 0 -2.515625 -0.640625q-1.109375 -0.65625 -1.734375 -1.84375q-0.609375 -1.1875 -0.640625 -2.75l0 -1.234375q0 -2.046875 0.875 -3.671875q0.890625 -1.640625 2.515625 -2.5625q1.640625 -0.9375 3.625 -0.9375l0.453125 0zm-2.765625 6.859375q-0.609375 0 -1.015625 0.28125q-0.40625 0.28125 -0.609375 0.6875l0 0.921875q0 2.515625 1.734375 2.515625q0.703125 0 1.171875 -0.625q0.46875 -0.625 0.46875 -1.578125q0 -0.96875 -0.484375 -1.578125q-0.46875 -0.625 -1.265625 -0.625zm15.512207 1.65625l-1.3125 1.4375l0 3.5l-3.203125 0l0 -13.265625l3.203125 0l0 5.84375l1.109375 -1.671875l2.859375 -4.171875l3.953125 0l-4.484375 5.875l4.484375 7.390625l-3.796875 0l-2.8125 -4.9375zm18.511566 4.9375l-3.1875 0l0 -5.53125l-4.703125 0l0 5.53125l-3.203125 0l0 -13.265625l3.203125 0l0 5.265625l4.703125 0l0 -5.265625l3.1875 0l0 13.265625zm5.4992065 -2.375l4.484375 0l0 2.375l-8.375 0l0 -1.71875l4.375 -5.765625l-4.171875 0l0 -2.375l8.078125 0l0 1.65625l-4.390625 5.828125z" fill-rule="nonzero"/></g></svg>