<svg version="1.1" viewBox="0.0 0.0 1280.0 960.0" fill="none" stroke="none" stroke-linecap="square" stroke-miterlimit="10" xmlns:xlink="http://www.w3.org/1999/xlink" xmlns="http://www.w3.org/2000/svg"><clipPath id="p.0"><path d="m0 0l1280.0 0l0 960.0l-1280.0 0l0 -960.0z" clip-rule="nonzero"/></clipPath><g clip-path="url(#p.0)"><path fill="#000000" fill-opacity="0.0" d="m0 0l1280.0 0l0 960.0l-1280.0 0z" fill-rule="evenodd"/><path fill="#8e7cc3" d="m456.90158 365.47507l121.13388 0l0 102.834656l-121.13388 0z" fill-rule="evenodd"/><path fill="#ffffff" d="m483.0368 387.8255l-5.890625 0l0 6.046875l-3.65625 0l0 -15.15625l10.140625 0l0 2.8125l-6.484375 0l0 3.484375l5.890625 0l0 2.8125zm5.7731934 0.90625l0 5.140625l-3.65625 0l0 -15.15625l6.0625 0q1.734375 0 3.0625 0.640625q1.34375 0.640625 2.078125 1.828125q0.734375 1.171875 0.734375 2.671875q0 2.21875 -1.59375 3.546875q-1.578125 1.328125 -4.34375 1.328125l-2.34375 0zm0 -2.828125l2.40625 0q1.0625 0 1.609375 -0.53125q0.5625 -0.53125 0.5625 -1.5q0 -1.0625 -0.578125 -1.6875q-0.5625 -0.640625 -1.5625 -0.65625l-2.4375 0l0 4.375zm17.788269 7.96875l-3.515625 0l0 -11.203125l-3.453125 1.0l0 -2.65625l6.65625 -2.296875l0.3125 0l0 15.15625zm13.05426 -15.375l0 2.75l-0.15625 0q-1.96875 0 -3.234375 0.953125q-1.265625 0.9375 -1.5625 2.609375q1.1875 -1.171875 3.0 -1.171875q1.96875 0 3.125 1.4375q1.171875 1.4375 1.171875 3.78125q0 1.4375 -0.6875 2.65625q-0.671875 1.203125 -1.890625 1.890625q-1.21875 0.671875 -2.71875 0.671875q-1.609375 0 -2.890625 -0.734375q-1.265625 -0.734375 -1.9687195 -2.09375q-0.703125 -1.359375 -0.734375 -3.140625l0 -1.40625q0 -2.34375 0.9999695 -4.203125q1.015625 -1.875 2.875 -2.9375q1.875 -1.0625 4.140625 -1.0625l0.53125 0zm-3.171875 7.828125q-0.6875 0 -1.15625 0.328125q-0.46875 0.328125 -0.703125 0.796875l0 1.046875q0 2.875 1.984375 2.875q0.8125 0 1.34375 -0.71875q0.53125 -0.71875 0.53125 -1.796875q0 -1.125 -0.546875 -1.828125q-0.546875 -0.703125 -1.453125 -0.703125zm7.2574463 7.546875l0 -15.15625l5.453125 0q2.921875 0 4.4375 1.078125q1.53125 1.0625 1.53125 3.109375q0 1.171875 -0.546875 2.0q-0.53125 0.828125 -1.578125 1.234375q1.1875 0.3125 1.8125 1.171875q0.640625 0.84375 0.640625 2.078125q0 2.21875 -1.40625 3.34375q-1.40625 1.125 -4.1875 1.140625l-6.15625 0zm3.65625 -6.453125l0 3.640625l2.40625 0q0.984375 0 1.515625 -0.453125q0.53125 -0.453125 0.53125 -1.28125q0 -1.890625 -1.890625 -1.90625l-2.5625 0zm0 -2.390625l1.90625 0q1.203125 -0.015625 1.703125 -0.4375q0.515625 -0.421875 0.515625 -1.265625q0 -0.953125 -0.546875 -1.375q-0.546875 -0.421875 -1.78125 -0.421875l-1.796875 0l0 3.5zm13.757019 3.703125l0 5.140625l-3.65625 0l0 -15.15625l6.0625 0q1.734375 0 3.0625 0.640625q1.34375 0.640625 2.078125 1.828125q0.734375 1.171875 0.734375 2.671875q0 2.21875 -1.59375 3.546875q-1.578125 1.328125 -4.34375 1.328125l-2.34375 0zm0 -2.828125l2.40625 0q1.0625 0 1.609375 -0.53125q0.5625 -0.53125 0.5625 -1.5q0 -1.0625 -0.578125 -1.6875q-0.5625 -0.640625 -1.5625 -0.65625l-2.4375 0l0 4.375zm20.241455 -3.140625q0 1.09375 -0.546875 1.9375q-0.546875 0.84375 -1.5 1.359375q1.078125 0.53125 1.703125 1.453125q0.640625 0.921875 0.640625 2.1875q0 2.03125 -1.40625 3.203125q-1.390625 1.171875 -3.84375 1.171875q-2.46875 0 -3.90625 -1.171875q-1.421875 -1.1875 -1.421875 -3.203125q0 -1.21875 0.625 -2.15625q0.625 -0.9375 1.765625 -1.484375q-0.96875 -0.515625 -1.515625 -1.359375q-0.546875 -0.84375 -0.546875 -1.9375q0 -1.984375 1.34375 -3.125q1.34375 -1.140625 3.625 -1.140625q2.296875 0 3.640625 1.140625q1.34375 1.140625 1.34375 3.125zm-3.21875 6.65625q0 -0.9375 -0.484375 -1.4375q-0.484375 -0.515625 -1.28125 -0.515625q-0.78125 0 -1.28125 0.515625q-0.484375 0.5 -0.484375 1.4375q0 0.90625 0.484375 1.4375q0.5 0.515625 1.3125 0.515625q0.78125 0 1.25 -0.515625q0.484375 -0.53125 0.484375 -1.4375zm-1.765625 -8.21875q-0.71875 0 -1.09375 0.46875q-0.359375 0.453125 -0.359375 1.28125q0 0.8125 0.375 1.3125q0.375 0.5 1.109375 0.5q0.71875 0 1.078125 -0.5q0.359375 -0.5 0.359375 -1.3125q0 -0.8125 -0.375 -1.28125q-0.375 -0.46875 -1.09375 -0.46875z" fill-rule="nonzero"/><path fill="#ffffff" d="m513.0542 408.80988l0 2.796875l1.84375 0l0 2.4375l-1.84375 0l0 5.15625q0 0.625 0.21875 0.875q0.234375 0.25 0.90625 0.25q0.53125 0 0.875 -0.0625l0 2.515625q-0.9375 0.296875 -1.96875 0.296875q-1.8125 0 -2.6875 -0.84375q-0.859375 -0.859375 -0.859375 -2.59375l0 -5.59375l-1.4375 0l0 -2.4375l1.4375 0l0 -2.796875l3.515625 0zm2.477356 8.328125q0 -1.6875 0.65625 -3.0q0.65625 -1.328125 1.875 -2.03125q1.234375 -0.703125 2.890625 -0.703125q2.53125 0 3.984375 1.5625q1.453125 1.5625 1.453125 4.265625l0 0.125q0 2.625 -1.46875 4.171875q-1.453125 1.546875 -3.953125 1.546875q-2.40625 0 -3.859375 -1.4375q-1.453125 -1.4375 -1.578125 -3.90625l0 -0.59375zm3.5 0.21875q0 1.5625 0.484375 2.296875q0.5 0.71875 1.453125 0.71875q1.875 0 1.921875 -2.890625l0 -0.34375q0 -3.03125 -1.9375 -3.03125q-1.765625 0 -1.90625 2.609375l-0.015625 0.640625z" fill-rule="nonzero"/><path fill="#ffffff" d="m483.91187 445.8255l-5.890625 0l0 6.046875l-3.65625 0l0 -15.15625l10.140625 0l0 2.8125l-6.484375 0l0 3.484375l5.890625 0l0 2.8125zm5.7731934 3.234375l6.359375 0l0 2.8125l-10.015625 0l0 -15.15625l3.65625 0l0 12.34375zm20.080505 -4.453125q0 2.21875 -0.828125 3.921875q-0.8125 1.703125 -2.328125 2.625q-1.515625 0.921875 -3.453125 0.921875q-1.9375 0 -3.4375 -0.890625q-1.5 -0.890625 -2.34375 -2.546875q-0.828125 -1.65625 -0.875 -3.796875l0 -0.859375q0 -2.21875 0.8125 -3.921875q0.828125 -1.703125 2.34375 -2.625q1.53125 -0.9375 3.484375 -0.9375q1.921875 0 3.421875 0.921875q1.515625 0.921875 2.34375 2.609375q0.84375 1.6875 0.859375 3.875l0 0.703125zm-3.71875 -0.640625q0 -2.265625 -0.75 -3.421875q-0.75 -1.171875 -2.15625 -1.171875q-2.75 0 -2.90625 4.109375l-0.015625 1.125q0 2.21875 0.734375 3.421875q0.75 1.203125 2.203125 1.203125q1.390625 0 2.140625 -1.171875q0.75 -1.1875 0.75 -3.390625l0 -0.703125zm14.006836 5.078125l-5.015625 0l-0.875 2.828125l-3.9062805 0l5.5625305 -15.15625l3.4375 0l5.59375 15.15625l-3.921875 0l-0.875 -2.828125zm-4.140625 -2.828125l3.265625 0l-1.640625 -5.25l-1.625 5.25zm20.699585 -6.6875l-4.546875 0l0 12.34375l-3.65625 0l0 -12.34375l-4.46875 0l0 -2.8125l12.671875 0l0 2.8125zm4.538391 3.296875l1.65625 0q1.96875 0 1.96875 -1.921875q0 -0.75 -0.46875 -1.21875q-0.46875 -0.484375 -1.328125 -0.484375q-0.703125 0 -1.21875 0.40625q-0.515625 0.40625 -0.515625 1.015625l-3.5 0q0 -1.203125 0.65625 -2.140625q0.671875 -0.9375 1.84375 -1.453125q1.1875 -0.53125 2.609375 -0.53125q2.53125 0 3.96875 1.15625q1.453125 1.15625 1.453125 3.171875q0 0.96875 -0.59375 1.84375q-0.59375 0.875 -1.75 1.40625q1.21875 0.4375 1.890625 1.328125q0.6875 0.890625 0.6875 2.203125q0 2.03125 -1.5625 3.25q-1.546875 1.21875 -4.09375 1.21875q-1.484375 0 -2.765625 -0.5625q-1.28125 -0.5625 -1.9375 -1.5625q-0.65625 -1.015625 -0.65625 -2.296875l3.53125 0q0 0.703125 0.5625 1.21875q0.5625 0.5 1.390625 0.5q0.921875 0 1.46875 -0.515625q0.5625 -0.515625 0.5625 -1.3125q0 -1.15625 -0.578125 -1.625q-0.5625 -0.484375 -1.578125 -0.484375l-1.703125 0l0 -2.609375zm19.71051 9.046875l-10.578125 0l0 -2.296875l4.875 -5.125q1.8125 -2.046875 1.8125 -3.25q0 -0.984375 -0.4375 -1.484375q-0.421875 -0.515625 -1.234375 -0.515625q-0.796875 0 -1.296875 0.6875q-0.5 0.671875 -0.5 1.6875l-3.53125 0q0 -1.390625 0.703125 -2.5625q0.703125 -1.1875 1.9375 -1.84375q1.234375 -0.671875 2.765625 -0.671875q2.46875 0 3.78125 1.140625q1.328125 1.125 1.328125 3.25q0 0.890625 -0.328125 1.75q-0.328125 0.84375 -1.03125 1.78125q-0.703125 0.921875 -2.265625 2.484375l-1.953125 2.265625l5.953125 0l0 2.703125z" fill-rule="nonzero"/><path fill="#8e7cc3" d="m701.9593 365.47507l121.13391 0l0 102.834656l-121.13391 0z" fill-rule="evenodd"/><path fill="#ffffff" d="m728.131 416.4505l-5.75 0l0 3.609375l6.796875 0l0 2.8125l-10.453125 0l0 -15.15625l10.46875 0l0 2.8125l-6.8125 0l0 3.203125l5.75 0l0 2.71875zm6.9345703 -1.75l1.640625 -3.09375l3.640625 0l-2.96875 5.484375l3.109375 5.78125l-3.65625 0l-1.765625 -3.328125l-1.75 3.328125l-3.6875 0l3.125 -5.78125l-2.953125 -5.484375l3.6875 0l1.578125 3.09375zm16.867126 2.625q0 2.625 -1.1875 4.1875q-1.171875 1.5625 -3.171875 1.5625q-1.5625 0 -2.5625 -1.125l0 5.25l-3.5 0l0 -15.59375l3.28125 0l0.09375 1.03125q1.015625 -1.234375 2.65625 -1.234375q2.09375 0 3.234375 1.53125q1.15625 1.53125 1.15625 4.21875l0 0.171875zm-3.5 -0.21875q0 -3.0 -1.75 -3.0q-1.25 0 -1.671875 0.890625l0 4.4375q0.46875 0.9375 1.6875 0.9375q1.6875 0 1.734375 -2.890625l0 -0.375zm4.6168213 0.03125q0 -1.6875 0.65625 -3.0q0.65625 -1.328125 1.875 -2.03125q1.234375 -0.703125 2.890625 -0.703125q2.53125 0 3.984375 1.5625q1.453125 1.5625 1.453125 4.265625l0 0.125q0 2.625 -1.46875 4.171875q-1.453125 1.546875 -3.953125 1.546875q-2.40625 0 -3.859375 -1.4375q-1.453125 -1.4375 -1.578125 -3.90625l0 -0.59375zm3.5 0.21875q0 1.5625 0.484375 2.296875q0.5 0.71875 1.453125 0.71875q1.875 0 1.921875 -2.890625l0 -0.34375q0 -3.03125 -1.9375 -3.03125q-1.765625 0 -1.90625 2.609375l-0.015625 0.640625zm12.132507 -5.75l0.125 1.3125q1.15625 -1.515625 3.21875 -1.515625q1.75 0 2.609375 1.046875q0.875 1.046875 0.90625 3.15625l0 7.265625l-3.515625 0l0 -7.109375q0 -0.859375 -0.34375 -1.25q-0.34375 -0.40625 -1.25 -0.40625q-1.03125 0 -1.53125 0.8125l0 7.953125l-3.5 0l0 -11.265625l3.28125 0zm14.262695 11.46875q-2.59375 0 -4.203125 -1.546875q-1.59375 -1.546875 -1.59375 -4.015625l0 -0.296875q0 -1.734375 0.640625 -3.046875q0.640625 -1.328125 1.859375 -2.046875q1.234375 -0.71875 2.921875 -0.71875q2.375 0 3.75 1.46875q1.375 1.46875 1.375 4.109375l0 1.359375l-6.984375 0q0.1875 0.953125 0.828125 1.5q0.640625 0.53125 1.640625 0.53125q1.671875 0 2.609375 -1.171875l1.59375 1.90625q-0.640625 0.90625 -1.84375 1.4375q-1.203125 0.53125 -2.59375 0.53125zm-0.390625 -8.96875q-1.546875 0 -1.84375 2.03125l3.546875 0l0 -0.265625q0.015625 -0.84375 -0.4375 -1.296875q-0.4375 -0.46875 -1.265625 -0.46875zm9.768005 -2.5l0.125 1.3125q1.15625 -1.515625 3.21875 -1.515625q1.75 0 2.609375 1.046875q0.875 1.046875 0.90625 3.15625l0 7.265625l-3.515625 0l0 -7.109375q0 -0.859375 -0.34375 -1.25q-0.34375 -0.40625 -1.25 -0.40625q-1.03125 0 -1.53125 0.8125l0 7.953125l-3.5 0l0 -11.265625l3.28125 0zm12.90332 -2.796875l0 2.796875l1.84375 0l0 2.4375l-1.84375 0l0 5.15625q0 0.625 0.21875 0.875q0.234375 0.25 0.90625 0.25q0.53125 0 0.875 -0.0625l0 2.515625q-0.9375 0.296875 -1.96875 0.296875q-1.8125 0 -2.6875 -0.84375q-0.859375 -0.859375 -0.859375 -2.59375l0 -5.59375l-1.4375 0l0 -2.4375l1.4375 0l0 -2.796875l3.515625 0z" fill-rule="nonzero"/><path fill="#000000" fill-opacity="0.0" d="m332.96457 416.8924l123.93701 0" fill-rule="evenodd"/><path stroke="#674ea7" stroke-width="2.0" stroke-linejoin="round" stroke-linecap="butt" d="m332.96457 416.8924l111.93701 0" fill-rule="evenodd"/><path fill="#674ea7" stroke="#674ea7" stroke-width="2.0" stroke-linecap="butt" d="m444.90158 420.19586l9.076202 -3.3034668l-9.076202 -3.3034668z" fill-rule="evenodd"/><path fill="#000000" fill-opacity="0.0" d="m578.03546 416.8924l123.93695 0" fill-rule="evenodd"/><path stroke="#674ea7" stroke-width="2.0" stroke-linejoin="round" stroke-linecap="butt" d="m578.03546 416.8924l111.93695 0" fill-rule="evenodd"/><path fill="#674ea7" stroke="#674ea7" stroke-width="2.0" stroke-linecap="butt" d="m689.9724 420.19586l9.076233 -3.3034668l-9.076233 -3.3034668z" fill-rule="evenodd"/><path fill="#000000" fill-opacity="0.0" d="m351.45932 373.47507l86.96063 0l0 42.015747l-86.96063 0z" fill-rule="evenodd"/><path fill="#000000" d="m377.108 397.91068l-4.375 0l-0.765625 2.484375l-3.421875 0l4.875 -13.265625l3.0 0l4.90625 13.265625l-3.4375 0l-0.78125 -2.484375zm-3.609375 -2.46875l2.84375 0l-1.421875 -4.59375l-1.421875 4.59375zm13.738983 -3.90625l2.15625 -4.40625l3.65625 0l-3.703125 6.578125l3.8125 6.6875l-3.6875 0l-2.234375 -4.484375l-2.234375 4.484375l-3.6875 0l3.796875 -6.6875l-3.6875 -6.578125l3.640625 0l2.171875 4.40625zm10.359253 8.859375l-3.1875 0l0 -13.265625l3.1875 0l0 13.265625zm10.145294 -5.1875l1.34375 0l0 2.375l-1.34375 0l0 2.8125l-3.078125 0l0 -2.8125l-5.125 0l-0.1875 -1.875l5.3125 -8.546875l0 -0.03125l3.078125 0l0 8.078125zm-5.453125 0l2.375 0l0 -4.078125l-0.1875 0.3125l-2.1875 3.765625zm15.178864 1.65625q0 -0.703125 -0.5 -1.09375q-0.5 -0.390625 -1.75 -0.796875q-1.234375 -0.421875 -2.03125 -0.8125q-2.578125 -1.265625 -2.578125 -3.484375q0 -1.109375 0.640625 -1.9375q0.640625 -0.84375 1.8125 -1.3125q1.1875 -0.484375 2.640625 -0.484375q1.4375 0 2.5625 0.515625q1.140625 0.515625 1.765625 1.453125q0.640625 0.9375 0.640625 2.15625l-3.1875 0q0 -0.8125 -0.5 -1.25q-0.5 -0.453125 -1.34375 -0.453125q-0.859375 0 -1.359375 0.375q-0.5 0.375 -0.5 0.96875q0 0.5 0.546875 0.921875q0.546875 0.40625 1.921875 0.859375q1.375 0.4375 2.265625 0.953125q2.15625 1.234375 2.15625 3.40625q0 1.75 -1.3125 2.75q-1.3125 0.984375 -3.609375 0.984375q-1.609375 0 -2.921875 -0.578125q-1.296875 -0.578125 -1.96875 -1.578125q-0.65625 -1.015625 -0.65625 -2.328125l3.21875 0q0 1.0625 0.546875 1.578125q0.546875 0.5 1.78125 0.5q0.796875 0 1.25 -0.34375q0.46875 -0.34375 0.46875 -0.96875z" fill-rule="nonzero"/><path fill="#000000" fill-opacity="0.0" d="m596.51575 373.47507l86.96063 0l0 42.015747l-86.96063 0z" fill-rule="evenodd"/><path fill="#000000" d="m622.1644 397.91068l-4.375 0l-0.765625 2.484375l-3.421875 0l4.875 -13.265625l3.0 0l4.90625 13.265625l-3.4375 0l-0.78125 -2.484375zm-3.609375 -2.46875l2.84375 0l-1.421875 -4.59375l-1.421875 4.59375zm13.739014 -3.90625l2.15625 -4.40625l3.65625 0l-3.703125 6.578125l3.8125 6.6875l-3.6875 0l-2.234375 -4.484375l-2.234375 4.484375l-3.6875 0l3.796875 -6.6875l-3.6875 -6.578125l3.640625 0l2.171875 4.40625zm10.359253 8.859375l-3.1875 0l0 -13.265625l3.1875 0l0 13.265625zm10.145264 -5.1875l1.34375 0l0 2.375l-1.34375 0l0 2.8125l-3.078125 0l0 -2.8125l-5.125 0l-0.1875 -1.875l5.3125 -8.546875l0 -0.03125l3.078125 0l0 8.078125zm-5.453125 0l2.375 0l0 -4.078125l-0.1875 0.3125l-2.1875 3.765625zm15.178894 1.65625q0 -0.703125 -0.5 -1.09375q-0.5 -0.390625 -1.75 -0.796875q-1.234375 -0.421875 -2.03125 -0.8125q-2.578125 -1.265625 -2.578125 -3.484375q0 -1.109375 0.640625 -1.9375q0.640625 -0.84375 1.8125 -1.3125q1.1875 -0.484375 2.640625 -0.484375q1.4375 0 2.5625 0.515625q1.140625 0.515625 1.765625 1.453125q0.640625 0.9375 0.640625 2.15625l-3.1875 0q0 -0.8125 -0.5 -1.25q-0.5 -0.453125 -1.34375 -0.453125q-0.859375 0 -1.359375 0.375q-0.5 0.375 -0.5 0.96875q0 0.5 0.546875 0.921875q0.546875 0.40625 1.921875 0.859375q1.375 0.4375 2.265625 0.953125q2.15625 1.234375 2.15625 3.40625q0 1.75 -1.3125 2.75q-1.3125 0.984375 -3.609375 0.984375q-1.609375 0 -2.921875 -0.578125q-1.296875 -0.578125 -1.96875 -1.578125q-0.65625 -1.015625 -0.65625 -2.328125l3.21875 0q0 1.0625 0.546875 1.578125q0.546875 0.5 1.78125 0.5q0.796875 0 1.25 -0.34375q0.46875 -0.34375 0.46875 -0.96875z" fill-rule="nonzero"/><path fill="#000000" fill-opacity="0.0" d="m823.0932 416.8924l123.93701 0" fill-rule="evenodd"/><path stroke="#674ea7" stroke-width="2.0" stroke-linejoin="round" stroke-linecap="butt" d="m823.0932 416.8924l111.93701 0" fill-rule="evenodd"/><path fill="#674ea7" stroke="#674ea7" stroke-width="2.0" stroke-linecap="butt" d="m935.0302 420.19586l9.076172 -3.3034668l-9.076172 -3.3034668z" fill-rule="evenodd"/><path fill="#000000" fill-opacity="0.0" d="m841.5761 373.47507l86.96063 0l0 42.015747l-86.96063 0z" fill-rule="evenodd"/><path fill="#000000" d="m867.2248 397.91068l-4.375 0l-0.765625 2.484375l-3.421875 0l4.875 -13.265625l3.0 0l4.90625 13.265625l-3.4375 0l-0.78125 -2.484375zm-3.609375 -2.46875l2.84375 0l-1.421875 -4.59375l-1.421875 4.59375zm13.739014 -3.90625l2.15625 -4.40625l3.65625 0l-3.703125 6.578125l3.8125 6.6875l-3.6875 0l-2.234375 -4.484375l-2.234375 4.484375l-3.6875 0l3.796875 -6.6875l-3.6875 -6.578125l3.640625 0l2.171875 4.40625zm10.359253 8.859375l-3.1875 0l0 -13.265625l3.1875 0l0 13.265625zm10.145264 -5.1875l1.34375 0l0 2.375l-1.34375 0l0 2.8125l-3.078125 0l0 -2.8125l-5.125 0l-0.1875 -1.875l5.3125 -8.546875l0 -0.03125l3.078125 0l0 8.078125zm-5.453125 0l2.375 0l0 -4.078125l-0.1875 0.3125l-2.1875 3.765625zm15.178894 1.65625q0 -0.703125 -0.5 -1.09375q-0.5 -0.390625 -1.75 -0.796875q-1.234375 -0.421875 -2.03125 -0.8125q-2.578125 -1.265625 -2.578125 -3.484375q0 -1.109375 0.640625 -1.9375q0.640625 -0.84375 1.8125 -1.3125q1.1875 -0.484375 2.640625 -0.484375q1.4375 0 2.5625 0.515625q1.140625 0.515625 1.765625 1.453125q0.640625 0.9375 0.640625 2.15625l-3.1875 0q0 -0.8125 -0.5 -1.25q-0.5 -0.453125 -1.34375 -0.453125q-0.859375 0 -1.359375 0.375q-0.5 0.375 -0.5 0.96875q0 0.5 0.546875 0.921875q0.546875 0.40625 1.921875 0.859375q1.375 0.4375 2.265625 0.953125q2.15625 1.234375 2.15625 3.40625q0 1.75 -1.3125 2.75q-1.3125 0.984375 -3.609375 0.984375q-1.609375 0 -2.921875 -0.578125q-1.296875 -0.578125 -1.96875 -1.578125q-0.65625 -1.015625 -0.65625 -2.328125l3.21875 0q0 1.0625 0.546875 1.578125q0.546875 0.5 1.78125 0.5q0.796875 0 1.25 -0.34375q0.46875 -0.34375 0.46875 -0.96875z" fill-rule="nonzero"/><path fill="#8e7cc3" d="m947.0197 365.47507l121.13385 0l0 102.834656l-121.13385 0z" fill-rule="evenodd"/><path fill="#ffffff" d="m985.1288 422.87238l0 -15.15625l4.890625 0q2.015625 0 3.609375 0.90625q1.609375 0.90625 2.5 2.578125q0.90625 1.65625 0.921875 3.71875l0 0.6875q0 2.09375 -0.890625 3.75q-0.875 1.640625 -2.46875 2.578125q-1.59375 0.921875 -3.5625 0.9375l-5.0 0zm3.65625 -12.34375l0 9.53125l1.28125 0q1.5625 0 2.40625 -1.109375q0.84375 -1.125 0.84375 -3.34375l0 -0.65625q0 -2.1875 -0.84375 -3.296875q-0.84375 -1.125 -2.453125 -1.125l-1.234375 0zm14.94458 -2.8125l3.375 10.546875l3.375 -10.546875l4.8125 0l0 15.15625l-3.671875 0l0 -3.546875l0.359375 -7.234375l-3.65625 10.78125l-2.421875 0l-3.671875 -10.796875l0.34375 7.25l0 3.546875l-3.65625 0l0 -15.15625l4.8125 0zm22.69336 12.328125l-5.015625 0l-0.875 2.828125l-3.90625 0l5.5625 -15.15625l3.4375 0l5.59375 15.15625l-3.921875 0l-0.875 -2.828125zm-4.140625 -2.828125l3.265625 0l-1.640625 -5.25l-1.625 5.25z" fill-rule="nonzero"/><path fill="#8e7cc3" d="m211.84645 365.47507l121.133865 0l0 102.834656l-121.133865 0z" fill-rule="evenodd"/><path fill="#ffffff" d="m249.95558 422.87238l0 -15.15625l4.890625 0q2.0156097 0 3.6093597 0.90625q1.609375 0.90625 2.5 2.578125q0.90625 1.65625 0.921875 3.71875l0 0.6875q0 2.09375 -0.890625 3.75q-0.875 1.640625 -2.46875 2.578125q-1.59375 0.921875 -3.5624847 0.9375l-5.0 0zm3.65625 -12.34375l0 9.53125l1.28125 0q1.5624847 0 2.4062347 -1.109375q0.84375 -1.125 0.84375 -3.34375l0 -0.65625q0 -2.1875 -0.84375 -3.296875q-0.84375 -1.125 -2.4531097 -1.125l-1.234375 0zm14.944534 -2.8125l3.375 10.546875l3.375 -10.546875l4.8125 0l0 15.15625l-3.671875 0l0 -3.546875l0.359375 -7.234375l-3.65625 10.78125l-2.421875 0l-3.671875 -10.796875l0.34375 7.25l0 3.546875l-3.65625 0l0 -15.15625l4.8125 0zm22.69336 12.328125l-5.015625 0l-0.875 2.828125l-3.90625 0l5.5625 -15.15625l3.4375 0l5.59375 15.15625l-3.921875 0l-0.875 -2.828125zm-4.140625 -2.828125l3.265625 0l-1.640625 -5.25l-1.625 5.25z" fill-rule="nonzero"/></g></svg>