<svg version="1.1" viewBox="0.0 0.0 1280.0 960.0" fill="none" stroke="none" stroke-linecap="square" stroke-miterlimit="10" xmlns:xlink="http://www.w3.org/1999/xlink" xmlns="http://www.w3.org/2000/svg"><clipPath id="p.0"><path d="m0 0l1280.0 0l0 960.0l-1280.0 0l0 -960.0z" clip-rule="nonzero"/></clipPath><g clip-path="url(#p.0)"><path fill="#000000" fill-opacity="0.0" d="m0 0l1280.0 0l0 960.0l-1280.0 0z" fill-rule="evenodd"/><path fill="#8e7cc3" d="m340.17322 263.24408l121.13388 0l0 102.834656l-121.13388 0z" fill-rule="evenodd"/><path fill="#ffffff" d="m386.09506 317.8133l-5.015625 0l-0.875 2.828125l-3.90625 0l5.5625 -15.15625l3.4375 0l5.59375 15.15625l-3.921875 0l-0.875 -2.828125zm-4.140625 -2.828125l3.265625 0l-1.640625 -5.25l-1.625 5.25zm17.885803 -4.296875l-3.40625 -0.9375l0.6875 -1.96875l3.3125 1.359375l-0.25 -3.65625l2.21875 0l-0.265625 3.734375l3.234375 -1.328125l0.671875 1.984375l-3.4375 0.9375l2.28125 2.75l-1.796875 1.234375l-1.90625 -3.0625l-1.921875 2.953125l-1.796875 -1.171875l2.375 -2.828125zm12.694183 9.953125l0 -15.15625l5.453125 0q2.921875 0 4.4375 1.078125q1.53125 1.0625 1.53125 3.109375q0 1.171875 -0.546875 2.0q-0.53125 0.828125 -1.578125 1.234375q1.1875 0.3125 1.8125 1.171875q0.640625 0.84375 0.640625 2.078125q0 2.21875 -1.40625 3.34375q-1.40625 1.125 -4.1875 1.140625l-6.15625 0zm3.65625 -6.453125l0 3.640625l2.40625 0q0.984375 0 1.515625 -0.453125q0.53125 -0.453125 0.53125 -1.28125q0 -1.890625 -1.890625 -1.90625l-2.5625 0zm0 -2.390625l1.90625 0q1.203125 -0.015625 1.703125 -0.4375q0.515625 -0.421875 0.515625 -1.265625q0 -0.953125 -0.546875 -1.375q-0.546875 -0.421875 -1.78125 -0.421875l-1.796875 0l0 3.5z" fill-rule="nonzero"/><path fill="#8e7cc3" d="m772.17303 212.86613l237.7008 0l0 203.59056l-237.7008 0z" fill-rule="evenodd"/><path fill="#ffffff" d="m880.7959 314.1039l-7.75 0l0 7.9375l-4.796875 0l0 -19.90625l13.328125 0l0 3.703125l-8.53125 0l0 4.578125l7.75 0l0 3.6875zm15.3125 0l-7.75 0l0 7.9375l-4.796875 0l0 -19.90625l13.328125 0l0 3.703125l-8.53125 0l0 4.578125l7.75 0l0 3.6875zm18.664062 -8.265625l-5.96875 0l0 16.203125l-4.796875 0l0 -16.203125l-5.859375 0l0 -3.703125l16.625 0l0 3.703125z" fill-rule="nonzero"/><path fill="#000000" fill-opacity="0.0" d="m264.97113 314.6614l75.212585 0" fill-rule="evenodd"/><path stroke="#674ea7" stroke-width="2.0" stroke-linejoin="round" stroke-linecap="butt" d="m264.97113 314.6614l63.212585 0" fill-rule="evenodd"/><path fill="#674ea7" stroke="#674ea7" stroke-width="2.0" stroke-linecap="butt" d="m328.18372 317.96487l9.076202 -3.3034668l-9.076202 -3.3034668z" fill-rule="evenodd"/><path fill="#000000" fill-opacity="0.0" d="m461.3071 314.6614l80.6929 -0.09448242" fill-rule="evenodd"/><path stroke="#674ea7" stroke-width="2.0" stroke-linejoin="round" stroke-linecap="butt" d="m461.3071 314.6614l68.6929 -0.080444336" fill-rule="evenodd"/><path fill="#674ea7" stroke="#674ea7" stroke-width="2.0" stroke-linecap="butt" d="m530.0039 317.88443l9.072266 -3.314087l-9.080017 -3.2928162z" fill-rule="evenodd"/><path fill="#000000" fill-opacity="0.0" d="m259.0971 316.063l86.96063 0l0 42.015747l-86.96063 0z" fill-rule="evenodd"/><path fill="#000000" d="m284.7458 340.49863l-4.375 0l-0.765625 2.484375l-3.421875 0l4.875 -13.265625l3.0 0l4.90625 13.265625l-3.4375 0l-0.78125 -2.484375zm-3.609375 -2.46875l2.84375 0l-1.421875 -4.59375l-1.421875 4.59375zm13.739014 -3.90625l2.15625 -4.40625l3.65625 0l-3.703125 6.578125l3.8125 6.6875l-3.6875 0l-2.234375 -4.484375l-2.234375 4.484375l-3.6875 0l3.796875 -6.6875l-3.6875 -6.578125l3.640625 0l2.171875 4.40625zm10.359222 8.859375l-3.1875 0l0 -13.265625l3.1875 0l0 13.265625zm10.145294 -5.1875l1.34375 0l0 2.375l-1.34375 0l0 2.8125l-3.078125 0l0 -2.8125l-5.125 0l-0.1875 -1.875l5.3125 -8.546875l0 -0.03125l3.078125 0l0 8.078125zm-5.453125 0l2.375 0l0 -4.078125l-0.1875 0.3125l-2.1875 3.765625zm15.178864 1.65625q0 -0.703125 -0.5 -1.09375q-0.5 -0.390625 -1.75 -0.796875q-1.234375 -0.421875 -2.03125 -0.8125q-2.578125 -1.265625 -2.578125 -3.484375q0 -1.109375 0.640625 -1.9375q0.640625 -0.84375 1.8125 -1.3125q1.1875 -0.484375 2.640625 -0.484375q1.4375 0 2.5625 0.515625q1.140625 0.515625 1.765625 1.453125q0.640625 0.9375 0.640625 2.15625l-3.1875 0q0 -0.8125 -0.5 -1.25q-0.5 -0.453125 -1.34375 -0.453125q-0.859375 0 -1.359375 0.375q-0.5 0.375 -0.5 0.96875q0 0.5 0.546875 0.921875q0.546875 0.40625 1.921875 0.859375q1.375 0.4375 2.265625 0.953125q2.15625 1.234375 2.15625 3.40625q0 1.75 -1.3125 2.75q-1.3125 0.984375 -3.609375 0.984375q-1.609375 0 -2.921875 -0.578125q-1.296875 -0.578125 -1.96875 -1.578125q-0.65625 -1.015625 -0.65625 -2.328125l3.21875 0q0 1.0625 0.546875 1.578125q0.546875 0.5 1.78125 0.5q0.796875 0 1.25 -0.34375q0.46875 -0.34375 0.46875 -0.96875z" fill-rule="nonzero"/><path fill="#8e7cc3" d="m542.4724 263.24408l121.13391 0l0 102.834656l-121.13391 0z" fill-rule="evenodd"/><path fill="#ffffff" d="m582.5841 301.0008q-0.0625 1.59375 -0.84375 2.8125q-0.78125 1.203125 -2.203125 1.875q-1.40625 0.65625 -3.21875 0.65625q-2.984375 0 -4.703125 -1.9375q-1.71875 -1.953125 -1.71875 -5.5l0 -0.75q0 -2.234375 0.765625 -3.90625q0.78125 -1.671875 2.234375 -2.578125q1.46875 -0.90625 3.390625 -0.90625q2.75 0 4.421875 1.453125q1.6875 1.453125 1.90625 4.0l-3.640625 0q-0.03125 -1.390625 -0.6875 -1.984375q-0.65625 -0.609375 -2.0 -0.609375q-1.375 0 -2.015625 1.015625q-0.625 1.015625 -0.65625 3.265625l0 1.0625q0 2.4375 0.609375 3.484375q0.609375 1.03125 2.09375 1.03125q1.265625 0 1.921875 -0.59375q0.671875 -0.59375 0.71875 -1.890625l3.625 0zm1.137207 -0.59375q0 -1.6875 0.65625 -3.0q0.65625 -1.328125 1.875 -2.03125q1.234375 -0.703125 2.890625 -0.703125q2.53125 0 3.984375 1.5625q1.453125 1.5625 1.453125 4.265625l0 0.125q0 2.625 -1.46875 4.171875q-1.453125 1.546875 -3.953125 1.546875q-2.40625 0 -3.859375 -1.4375q-1.453125 -1.4375 -1.578125 -3.90625l0 -0.59375zm3.5 0.21875q0 1.5625 0.484375 2.296875q0.5 0.71875 1.453125 0.71875q1.875 0 1.921875 -2.890625l0 -0.34375q0 -3.03125 -1.9375 -3.03125q-1.765625 0 -1.90625 2.609375l-0.015625 0.640625zm12.132446 -5.75l0.125 1.3125q1.15625 -1.515625 3.21875 -1.515625q1.75 0 2.609375 1.046875q0.875 1.046875 0.90625 3.15625l0 7.265625l-3.515625 0l0 -7.109375q0 -0.859375 -0.34375 -1.25q-0.34375 -0.40625 -1.25 -0.40625q-1.03125 0 -1.53125 0.8125l0 7.953125l-3.5 0l0 -11.265625l3.28125 0zm13.575195 8.765625q0.734375 0 1.140625 -0.390625q0.40625 -0.40625 0.40625 -1.125l3.28125 0q0 1.84375 -1.328125 3.03125q-1.328125 1.1875 -3.421875 1.1875q-2.453125 0 -3.875 -1.53125q-1.40625 -1.546875 -1.40625 -4.28125l0 -0.140625q0 -1.703125 0.625 -3.015625q0.625 -1.3125 1.8125 -2.0q1.1875 -0.703125 2.8125 -0.703125q2.203125 0 3.484375 1.21875q1.296875 1.203125 1.296875 3.296875l-3.28125 0q0 -0.875 -0.4375 -1.34375q-0.421875 -0.46875 -1.140625 -0.46875q-1.359375 0 -1.59375 1.734375q-0.078125 0.546875 -0.078125 1.515625q0 1.703125 0.40625 2.359375q0.40625 0.65625 1.296875 0.65625zm12.658752 2.5q-0.1875 -0.34375 -0.328125 -1.015625q-0.96875 1.21875 -2.703125 1.21875q-1.59375 0 -2.71875 -0.953125q-1.109375 -0.96875 -1.109375 -2.421875q0 -1.84375 1.34375 -2.78125q1.359375 -0.9375 3.953125 -0.9375l1.078125 0l0 -0.59375q0 -1.546875 -1.34375 -1.546875q-1.25 0 -1.25 1.234375l-3.515625 0q0 -1.640625 1.390625 -2.65625q1.390625 -1.015625 3.546875 -1.015625q2.15625 0 3.40625 1.046875q1.25 1.046875 1.28125 2.875l0 5.0q0.03125 1.546875 0.484375 2.375l0 0.171875l-3.515625 0zm-2.1875 -2.296875q0.65625 0 1.078125 -0.28125q0.4375 -0.28125 0.625 -0.625l0 -1.8125l-1.015625 0q-1.84375 0 -1.84375 1.65625q0 0.46875 0.328125 0.765625q0.328125 0.296875 0.828125 0.296875zm11.25769 -11.765625l0 2.796875l1.84375 0l0 2.4375l-1.84375 0l0 5.15625q0 0.625 0.21875 0.875q0.234375 0.25 0.90625 0.25q0.53125 0 0.875 -0.0625l0 2.515625q-0.9375 0.296875 -1.96875 0.296875q-1.8125 0 -2.6875 -0.84375q-0.859375 -0.859375 -0.859375 -2.59375l0 -5.59375l-1.4375 0l0 -2.4375l1.4375 0l0 -2.796875l3.515625 0z" fill-rule="nonzero"/><path fill="#ffffff" d="m584.7754 332.3133l-5.015625 0l-0.875 2.828125l-3.90625 0l5.5625 -15.15625l3.4375 0l5.59375 15.15625l-3.921875 0l-0.875 -2.828125zm-4.140625 -2.828125l3.265625 0l-1.640625 -5.25l-1.625 5.25zm21.526367 -2.953125l3.546875 0l0 3.015625l-3.546875 0l0 4.078125l-3.28125 0l0 -4.078125l-3.5625 0l0 -3.015625l3.5625 0l0 -3.953125l3.28125 0l0 3.953125zm14.15741 -2.65625l0 11.65625q-0.015625 2.0 -1.15625 3.078125q-1.125 1.078125 -3.15625 1.078125q-0.875 0 -1.65625 -0.171875l0 -2.65625q0.59375 0.09375 0.984375 0.09375q1.453125 0 1.453125 -1.453125l0 -11.625l3.53125 0zm-3.78125 -2.90625q0 -0.75 0.53125 -1.21875q0.546875 -0.484375 1.40625 -0.484375q0.875 0 1.40625 0.484375q0.546875 0.46875 0.546875 1.21875q0 0.75 -0.546875 1.234375q-0.53125 0.46875 -1.40625 0.46875q-0.859375 0 -1.40625 -0.46875q-0.53125 -0.484375 -0.53125 -1.234375zm5.915283 14.171875l0 -15.15625l5.453125 0q2.921875 0 4.4375 1.078125q1.53125 1.0625 1.53125 3.109375q0 1.171875 -0.546875 2.0q-0.53125 0.828125 -1.578125 1.234375q1.1875 0.3125 1.8125 1.171875q0.640625 0.84375 0.640625 2.078125q0 2.21875 -1.40625 3.34375q-1.40625 1.125 -4.1875 1.140625l-6.15625 0zm3.65625 -6.453125l0 3.640625l2.40625 0q0.984375 0 1.515625 -0.453125q0.53125 -0.453125 0.53125 -1.28125q0 -1.890625 -1.890625 -1.90625l-2.5625 0zm0 -2.390625l1.90625 0q1.203125 -0.015625 1.703125 -0.4375q0.515625 -0.421875 0.515625 -1.265625q0 -0.953125 -0.546875 -1.375q-0.546875 -0.421875 -1.78125 -0.421875l-1.796875 0l0 3.5z" fill-rule="nonzero"/><path fill="#6d9eeb" d="m340.1719 60.779526l121.13388 0l0 102.83464l-121.13388 0z" fill-rule="evenodd"/><path fill="#ffffff" d="m389.36996 103.67685l-3.625 0l0 -6.328125l-5.390625 0l0 6.328125l-3.65625 0l0 -15.15625l3.65625 0l0 6.015625l5.390625 0l0 -6.015625l3.625 0l0 15.15625zm8.501556 0q-0.1875 -0.34375 -0.328125 -1.015625q-0.96875 1.21875 -2.703125 1.21875q-1.59375 0 -2.71875 -0.953125q-1.109375 -0.96875 -1.109375 -2.421875q0 -1.84375 1.34375 -2.78125q1.359375 -0.9375 3.953125 -0.9375l1.078125 0l0 -0.59375q0 -1.546875 -1.34375 -1.546875q-1.25 0 -1.25 1.234375l-3.515625 0q0 -1.640625 1.390625 -2.65625q1.390625 -1.015625 3.546875 -1.015625q2.15625 0 3.40625 1.046875q1.25 1.046875 1.28125 2.875l0 5.0q0.03125 1.546875 0.484375 2.375l0 0.171875l-3.515625 0zm-2.1875 -2.296875q0.65625 0 1.078125 -0.28125q0.4375 -0.28125 0.625 -0.625l0 -1.8125l-1.015625 0q-1.84375 0 -1.84375 1.65625q0 0.46875 0.328125 0.765625q0.328125 0.296875 0.828125 0.296875zm10.38266 -8.96875l0.125 1.3125q1.15625 -1.515625 3.21875 -1.515625q1.75 0 2.609375 1.046875q0.875 1.046875 0.90625 3.15625l0 7.265625l-3.515625 0l0 -7.109375q0 -0.859375 -0.34375 -1.25q-0.34375 -0.40625 -1.25 -0.40625q-1.03125 0 -1.53125 0.8125l0 7.953125l-3.5 0l0 -11.265625l3.28125 0zm12.02832 0l0.125 1.3125q1.15625 -1.515625 3.21875 -1.515625q1.75 0 2.609375 1.046875q0.875 1.046875 0.90625 3.15625l0 7.265625l-3.515625 0l0 -7.109375q0 -0.859375 -0.34375 -1.25q-0.34375 -0.40625 -1.25 -0.40625q-1.03125 0 -1.53125 0.8125l0 7.953125l-3.5 0l0 -11.265625l3.28125 0z" fill-rule="nonzero"/><path fill="#ffffff" d="m375.6856 127.0206l1.734375 -9.5l3.625 0l-3.21875 15.15625l-3.78125 0l-2.03125 -8.640625l-1.984375 8.640625l-3.78125 0l-3.234375 -15.15625l3.640625 0l1.734375 9.5l2.078125 -9.5l3.109375 0l2.109375 9.5zm10.334015 5.65625l-3.515625 0l0 -11.265625l3.515625 0l0 11.265625zm-3.734375 -14.171875q0 -0.75 0.546875 -1.21875q0.546875 -0.484375 1.40625 -0.484375q0.859375 0 1.40625 0.484375q0.546875 0.46875 0.546875 1.21875q0 0.75 -0.546875 1.234375q-0.546875 0.46875 -1.40625 0.46875q-0.859375 0 -1.40625 -0.46875q-0.546875 -0.484375 -0.546875 -1.234375zm9.113159 2.90625l0.125 1.3125q1.15625 -1.515625 3.21875 -1.515625q1.75 0 2.609375 1.046875q0.875 1.046875 0.90625 3.15625l0 7.265625l-3.515625 0l0 -7.109375q0 -0.859375 -0.34375 -1.25q-0.34375 -0.40625 -1.25 -0.40625q-1.03125 0 -1.53125 0.8125l0 7.953125l-3.5 0l0 -11.265625l3.28125 0zm8.37207 5.546875q0 -2.671875 1.15625 -4.203125q1.15625 -1.546875 3.21875 -1.546875q1.515625 0 2.546875 1.171875l0 -5.703125l3.515625 0l0 16.0l-3.15625 0l-0.171875 -1.203125q-1.078125 1.40625 -2.75 1.40625q-2.015625 0 -3.1875 -1.53125q-1.171875 -1.546875 -1.171875 -4.390625zm3.5 0.21875q0 3.0 1.75 3.0q1.171875 0 1.671875 -0.984375l0 -4.28125q-0.484375 -1.0 -1.640625 -1.0q-1.625 0 -1.765625 2.625l-0.015625 0.640625zm8.49707 -0.234375q0 -1.6875 0.65625 -3.0q0.65625 -1.328125 1.875 -2.03125q1.234375 -0.703125 2.890625 -0.703125q2.53125 0 3.984375 1.5625q1.453125 1.5625 1.453125 4.265625l0 0.125q0 2.625 -1.46875 4.171875q-1.453125 1.546875 -3.953125 1.546875q-2.40625 0 -3.859375 -1.4375q-1.453125 -1.4375 -1.578125 -3.90625l0 -0.59375zm3.5 0.21875q0 1.5625 0.484375 2.296875q0.5 0.71875 1.453125 0.71875q1.875 0 1.921875 -2.890625l0 -0.34375q0 -3.03125 -1.9375 -3.03125q-1.765625 0 -1.90625 2.609375l-0.015625 0.640625zm18.648102 0.890625l1.125 -6.640625l3.375 0l-2.65625 11.265625l-2.96875 0l-1.859375 -6.6875l-1.875 6.6875l-2.96875 0l-2.65625 -11.265625l3.359375 0l1.109375 6.796875l1.796875 -6.796875l2.453125 0l1.765625 6.640625z" fill-rule="nonzero"/><path fill="#000000" fill-opacity="0.0" d="m400.73883 163.61417l0 99.62204" fill-rule="evenodd"/><path stroke="#3c78d8" stroke-width="2.0" stroke-linejoin="round" stroke-linecap="butt" d="m400.73883 163.61417l0 87.622055" fill-rule="evenodd"/><path fill="#3c78d8" stroke="#3c78d8" stroke-width="2.0" stroke-linecap="butt" d="m397.4354 251.23622l3.3034363 9.076187l3.3034668 -9.076187z" fill-rule="evenodd"/><path fill="#000000" fill-opacity="0.0" d="m392.85434 188.77428l86.96063 0l0 42.015747l-86.96063 0z" fill-rule="evenodd"/><path fill="#000000" d="m418.50302 213.2099l-4.375 0l-0.765625 2.484375l-3.421875 0l4.875 -13.265625l3.0 0l4.90625 13.265625l-3.4375 0l-0.78125 -2.484375zm-3.609375 -2.46875l2.84375 0l-1.421875 -4.59375l-1.421875 4.59375zm13.738983 -3.90625l2.15625 -4.40625l3.65625 0l-3.703125 6.578125l3.8125 6.6875l-3.6875 0l-2.234375 -4.484375l-2.234375 4.484375l-3.6875 0l3.796875 -6.6875l-3.6875 -6.578125l3.640625 0l2.171875 4.40625zm10.359253 8.859375l-3.1875 0l0 -13.265625l3.1875 0l0 13.265625zm10.145294 -5.1875l1.34375 0l0 2.375l-1.34375 0l0 2.8125l-3.078125 0l0 -2.8125l-5.125 0l-0.1875 -1.875l5.3125 -8.546875l0 -0.03125l3.078125 0l0 8.078125zm-5.453125 0l2.375 0l0 -4.078125l-0.1875 0.3125l-2.1875 3.765625zm15.178864 1.65625q0 -0.703125 -0.5 -1.09375q-0.5 -0.390625 -1.75 -0.796875q-1.234375 -0.421875 -2.03125 -0.8125q-2.578125 -1.265625 -2.578125 -3.484375q0 -1.109375 0.640625 -1.9375q0.640625 -0.84375 1.8125 -1.3125q1.1875 -0.484375 2.640625 -0.484375q1.4375 0 2.5625 0.515625q1.140625 0.515625 1.765625 1.453125q0.640625 0.9375 0.640625 2.15625l-3.1875 0q0 -0.8125 -0.5 -1.25q-0.5 -0.453125 -1.34375 -0.453125q-0.859375 0 -1.359375 0.375q-0.5 0.375 -0.5 0.96875q0 0.5 0.546875 0.921875q0.546875 0.40625 1.921875 0.859375q1.375 0.4375 2.265625 0.953125q2.15625 1.234375 2.15625 3.40625q0 1.75 -1.3125 2.75q-1.3125 0.984375 -3.609375 0.984375q-1.609375 0 -2.921875 -0.578125q-1.296875 -0.578125 -1.96875 -1.578125q-0.65625 -1.015625 -0.65625 -2.328125l3.21875 0q0 1.0625 0.546875 1.578125q0.546875 0.5 1.78125 0.5q0.796875 0 1.25 -0.34375q0.46875 -0.34375 0.46875 -0.96875z" fill-rule="nonzero"/><path fill="#000000" fill-opacity="0.0" d="m347.85696 217.58267l45.51181 0l0 42.015747l-45.51181 0z" fill-rule="evenodd"/><path fill="#351c75" d="m365.59604 244.50267l0 -13.265625l4.765625 0q2.5625 0 3.890625 0.9375q1.34375 0.9375 1.34375 2.734375q0 1.015625 -0.484375 1.75q-0.46875 0.734375 -1.390625 1.078125q1.046875 0.265625 1.59375 1.015625q0.5625 0.75 0.5625 1.828125q0 1.9375 -1.234375 2.921875q-1.234375 0.984375 -3.65625 1.0l-5.390625 0zm3.203125 -5.640625l0 3.1875l2.09375 0q0.859375 0 1.328125 -0.390625q0.46875 -0.40625 0.46875 -1.125q0 -1.65625 -1.65625 -1.671875l-2.234375 0zm0 -2.09375l1.65625 0q1.0625 -0.015625 1.5 -0.375q0.453125 -0.375 0.453125 -1.109375q0 -0.84375 -0.484375 -1.203125q-0.484375 -0.375 -1.5625 -0.375l-1.5625 0l0 3.0625z" fill-rule="nonzero"/><path fill="#8e7cc3" d="m143.83727 263.24408l121.133865 0l0 102.834656l-121.133865 0z" fill-rule="evenodd"/><path fill="#ffffff" d="m181.9464 320.64142l0 -15.15625l4.890625 0q2.015625 0 3.609375 0.90625q1.609375 0.90625 2.5 2.578125q0.90625 1.65625 0.921875 3.71875l0 0.6875q0 2.09375 -0.890625 3.75q-0.875 1.640625 -2.46875 2.578125q-1.59375 0.921875 -3.5625 0.9375l-5.0 0zm3.65625 -12.34375l0 9.53125l1.28125 0q1.5625 0 2.40625 -1.109375q0.84375 -1.125 0.84375 -3.34375l0 -0.65625q0 -2.1875 -0.84375 -3.296875q-0.84375 -1.125 -2.453125 -1.125l-1.234375 0zm14.94455 -2.8125l3.375 10.546875l3.375 -10.546875l4.8124847 0l0 15.15625l-3.671875 0l0 -3.546875l0.359375 -7.234375l-3.6562347 10.78125l-2.421875 0l-3.671875 -10.796875l0.34375 7.25l0 3.546875l-3.65625 0l0 -15.15625l4.8125 0zm22.693344 12.328125l-5.015625 0l-0.875 2.828125l-3.90625 0l5.5625 -15.15625l3.4375 0l5.59375 15.15625l-3.921875 0l-0.875 -2.828125zm-4.140625 -2.828125l3.265625 0l-1.640625 -5.25l-1.625 5.25z" fill-rule="nonzero"/><path fill="#000000" fill-opacity="0.0" d="m294.66403 267.59842l45.51181 0l0 42.015747l-45.51181 0z" fill-rule="evenodd"/><path fill="#351c75" d="m319.59732 292.03406l-4.375 0l-0.765625 2.484375l-3.421875 0l4.875 -13.265625l3.0 0l4.90625 13.265625l-3.4375 0l-0.78125 -2.484375zm-3.609375 -2.46875l2.84375 0l-1.421875 -4.59375l-1.421875 4.59375z" fill-rule="nonzero"/><path fill="#000000" fill-opacity="0.0" d="m461.39108 316.063l86.9606 0l0 42.015747l-86.9606 0z" fill-rule="evenodd"/><path fill="#000000" d="m487.03976 340.49863l-4.375 0l-0.765625 2.484375l-3.421875 0l4.875 -13.265625l3.0 0l4.90625 13.265625l-3.4375 0l-0.78125 -2.484375zm-3.609375 -2.46875l2.84375 0l-1.421875 -4.59375l-1.421875 4.59375zm13.738983 -3.90625l2.15625 -4.40625l3.65625 0l-3.703125 6.578125l3.8125 6.6875l-3.6875 0l-2.234375 -4.484375l-2.234375 4.484375l-3.6875 0l3.796875 -6.6875l-3.6875 -6.578125l3.640625 0l2.171875 4.40625zm10.359253 8.859375l-3.1875 0l0 -13.265625l3.1875 0l0 13.265625zm10.145264 -5.1875l1.34375 0l0 2.375l-1.34375 0l0 2.8125l-3.078125 0l0 -2.8125l-5.1249695 0l-0.1875 -1.875l5.3124695 -8.546875l0 -0.03125l3.078125 0l0 8.078125zm-5.453125 0l2.375 0l0 -4.078125l-0.1875 0.3125l-2.1875 3.765625zm15.178894 1.65625q0 -0.703125 -0.5 -1.09375q-0.5 -0.390625 -1.75 -0.796875q-1.234375 -0.421875 -2.03125 -0.8125q-2.578125 -1.265625 -2.578125 -3.484375q0 -1.109375 0.640625 -1.9375q0.640625 -0.84375 1.8125 -1.3125q1.1875 -0.484375 2.640625 -0.484375q1.4375 0 2.5625 0.515625q1.140625 0.515625 1.765625 1.453125q0.640625 0.9375 0.640625 2.15625l-3.1875 0q0 -0.8125 -0.5 -1.25q-0.5 -0.453125 -1.34375 -0.453125q-0.859375 0 -1.359375 0.375q-0.5 0.375 -0.5 0.96875q0 0.5 0.546875 0.921875q0.546875 0.40625 1.921875 0.859375q1.375 0.4375 2.265625 0.953125q2.15625 1.234375 2.15625 3.40625q0 1.75 -1.3125 2.75q-1.3125 0.984375 -3.609375 0.984375q-1.609375 0 -2.921875 -0.578125q-1.296875 -0.578125 -1.96875 -1.578125q-0.65625 -1.015625 -0.65625 -2.328125l3.21875 0q0 1.0625 0.546875 1.578125q0.546875 0.5 1.78125 0.5q0.796875 0 1.25 -0.34375q0.46875 -0.34375 0.46875 -0.96875z" fill-rule="nonzero"/><path fill="#000000" fill-opacity="0.0" d="m495.81497 275.59842l45.51181 0l0 42.015747l-45.51181 0z" fill-rule="evenodd"/><path fill="#351c75" d="m520.7482 300.03406l-4.375 0l-0.765625 2.484375l-3.421875 0l4.875 -13.265625l3.0 0l4.90625 13.265625l-3.4375 0l-0.78125 -2.484375zm-3.609375 -2.46875l2.84375 0l-1.421875 -4.59375l-1.421875 4.59375z" fill-rule="nonzero"/><path fill="#8e7cc3" d="m542.4711 61.937008l121.13385 0l0 102.83464l-121.13385 0z" fill-rule="evenodd"/><path fill="#ffffff" d="m586.24664 102.02183l7.25 0l0 2.8125l-11.8125 0l0 -1.921875l7.234375 -10.421875l-7.28125 0l0 -2.8125l11.78125 0l0 1.875l-7.171875 10.46875zm13.976013 3.015625q-2.59375 0 -4.203125 -1.546875q-1.59375 -1.546875 -1.59375 -4.015625l0 -0.296875q0 -1.734375 0.640625 -3.046875q0.640625 -1.328125 1.859375 -2.046875q1.234375 -0.71875 2.921875 -0.71875q2.375 0 3.75 1.46875q1.375 1.46875 1.375 4.109375l0 1.359375l-6.984375 0q0.1875 0.953125 0.828125 1.5q0.640625 0.53125 1.640625 0.53125q1.671875 0 2.609375 -1.171875l1.59375 1.90625q-0.640625 0.90625 -1.84375 1.4375q-1.203125 0.53125 -2.59375 0.53125zm-0.390625 -8.96875q-1.546875 0 -1.84375 2.03125l3.546875 0l0 -0.265625q0.015625 -0.84375 -0.4375 -1.296875q-0.4375 -0.46875 -1.265625 -0.46875zm13.361694 0.671875l-1.15625 -0.078125q-1.65625 0 -2.125 1.03125l0 7.140625l-3.499939 0l0 -11.265625l3.281189 0l0.125 1.4375q0.875 -1.640625 2.46875 -1.640625q0.5625 0 0.96875 0.125l-0.0625 3.25zm0.45635986 2.359375q0 -1.6875 0.65625 -3.0q0.65625 -1.328125 1.875 -2.03125q1.234375 -0.703125 2.890625 -0.703125q2.53125 0 3.984375 1.5625q1.453125 1.5625 1.453125 4.265625l0 0.125q0 2.625 -1.46875 4.171875q-1.453125 1.546875 -3.953125 1.546875q-2.40625 0 -3.859375 -1.4375q-1.453125 -1.4375 -1.578125 -3.90625l0 -0.59375zm3.5 0.21875q0 1.5625 0.484375 2.296875q0.5 0.71875 1.453125 0.71875q1.875 0 1.921875 -2.890625l0 -0.34375q0 -3.03125 -1.9375 -3.03125q-1.765625 0 -1.90625 2.609375l-0.015625 0.640625z" fill-rule="nonzero"/><path fill="#ffffff" d="m572.98615 128.69371q-0.0625 1.59375 -0.84375 2.8125q-0.78125 1.203125 -2.203125 1.875q-1.40625 0.65625 -3.21875 0.65625q-2.984375 0 -4.703125 -1.9375q-1.71875 -1.953125 -1.71875 -5.5000076l0 -0.75q0 -2.234375 0.765625 -3.90625q0.78125 -1.671875 2.234375 -2.578125q1.46875 -0.90625 3.390625 -0.90625q2.75 0 4.421875 1.453125q1.6875 1.453125 1.90625 4.0l-3.640625 0q-0.03125 -1.390625 -0.6875 -1.984375q-0.65625 -0.609375 -2.0 -0.609375q-1.375 0 -2.015625 1.015625q-0.625 1.015625 -0.65625 3.265625l0 1.0625q0 2.4375076 0.609375 3.4843826q0.609375 1.03125 2.09375 1.03125q1.265625 0 1.921875 -0.59375q0.671875 -0.59375 0.71875 -1.890625l3.625 0zm1.137207 -0.59375q0 -1.6875076 0.65625 -3.0000076q0.65625 -1.328125 1.875 -2.03125q1.234375 -0.703125 2.890625 -0.703125q2.53125 0 3.984375 1.5625q1.453125 1.5625 1.453125 4.2656326l0 0.125q0 2.625 -1.46875 4.171875q-1.453125 1.546875 -3.953125 1.546875q-2.40625 0 -3.859375 -1.4375q-1.453125 -1.4375 -1.578125 -3.90625l0 -0.59375zm3.5 0.21875q0 1.5625 0.484375 2.296875q0.5 0.71875 1.453125 0.71875q1.875 0 1.921875 -2.890625l0 -0.34375q0 -3.0312576 -1.9375 -3.0312576q-1.765625 0 -1.90625 2.609375l-0.015625 0.6406326zm12.132507 -5.7500076l0.125 1.3125q1.15625 -1.515625 3.21875 -1.515625q1.75 0 2.609375 1.046875q0.875 1.046875 0.90625 3.15625l0 7.2656326l-3.515625 0l0 -7.1093826q0 -0.859375 -0.34375 -1.25q-0.34375 -0.40625 -1.25 -0.40625q-1.03125 0 -1.53125 0.8125l0 7.9531326l-3.5 0l0 -11.265633l3.28125 0zm14.71582 8.093758q0 -0.4375 -0.46875 -0.703125q-0.46875 -0.28125 -1.78125 -0.5625q-1.3125 -0.296875 -2.171875 -0.765625q-0.859375 -0.484375 -1.3125 -1.1562576q-0.4375 -0.6875 -0.4375 -1.5625q0 -1.546875 1.28125 -2.546875q1.28125 -1.0 3.359375 -1.0q2.21875 0 3.578125 1.015625q1.359375 1.0 1.359375 2.640625l-3.53125 0q0 -1.359375 -1.421875 -1.359375q-0.546875 0 -0.921875 0.3125q-0.375 0.3125 -0.375 0.765625q0 0.46875 0.453125 0.765625q0.453125 0.28125 1.453125 0.46875q1.015625 0.1875 1.78125 0.453125q2.53125 0.8750076 2.53125 3.1406326q0 1.53125 -1.375 2.5q-1.359375 0.96875 -3.53125 0.96875q-1.453125 0 -2.59375 -0.515625q-1.125 -0.515625 -1.765625 -1.40625q-0.640625 -0.90625 -0.640625 -1.890625l3.28125 0q0.03125 0.78125 0.53125 1.140625q0.5 0.359375 1.28125 0.359375q0.71875 0 1.078125 -0.296875q0.359375 -0.296875 0.359375 -0.765625zm9.111877 -10.890633l0 2.796875l1.84375 0l0 2.4375l-1.84375 0l0 5.1562576q0 0.625 0.21875 0.875q0.234375 0.25 0.90625 0.25q0.53125 0 0.875 -0.0625l0 2.515625q-0.9375 0.296875 -1.96875 0.296875q-1.8125 0 -2.6875 -0.84375q-0.859375 -0.859375 -0.859375 -2.59375l0 -5.5937576l-1.4375 0l0 -2.4375l1.4375 0l0 -2.796875l3.515625 0zm9.571167 14.062508q-0.1875 -0.34375 -0.328125 -1.015625q-0.96875 1.21875 -2.703125 1.21875q-1.59375 0 -2.71875 -0.953125q-1.109375 -0.96875 -1.109375 -2.421875q0 -1.84375 1.34375 -2.7812576q1.359375 -0.9375 3.953125 -0.9375l1.078125 0l0 -0.59375q0 -1.546875 -1.34375 -1.546875q-1.25 0 -1.25 1.234375l-3.515625 0q0 -1.640625 1.390625 -2.65625q1.390625 -1.015625 3.546875 -1.015625q2.15625 0 3.40625 1.046875q1.25 1.046875 1.28125 2.875l0 5.0000076q0.03125 1.546875 0.484375 2.375l0 0.171875l-3.515625 0zm-2.1875 -2.296875q0.65625 0 1.078125 -0.28125q0.4375 -0.28125 0.625 -0.625l0 -1.8125l-1.015625 0q-1.84375 0 -1.84375 1.65625q0 0.46875 0.328125 0.765625q0.328125 0.296875 0.828125 0.296875zm10.382629 -8.968758l0.125 1.3125q1.15625 -1.515625 3.21875 -1.515625q1.75 0 2.609375 1.046875q0.875 1.046875 0.90625 3.15625l0 7.2656326l-3.515625 0l0 -7.1093826q0 -0.859375 -0.34375 -1.25q-0.34375 -0.40625 -1.25 -0.40625q-1.03125 0 -1.53125 0.8125l0 7.9531326l-3.5 0l0 -11.265633l3.28125 0zm12.90332 -2.796875l0 2.796875l1.84375 0l0 2.4375l-1.84375 0l0 5.1562576q0 0.625 0.21875 0.875q0.234375 0.25 0.90625 0.25q0.53125 0 0.875 -0.0625l0 2.515625q-0.9375 0.296875 -1.96875 0.296875q-1.8125 0 -2.6875 -0.84375q-0.859375 -0.859375 -0.859375 -2.59375l0 -5.5937576l-1.4375 0l0 -2.4375l1.4375 0l0 -2.796875l3.515625 0z" fill-rule="nonzero"/><path fill="#000000" fill-opacity="0.0" d="m603.0381 164.77165l0 99.622055" fill-rule="evenodd"/><path stroke="#674ea7" stroke-width="2.0" stroke-linejoin="round" stroke-linecap="butt" d="m603.0381 164.77165l0 87.622055" fill-rule="evenodd"/><path fill="#674ea7" stroke="#674ea7" stroke-width="2.0" stroke-linecap="butt" d="m599.7346 252.3937l3.3034668 9.076202l3.3034668 -9.076202z" fill-rule="evenodd"/><path fill="#000000" fill-opacity="0.0" d="m597.1903 188.77428l86.96063 0l0 42.015747l-86.96063 0z" fill-rule="evenodd"/><path fill="#000000" d="m622.839 213.2099l-4.375 0l-0.765625 2.484375l-3.421875 0l4.875 -13.265625l3.0 0l4.90625 13.265625l-3.4375 0l-0.78125 -2.484375zm-3.609375 -2.46875l2.84375 0l-1.421875 -4.59375l-1.421875 4.59375zm13.738953 -3.90625l2.15625 -4.40625l3.65625 0l-3.703125 6.578125l3.8125 6.6875l-3.6875 0l-2.234375 -4.484375l-2.234375 4.484375l-3.6875 0l3.796875 -6.6875l-3.6875 -6.578125l3.640625 0l2.171875 4.40625zm10.359253 8.859375l-3.1875 0l0 -13.265625l3.1875 0l0 13.265625zm10.145325 -5.1875l1.34375 0l0 2.375l-1.34375 0l0 2.8125l-3.078125 0l0 -2.8125l-5.125 0l-0.1875 -1.875l5.3125 -8.546875l0 -0.03125l3.078125 0l0 8.078125zm-5.453125 0l2.375 0l0 -4.078125l-0.1875 0.3125l-2.1875 3.765625zm15.178833 1.65625q0 -0.703125 -0.5 -1.09375q-0.5 -0.390625 -1.75 -0.796875q-1.234375 -0.421875 -2.03125 -0.8125q-2.578125 -1.265625 -2.578125 -3.484375q0 -1.109375 0.640625 -1.9375q0.640625 -0.84375 1.8125 -1.3125q1.1875 -0.484375 2.640625 -0.484375q1.4375 0 2.5625 0.515625q1.140625 0.515625 1.765625 1.453125q0.640625 0.9375 0.640625 2.15625l-3.1875 0q0 -0.8125 -0.5 -1.25q-0.5 -0.453125 -1.34375 -0.453125q-0.859375 0 -1.359375 0.375q-0.5 0.375 -0.5 0.96875q0 0.5 0.546875 0.921875q0.546875 0.40625 1.921875 0.859375q1.375 0.4375 2.265625 0.953125q2.15625 1.234375 2.15625 3.40625q0 1.75 -1.3125 2.75q-1.3125 0.984375 -3.609375 0.984375q-1.609375 0 -2.921875 -0.578125q-1.296875 -0.578125 -1.96875 -1.578125q-0.65625 -1.015625 -0.65625 -2.328125l3.21875 0q0 1.0625 0.546875 1.578125q0.546875 0.5 1.78125 0.5q0.796875 0 1.25 -0.34375q0.46875 -0.34375 0.46875 -0.96875z" fill-rule="nonzero"/><path fill="#000000" fill-opacity="0.0" d="m544.19293 217.58267l45.51178 0l0 42.015747l-45.51178 0z" fill-rule="evenodd"/><path fill="#351c75" d="m561.932 244.50267l0 -13.265625l4.765625 0q2.5625 0 3.890625 0.9375q1.34375 0.9375 1.34375 2.734375q0 1.015625 -0.484375 1.75q-0.46875 0.734375 -1.390625 1.078125q1.046875 0.265625 1.59375 1.015625q0.5625 0.75 0.5625 1.828125q0 1.9375 -1.234375 2.921875q-1.234375 0.984375 -3.65625 1.0l-5.390625 0zm3.203125 -5.640625l0 3.1875l2.09375 0q0.859375 0 1.328125 -0.390625q0.46875 -0.40625 0.46875 -1.125q0 -1.65625 -1.65625 -1.671875l-2.234375 0zm0 -2.09375l1.65625 0q1.0625 -0.015625 1.5 -0.375q0.453125 -0.375 0.453125 -1.109375q0 -0.84375 -0.484375 -1.203125q-0.484375 -0.375 -1.5625 -0.375l-1.5625 0l0 3.0625z" fill-rule="nonzero"/><path fill="#000000" fill-opacity="0.0" d="m663.68506 316.063l108.566895 0l0 64.62991l-108.566895 0z" fill-rule="evenodd"/><path fill="#000000" d="m700.13684 340.49863l-4.375 0l-0.765625 2.484375l-3.421875 0l4.875 -13.265625l3.0 0l4.90625 13.265625l-3.4375 0l-0.78125 -2.484375zm-3.609375 -2.46875l2.84375 0l-1.421875 -4.59375l-1.421875 4.59375zm13.739014 -3.90625l2.15625 -4.40625l3.65625 0l-3.703125 6.578125l3.8125 6.6875l-3.6875 0l-2.234375 -4.484375l-2.234375 4.484375l-3.6875 0l3.796875 -6.6875l-3.6875 -6.578125l3.640625 0l2.171875 4.40625zm10.359253 8.859375l-3.1875 0l0 -13.265625l3.1875 0l0 13.265625zm10.145264 -5.1875l1.34375 0l0 2.375l-1.34375 0l0 2.8125l-3.078125 0l0 -2.8125l-5.125 0l-0.1875 -1.875l5.3125 -8.546875l0 -0.03125l3.078125 0l0 8.078125zm-5.453125 0l2.375 0l0 -4.078125l-0.1875 0.3125l-2.1875 3.765625zm15.178894 1.65625q0 -0.703125 -0.5 -1.09375q-0.5 -0.390625 -1.75 -0.796875q-1.234375 -0.421875 -2.03125 -0.8125q-2.578125 -1.265625 -2.578125 -3.484375q0 -1.109375 0.640625 -1.9375q0.640625 -0.84375 1.8125 -1.3125q1.1875 -0.484375 2.640625 -0.484375q1.4375 0 2.5625 0.515625q1.140625 0.515625 1.765625 1.453125q0.640625 0.9375 0.640625 2.15625l-3.1875 0q0 -0.8125 -0.5 -1.25q-0.5 -0.453125 -1.34375 -0.453125q-0.859375 0 -1.359375 0.375q-0.5 0.375 -0.5 0.96875q0 0.5 0.546875 0.921875q0.546875 0.40625 1.921875 0.859375q1.375 0.4375 2.265625 0.953125q2.15625 1.234375 2.15625 3.40625q0 1.75 -1.3125 2.75q-1.3125 0.984375 -3.609375 0.984375q-1.609375 0 -2.921875 -0.578125q-1.296875 -0.578125 -1.96875 -1.578125q-0.65625 -1.015625 -0.65625 -2.328125l3.21875 0q0 1.0625 0.546875 1.578125q0.546875 0.5 1.78125 0.5q0.796875 0 1.25 -0.34375q0.46875 -0.34375 0.46875 -0.96875z" fill-rule="nonzero"/><path fill="#000000" d="m675.3959 359.99237q0 -2.21875 0.59375 -4.125q0.59375 -1.921875 1.625 -3.25q1.046875 -1.328125 2.328125 -1.859375l0.578125 1.5q-1.265625 0.953125 -1.96875 2.9375q-0.703125 1.984375 -0.703125 4.671875l0 0.390625q0 2.75 0.6875 4.765625q0.703125 2.015625 1.984375 2.953125l-0.578125 1.5q-1.265625 -0.5 -2.328125 -1.859375q-1.046875 -1.34375 -1.625 -3.21875q-0.578125 -1.890625 -0.59375 -4.0l0 -0.40625zm17.226807 0.90625q-0.0625 1.375 -0.75 2.4375q-0.6875 1.0625 -1.921875 1.65625q-1.234375 0.578125 -2.8125 0.578125q-2.609375 0 -4.125 -1.703125q-1.5 -1.703125 -1.5 -4.8125l0 -0.65625q0 -1.953125 0.671875 -3.40625q0.6875 -1.46875 1.953125 -2.265625q1.28125 -0.796875 2.96875 -0.796875q2.40625 0 3.875 1.28125q1.46875 1.265625 1.671875 3.484375l-3.1875 0q-0.046875 -1.203125 -0.625 -1.734375q-0.5625 -0.53125 -1.734375 -0.53125q-1.203125 0 -1.765625 0.890625q-0.546875 0.890625 -0.578125 2.859375l0 0.9375q0 2.125 0.53125 3.03125q0.546875 0.90625 1.84375 0.90625q1.09375 0 1.671875 -0.515625q0.59375 -0.515625 0.625 -1.640625l3.1875 0zm0.97753906 -0.53125q0 -1.484375 0.578125 -2.625q0.578125 -1.15625 1.640625 -1.765625q1.078125 -0.625 2.53125 -0.625q2.21875 0 3.484375 1.375q1.28125 1.359375 1.28125 3.71875l0 0.109375q0 2.3125 -1.28125 3.671875q-1.28125 1.34375 -3.46875 1.34375q-2.09375 0 -3.375 -1.265625q-1.28125 -1.265625 -1.375 -3.421875l-0.015625 -0.515625zm3.078125 0.1875q0 1.359375 0.421875 2.0q0.4375 0.640625 1.265625 0.640625q1.640625 0 1.6875 -2.515625l0 -0.3125q0 -2.65625 -1.703125 -2.65625q-1.53125 0 -1.671875 2.28125l0 0.5625zm10.694641 -5.03125l0.09375 1.15625q1.046875 -1.328125 2.8125 -1.328125q1.875 0 2.53125 1.484375q1.0 -1.484375 2.890625 -1.484375q3.0 0 3.078125 3.625l0 6.40625l-3.078125 0l0 -6.21875q0 -0.765625 -0.25 -1.109375q-0.25 -0.34375 -0.9375 -0.34375q-0.90625 0 -1.34375 0.8125l0 0.125l0 6.734375l-3.078125 0l0 -6.203125q0 -0.78125 -0.25 -1.125q-0.234375 -0.34375 -0.9375 -0.34375q-0.875 0 -1.34375 0.8125l0 6.859375l-3.0625 0l0 -9.859375l2.875 0zm22.319153 5.0q0 2.296875 -1.046875 3.671875q-1.03125 1.375 -2.78125 1.375q-1.359375 0 -2.234375 -1.0l0 4.609375l-3.0625 0l0 -13.65625l2.859375 0l0.09375 0.90625q0.890625 -1.078125 2.328125 -1.078125q1.8125 0 2.828125 1.34375q1.015625 1.34375 1.015625 3.6875l0 0.140625zm-3.078125 -0.1875q0 -2.625 -1.53125 -2.625q-1.09375 0 -1.453125 0.78125l0 3.890625q0.40625 0.8125 1.46875 0.8125q1.46875 0 1.515625 -2.53125l0 -0.328125zm7.659546 5.046875l-3.078125 0l0 -14.0l3.078125 0l0 14.0zm6.659851 0.1875q-2.265625 0 -3.671875 -1.34375q-1.390625 -1.359375 -1.390625 -3.53125l0 -0.265625q0 -1.5 0.546875 -2.65625q0.5625 -1.15625 1.640625 -1.78125q1.078125 -0.640625 2.546875 -0.640625q2.078125 0 3.28125 1.296875q1.203125 1.28125 1.203125 3.578125l0 1.1875l-6.09375 0q0.15625 0.828125 0.703125 1.3125q0.5625 0.46875 1.453125 0.46875q1.453125 0 2.265625 -1.015625l1.40625 1.65625q-0.5625 0.796875 -1.625 1.265625q-1.046875 0.46875 -2.265625 0.46875zm-0.34375 -7.859375q-1.34375 0 -1.59375 1.78125l3.09375 0l0 -0.234375q0.015625 -0.734375 -0.375 -1.140625q-0.390625 -0.40625 -1.125 -0.40625zm9.7352295 0.53125l1.421875 -2.71875l3.1875 0l-2.59375 4.796875l2.71875 5.0625l-3.203125 0l-1.546875 -2.921875l-1.515625 2.921875l-3.234375 0l2.734375 -5.0625l-2.578125 -4.796875l3.21875 0l1.390625 2.71875zm10.44519 2.0q0 2.140625 -0.625 4.0625q-0.625 1.921875 -1.734375 3.296875q-1.109375 1.390625 -2.390625 1.875l-0.59375 -1.5q1.265625 -0.953125 1.953125 -2.921875q0.703125 -1.96875 0.734375 -4.53125l0 -0.546875q0 -2.75 -0.703125 -4.75q-0.6875 -2.015625 -1.984375 -2.96875l0.59375 -1.5q1.265625 0.5 2.359375 1.859375q1.109375 1.34375 1.734375 3.25q0.640625 1.890625 0.65625 3.984375l0 0.390625z" fill-rule="nonzero"/><path fill="#000000" fill-opacity="0.0" d="m663.6063 314.6614l108.566895 0" fill-rule="evenodd"/><path stroke="#674ea7" stroke-width="2.0" stroke-linejoin="round" stroke-linecap="butt" d="m663.6063 314.6614l96.566895 0" fill-rule="evenodd"/><path fill="#674ea7" stroke="#674ea7" stroke-width="2.0" stroke-linecap="butt" d="m760.1732 317.96487l9.076233 -3.3034668l-9.076233 -3.3034668z" fill-rule="evenodd"/><path fill="#8e7cc3" d="m27.767717 632.7874l121.133865 0l0 102.834656l-121.133865 0z" fill-rule="evenodd"/><path fill="#ffffff" d="m75.10047 671.6535q0 -0.796875 -0.578125 -1.25q-0.5625 -0.453125 -1.984375 -0.921875q-1.421875 -0.484375 -2.328125 -0.9375q-2.953125 -1.4375 -2.953125 -3.96875q0 -1.265625 0.734375 -2.21875q0.734375 -0.96875 2.078125 -1.5q1.34375 -0.546875 3.015625 -0.546875q1.640625 0 2.9375 0.59375q1.296875 0.578125 2.015625 1.65625q0.71875 1.078125 0.71875 2.453125l-3.640625 0q0 -0.921875 -0.578125 -1.421875q-0.5625 -0.515625 -1.53125 -0.515625q-0.984375 0 -1.546875 0.4375q-0.5625 0.421875 -0.5625 1.09375q0 0.578125 0.625 1.0625q0.625 0.46875 2.1875 0.96875q1.578125 0.5 2.59375 1.09375q2.453125 1.40625 2.453125 3.90625q0 1.984375 -1.5 3.125q-1.5 1.125 -4.109375 1.125q-1.84375 0 -3.34375 -0.65625q-1.5 -0.65625 -2.25 -1.8125q-0.75 -1.15625 -0.75 -2.65625l3.65625 0q0 1.21875 0.625 1.796875q0.640625 0.578125 2.0625 0.578125q0.90625 0 1.421875 -0.390625q0.53125 -0.390625 0.53125 -1.09375zm15.819656 -1.515625q0 2.625 -1.1875 4.1875q-1.171875 1.5625 -3.171875 1.5625q-1.5625 0 -2.5625 -1.125l0 5.25l-3.5 0l0 -15.59375l3.28125 0l0.09375 1.03125q1.015625 -1.234375 2.65625 -1.234375q2.09375 0 3.234375 1.53125q1.15625 1.53125 1.15625 4.21875l0 0.171875zm-3.5 -0.21875q0 -3.0 -1.75 -3.0q-1.25 0 -1.671875 0.890625l0 4.4375q0.46875 0.9375 1.6875 0.9375q1.6875 0 1.734375 -2.890625l0 -0.375zm8.757484 5.765625l-3.515625 0l0 -16.0l3.515625 0l0 16.0zm5.863159 0l-3.515625 0l0 -11.265625l3.515625 0l0 11.265625zm-3.734375 -14.171875q0 -0.75 0.546875 -1.21875q0.546875 -0.484375 1.40625 -0.484375q0.859375 0 1.40625 0.484375q0.546875 0.46875 0.546875 1.21875q0 0.75 -0.546875 1.234375q-0.546875 0.46875 -1.40625 0.46875q-0.859375 0 -1.40625 -0.46875q-0.546875 -0.484375 -0.546875 -1.234375zm9.988159 0.109375l0 2.796875l1.84375 0l0 2.4375l-1.84375 0l0 5.15625q0 0.625 0.21875 0.875q0.234375 0.25 0.90625 0.25q0.53125 0 0.875 -0.0625l0 2.515625q-0.9375 0.296875 -1.96875 0.296875q-1.8125 0 -2.6875 -0.84375q-0.859375 -0.859375 -0.859375 -2.59375l0 -5.59375l-1.4375 0l0 -2.4375l1.4375 0l0 -2.796875l3.515625 0z" fill-rule="nonzero"/><path fill="#ffffff" d="m70.07065 701.8566l-5.015625 0l-0.875 2.828125l-3.9062538 0l5.562504 -15.15625l3.4375 0l5.59375 15.15625l-3.921875 0l-0.875 -2.828125zm-4.140625 -2.828125l3.265625 0l-1.640625 -5.25l-1.625 5.25zm21.526413 -2.953125l3.546875 0l0 3.015625l-3.546875 0l0 4.078125l-3.28125 0l0 -4.078125l-3.5625 0l0 -3.015625l3.5625 0l0 -3.953125l3.28125 0l0 3.953125zm14.157379 -2.65625l0 11.65625q-0.015625 2.0 -1.15625 3.078125q-1.125 1.078125 -3.15625 1.078125q-0.875 0 -1.65625 -0.171875l0 -2.65625q0.59375 0.09375 0.984375 0.09375q1.453125 0 1.453125 -1.453125l0 -11.625l3.53125 0zm-3.78125 -2.90625q0 -0.75 0.53125 -1.21875q0.546875 -0.484375 1.40625 -0.484375q0.875 0 1.40625 0.484375q0.546875 0.46875 0.546875 1.21875q0 0.75 -0.546875 1.234375q-0.53125 0.46875 -1.40625 0.46875q-0.859375 0 -1.40625 -0.46875q-0.53125 -0.484375 -0.53125 -1.234375zm5.915268 14.171875l0 -15.15625l5.453125 0q2.921875 0 4.4375 1.078125q1.53125 1.0625 1.53125 3.109375q0 1.171875 -0.546875 2.0q-0.53125 0.828125 -1.578125 1.234375q1.1875 0.3125 1.8125 1.171875q0.640625 0.84375 0.640625 2.078125q0 2.21875 -1.40625 3.34375q-1.40625 1.125 -4.1875 1.140625l-6.15625 0zm3.65625 -6.453125l0 3.640625l2.40625 0q0.984375 0 1.515625 -0.453125q0.53125 -0.453125 0.53125 -1.28125q0 -1.890625 -1.890625 -1.90625l-2.5625 0zm0 -2.390625l1.90625 0q1.203125 -0.015625 1.703125 -0.4375q0.515625 -0.421875 0.515625 -1.265625q0 -0.953125 -0.546875 -1.375q-0.546875 -0.421875 -1.78125 -0.421875l-1.796875 0l0 3.5z" fill-rule="nonzero"/><path fill="#000000" fill-opacity="0.0" d="m415.9475 445.23096l108.566956 0l0 64.629944l-108.566956 0z" fill-rule="evenodd"/><path fill="#000000" d="m452.39935 469.6666l-4.375 0l-0.765625 2.484375l-3.421875 0l4.875 -13.265625l3.0 0l4.90625 13.265625l-3.4375 0l-0.78125 -2.484375zm-3.609375 -2.46875l2.84375 0l-1.421875 -4.59375l-1.421875 4.59375zm13.738983 -3.90625l2.15625 -4.40625l3.65625 0l-3.703125 6.578125l3.8125 6.6875l-3.6875 0l-2.234375 -4.484375l-2.234375 4.484375l-3.6875 0l3.796875 -6.6875l-3.6875 -6.578125l3.640625 0l2.171875 4.40625zm10.359253 8.859375l-3.1875 0l0 -13.265625l3.1875 0l0 13.265625zm10.145264 -5.1875l1.34375 0l0 2.375l-1.34375 0l0 2.8125l-3.078125 0l0 -2.8125l-5.1249695 0l-0.1875 -1.875l5.3124695 -8.546875l0 -0.03125l3.078125 0l0 8.078125zm-5.4530945 0l2.3749695 0l0 -4.078125l-0.18746948 0.3125l-2.1875 3.765625zm15.178833 1.65625q0 -0.703125 -0.5 -1.09375q-0.5 -0.390625 -1.75 -0.796875q-1.234375 -0.421875 -2.03125 -0.8125q-2.578125 -1.265625 -2.578125 -3.484375q0 -1.109375 0.640625 -1.9375q0.640625 -0.84375 1.8125 -1.3125q1.1875 -0.484375 2.640625 -0.484375q1.4375 0 2.5625 0.515625q1.140625 0.515625 1.765625 1.453125q0.640625 0.9375 0.640625 2.15625l-3.1875 0q0 -0.8125 -0.5 -1.25q-0.5 -0.453125 -1.34375 -0.453125q-0.859375 0 -1.359375 0.375q-0.5 0.375 -0.5 0.96875q0 0.5 0.546875 0.921875q0.546875 0.40625 1.921875 0.859375q1.375 0.4375 2.265625 0.953125q2.15625 1.234375 2.15625 3.40625q0 1.75 -1.3125 2.75q-1.3125 0.984375 -3.609375 0.984375q-1.609375 0 -2.921875 -0.578125q-1.296875 -0.578125 -1.96875 -1.578125q-0.65625 -1.015625 -0.65625 -2.328125l3.21875 0q0 1.0625 0.546875 1.578125q0.546875 0.5 1.78125 0.5q0.796875 0 1.25 -0.34375q0.46875 -0.34375 0.46875 -0.96875z" fill-rule="nonzero"/><path fill="#000000" d="m427.65836 489.16034q0 -2.21875 0.59375 -4.125q0.59375 -1.921875 1.625 -3.25q1.046875 -1.328125 2.328125 -1.859375l0.578125 1.5q-1.265625 0.953125 -1.96875 2.9375q-0.703125 1.984375 -0.703125 4.671875l0 0.390625q0 2.75 0.6875 4.765625q0.703125 2.015625 1.984375 2.953125l-0.578125 1.5q-1.265625 -0.5 -2.328125 -1.859375q-1.046875 -1.34375 -1.625 -3.21875q-0.578125 -1.890625 -0.59375 -4.0l0 -0.40625zm17.226776 0.90625q-0.0625 1.375 -0.75 2.4375q-0.6875 1.0625 -1.921875 1.65625q-1.234375 0.578125 -2.8125 0.578125q-2.609375 0 -4.125 -1.703125q-1.5 -1.703125 -1.5 -4.8125l0 -0.65625q0 -1.953125 0.671875 -3.40625q0.6875 -1.46875 1.953125 -2.265625q1.28125 -0.796875 2.96875 -0.796875q2.40625 0 3.875 1.28125q1.46875 1.265625 1.671875 3.484375l-3.1875 0q-0.046875 -1.203125 -0.625 -1.734375q-0.5625 -0.53125 -1.734375 -0.53125q-1.203125 0 -1.765625 0.890625q-0.546875 0.890625 -0.578125 2.859375l0 0.9375q0 2.125 0.53125 3.03125q0.546875 0.90625 1.84375 0.90625q1.09375 0 1.671875 -0.515625q0.59375 -0.515625 0.625 -1.640625l3.1875 0zm0.97753906 -0.53125q0 -1.484375 0.578125 -2.625q0.578125 -1.15625 1.640625 -1.765625q1.078125 -0.625 2.53125 -0.625q2.21875 0 3.484375 1.375q1.28125 1.359375 1.28125 3.71875l0 0.109375q0 2.3125 -1.28125 3.671875q-1.28125 1.34375 -3.46875 1.34375q-2.09375 0 -3.375 -1.265625q-1.28125 -1.265625 -1.375 -3.421875l-0.015625 -0.515625zm3.078125 0.1875q0 1.359375 0.421875 2.0q0.4375 0.640625 1.265625 0.640625q1.640625 0 1.6875 -2.515625l0 -0.3125q0 -2.65625 -1.703125 -2.65625q-1.53125 0 -1.671875 2.28125l0 0.5625zm10.694672 -5.03125l0.09375 1.15625q1.046875 -1.328125 2.8125 -1.328125q1.875 0 2.53125 1.484375q1.0 -1.484375 2.890625 -1.484375q3.0 0 3.078125 3.625l0 6.40625l-3.078125 0l0 -6.21875q0 -0.765625 -0.25 -1.109375q-0.25 -0.34375 -0.9375 -0.34375q-0.90625 0 -1.34375 0.8125l0 0.125l0 6.734375l-3.078125 0l0 -6.203125q0 -0.78125 -0.25 -1.125q-0.234375 -0.34375 -0.9375 -0.34375q-0.875 0 -1.34375 0.8125l0 6.859375l-3.0625 0l0 -9.859375l2.875 0zm22.319153 5.0q0 2.296875 -1.046875 3.671875q-1.03125 1.375 -2.78125 1.375q-1.359375 0 -2.234375 -1.0l0 4.609375l-3.0625 0l0 -13.65625l2.859375 0l0.09375 0.90625q0.890625 -1.078125 2.328125 -1.078125q1.8125 0 2.828125 1.34375q1.015625 1.34375 1.015625 3.6875l0 0.140625zm-3.078125 -0.1875q0 -2.625 -1.53125 -2.625q-1.09375 0 -1.453125 0.78125l0 3.890625q0.40625 0.8125 1.46875 0.8125q1.46875 0 1.515625 -2.53125l0 -0.328125zm7.6595154 5.046875l-3.078125 0l0 -14.0l3.078125 0l0 14.0zm6.6598816 0.1875q-2.265625 0 -3.671875 -1.34375q-1.390625 -1.359375 -1.390625 -3.53125l0 -0.265625q0 -1.5 0.546875 -2.65625q0.5625 -1.15625 1.640625 -1.78125q1.078125 -0.640625 2.546875 -0.640625q2.078125 0 3.28125 1.296875q1.203125 1.28125 1.203125 3.578125l0 1.1875l-6.09375 0q0.15625 0.828125 0.703125 1.3125q0.5625 0.46875 1.453125 0.46875q1.453125 0 2.265625 -1.015625l1.40625 1.65625q-0.5625 0.796875 -1.625 1.265625q-1.046875 0.46875 -2.265625 0.46875zm-0.34375 -7.859375q-1.34375 0 -1.59375 1.78125l3.09375 0l0 -0.234375q0.015625 -0.734375 -0.375 -1.140625q-0.390625 -0.40625 -1.125 -0.40625zm9.7352295 0.53125l1.421875 -2.71875l3.1875 0l-2.59375 4.796875l2.71875 5.0625l-3.203125 0l-1.546875 -2.921875l-1.515625 2.921875l-3.234375 0l2.734375 -5.0625l-2.578125 -4.796875l3.21875 0l1.390625 2.71875zm10.44516 2.0q0 2.140625 -0.625 4.0625q-0.625 1.921875 -1.734375 3.296875q-1.109375 1.390625 -2.390625 1.875l-0.59375 -1.5q1.265625 -0.953125 1.953125 -2.921875q0.703125 -1.96875 0.734375 -4.53125l0 -0.546875q0 -2.75 -0.703125 -4.75q-0.6875 -2.015625 -1.984375 -2.96875l0.59375 -1.5q1.265625 0.5 2.359375 1.859375q1.109375 1.34375 1.734375 3.25q0.640625 1.890625 0.65625 3.984375l0 0.390625z" fill-rule="nonzero"/><path fill="#000000" fill-opacity="0.0" d="m1009.87384 314.6614l27.744568 0l0 209.09128l-1037.6191 0l0 160.45203l27.764257 0" fill-rule="evenodd"/><path stroke="#674ea7" stroke-width="2.0" stroke-linejoin="round" stroke-linecap="butt" d="m1009.87384 314.6614l27.744568 0l0 209.09128l-1037.6191 0l0 160.45203l15.764257 0" fill-rule="evenodd"/><path fill="#674ea7" stroke="#674ea7" stroke-width="2.0" stroke-linecap="butt" d="m15.763585 687.5082l9.076196 -3.3034668l-9.076196 -3.3034668z" fill-rule="evenodd"/><path fill="#8e7cc3" d="m256.53412 538.17584l121.13385 0l0 102.834656l-121.13385 0z" fill-rule="evenodd"/><path fill="#ffffff" d="m302.07065 592.74506l-5.015625 0l-0.875 2.828125l-3.90625 0l5.5625 -15.15625l3.4375 0l5.59375 15.15625l-3.921875 0l-0.875 -2.828125zm-4.140625 -2.828125l3.265625 0l-1.640625 -5.25l-1.625 5.25zm17.885773 -4.296875l-3.40625 -0.9375l0.6875 -1.96875l3.3125 1.359375l-0.25 -3.65625l2.21875 0l-0.265625 3.734375l3.234375 -1.328125l0.671875 1.984375l-3.4375 0.9375l2.28125 2.75l-1.796875 1.234375l-1.90625 -3.0625l-1.921875 2.953125l-1.796875 -1.171875l2.375 -2.828125zm21.319214 7.125l-5.015625 0l-0.875 2.828125l-3.90625 0l5.5625 -15.15625l3.4375 0l5.59375 15.15625l-3.921875 0l-0.875 -2.828125zm-4.140625 -2.828125l3.265625 0l-1.640625 -5.25l-1.625 5.25z" fill-rule="nonzero"/><path fill="#8e7cc3" d="m256.53412 727.3989l121.13385 0l0 102.834656l-121.13385 0z" fill-rule="evenodd"/><path fill="#ffffff" d="m302.07065 781.96814l-5.015625 0l-0.875 2.828125l-3.90625 0l5.5625 -15.15625l3.4375 0l5.59375 15.15625l-3.921875 0l-0.875 -2.828125zm-4.140625 -2.828125l3.265625 0l-1.640625 -5.25l-1.625 5.25zm17.885773 -4.296875l-3.40625 -0.9375l0.6875 -1.96875l3.3125 1.359375l-0.25 -3.65625l2.21875 0l-0.265625 3.734375l3.234375 -1.328125l0.671875 1.984375l-3.4375 0.9375l2.28125 2.75l-1.796875 1.234375l-1.90625 -3.0625l-1.921875 2.953125l-1.796875 -1.171875l2.375 -2.828125zm21.319214 7.125l-5.015625 0l-0.875 2.828125l-3.90625 0l5.5625 -15.15625l3.4375 0l5.59375 15.15625l-3.921875 0l-0.875 -2.828125zm-4.140625 -2.828125l3.265625 0l-1.640625 -5.25l-1.625 5.25z" fill-rule="nonzero"/><path fill="#000000" fill-opacity="0.0" d="m88.33465 632.7874l0 -43.18109l168.18896 0" fill-rule="evenodd"/><path stroke="#674ea7" stroke-width="2.0" stroke-linejoin="round" stroke-linecap="butt" d="m88.33465 632.7874l0 -43.18109l156.18896 0" fill-rule="evenodd"/><path fill="#674ea7" stroke="#674ea7" stroke-width="2.0" stroke-linecap="butt" d="m244.52362 592.9098l9.076202 -3.3034668l-9.076202 -3.3034668z" fill-rule="evenodd"/><path fill="#000000" fill-opacity="0.0" d="m256.52362 778.80316l-168.18896 0l0 -43.18109" fill-rule="evenodd"/><path stroke="#674ea7" stroke-width="2.0" stroke-linejoin="round" stroke-linecap="butt" d="m244.52362 778.80316l-156.18896 0l0 -43.18109" fill-rule="evenodd"/><path fill="#674ea7" stroke="#674ea7" stroke-width="2.0" stroke-linecap="butt" d="m244.52362 782.1066l9.076202 -3.3034668l-9.076202 -3.3034668z" fill-rule="evenodd"/><path fill="#000000" fill-opacity="0.0" d="m38.66142 590.18896l45.511806 0l0 42.015747l-45.511806 0z" fill-rule="evenodd"/><path fill="#351c75" d="m63.5947 614.6246l-4.375 0l-0.765625 2.484375l-3.421875 0l4.875 -13.265625l3.0 0l4.906246 13.265625l-3.4375 0l-0.7812462 -2.484375zm-3.609375 -2.46875l2.84375 0l-1.421875 -4.59375l-1.421875 4.59375z" fill-rule="nonzero"/><path fill="#000000" fill-opacity="0.0" d="m42.81365 736.7874l45.511814 0l0 42.015747l-45.511814 0z" fill-rule="evenodd"/><path fill="#351c75" d="m60.55273 763.7074l0 -13.265625l4.765629 0q2.5625 0 3.890625 0.9375q1.34375 0.9375 1.34375 2.734375q0 1.015625 -0.484375 1.75q-0.46875 0.734375 -1.390625 1.078125q1.046875 0.265625 1.59375 1.015625q0.5625 0.75 0.5625 1.828125q0 1.9375 -1.234375 2.921875q-1.234375 0.984375 -3.65625 1.0l-5.390629 0zm3.203125 -5.640625l0 3.1875l2.0937538 0q0.859375 0 1.328125 -0.390625q0.46875 -0.40625 0.46875 -1.125q0 -1.65625 -1.65625 -1.671875l-2.2343788 0zm0 -2.09375l1.6562538 0q1.0625 -0.015625 1.5 -0.375q0.453125 -0.375 0.453125 -1.109375q0 -0.84375 -0.484375 -1.203125q-0.484375 -0.375 -1.5625 -0.375l-1.5625038 0l0 3.0625z" fill-rule="nonzero"/><path fill="#8e7cc3" d="m485.30054 632.7874l121.13385 0l0 102.834656l-121.13385 0z" fill-rule="evenodd"/><path fill="#ffffff" d="m530.483 687.3566l-5.015625 0l-0.875 2.828125l-3.90625 0l5.5625 -15.15625l3.4375 0l5.59375 15.15625l-3.921875 0l-0.875 -2.828125zm-4.140625 -2.828125l3.265625 0l-1.640625 -5.25l-1.625 5.25zm21.526428 -2.953125l3.546875 0l0 3.015625l-3.546875 0l0 4.078125l-3.28125 0l0 -4.078125l-3.5625 0l0 -3.015625l3.5625 0l0 -3.953125l3.28125 0l0 3.953125zm10.532349 8.609375l0 -15.15625l5.453125 0q2.921875 0 4.4375 1.078125q1.53125 1.0625 1.53125 3.109375q0 1.171875 -0.546875 2.0q-0.53125 0.828125 -1.578125 1.234375q1.1875 0.3125 1.8125 1.171875q0.640625 0.84375 0.640625 2.078125q0 2.21875 -1.40625 3.34375q-1.40625 1.125 -4.1875 1.140625l-6.15625 0zm3.65625 -6.453125l0 3.640625l2.40625 0q0.984375 0 1.515625 -0.453125q0.53125 -0.453125 0.53125 -1.28125q0 -1.890625 -1.890625 -1.90625l-2.5625 0zm0 -2.390625l1.90625 0q1.203125 -0.015625 1.703125 -0.4375q0.515625 -0.421875 0.515625 -1.265625q0 -0.953125 -0.546875 -1.375q-0.546875 -0.421875 -1.78125 -0.421875l-1.796875 0l0 3.5z" fill-rule="nonzero"/><path fill="#8e7cc3" d="m684.15094 632.7874l121.13385 0l0 102.834656l-121.13385 0z" fill-rule="evenodd"/><path fill="#ffffff" d="m719.59595 671.6535q0 -0.796875 -0.578125 -1.25q-0.5625 -0.453125 -1.984375 -0.921875q-1.421875 -0.484375 -2.328125 -0.9375q-2.953125 -1.4375 -2.953125 -3.96875q0 -1.265625 0.734375 -2.21875q0.734375 -0.96875 2.078125 -1.5q1.34375 -0.546875 3.015625 -0.546875q1.640625 0 2.9375 0.59375q1.296875 0.578125 2.015625 1.65625q0.71875 1.078125 0.71875 2.453125l-3.640625 0q0 -0.921875 -0.578125 -1.421875q-0.5625 -0.515625 -1.53125 -0.515625q-0.984375 0 -1.546875 0.4375q-0.5625 0.421875 -0.5625 1.09375q0 0.578125 0.625 1.0625q0.625 0.46875 2.1875 0.96875q1.578125 0.5 2.59375 1.09375q2.453125 1.40625 2.453125 3.90625q0 1.984375 -1.5 3.125q-1.5 1.125 -4.109375 1.125q-1.84375 0 -3.34375 -0.65625q-1.5 -0.65625 -2.25 -1.8125q-0.75 -1.15625 -0.75 -2.65625l3.65625 0q0 1.21875 0.625 1.796875q0.640625 0.578125 2.0625 0.578125q0.90625 0 1.421875 -0.390625q0.53125 -0.390625 0.53125 -1.09375zm4.929077 -1.71875q0 -2.6875 1.15625 -4.203125q1.171875 -1.515625 3.21875 -1.515625q1.734375 0 2.78125 1.40625l0.25 -1.203125l3.03125 0l0 15.59375l-3.515625 0l0 -5.265625q-1.015625 1.140625 -2.5625 1.140625q-2.0 0 -3.1875 -1.546875q-1.171875 -1.546875 -1.171875 -4.40625zm3.5 0.21875q0 3.03125 1.75 3.03125q1.21875 0 1.671875 -0.921875l0 -4.453125q-0.4375 -0.890625 -1.640625 -0.890625q-1.640625 0 -1.765625 2.609375l-0.015625 0.625zm15.642883 4.3125q-1.125 1.421875 -3.015625 1.421875q-1.859375 0 -2.8125 -1.078125q-0.953125 -1.078125 -0.953125 -3.09375l0 -7.296875l3.515625 0l0 7.3125q0 1.453125 1.40625 1.453125q1.203125 0 1.71875 -0.859375l0 -7.90625l3.53125 0l0 11.265625l-3.296875 0l-0.09375 -1.21875zm11.65332 1.21875q-0.1875 -0.34375 -0.328125 -1.015625q-0.96875 1.21875 -2.703125 1.21875q-1.59375 0 -2.71875 -0.953125q-1.109375 -0.96875 -1.109375 -2.421875q0 -1.84375 1.34375 -2.78125q1.359375 -0.9375 3.953125 -0.9375l1.078125 0l0 -0.59375q0 -1.546875 -1.34375 -1.546875q-1.25 0 -1.25 1.234375l-3.515625 0q0 -1.640625 1.390625 -2.65625q1.390625 -1.015625 3.546875 -1.015625q2.15625 0 3.40625 1.046875q1.25 1.046875 1.28125 2.875l0 5.0q0.03125 1.546875 0.484375 2.375l0 0.171875l-3.515625 0zm-2.1875 -2.296875q0.65625 0 1.078125 -0.28125q0.4375 -0.28125 0.625 -0.625l0 -1.8125l-1.015625 0q-1.84375 0 -1.84375 1.65625q0 0.46875 0.328125 0.765625q0.328125 0.296875 0.828125 0.296875zm13.97644 -5.796875l-1.15625 -0.078125q-1.65625 0 -2.125 1.03125l0 7.140625l-3.5 0l0 -11.265625l3.28125 0l0.125 1.4375q0.875 -1.640625 2.46875 -1.640625q0.5625 0 0.96875 0.125l-0.0625 3.25zm6.524048 8.296875q-2.59375 0 -4.203125 -1.546875q-1.59375 -1.546875 -1.59375 -4.015625l0 -0.296875q0 -1.734375 0.640625 -3.046875q0.640625 -1.328125 1.859375 -2.046875q1.234375 -0.71875 2.921875 -0.71875q2.375 0 3.75 1.46875q1.375 1.46875 1.375 4.109375l0 1.359375l-6.984375 0q0.1875 0.953125 0.828125 1.5q0.640625 0.53125 1.640625 0.53125q1.671875 0 2.609375 -1.171875l1.59375 1.90625q-0.640625 0.90625 -1.84375 1.4375q-1.203125 0.53125 -2.59375 0.53125zm-0.390625 -8.96875q-1.546875 0 -1.84375 2.03125l3.546875 0l0 -0.265625q0.015625 -0.84375 -0.4375 -1.296875q-0.4375 -0.46875 -1.265625 -0.46875z" fill-rule="nonzero"/><path fill="#ffffff" d="m728.90564 699.3254l-1.984375 0l0 5.359375l-3.65625 0l0 -15.15625l5.96875 0q2.703125 0 4.21875 1.203125q1.515625 1.1875 1.515625 3.375q0 1.578125 -0.640625 2.625q-0.640625 1.03125 -2.0 1.6875l3.171875 6.109375l0 0.15625l-3.921875 0l-2.671875 -5.359375zm-1.984375 -2.8125l2.3125 0q1.046875 0 1.5625 -0.546875q0.53125 -0.546875 0.53125 -1.515625q0 -0.984375 -0.53125 -1.546875q-0.53125 -0.5625 -1.5625 -0.5625l-2.3125 0l0 4.171875zm9.663269 2.4375q0 -1.6875 0.65625 -3.0q0.65625 -1.328125 1.875 -2.03125q1.234375 -0.703125 2.890625 -0.703125q2.53125 0 3.984375 1.5625q1.453125 1.5625 1.453125 4.265625l0 0.125q0 2.625 -1.46875 4.171875q-1.453125 1.546875 -3.953125 1.546875q-2.40625 0 -3.859375 -1.4375q-1.453125 -1.4375 -1.578125 -3.90625l0 -0.59375zm3.5 0.21875q0 1.5625 0.484375 2.296875q0.5 0.71875 1.453125 0.71875q1.875 0 1.921875 -2.890625l0 -0.34375q0 -3.03125 -1.9375 -3.03125q-1.765625 0 -1.90625 2.609375l-0.015625 0.640625zm8.476257 -0.21875q0 -1.6875 0.65625 -3.0q0.65625 -1.328125 1.875 -2.03125q1.234375 -0.703125 2.890625 -0.703125q2.53125 0 3.984375 1.5625q1.453125 1.5625 1.453125 4.265625l0 0.125q0 2.625 -1.46875 4.171875q-1.453125 1.546875 -3.953125 1.546875q-2.40625 0 -3.859375 -1.4375q-1.453125 -1.4375 -1.578125 -3.90625l0 -0.59375zm3.5 0.21875q0 1.5625 0.484375 2.296875q0.5 0.71875 1.453125 0.71875q1.875 0 1.921875 -2.890625l0 -0.34375q0 -3.03125 -1.9375 -3.03125q-1.765625 0 -1.90625 2.609375l-0.015625 0.640625zm13.007507 -8.546875l0 2.796875l1.84375 0l0 2.4375l-1.84375 0l0 5.15625q0 0.625 0.21875 0.875q0.234375 0.25 0.90625 0.25q0.53125 0 0.875 -0.0625l0 2.515625q-0.9375 0.296875 -1.96875 0.296875q-1.8125 0 -2.6875 -0.84375q-0.859375 -0.859375 -0.859375 -2.59375l0 -5.59375l-1.4375 0l0 -2.4375l1.4375 0l0 -2.796875l3.515625 0z" fill-rule="nonzero"/><path fill="#8e7cc3" d="m883.00134 632.7874l121.13385 0l0 102.834656l-121.13385 0z" fill-rule="evenodd"/><path fill="#ffffff" d="m910.0116 655.1379l-5.890625 0l0 6.046875l-3.65625 0l0 -15.15625l10.140625 0l0 2.8125l-6.484375 0l0 3.484375l5.890625 0l0 2.8125zm5.7731934 3.234375l6.359375 0l0 2.8125l-10.015625 0l0 -15.15625l3.65625 0l0 12.34375zm20.080505 -4.453125q0 2.21875 -0.828125 3.921875q-0.8125 1.703125 -2.328125 2.625q-1.515625 0.921875 -3.453125 0.921875q-1.9375 0 -3.4375 -0.890625q-1.5 -0.890625 -2.34375 -2.546875q-0.828125 -1.65625 -0.875 -3.796875l0 -0.859375q0 -2.21875 0.8125 -3.921875q0.828125 -1.703125 2.34375 -2.625q1.53125 -0.9375 3.484375 -0.9375q1.921875 0 3.421875 0.921875q1.515625 0.921875 2.34375 2.609375q0.84375 1.6875 0.859375 3.875l0 0.703125zm-3.71875 -0.640625q0 -2.265625 -0.75 -3.421875q-0.75 -1.171875 -2.15625 -1.171875q-2.75 0 -2.90625 4.109375l-0.015625 1.125q0 2.21875 0.734375 3.421875q0.75 1.203125 2.203125 1.203125q1.390625 0 2.140625 -1.171875q0.75 -1.1875 0.75 -3.390625l0 -0.703125zm14.006836 5.078125l-5.015625 0l-0.875 2.828125l-3.90625 0l5.5625 -15.15625l3.4375 0l5.59375 15.15625l-3.921875 0l-0.875 -2.828125zm-4.140625 -2.828125l3.265625 0l-1.640625 -5.25l-1.625 5.25zm20.699585 -6.6875l-4.546875 0l0 12.34375l-3.65625 0l0 -12.34375l-4.46875 0l0 -2.8125l12.671875 0l0 2.8125zm9.100891 12.34375l-3.515625 0l0 -11.203125l-3.453125 1.0l0 -2.65625l6.65625 -2.296875l0.3125 0l0 15.15625zm13.05426 -15.375l0 2.75l-0.15625 0q-1.96875 0 -3.234375 0.953125q-1.265625 0.9375 -1.5625 2.609375q1.1875 -1.171875 3.0 -1.171875q1.96875 0 3.125 1.4375q1.171875 1.4375 1.171875 3.78125q0 1.4375 -0.6875 2.65625q-0.671875 1.203125 -1.890625 1.890625q-1.21875 0.671875 -2.71875 0.671875q-1.609375 0 -2.890625 -0.734375q-1.265625 -0.734375 -1.96875 -2.09375q-0.703125 -1.359375 -0.734375 -3.140625l0 -1.40625q0 -2.34375 1.0 -4.203125q1.015625 -1.875 2.875 -2.9375q1.875 -1.0625 4.140625 -1.0625l0.53125 0zm-3.171875 7.828125q-0.6875 0 -1.15625 0.328125q-0.46875 0.328125 -0.703125 0.796875l0 1.046875q0 2.875 1.984375 2.875q0.8125 0 1.34375 -0.71875q0.53125 -0.71875 0.53125 -1.796875q0 -1.125 -0.546875 -1.828125q-0.546875 -0.703125 -1.453125 -0.703125z" fill-rule="nonzero"/><path fill="#ffffff" d="m944.98804 677.84094l-4.546875 0l0 12.34375l-3.65625 0l0 -12.34375l-4.46875 0l0 -2.8125l12.671875 0l0 2.8125zm-1.2220459 6.609375q0 -1.6875 0.65625 -3.0q0.65625 -1.328125 1.875 -2.03125q1.234375 -0.703125 2.890625 -0.703125q2.53125 0 3.984375 1.5625q1.453125 1.5625 1.453125 4.265625l0 0.125q0 2.625 -1.46875 4.171875q-1.453125 1.546875 -3.953125 1.546875q-2.40625 0 -3.859375 -1.4375q-1.453125 -1.4375 -1.578125 -3.90625l0 -0.59375zm3.5 0.21875q0 1.5625 0.484375 2.296875q0.5 0.71875 1.453125 0.71875q1.875 0 1.921875 -2.890625l0 -0.34375q0 -3.03125 -1.9375 -3.03125q-1.765625 0 -1.90625 2.609375l-0.015625 0.640625z" fill-rule="nonzero"/><path fill="#ffffff" d="m909.13654 713.1379l-5.890625 0l0 6.046875l-3.65625 0l0 -15.15625l10.140625 0l0 2.8125l-6.484375 0l0 3.484375l5.890625 0l0 2.8125zm5.7731934 0.90625l0 5.140625l-3.65625 0l0 -15.15625l6.0625 0q1.734375 0 3.0625 0.640625q1.34375 0.640625 2.078125 1.828125q0.734375 1.171875 0.734375 2.671875q0 2.21875 -1.59375 3.546875q-1.578125 1.328125 -4.34375 1.328125l-2.34375 0zm0 -2.828125l2.40625 0q1.0625 0 1.609375 -0.53125q0.5625 -0.53125 0.5625 -1.5q0 -1.0625 -0.578125 -1.6875q-0.5625 -0.640625 -1.5625 -0.65625l-2.4375 0l0 4.375zm17.788269 7.96875l-3.515625 0l0 -11.203125l-3.453125 1.0l0 -2.65625l6.65625 -2.296875l0.3125 0l0 15.15625zm13.054321 -15.375l0 2.75l-0.15625 0q-1.96875 0 -3.234375 0.953125q-1.265625 0.9375 -1.5625 2.609375q1.1875 -1.171875 3.0 -1.171875q1.96875 0 3.125 1.4375q1.171875 1.4375 1.171875 3.78125q0 1.4375 -0.6875 2.65625q-0.671875 1.203125 -1.890625 1.890625q-1.21875 0.671875 -2.71875 0.671875q-1.609375 0 -2.890625 -0.734375q-1.265625 -0.734375 -1.96875 -2.09375q-0.703125 -1.359375 -0.734375 -3.140625l0 -1.40625q0 -2.34375 1.0 -4.203125q1.015625 -1.875 2.875 -2.9375q1.875 -1.0625 4.140625 -1.0625l0.53125 0zm-3.171875 7.828125q-0.6875 0 -1.15625 0.328125q-0.46875 0.328125 -0.703125 0.796875l0 1.046875q0 2.875 1.984375 2.875q0.8125 0 1.34375 -0.71875q0.53125 -0.71875 0.53125 -1.796875q0 -1.125 -0.546875 -1.828125q-0.546875 -0.703125 -1.453125 -0.703125zm7.2573853 7.546875l0 -15.15625l5.453125 0q2.921875 0 4.4375 1.078125q1.53125 1.0625 1.53125 3.109375q0 1.171875 -0.546875 2.0q-0.53125 0.828125 -1.578125 1.234375q1.1875 0.3125 1.8125 1.171875q0.640625 0.84375 0.640625 2.078125q0 2.21875 -1.40625 3.34375q-1.40625 1.125 -4.1875 1.140625l-6.15625 0zm3.65625 -6.453125l0 3.640625l2.40625 0q0.984375 0 1.515625 -0.453125q0.53125 -0.453125 0.53125 -1.28125q0 -1.890625 -1.890625 -1.90625l-2.5625 0zm0 -2.390625l1.90625 0q1.203125 -0.015625 1.703125 -0.4375q0.515625 -0.421875 0.515625 -1.265625q0 -0.953125 -0.546875 -1.375q-0.546875 -0.421875 -1.78125 -0.421875l-1.796875 0l0 3.5zm13.75708 3.703125l0 5.140625l-3.65625 0l0 -15.15625l6.0625 0q1.734375 0 3.0625 0.640625q1.34375 0.640625 2.078125 1.828125q0.734375 1.171875 0.734375 2.671875q0 2.21875 -1.59375 3.546875q-1.578125 1.328125 -4.34375 1.328125l-2.34375 0zm0 -2.828125l2.40625 0q1.0625 0 1.609375 -0.53125q0.5625 -0.53125 0.5625 -1.5q0 -1.0625 -0.578125 -1.6875q-0.5625 -0.640625 -1.5625 -0.65625l-2.4375 0l0 4.375zm20.241394 -3.140625q0 1.09375 -0.546875 1.9375q-0.546875 0.84375 -1.5 1.359375q1.078125 0.53125 1.703125 1.453125q0.640625 0.921875 0.640625 2.1875q0 2.03125 -1.40625 3.203125q-1.390625 1.171875 -3.84375 1.171875q-2.46875 0 -3.90625 -1.171875q-1.421875 -1.1875 -1.421875 -3.203125q0 -1.21875 0.625 -2.15625q0.625 -0.9375 1.765625 -1.484375q-0.96875 -0.515625 -1.515625 -1.359375q-0.546875 -0.84375 -0.546875 -1.9375q0 -1.984375 1.34375 -3.125q1.34375 -1.140625 3.625 -1.140625q2.296875 0 3.640625 1.140625q1.34375 1.140625 1.34375 3.125zm-3.21875 6.65625q0 -0.9375 -0.484375 -1.4375q-0.484375 -0.515625 -1.28125 -0.515625q-0.78125 0 -1.28125 0.515625q-0.484375 0.5 -0.484375 1.4375q0 0.90625 0.484375 1.4375q0.5 0.515625 1.3125 0.515625q0.78125 0 1.25 -0.515625q0.484375 -0.53125 0.484375 -1.4375zm-1.765625 -8.21875q-0.71875 0 -1.09375 0.46875q-0.359375 0.453125 -0.359375 1.28125q0 0.8125 0.375 1.3125q0.375 0.5 1.109375 0.5q0.71875 0 1.078125 -0.5q0.359375 -0.5 0.359375 -1.3125q0 -0.8125 -0.375 -1.28125q-0.375 -0.46875 -1.09375 -0.46875z" fill-rule="nonzero"/><path fill="#8e7cc3" d="m1081.8517 632.7874l121.13391 0l0 102.834656l-121.13391 0z" fill-rule="evenodd"/><path fill="#ffffff" d="m1119.9608 690.18475l0 -15.15625l4.890625 0q2.015625 0 3.609375 0.90625q1.609375 0.90625 2.5 2.578125q0.90625 1.65625 0.921875 3.71875l0 0.6875q0 2.09375 -0.890625 3.75q-0.875 1.640625 -2.46875 2.578125q-1.59375 0.921875 -3.5625 0.9375l-5.0 0zm3.65625 -12.34375l0 9.53125l1.28125 0q1.5625 0 2.40625 -1.109375q0.84375 -1.125 0.84375 -3.34375l0 -0.65625q0 -2.1875 -0.84375 -3.296875q-0.84375 -1.125 -2.453125 -1.125l-1.234375 0zm14.94458 -2.8125l3.375 10.546875l3.375 -10.546875l4.8125 0l0 15.15625l-3.671875 0l0 -3.546875l0.359375 -7.234375l-3.65625 10.78125l-2.421875 0l-3.671875 -10.796875l0.34375 7.25l0 3.546875l-3.65625 0l0 -15.15625l4.8125 0zm22.69336 12.328125l-5.015625 0l-0.875 2.828125l-3.90625 0l5.5625 -15.15625l3.4375 0l5.59375 15.15625l-3.921875 0l-0.875 -2.828125zm-4.140625 -2.828125l3.265625 0l-1.640625 -5.25l-1.625 5.25z" fill-rule="nonzero"/><path fill="#000000" fill-opacity="0.0" d="m606.4344 684.2047l77.7323 0" fill-rule="evenodd"/><path stroke="#674ea7" stroke-width="2.0" stroke-linejoin="round" stroke-linecap="butt" d="m606.4344 684.2047l65.7323 0" fill-rule="evenodd"/><path fill="#674ea7" stroke="#674ea7" stroke-width="2.0" stroke-linecap="butt" d="m672.1667 687.5082l9.076172 -3.3034668l-9.076172 -3.3034668z" fill-rule="evenodd"/><path fill="#000000" fill-opacity="0.0" d="m800.66406 685.6063l86.96063 0l0 42.015747l-86.96063 0z" fill-rule="evenodd"/><path fill="#000000" d="m826.31274 710.04193l-4.375 0l-0.765625 2.484375l-3.421875 0l4.875 -13.265625l3.0 0l4.90625 13.265625l-3.4375 0l-0.78125 -2.484375zm-3.609375 -2.46875l2.84375 0l-1.421875 -4.59375l-1.421875 4.59375zm13.738953 -3.90625l2.15625 -4.40625l3.65625 0l-3.703125 6.578125l3.8125 6.6875l-3.6875 0l-2.234375 -4.484375l-2.234375 4.484375l-3.6875 0l3.796875 -6.6875l-3.6875 -6.578125l3.640625 0l2.171875 4.40625zm10.359253 8.859375l-3.1875 0l0 -13.265625l3.1875 0l0 13.265625zm10.145325 -5.1875l1.34375 0l0 2.375l-1.34375 0l0 2.8125l-3.078125 0l0 -2.8125l-5.125 0l-0.1875 -1.875l5.3125 -8.546875l0 -0.03125l3.078125 0l0 8.078125zm-5.453125 0l2.375 0l0 -4.078125l-0.1875 0.3125l-2.1875 3.765625zm15.178833 1.65625q0 -0.703125 -0.5 -1.09375q-0.5 -0.390625 -1.75 -0.796875q-1.234375 -0.421875 -2.03125 -0.8125q-2.578125 -1.265625 -2.578125 -3.484375q0 -1.109375 0.640625 -1.9375q0.640625 -0.84375 1.8125 -1.3125q1.1875 -0.484375 2.640625 -0.484375q1.4375 0 2.5625 0.515625q1.140625 0.515625 1.765625 1.453125q0.640625 0.9375 0.640625 2.15625l-3.1875 0q0 -0.8125 -0.5 -1.25q-0.5 -0.453125 -1.34375 -0.453125q-0.859375 0 -1.359375 0.375q-0.5 0.375 -0.5 0.96875q0 0.5 0.546875 0.921875q0.546875 0.40625 1.921875 0.859375q1.375 0.4375 2.265625 0.953125q2.15625 1.234375 2.15625 3.40625q0 1.75 -1.3125 2.75q-1.3125 0.984375 -3.609375 0.984375q-1.609375 0 -2.921875 -0.578125q-1.296875 -0.578125 -1.96875 -1.578125q-0.65625 -1.015625 -0.65625 -2.328125l3.21875 0q0 1.0625 0.546875 1.578125q0.546875 0.5 1.78125 0.5q0.796875 0 1.25 -0.34375q0.46875 -0.34375 0.46875 -0.96875z" fill-rule="nonzero"/><path fill="#000000" fill-opacity="0.0" d="m601.82153 684.2047l86.96063 0l0 42.015747l-86.96063 0z" fill-rule="evenodd"/><path fill="#000000" d="m627.4702 708.6403l-4.375 0l-0.765625 2.484375l-3.421875 0l4.875 -13.265625l3.0 0l4.90625 13.265625l-3.4375 0l-0.78125 -2.484375zm-3.609375 -2.46875l2.84375 0l-1.421875 -4.59375l-1.421875 4.59375zm13.739014 -3.90625l2.15625 -4.40625l3.65625 0l-3.703125 6.578125l3.8125 6.6875l-3.6875 0l-2.234375 -4.484375l-2.234375 4.484375l-3.6875 0l3.796875 -6.6875l-3.6875 -6.578125l3.640625 0l2.171875 4.40625zm10.359192 8.859375l-3.1875 0l0 -13.265625l3.1875 0l0 13.265625zm10.145325 -5.1875l1.34375 0l0 2.375l-1.34375 0l0 2.8125l-3.078125 0l0 -2.8125l-5.125 0l-0.1875 -1.875l5.3125 -8.546875l0 -0.03125l3.078125 0l0 8.078125zm-5.453125 0l2.375 0l0 -4.078125l-0.1875 0.3125l-2.1875 3.765625zm15.178833 1.65625q0 -0.703125 -0.5 -1.09375q-0.5 -0.390625 -1.75 -0.796875q-1.234375 -0.421875 -2.03125 -0.8125q-2.578125 -1.265625 -2.578125 -3.484375q0 -1.109375 0.640625 -1.9375q0.640625 -0.84375 1.8125 -1.3125q1.1875 -0.484375 2.640625 -0.484375q1.4375 0 2.5625 0.515625q1.140625 0.515625 1.765625 1.453125q0.640625 0.9375 0.640625 2.15625l-3.1875 0q0 -0.8125 -0.5 -1.25q-0.5 -0.453125 -1.34375 -0.453125q-0.859375 0 -1.359375 0.375q-0.5 0.375 -0.5 0.96875q0 0.5 0.546875 0.921875q0.546875 0.40625 1.921875 0.859375q1.375 0.4375 2.265625 0.953125q2.15625 1.234375 2.15625 3.40625q0 1.75 -1.3125 2.75q-1.3125 0.984375 -3.609375 0.984375q-1.609375 0 -2.921875 -0.578125q-1.296875 -0.578125 -1.96875 -1.578125q-0.65625 -1.015625 -0.65625 -2.328125l3.21875 0q0 1.0625 0.546875 1.578125q0.546875 0.5 1.78125 0.5q0.796875 0 1.25 -0.34375q0.46875 -0.34375 0.46875 -0.96875z" fill-rule="nonzero"/><path fill="#000000" fill-opacity="0.0" d="m377.66797 589.5932l168.18896 0l0 43.18109" fill-rule="evenodd"/><path stroke="#674ea7" stroke-width="2.0" stroke-linejoin="round" stroke-linecap="butt" d="m377.66797 589.5932l168.18896 0l0 31.181091" fill-rule="evenodd"/><path fill="#674ea7" stroke="#674ea7" stroke-width="2.0" stroke-linecap="butt" d="m542.55347 620.7743l3.3034668 9.076172l3.3034668 -9.076172z" fill-rule="evenodd"/><path fill="#000000" fill-opacity="0.0" d="m545.86743 735.6221l0 43.18109l-168.18896 0" fill-rule="evenodd"/><path stroke="#674ea7" stroke-width="2.0" stroke-linejoin="round" stroke-linecap="butt" d="m545.86743 747.6221l0 31.181091l-168.18896 0" fill-rule="evenodd"/><path fill="#674ea7" stroke="#674ea7" stroke-width="2.0" stroke-linecap="butt" d="m549.1709 747.6221l-3.3034668 -9.076233l-3.3034668 9.076233z" fill-rule="evenodd"/><path fill="#000000" fill-opacity="0.0" d="m550.0315 590.17584l45.51184 0l0 42.015747l-45.51184 0z" fill-rule="evenodd"/><path fill="#351c75" d="m574.9648 614.61145l-4.375 0l-0.765625 2.484375l-3.421875 0l4.875 -13.265625l3.0 0l4.90625 13.265625l-3.4375 0l-0.78125 -2.484375zm-3.609375 -2.46875l2.84375 0l-1.421875 -4.59375l-1.421875 4.59375z" fill-rule="nonzero"/><path fill="#000000" fill-opacity="0.0" d="m550.0302 739.2677l45.51178 0l0 42.015747l-45.51178 0z" fill-rule="evenodd"/><path fill="#351c75" d="m567.7693 766.18774l0 -13.265625l4.765625 0q2.5625 0 3.890625 0.9375q1.34375 0.9375 1.34375 2.734375q0 1.015625 -0.484375 1.75q-0.46875 0.734375 -1.390625 1.078125q1.046875 0.265625 1.59375 1.015625q0.5625 0.75 0.5625 1.828125q0 1.9375 -1.234375 2.921875q-1.234375 0.984375 -3.65625 1.0l-5.390625 0zm3.203125 -5.640625l0 3.1875l2.09375 0q0.859375 0 1.328125 -0.390625q0.46875 -0.40625 0.46875 -1.125q0 -1.65625 -1.65625 -1.671875l-2.234375 0zm0 -2.09375l1.65625 0q1.0625 -0.015625 1.5 -0.375q0.453125 -0.375 0.453125 -1.109375q0 -0.84375 -0.484375 -1.203125q-0.484375 -0.375 -1.5625 -0.375l-1.5625 0l0 3.0625z" fill-rule="nonzero"/><path fill="#000000" fill-opacity="0.0" d="m805.2848 684.2047l77.7323 0" fill-rule="evenodd"/><path stroke="#674ea7" stroke-width="2.0" stroke-linejoin="round" stroke-linecap="butt" d="m805.2848 684.2047l65.7323 0" fill-rule="evenodd"/><path fill="#674ea7" stroke="#674ea7" stroke-width="2.0" stroke-linecap="butt" d="m871.0171 687.5082l9.076172 -3.3034668l-9.076172 -3.3034668z" fill-rule="evenodd"/><path fill="#000000" fill-opacity="0.0" d="m1004.1352 684.2047l77.73224 0" fill-rule="evenodd"/><path stroke="#674ea7" stroke-width="2.0" stroke-linejoin="round" stroke-linecap="butt" d="m1004.1352 684.2047l65.73224 0" fill-rule="evenodd"/><path fill="#674ea7" stroke="#674ea7" stroke-width="2.0" stroke-linecap="butt" d="m1069.8674 687.5082l9.076172 -3.3034668l-9.076172 -3.3034668z" fill-rule="evenodd"/><path fill="#000000" fill-opacity="0.0" d="m999.5066 684.2047l86.96057 0l0 42.015747l-86.96057 0z" fill-rule="evenodd"/><path fill="#000000" d="m1025.1553 708.6403l-4.375 0l-0.765625 2.484375l-3.421875 0l4.875 -13.265625l3.0 0l4.90625 13.265625l-3.4375 0l-0.78125 -2.484375zm-3.609375 -2.46875l2.84375 0l-1.421875 -4.59375l-1.421875 4.59375zm13.739014 -3.90625l2.15625 -4.40625l3.65625 0l-3.703125 6.578125l3.8125 6.6875l-3.6875 0l-2.234375 -4.484375l-2.234375 4.484375l-3.6875 0l3.796875 -6.6875l-3.6875 -6.578125l3.640625 0l2.171875 4.40625zm10.359253 8.859375l-3.1875 0l0 -13.265625l3.1875 0l0 13.265625zm10.145264 -5.1875l1.34375 0l0 2.375l-1.34375 0l0 2.8125l-3.078125 0l0 -2.8125l-5.125 0l-0.1875 -1.875l5.3125 -8.546875l0 -0.03125l3.078125 0l0 8.078125zm-5.453125 0l2.375 0l0 -4.078125l-0.1875 0.3125l-2.1875 3.765625zm15.178833 1.65625q0 -0.703125 -0.5 -1.09375q-0.5 -0.390625 -1.75 -0.796875q-1.234375 -0.421875 -2.03125 -0.8125q-2.578125 -1.265625 -2.578125 -3.484375q0 -1.109375 0.640625 -1.9375q0.640625 -0.84375 1.8125 -1.3125q1.1875 -0.484375 2.640625 -0.484375q1.4375 0 2.5625 0.515625q1.140625 0.515625 1.765625 1.453125q0.640625 0.9375 0.640625 2.15625l-3.1875 0q0 -0.8125 -0.5 -1.25q-0.5 -0.453125 -1.34375 -0.453125q-0.859375 0 -1.359375 0.375q-0.5 0.375 -0.5 0.96875q0 0.5 0.546875 0.921875q0.546875 0.40625 1.921875 0.859375q1.375 0.4375 2.265625 0.953125q2.15625 1.234375 2.15625 3.40625q0 1.75 -1.3125 2.75q-1.3125 0.984375 -3.609375 0.984375q-1.609375 0 -2.921875 -0.578125q-1.296875 -0.578125 -1.96875 -1.578125q-0.65625 -1.015625 -0.65625 -2.328125l3.21875 0q0 1.0625 0.546875 1.578125q0.546875 0.5 1.78125 0.5q0.796875 0 1.25 -0.34375q0.46875 -0.34375 0.46875 -0.96875z" fill-rule="nonzero"/><path fill="#000000" fill-opacity="0.0" d="m199.54068 543.05774l45.51181 0l0 42.015747l-45.51181 0z" fill-rule="evenodd"/><path fill="#351c75" d="m224.47397 567.49335l-4.375 0l-0.765625 2.484375l-3.421875 0l4.875 -13.265625l3.0 0l4.90625 13.265625l-3.4375 0l-0.78125 -2.484375zm-3.609375 -2.46875l2.84375 0l-1.421875 -4.59375l-1.421875 4.59375z" fill-rule="nonzero"/><path fill="#000000" fill-opacity="0.0" d="m199.54068 726.22046l45.51181 0l0 42.015747l-45.51181 0z" fill-rule="evenodd"/><path fill="#351c75" d="m224.47397 750.65607l-4.375 0l-0.765625 2.484375l-3.421875 0l4.875 -13.265625l3.0 0l4.90625 13.265625l-3.4375 0l-0.78125 -2.484375zm-3.609375 -2.46875l2.84375 0l-1.421875 -4.59375l-1.421875 4.59375z" fill-rule="nonzero"/><path fill="#000000" fill-opacity="0.0" d="m789.71655 142.70604l202.61414 0l0 64.62991l-202.61414 0z" fill-rule="evenodd"/><path fill="#000000" d="m841.3327 165.14166q-0.0625 1.375 -0.75 2.4375q-0.6875 1.0625 -1.921875 1.65625q-1.234375 0.578125 -2.8125 0.578125q-2.609375 0 -4.125 -1.703125q-1.5 -1.703125 -1.5 -4.8125l0 -0.65625q0 -1.953125 0.671875 -3.40625q0.6875 -1.46875 1.953125 -2.265625q1.28125 -0.796875 2.96875 -0.796875q2.40625 0 3.875 1.28125q1.46875 1.265625 1.671875 3.484375l-3.1875 0q-0.046875 -1.203125 -0.625 -1.734375q-0.5625 -0.53125 -1.734375 -0.53125q-1.203125 0 -1.765625 0.890625q-0.546875 0.890625 -0.578125 2.859375l0 0.9375q0 2.125 0.53125 3.03125q0.546875 0.90625 1.84375 0.90625q1.09375 0 1.671875 -0.515625q0.59375 -0.515625 0.625 -1.640625l3.1875 0zm0.97753906 -0.53125q0 -1.484375 0.578125 -2.625q0.578125 -1.15625 1.640625 -1.765625q1.078125 -0.625 2.53125 -0.625q2.21875 0 3.484375 1.375q1.28125 1.359375 1.28125 3.71875l0 0.109375q0 2.3125 -1.28125 3.671875q-1.28125 1.34375 -3.46875 1.34375q-2.09375 0 -3.375 -1.265625q-1.28125 -1.265625 -1.375 -3.421875l-0.015625 -0.515625zm3.078125 0.1875q0 1.359375 0.421875 2.0q0.4375 0.640625 1.265625 0.640625q1.640625 0 1.6875 -2.515625l0 -0.3125q0 -2.65625 -1.703125 -2.65625q-1.53125 0 -1.671875 2.28125l0 0.5625zm10.616516 -5.03125l0.09375 1.15625q1.015625 -1.328125 2.8125 -1.328125q1.546875 0 2.296875 0.921875q0.765625 0.90625 0.796875 2.765625l0 6.34375l-3.078125 0l0 -6.21875q0 -0.75 -0.3125 -1.09375q-0.296875 -0.359375 -1.09375 -0.359375q-0.890625 0 -1.328125 0.71875l0 6.953125l-3.078125 0l0 -9.859375l2.890625 0zm8.412109 9.859375l0 -7.71875l-1.4375 0l0 -2.140625l1.4375 0l0 -0.328125q0.03125 -1.96875 1.296875 -3.015625q1.203125 -0.984375 3.359375 -0.984375q1.359375 0 3.203125 0.53125l-0.421875 2.421875l-0.5 -0.140625q-1.0 -0.265625 -2.109375 -0.265625q-1.75 0 -1.75 1.609375l0 0.171875l1.9375 0l0 2.140625l-1.9375 0l0 7.71875l-3.078125 0zm9.265625 0l-3.078125 0l0 -9.859375l3.078125 0l0 9.859375zm1.5168457 -5.0q0 -1.5 0.484375 -2.640625q0.5 -1.15625 1.421875 -1.765625q0.921875 -0.625 2.140625 -0.625q1.53125 0 2.40625 1.03125l0.109375 -0.859375l2.78125 0l0 9.484375q0 1.296875 -0.609375 2.25q-0.59375 0.96875 -1.75 1.484375q-1.140625 0.515625 -2.65625 0.515625q-1.078125 0 -2.09375 -0.40625q-1.015625 -0.40625 -1.5625 -1.0625l1.28125 -1.8125q0.859375 1.015625 2.265625 1.015625q2.046875 0 2.046875 -2.09375l0 -0.3125q-0.890625 0.984375 -2.234375 0.984375q-1.8125 0 -2.921875 -1.375q-1.109375 -1.390625 -1.109375 -3.703125l0 -0.109375zm3.078125 0.1875q0 1.21875 0.453125 1.921875q0.453125 0.703125 1.28125 0.703125q0.984375 0 1.453125 -0.65625l0 -4.15625q-0.453125 -0.671875 -1.4375 -0.671875q-0.8125 0 -1.28125 0.734375q-0.46875 0.734375 -0.46875 2.125zm13.887207 3.75q-0.984375 1.25 -2.640625 1.25q-1.609375 0 -2.453125 -0.9375q-0.828125 -0.953125 -0.828125 -2.71875l0 -6.390625l3.0625 0l0 6.40625q0 1.265625 1.234375 1.265625q1.0625 0 1.5 -0.75l0 -6.921875l3.09375 0l0 9.859375l-2.875 0l-0.09375 -1.0625zm10.615234 -6.015625l-1.015625 -0.078125q-1.453125 0 -1.859375 0.921875l0 6.234375l-3.0625 0l0 -9.859375l2.875 0l0.09375 1.265625q0.78125 -1.4375 2.15625 -1.4375q0.5 0 0.859375 0.109375l-0.046875 2.84375zm5.692688 7.265625q-2.265625 0 -3.671875 -1.34375q-1.390625 -1.359375 -1.390625 -3.53125l0 -0.265625q0 -1.5 0.546875 -2.65625q0.5625 -1.15625 1.640625 -1.78125q1.078125 -0.640625 2.546875 -0.640625q2.078125 0 3.28125 1.296875q1.203125 1.28125 1.203125 3.578125l0 1.1875l-6.09375 0q0.15625 0.828125 0.703125 1.3125q0.5625 0.46875 1.453125 0.46875q1.453125 0 2.265625 -1.015625l1.40625 1.65625q-0.5625 0.796875 -1.625 1.265625q-1.046875 0.46875 -2.265625 0.46875zm-0.34375 -7.859375q-1.34375 0 -1.59375 1.78125l3.09375 0l0 -0.234375q0.015625 -0.734375 -0.375 -1.140625q-0.390625 -0.40625 -1.125 -0.40625zm5.3445435 2.671875q0 -2.34375 1.015625 -3.6875q1.015625 -1.34375 2.828125 -1.34375q1.3125 0 2.21875 1.03125l0 -5.0l3.078125 0l0 14.0l-2.765625 0l-0.140625 -1.0625q-0.953125 1.25 -2.40625 1.25q-1.765625 0 -2.796875 -1.34375q-1.03125 -1.359375 -1.03125 -3.84375zm3.078125 0.1875q0 2.625 1.53125 2.625q1.015625 0 1.453125 -0.859375l0 -3.75q-0.421875 -0.875 -1.4375 -0.875q-1.421875 0 -1.546875 2.296875l0 0.5625zm13.140015 4.8125l0 -7.71875l-1.4375 0l0 -2.140625l1.4375 0l0 -0.78125q0 -1.6875 0.984375 -2.609375q1.0 -0.9375 2.78125 -0.9375q0.65625 0 1.453125 0.1875l0 2.265625q-0.28125 -0.078125 -0.75 -0.078125q-1.390625 0 -1.390625 1.203125l0 0.75l1.921875 0l0 2.140625l-1.921875 0l0 7.71875l-3.078125 0zm5.6810913 -5.015625q0 -1.484375 0.578125 -2.625q0.578125 -1.15625 1.640625 -1.765625q1.078125 -0.625 2.53125 -0.625q2.21875 0 3.484375 1.375q1.28125 1.359375 1.28125 3.71875l0 0.109375q0 2.3125 -1.28125 3.671875q-1.28125 1.34375 -3.46875 1.34375q-2.09375 0 -3.375 -1.265625q-1.28125 -1.265625 -1.375 -3.421875l-0.015625 -0.515625zm3.078125 0.1875q0 1.359375 0.421875 2.0q0.4375 0.640625 1.265625 0.640625q1.640625 0 1.6875 -2.515625l0 -0.3125q0 -2.65625 -1.703125 -2.65625q-1.53125 0 -1.671875 2.28125l0 0.5625zm13.757202 -2.25l-1.015625 -0.078125q-1.453125 0 -1.859375 0.921875l0 6.234375l-3.0625 0l0 -9.859375l2.875 0l0.09375 1.265625q0.78125 -1.4375 2.15625 -1.4375q0.5 0 0.859375 0.109375l-0.046875 2.84375z" fill-rule="nonzero"/><path fill="#000000" d="m814.17114 187.16666q0 2.296875 -1.046875 3.671875q-1.03125 1.375 -2.78125 1.375q-1.359375 0 -2.234375 -1.0l0 4.609375l-3.0625 0l0 -13.65625l2.859375 0l0.09375 0.90625q0.890625 -1.078125 2.328125 -1.078125q1.8125 0 2.828125 1.34375q1.015625 1.34375 1.015625 3.6875l0 0.140625zm-3.078125 -0.1875q0 -2.625 -1.53125 -2.625q-1.09375 0 -1.453125 0.78125l0 3.890625q0.40625 0.8125 1.46875 0.8125q1.46875 0 1.515625 -2.53125l0 -0.328125zm9.971985 5.046875q-0.15625 -0.296875 -0.28125 -0.890625q-0.84375 1.078125 -2.375 1.078125q-1.390625 0 -2.375 -0.84375q-0.96875 -0.84375 -0.96875 -2.125q0 -1.59375 1.1875 -2.40625q1.1875 -0.828125 3.4375 -0.828125l0.953125 0l0 -0.53125q0 -1.34375 -1.171875 -1.34375q-1.09375 0 -1.09375 1.0625l-3.078125 0q0 -1.421875 1.21875 -2.3125q1.21875 -0.890625 3.09375 -0.890625q1.890625 0 2.984375 0.921875q1.09375 0.90625 1.125 2.515625l0 4.359375q0.015625 1.359375 0.421875 2.078125l0 0.15625l-3.078125 0zm-1.921875 -2.0q0.578125 0 0.953125 -0.25q0.390625 -0.25 0.546875 -0.5625l0 -1.5625l-0.890625 0q-1.609375 0 -1.609375 1.4375q0 0.421875 0.28125 0.6875q0.28125 0.25 0.71875 0.25zm10.448914 -0.1875q0.640625 0 1.0 -0.34375q0.359375 -0.359375 0.34375 -0.984375l2.875 0q0 1.625 -1.15625 2.671875q-1.15625 1.03125 -3.0 1.03125q-2.140625 0 -3.390625 -1.34375q-1.234375 -1.359375 -1.234375 -3.75l0 -0.125q0 -1.484375 0.546875 -2.625q0.5625 -1.15625 1.59375 -1.765625q1.046875 -0.609375 2.46875 -0.609375q1.921875 0 3.046875 1.0625q1.125 1.0625 1.125 2.890625l-2.875 0q0 -0.765625 -0.375 -1.171875q-0.375 -0.421875 -1.0 -0.421875q-1.1875 0 -1.390625 1.515625q-0.0625 0.484375 -0.0625 1.34375q0 1.484375 0.34375 2.0625q0.359375 0.5625 1.140625 0.5625zm9.473755 -1.484375l-0.859375 0.859375l0 2.8125l-3.0625 0l0 -14.0l3.0625 0l0 7.4375l0.3125 -0.421875l2.3125 -2.875l3.671875 0l-3.4375 4.0625l3.671875 5.796875l-3.515625 0l-2.15625 -3.671875zm10.832825 3.859375q-2.265625 0 -3.671875 -1.34375q-1.390625 -1.359375 -1.390625 -3.53125l0 -0.265625q0 -1.5 0.546875 -2.65625q0.5625 -1.15625 1.640625 -1.78125q1.078125 -0.640625 2.546875 -0.640625q2.078125 0 3.28125 1.296875q1.203125 1.28125 1.203125 3.578125l0 1.1875l-6.09375 0q0.15625 0.828125 0.703125 1.3125q0.5625 0.46875 1.453125 0.46875q1.453125 0 2.265625 -1.015625l1.40625 1.65625q-0.5625 0.796875 -1.625 1.265625q-1.046875 0.46875 -2.265625 0.46875zm-0.34375 -7.859375q-1.34375 0 -1.59375 1.78125l3.09375 0l0 -0.234375q0.015625 -0.734375 -0.375 -1.140625q-0.390625 -0.40625 -1.125 -0.40625zm9.3133545 -4.640625l0 2.453125l1.625 0l0 2.140625l-1.625 0l0 4.5q0 0.5625 0.203125 0.78125q0.203125 0.21875 0.78125 0.21875q0.46875 0 0.765625 -0.0625l0 2.203125q-0.828125 0.265625 -1.71875 0.265625q-1.59375 0 -2.359375 -0.75q-0.75 -0.75 -0.75 -2.265625l0 -4.890625l-1.25 0l0 -2.140625l1.25 0l0 -2.453125l3.078125 0zm10.706055 12.3125l-3.078125 0l0 -14.0l3.078125 0l0 14.0zm6.659912 0.1875q-2.265625 0 -3.671875 -1.34375q-1.390625 -1.359375 -1.390625 -3.53125l0 -0.265625q0 -1.5 0.546875 -2.65625q0.5625 -1.15625 1.640625 -1.78125q1.078125 -0.640625 2.546875 -0.640625q2.078125 0 3.28125 1.296875q1.203125 1.28125 1.203125 3.578125l0 1.1875l-6.09375 0q0.15625 0.828125 0.703125 1.3125q0.5625 0.46875 1.453125 0.46875q1.453125 0 2.265625 -1.015625l1.40625 1.65625q-0.5625 0.796875 -1.625 1.265625q-1.046875 0.46875 -2.265625 0.46875zm-0.34375 -7.859375q-1.34375 0 -1.59375 1.78125l3.09375 0l0 -0.234375q0.015625 -0.734375 -0.375 -1.140625q-0.390625 -0.40625 -1.125 -0.40625zm8.5633545 -2.1875l0.09375 1.15625q1.015625 -1.328125 2.8125 -1.328125q1.546875 0 2.296875 0.921875q0.765625 0.90625 0.796875 2.765625l0 6.34375l-3.078125 0l0 -6.21875q0 -0.75 -0.3125 -1.09375q-0.296875 -0.359375 -1.09375 -0.359375q-0.890625 0 -1.328125 0.71875l0 6.953125l-3.078125 0l0 -9.859375l2.890625 0zm7.3339233 4.859375q0 -1.5 0.484375 -2.640625q0.5 -1.15625 1.421875 -1.765625q0.921875 -0.625 2.140625 -0.625q1.53125 0 2.40625 1.03125l0.109375 -0.859375l2.78125 0l0 9.484375q0 1.296875 -0.609375 2.25q-0.59375 0.96875 -1.75 1.484375q-1.140625 0.515625 -2.65625 0.515625q-1.078125 0 -2.09375 -0.40625q-1.015625 -0.40625 -1.5625 -1.0625l1.28125 -1.8125q0.859375 1.015625 2.265625 1.015625q2.046875 0 2.046875 -2.09375l0 -0.3125q-0.890625 0.984375 -2.234375 0.984375q-1.8125 0 -2.921875 -1.375q-1.109375 -1.390625 -1.109375 -3.703125l0 -0.109375zm3.078125 0.1875q0 1.21875 0.453125 1.921875q0.453125 0.703125 1.28125 0.703125q0.984375 0 1.453125 -0.65625l0 -4.15625q-0.453125 -0.671875 -1.4375 -0.671875q-0.8125 0 -1.28125 0.734375q-0.46875 0.734375 -0.46875 2.125zm11.590393 -7.5l0 2.453125l1.625 0l0 2.140625l-1.625 0l0 4.5q0 0.5625 0.203125 0.78125q0.203125 0.21875 0.78125 0.21875q0.46875 0 0.765625 -0.0625l0 2.203125q-0.828125 0.265625 -1.71875 0.265625q-1.59375 0 -2.359375 -0.75q-0.75 -0.75 -0.75 -2.265625l0 -4.890625l-1.25 0l0 -2.140625l1.25 0l0 -2.453125l3.078125 0zm5.8258667 3.515625q0.984375 -1.234375 2.515625 -1.234375q1.625 0 2.453125 0.96875q0.84375 0.953125 0.859375 2.84375l0 6.21875l-3.078125 0l0 -6.15625q0 -0.78125 -0.328125 -1.140625q-0.3125 -0.375 -1.078125 -0.375q-0.953125 0 -1.34375 0.609375l0 7.0625l-3.0625 0l0 -14.0l3.0625 0l0 5.203125zm11.785767 3.78125q0 -1.484375 0.578125 -2.625q0.578125 -1.15625 1.640625 -1.765625q1.078125 -0.625 2.53125 -0.625q2.21875 0 3.484375 1.375q1.28125 1.359375 1.28125 3.71875l0 0.109375q0 2.3125 -1.28125 3.671875q-1.28125 1.34375 -3.46875 1.34375q-2.09375 0 -3.375 -1.265625q-1.28125 -1.265625 -1.375 -3.421875l-0.015625 -0.515625zm3.078125 0.1875q0 1.359375 0.421875 2.0q0.4375 0.640625 1.265625 0.640625q1.640625 0 1.6875 -2.515625l0 -0.3125q0 -2.65625 -1.703125 -2.65625q-1.53125 0 -1.671875 2.28125l0 0.5625zm8.475952 4.828125l0 -7.71875l-1.4375 0l0 -2.140625l1.4375 0l0 -0.78125q0 -1.6875 0.984375 -2.609375q1.0 -0.9375 2.78125 -0.9375q0.65625 0 1.453125 0.1875l0 2.265625q-0.28125 -0.078125 -0.75 -0.078125q-1.390625 0 -1.390625 1.203125l0 0.75l1.921875 0l0 2.140625l-1.921875 0l0 7.71875l-3.078125 0zm19.920715 0l-9.25 0l0 -2.0l4.265625 -4.484375q1.578125 -1.796875 1.578125 -2.859375q0 -0.84375 -0.375 -1.296875q-0.375 -0.453125 -1.09375 -0.453125q-0.703125 0 -1.140625 0.609375q-0.4375 0.59375 -0.4375 1.484375l-3.078125 0q0 -1.21875 0.609375 -2.25q0.625 -1.03125 1.703125 -1.609375q1.078125 -0.59375 2.421875 -0.59375q2.15625 0 3.3125 1.0q1.15625 0.984375 1.15625 2.84375q0 0.78125 -0.296875 1.53125q-0.28125 0.734375 -0.90625 1.546875q-0.609375 0.8125 -1.96875 2.1875l-1.71875 1.96875l5.21875 0l0 2.375zm1.741333 -6.484375l0.796875 -6.78125l7.765625 0l0 2.390625l-5.265625 0l-0.296875 2.625q0.328125 -0.1875 0.859375 -0.328125q0.53125 -0.15625 1.046875 -0.15625q1.96875 0 3.03125 1.171875q1.0625 1.171875 1.0625 3.296875q0 1.265625 -0.578125 2.3125q-0.5625 1.03125 -1.59375 1.59375q-1.015625 0.546875 -2.421875 0.546875q-1.25 0 -2.34375 -0.515625q-1.09375 -0.515625 -1.71875 -1.40625q-0.609375 -0.90625 -0.609375 -2.03125l3.078125 0q0.046875 0.71875 0.46875 1.15625q0.421875 0.421875 1.109375 0.421875q1.546875 0 1.546875 -2.296875q0 -2.125 -1.90625 -2.125q-1.0625 0 -1.59375 0.703125l-2.4375 -0.578125zm18.022644 -6.96875l0 2.40625l-0.125 0q-1.71875 0 -2.828125 0.828125q-1.109375 0.828125 -1.359375 2.296875q1.03125 -1.03125 2.609375 -1.03125q1.734375 0 2.75 1.265625q1.015625 1.25 1.015625 3.296875q0 1.265625 -0.59375 2.328125q-0.59375 1.046875 -1.671875 1.65625q-1.0625 0.59375 -2.375 0.59375q-1.40625 0 -2.515625 -0.640625q-1.109375 -0.65625 -1.734375 -1.84375q-0.609375 -1.1875 -0.640625 -2.75l0 -1.234375q0 -2.046875 0.875 -3.671875q0.890625 -1.640625 2.515625 -2.5625q1.640625 -0.9375 3.625 -0.9375l0.453125 0zm-2.765625 6.859375q-0.609375 0 -1.015625 0.28125q-0.40625 0.28125 -0.609375 0.6875l0 0.921875q0 2.515625 1.734375 2.515625q0.703125 0 1.171875 -0.625q0.46875 -0.625 0.46875 -1.578125q0 -0.96875 -0.484375 -1.578125q-0.46875 -0.625 -1.265625 -0.625z" fill-rule="nonzero"/></g></svg>