<svg version="1.1" viewBox="0.0 0.0 1280.0 960.0" fill="none" stroke="none" stroke-linecap="square" stroke-miterlimit="10" xmlns:xlink="http://www.w3.org/1999/xlink" xmlns="http://www.w3.org/2000/svg"><clipPath id="p.0"><path d="m0 0l1280.0 0l0 960.0l-1280.0 0l0 -960.0z" clip-rule="nonzero"/></clipPath><g clip-path="url(#p.0)"><path fill="#000000" fill-opacity="0.0" d="m0 0l1280.0 0l0 960.0l-1280.0 0z" fill-rule="evenodd"/><path fill="#8e7cc3" d="m504.3937 415.19946l121.13388 0l0 102.834656l-121.13388 0z" fill-rule="evenodd"/><path fill="#ffffff" d="m542.5028 472.5968l0 -15.15625l4.890625 0q2.015625 0 3.609375 0.90625q1.609375 0.90625 2.5 2.578125q0.90625 1.65625 0.921875 3.71875l0 0.6875q0 2.09375 -0.890625 3.75q-0.875 1.640625 -2.46875 2.578125q-1.59375 0.921875 -3.5625 0.9375l-5.0 0zm3.65625 -12.34375l0 9.53125l1.28125 0q1.5625 0 2.40625 -1.109375q0.84375 -1.125 0.84375 -3.34375l0 -0.65625q0 -2.1875 -0.84375 -3.296875q-0.84375 -1.125 -2.453125 -1.125l-1.234375 0zm14.94458 -2.8125l3.375 10.546875l3.375 -10.546875l4.8125 0l0 15.15625l-3.671875 0l0 -3.546875l0.359375 -7.234375l-3.65625 10.78125l-2.421875 0l-3.671875 -10.796875l0.34375 7.25l0 3.546875l-3.65625 0l0 -15.15625l4.8125 0zm22.69336 12.328125l-5.015625 0l-0.875 2.828125l-3.90625 0l5.5625 -15.15625l3.4375 0l5.59375 15.15625l-3.921875 0l-0.875 -2.828125zm-4.140625 -2.828125l3.265625 0l-1.640625 -5.25l-1.625 5.25z" fill-rule="nonzero"/><path fill="#e67038" d="m814.1575 359.0735l271.21265 0l0 215.08661l-271.21265 0z" fill-rule="evenodd"/><path fill="#ffffff" d="m940.7272 458.78055l-5.40625 0l0 14.65625l-4.34375 0l0 -14.65625l-5.3125 0l0 -3.34375l15.0625 0l0 3.34375zm16.041687 8.5625q-0.078125 1.875 -1.015625 3.328125q-0.921875 1.4375 -2.59375 2.234375q-1.671875 0.78125 -3.828125 0.78125q-3.546875 0 -5.59375 -2.3125q-2.03125 -2.3125 -2.03125 -6.53125l0 -0.890625q0 -2.640625 0.921875 -4.625q0.921875 -2.0 2.640625 -3.078125q1.734375 -1.078125 4.015625 -1.078125q3.28125 0 5.265625 1.734375q1.984375 1.71875 2.265625 4.75l-4.328125 0q-0.046875 -1.65625 -0.828125 -2.359375q-0.78125 -0.71875 -2.375 -0.71875q-1.625 0 -2.375 1.21875q-0.75 1.203125 -0.796875 3.859375l0 1.265625q0 2.890625 0.71875 4.125q0.734375 1.234375 2.5 1.234375q1.5 0 2.28125 -0.703125q0.796875 -0.703125 0.84375 -2.234375l4.3125 0zm16.184082 -11.90625l0 11.78125q0 2.0 -0.859375 3.46875q-0.84375 1.46875 -2.4375 2.234375q-1.59375 0.765625 -3.78125 0.765625q-3.28125 0 -5.1875 -1.703125q-1.890625 -1.71875 -1.921875 -4.6875l0 -11.859375l4.375 0l0 11.953125q0.0625 2.953125 2.734375 2.953125q1.34375 0 2.03125 -0.734375q0.703125 -0.75 0.703125 -2.421875l0 -11.75l4.34375 0z" fill-rule="nonzero"/><path fill="#000000" fill-opacity="0.0" d="m676.3609 478.92914l86.96063 0l0 42.015747l-86.96063 0z" fill-rule="evenodd"/><path fill="#000000" d="m702.0096 503.36475l-4.375 0l-0.765625 2.484375l-3.421875 0l4.875 -13.265625l3.0 0l4.90625 13.265625l-3.4375 0l-0.78125 -2.484375zm-3.609375 -2.46875l2.84375 0l-1.421875 -4.59375l-1.421875 4.59375zm13.739014 -3.90625l2.15625 -4.40625l3.65625 0l-3.703125 6.578125l3.8125 6.6875l-3.6875 0l-2.234375 -4.484375l-2.234375 4.484375l-3.6875 0l3.796875 -6.6875l-3.6875 -6.578125l3.640625 0l2.171875 4.40625zm10.359192 8.859375l-3.1875 0l0 -13.265625l3.1875 0l0 13.265625zm10.145325 -5.1875l1.34375 0l0 2.375l-1.34375 0l0 2.8125l-3.078125 0l0 -2.8125l-5.125 0l-0.1875 -1.875l5.3125 -8.546875l0 -0.03125l3.078125 0l0 8.078125zm-5.453125 0l2.375 0l0 -4.078125l-0.1875 0.3125l-2.1875 3.765625zm15.178833 1.65625q0 -0.703125 -0.5 -1.09375q-0.5 -0.390625 -1.75 -0.796875q-1.234375 -0.421875 -2.03125 -0.8125q-2.578125 -1.265625 -2.578125 -3.484375q0 -1.109375 0.640625 -1.9375q0.640625 -0.84375 1.8125 -1.3125q1.1875 -0.484375 2.640625 -0.484375q1.4375 0 2.5625 0.515625q1.140625 0.515625 1.765625 1.453125q0.640625 0.9375 0.640625 2.15625l-3.1875 0q0 -0.8125 -0.5 -1.25q-0.5 -0.453125 -1.34375 -0.453125q-0.859375 0 -1.359375 0.375q-0.5 0.375 -0.5 0.96875q0 0.5 0.546875 0.921875q0.546875 0.40625 1.921875 0.859375q1.375 0.4375 2.265625 0.953125q2.15625 1.234375 2.15625 3.40625q0 1.75 -1.3125 2.75q-1.3125 0.984375 -3.609375 0.984375q-1.609375 0 -2.921875 -0.578125q-1.296875 -0.578125 -1.96875 -1.578125q-0.65625 -1.015625 -0.65625 -2.328125l3.21875 0q0 1.0625 0.546875 1.578125q0.546875 0.5 1.78125 0.5q0.796875 0 1.25 -0.34375q0.46875 -0.34375 0.46875 -0.96875z" fill-rule="nonzero"/><path fill="#000000" fill-opacity="0.0" d="m668.9394 408.60104l174.14172 0l0 42.015747l-174.14172 0z" fill-rule="evenodd"/><path fill="#e67038" d="m709.67664 435.52106l-3.1875 0l0 -13.265625l3.1875 0l0 13.265625zm4.9108887 -9.859375l0.09375 1.15625q1.015625 -1.328125 2.8125 -1.328125q1.546875 0 2.296875 0.921875q0.765625 0.90625 0.796875 2.765625l0 6.34375l-3.078125 0l0 -6.21875q0 -0.75 -0.3125 -1.09375q-0.296875 -0.359375 -1.09375 -0.359375q-0.890625 0 -1.328125 0.71875l0 6.953125l-3.078125 0l0 -9.859375l2.890625 0zm12.849609 7.09375q0 -0.390625 -0.40625 -0.625q-0.40625 -0.25 -1.5625 -0.5q-1.140625 -0.25 -1.890625 -0.65625q-0.75 -0.421875 -1.140625 -1.015625q-0.390625 -0.59375 -0.390625 -1.359375q0 -1.359375 1.125 -2.234375q1.125 -0.875 2.9375 -0.875q1.9375 0 3.125 0.890625q1.1875 0.875 1.1875 2.3125l-3.078125 0q0 -1.1875 -1.25 -1.1875q-0.484375 0 -0.8125 0.265625q-0.328125 0.265625 -0.328125 0.671875q0 0.40625 0.40625 0.671875q0.40625 0.25 1.28125 0.421875q0.875 0.15625 1.546875 0.375q2.21875 0.765625 2.21875 2.75q0 1.34375 -1.203125 2.203125q-1.1875 0.84375 -3.09375 0.84375q-1.265625 0 -2.265625 -0.453125q-0.984375 -0.46875 -1.546875 -1.25q-0.5625 -0.78125 -0.5625 -1.640625l2.875 0q0.015625 0.671875 0.453125 1.0q0.4375 0.3125 1.125 0.3125q0.625 0 0.9375 -0.25q0.3125 -0.265625 0.3125 -0.671875zm7.977722 -9.546875l0 2.453125l1.625 0l0 2.140625l-1.625 0l0 4.5q0 0.5625 0.203125 0.78125q0.203125 0.21875 0.78125 0.21875q0.46875 0 0.765625 -0.0625l0 2.203125q-0.828125 0.265625 -1.71875 0.265625q-1.59375 0 -2.359375 -0.75q-0.75 -0.75 -0.75 -2.265625l0 -4.890625l-1.25 0l0 -2.140625l1.25 0l0 -2.453125l3.078125 0zm8.794617 5.234375l-1.015625 -0.078125q-1.453125 0 -1.859375 0.921875l0 6.234375l-3.0625 0l0 -9.859375l2.875 0l0.09375 1.265625q0.78125 -1.4375 2.15625 -1.4375q0.5 0 0.859375 0.109375l-0.046875 2.84375zm6.9752197 6.015625q-0.984375 1.25 -2.640625 1.25q-1.609375 0 -2.453125 -0.9375q-0.828125 -0.953125 -0.828125 -2.71875l0 -6.390625l3.0625 0l0 6.40625q0 1.265625 1.234375 1.265625q1.0625 0 1.5 -0.75l0 -6.921875l3.09375 0l0 9.859375l-2.875 0l-0.09375 -1.0625zm8.818359 -1.125q0.640625 0 1.0 -0.34375q0.359375 -0.359375 0.34375 -0.984375l2.875 0q0 1.625 -1.15625 2.671875q-1.15625 1.03125 -3.0 1.03125q-2.140625 0 -3.390625 -1.34375q-1.234375 -1.359375 -1.234375 -3.75l0 -0.125q0 -1.484375 0.546875 -2.625q0.5625 -1.15625 1.59375 -1.765625q1.046875 -0.609375 2.46875 -0.609375q1.921875 0 3.046875 1.0625q1.125 1.0625 1.125 2.890625l-2.875 0q0 -0.765625 -0.375 -1.171875q-0.375 -0.421875 -1.0 -0.421875q-1.1875 0 -1.390625 1.515625q-0.0625 0.484375 -0.0625 1.34375q0 1.484375 0.34375 2.0625q0.359375 0.5625 1.140625 0.5625zm9.098755 -10.125l0 2.453125l1.625 0l0 2.140625l-1.625 0l0 4.5q0 0.5625 0.203125 0.78125q0.203125 0.21875 0.78125 0.21875q0.46875 0 0.765625 -0.0625l0 2.203125q-0.828125 0.265625 -1.71875 0.265625q-1.59375 0 -2.359375 -0.75q-0.75 -0.75 -0.75 -2.265625l0 -4.890625l-1.25 0l0 -2.140625l1.25 0l0 -2.453125l3.078125 0zm6.0602417 12.3125l-3.078125 0l0 -9.859375l3.078125 0l0 9.859375zm-3.25 -12.390625q0 -0.65625 0.46875 -1.078125q0.46875 -0.421875 1.21875 -0.421875q0.765625 0 1.234375 0.421875q0.484375 0.421875 0.484375 1.078125q0 0.65625 -0.484375 1.078125q-0.46875 0.40625 -1.234375 0.40625q-0.75 0 -1.21875 -0.40625q-0.46875 -0.421875 -0.46875 -1.078125zm4.753601 7.375q0 -1.484375 0.578125 -2.625q0.578125 -1.15625 1.640625 -1.765625q1.078125 -0.625 2.53125 -0.625q2.21875 0 3.484375 1.375q1.28125 1.359375 1.28125 3.71875l0 0.109375q0 2.3125 -1.28125 3.671875q-1.28125 1.34375 -3.46875 1.34375q-2.09375 0 -3.375 -1.265625q-1.28125 -1.265625 -1.375 -3.421875l-0.015625 -0.515625zm3.078125 0.1875q0 1.359375 0.421875 2.0q0.4375 0.640625 1.265625 0.640625q1.640625 0 1.6875 -2.515625l0 -0.3125q0 -2.65625 -1.703125 -2.65625q-1.53125 0 -1.671875 2.28125l0 0.5625zm10.616577 -5.03125l0.09375 1.15625q1.015625 -1.328125 2.8125 -1.328125q1.546875 0 2.296875 0.921875q0.765625 0.90625 0.796875 2.765625l0 6.34375l-3.078125 0l0 -6.21875q0 -0.75 -0.3125 -1.09375q-0.296875 -0.359375 -1.09375 -0.359375q-0.890625 0 -1.328125 0.71875l0 6.953125l-3.078125 0l0 -9.859375l2.890625 0zm12.849609 7.09375q0 -0.390625 -0.40625 -0.625q-0.40625 -0.25 -1.5625 -0.5q-1.140625 -0.25 -1.890625 -0.65625q-0.75 -0.421875 -1.140625 -1.015625q-0.390625 -0.59375 -0.390625 -1.359375q0 -1.359375 1.125 -2.234375q1.125 -0.875 2.9375 -0.875q1.9375 0 3.125 0.890625q1.1875 0.875 1.1875 2.3125l-3.078125 0q0 -1.1875 -1.25 -1.1875q-0.484375 0 -0.8125 0.265625q-0.328125 0.265625 -0.328125 0.671875q0 0.40625 0.40625 0.671875q0.40625 0.25 1.28125 0.421875q0.875 0.15625 1.546875 0.375q2.21875 0.765625 2.21875 2.75q0 1.34375 -1.203125 2.203125q-1.1875 0.84375 -3.09375 0.84375q-1.265625 0 -2.265625 -0.453125q-0.984375 -0.46875 -1.546875 -1.25q-0.5625 -0.78125 -0.5625 -1.640625l2.875 0q0.015625 0.671875 0.453125 1.0q0.4375 0.3125 1.125 0.3125q0.625 0 0.9375 -0.25q0.3125 -0.265625 0.3125 -0.671875z" fill-rule="nonzero"/><path fill="#8e7cc3" d="m889.19684 102.37533l121.13385 0l0 102.83465l-121.13385 0z" fill-rule="evenodd"/><path fill="#ffffff" d="m911.49365 141.14766l3.015625 -11.03125l4.078125 0l-5.09375 15.15625l-4.0 0l-5.0625 -15.15625l4.046875 0l3.015625 11.03125zm13.90802 4.125q-0.1875 -0.34375 -0.328125 -1.015625q-0.96875 1.21875 -2.703125 1.21875q-1.59375 0 -2.71875 -0.953125q-1.109375 -0.96875 -1.109375 -2.421875q0 -1.84375 1.34375 -2.78125q1.359375 -0.9375 3.953125 -0.9375l1.078125 0l0 -0.59375q0 -1.546875 -1.34375 -1.546875q-1.25 0 -1.25 1.234375l-3.515625 0q0 -1.640625 1.390625 -2.65625q1.390625 -1.015625 3.546875 -1.015625q2.15625 0 3.40625 1.046875q1.25 1.046875 1.28125 2.875l0 5.0q0.03125 1.546875 0.484375 2.375l0 0.171875l-3.515625 0zm-2.1875 -2.296875q0.65625 0 1.078125 -0.28125q0.4375 -0.28125 0.625 -0.625l0 -1.8125l-1.015625 0q-1.84375 0 -1.84375 1.65625q0 0.46875 0.328125 0.765625q0.328125 0.296875 0.828125 0.296875zm13.976379 -5.796875l-1.15625 -0.078125q-1.65625 0 -2.125 1.03125l0 7.140625l-3.5 0l0 -11.265625l3.28125 0l0.125 1.4375q0.875 -1.640625 2.46875 -1.640625q0.5625 0 0.96875 0.125l-0.0625 3.25zm4.971985 8.09375l-3.515625 0l0 -11.265625l3.515625 0l0 11.265625zm-3.734375 -14.171875q0 -0.75 0.546875 -1.21875q0.546875 -0.484375 1.40625 -0.484375q0.859375 0 1.40625 0.484375q0.546875 0.46875 0.546875 1.21875q0 0.75 -0.546875 1.234375q-0.546875 0.46875 -1.40625 0.46875q-0.859375 0 -1.40625 -0.46875q-0.546875 -0.484375 -0.546875 -1.234375zm12.238159 14.171875q-0.1875 -0.34375 -0.328125 -1.015625q-0.96875 1.21875 -2.703125 1.21875q-1.59375 0 -2.71875 -0.953125q-1.109375 -0.96875 -1.109375 -2.421875q0 -1.84375 1.34375 -2.78125q1.359375 -0.9375 3.953125 -0.9375l1.078125 0l0 -0.59375q0 -1.546875 -1.34375 -1.546875q-1.25 0 -1.25 1.234375l-3.515625 0q0 -1.640625 1.390625 -2.65625q1.390625 -1.015625 3.546875 -1.015625q2.15625 0 3.40625 1.046875q1.25 1.046875 1.28125 2.875l0 5.0q0.03125 1.546875 0.484375 2.375l0 0.171875l-3.515625 0zm-2.1875 -2.296875q0.65625 0 1.078125 -0.28125q0.4375 -0.28125 0.625 -0.625l0 -1.8125l-1.015625 0q-1.84375 0 -1.84375 1.65625q0 0.46875 0.328125 0.765625q0.328125 0.296875 0.828125 0.296875zm17.617004 -3.25q0 2.78125 -1.140625 4.265625q-1.140625 1.484375 -3.21875 1.484375q-1.71875 0 -2.78125 -1.359375l-0.140625 1.15625l-3.140625 0l0 -16.0l3.5 0l0 5.640625q0.984375 -1.109375 2.53125 -1.109375q2.109375 0 3.25 1.515625q1.140625 1.5 1.140625 4.234375l0 0.171875zm-3.515625 -0.21875q0 -1.625 -0.4375 -2.3125q-0.421875 -0.6875 -1.3125 -0.6875q-1.1875 0 -1.65625 0.90625l0 4.46875q0.453125 0.90625 1.671875 0.90625q1.234375 0 1.578125 -1.21875q0.15625 -0.59375 0.15625 -2.0625zm8.773132 5.765625l-3.515625 0l0 -16.0l3.515625 0l0 16.0zm7.613159 0.203125q-2.59375 0 -4.203125 -1.546875q-1.59375 -1.546875 -1.59375 -4.015625l0 -0.296875q0 -1.734375 0.640625 -3.046875q0.640625 -1.328125 1.859375 -2.046875q1.234375 -0.71875 2.921875 -0.71875q2.375 0 3.75 1.46875q1.375 1.46875 1.375 4.109375l0 1.359375l-6.984375 0q0.1875 0.953125 0.828125 1.5q0.640625 0.53125 1.640625 0.53125q1.671875 0 2.609375 -1.171875l1.59375 1.90625q-0.640625 0.90625 -1.84375 1.4375q-1.203125 0.53125 -2.59375 0.53125zm-0.390625 -8.96875q-1.546875 0 -1.84375 2.03125l3.546875 0l0 -0.265625q0.015625 -0.84375 -0.4375 -1.296875q-0.4375 -0.46875 -1.265625 -0.46875zm12.455505 5.59375q0 -0.4375 -0.46875 -0.703125q-0.46875 -0.28125 -1.78125 -0.5625q-1.3125 -0.296875 -2.171875 -0.765625q-0.859375 -0.484375 -1.3125 -1.15625q-0.4375 -0.6875 -0.4375 -1.5625q0 -1.546875 1.28125 -2.546875q1.28125 -1.0 3.359375 -1.0q2.21875 0 3.578125 1.015625q1.359375 1.0 1.359375 2.640625l-3.53125 0q0 -1.359375 -1.421875 -1.359375q-0.546875 0 -0.921875 0.3125q-0.375 0.3125 -0.375 0.765625q0 0.46875 0.453125 0.765625q0.453125 0.28125 1.453125 0.46875q1.015625 0.1875 1.78125 0.453125q2.53125 0.875 2.53125 3.140625q0 1.53125 -1.375 2.5q-1.359375 0.96875 -3.53125 0.96875q-1.453125 0 -2.59375 -0.515625q-1.125 -0.515625 -1.765625 -1.40625q-0.640625 -0.90625 -0.640625 -1.890625l3.28125 0q0.03125 0.78125 0.53125 1.140625q0.5 0.359375 1.28125 0.359375q0.71875 0 1.078125 -0.296875q0.359375 -0.296875 0.359375 -0.765625z" fill-rule="nonzero"/><path fill="#ffffff" d="m922.7498 168.10078q0 -2.53125 0.671875 -4.71875q0.6875 -2.1875 1.875 -3.703125q1.1875 -1.53125 2.65625 -2.125l0.65625 1.71875q-1.453125 1.078125 -2.25 3.359375q-0.796875 2.265625 -0.8125 5.328125l0 0.453125q0 3.140625 0.796875 5.453125q0.796875 2.296875 2.265625 3.359375l-0.65625 1.734375q-1.4375 -0.578125 -2.65625 -2.125q-1.21875 -1.546875 -1.875 -3.6875q-0.65625 -2.15625 -0.671875 -4.578125l0 -0.46875zm7.420044 6.171875l0 -15.15625l4.890625 0q2.015625 0 3.609375 0.90625q1.609375 0.90625 2.5 2.578125q0.90625 1.65625 0.921875 3.71875l0 0.6875q0 2.09375 -0.890625 3.75q-0.875 1.640625 -2.46875 2.578125q-1.59375 0.921875 -3.5625 0.9375l-5.0 0zm3.65625 -12.34375l0 9.53125l1.28125 0q1.5625 0 2.40625 -1.109375q0.84375 -1.125 0.84375 -3.34375l0 -0.65625q0 -2.1875 -0.84375 -3.296875q-0.84375 -1.125 -2.453125 -1.125l-1.234375 0zm10.13208 12.34375l0 -15.15625l4.890625 0q2.015625 0 3.609375 0.90625q1.609375 0.90625 2.5 2.578125q0.90625 1.65625 0.921875 3.71875l0 0.6875q0 2.09375 -0.890625 3.75q-0.875 1.640625 -2.46875 2.578125q-1.59375 0.921875 -3.5625 0.9375l-5.0 0zm3.65625 -12.34375l0 9.53125l1.28125 0q1.5625 0 2.40625 -1.109375q0.84375 -1.125 0.84375 -3.34375l0 -0.65625q0 -2.1875 -0.84375 -3.296875q-0.84375 -1.125 -2.453125 -1.125l-1.234375 0zm15.772644 6.984375l-1.984375 0l0 5.359375l-3.65625 0l0 -15.15625l5.96875 0q2.703125 0 4.21875 1.203125q1.515625 1.1875 1.515625 3.375q0 1.578125 -0.640625 2.625q-0.640625 1.03125 -2.0 1.6875l3.171875 6.109375l0 0.15625l-3.921875 0l-2.671875 -5.359375zm-1.984375 -2.8125l2.3125 0q1.046875 0 1.5625 -0.546875q0.53125 -0.546875 0.53125 -1.515625q0 -0.984375 -0.53125 -1.546875q-0.53125 -0.5625 -1.5625 -0.5625l-2.3125 0l0 4.171875zm15.632019 2.296875q0 2.453125 -0.71875 4.65625q-0.71875 2.1875 -1.984375 3.765625q-1.265625 1.578125 -2.734375 2.140625l-0.65625 -1.734375q1.4375 -1.078125 2.234375 -3.328125q0.796875 -2.25 0.828125 -5.171875l0 -0.640625q0 -3.140625 -0.796875 -5.4375q-0.796875 -2.296875 -2.265625 -3.375l0.65625 -1.71875q1.46875 0.5625 2.71875 2.109375q1.25 1.546875 1.96875 3.71875q0.734375 2.171875 0.75 4.5625l0 0.453125z" fill-rule="nonzero"/><path fill="#8e7cc3" d="m889.19684 728.0236l121.13385 0l0 102.834656l-121.13385 0z" fill-rule="evenodd"/><path fill="#ffffff" d="m914.24963 765.78033q-0.0625 1.59375 -0.84375 2.8125q-0.78125 1.203125 -2.203125 1.875q-1.40625 0.65625 -3.21875 0.65625q-2.984375 0 -4.703125 -1.9375q-1.71875 -1.953125 -1.71875 -5.5l0 -0.75q0 -2.234375 0.765625 -3.90625q0.78125 -1.671875 2.234375 -2.578125q1.46875 -0.90625 3.390625 -0.90625q2.75 0 4.421875 1.453125q1.6875 1.453125 1.90625 4.0l-3.640625 0q-0.03125 -1.390625 -0.6875 -1.984375q-0.65625 -0.609375 -2.0 -0.609375q-1.375 0 -2.015625 1.015625q-0.625 1.015625 -0.65625 3.265625l0 1.0625q0 2.4375 0.609375 3.484375q0.609375 1.03125 2.09375 1.03125q1.265625 0 1.921875 -0.59375q0.671875 -0.59375 0.71875 -1.890625l3.625 0zm1.137207 -0.59375q0 -1.6875 0.65625 -3.0q0.65625 -1.328125 1.875 -2.03125q1.234375 -0.703125 2.890625 -0.703125q2.53125 0 3.984375 1.5625q1.453125 1.5625 1.453125 4.265625l0 0.125q0 2.625 -1.46875 4.171875q-1.453125 1.546875 -3.953125 1.546875q-2.40625 0 -3.859375 -1.4375q-1.453125 -1.4375 -1.578125 -3.90625l0 -0.59375zm3.5 0.21875q0 1.5625 0.484375 2.296875q0.5 0.71875 1.453125 0.71875q1.875 0 1.921875 -2.890625l0 -0.34375q0 -3.03125 -1.9375 -3.03125q-1.765625 0 -1.90625 2.609375l-0.015625 0.640625zm12.132507 -5.75l0.125 1.3125q1.15625 -1.515625 3.21875 -1.515625q1.75 0 2.609375 1.046875q0.875 1.046875 0.90625 3.15625l0 7.265625l-3.515625 0l0 -7.109375q0 -0.859375 -0.34375 -1.25q-0.34375 -0.40625 -1.25 -0.40625q-1.03125 0 -1.53125 0.8125l0 7.953125l-3.5 0l0 -11.265625l3.28125 0zm14.71582 8.09375q0 -0.4375 -0.46875 -0.703125q-0.46875 -0.28125 -1.78125 -0.5625q-1.3125 -0.296875 -2.171875 -0.765625q-0.859375 -0.484375 -1.3125 -1.15625q-0.4375 -0.6875 -0.4375 -1.5625q0 -1.546875 1.28125 -2.546875q1.28125 -1.0 3.359375 -1.0q2.21875 0 3.578125 1.015625q1.359375 1.0 1.359375 2.640625l-3.53125 0q0 -1.359375 -1.421875 -1.359375q-0.546875 0 -0.921875 0.3125q-0.375 0.3125 -0.375 0.765625q0 0.46875 0.453125 0.765625q0.453125 0.28125 1.453125 0.46875q1.015625 0.1875 1.78125 0.453125q2.53125 0.875 2.53125 3.140625q0 1.53125 -1.375 2.5q-1.359375 0.96875 -3.53125 0.96875q-1.453125 0 -2.59375 -0.515625q-1.125 -0.515625 -1.765625 -1.40625q-0.640625 -0.90625 -0.640625 -1.890625l3.28125 0q0.03125 0.78125 0.53125 1.140625q0.5 0.359375 1.28125 0.359375q0.71875 0 1.078125 -0.296875q0.359375 -0.296875 0.359375 -0.765625zm9.111938 -10.890625l0 2.796875l1.84375 0l0 2.4375l-1.84375 0l0 5.15625q0 0.625 0.21875 0.875q0.234375 0.25 0.90625 0.25q0.53125 0 0.875 -0.0625l0 2.515625q-0.9375 0.296875 -1.96875 0.296875q-1.8125 0 -2.6875 -0.84375q-0.859375 -0.859375 -0.859375 -2.59375l0 -5.59375l-1.4375 0l0 -2.4375l1.4375 0l0 -2.796875l3.515625 0zm9.571106 14.0625q-0.1875 -0.34375 -0.328125 -1.015625q-0.96875 1.21875 -2.703125 1.21875q-1.59375 0 -2.71875 -0.953125q-1.109375 -0.96875 -1.109375 -2.421875q0 -1.84375 1.34375 -2.78125q1.359375 -0.9375 3.953125 -0.9375l1.078125 0l0 -0.59375q0 -1.546875 -1.34375 -1.546875q-1.25 0 -1.25 1.234375l-3.515625 0q0 -1.640625 1.390625 -2.65625q1.390625 -1.015625 3.546875 -1.015625q2.15625 0 3.40625 1.046875q1.25 1.046875 1.28125 2.875l0 5.0q0.03125 1.546875 0.484375 2.375l0 0.171875l-3.515625 0zm-2.1875 -2.296875q0.65625 0 1.078125 -0.28125q0.4375 -0.28125 0.625 -0.625l0 -1.8125l-1.015625 0q-1.84375 0 -1.84375 1.65625q0 0.46875 0.328125 0.765625q0.328125 0.296875 0.828125 0.296875zm10.38269 -8.96875l0.125 1.3125q1.15625 -1.515625 3.21875 -1.515625q1.75 0 2.609375 1.046875q0.875 1.046875 0.90625 3.15625l0 7.265625l-3.515625 0l0 -7.109375q0 -0.859375 -0.34375 -1.25q-0.34375 -0.40625 -1.25 -0.40625q-1.03125 0 -1.53125 0.8125l0 7.953125l-3.5 0l0 -11.265625l3.28125 0zm12.90332 -2.796875l0 2.796875l1.84375 0l0 2.4375l-1.84375 0l0 5.15625q0 0.625 0.21875 0.875q0.234375 0.25 0.90625 0.25q0.53125 0 0.875 -0.0625l0 2.515625q-0.9375 0.296875 -1.96875 0.296875q-1.8125 0 -2.6875 -0.84375q-0.859375 -0.859375 -0.859375 -2.59375l0 -5.59375l-1.4375 0l0 -2.4375l1.4375 0l0 -2.796875l3.515625 0zm9.133606 10.890625q0 -0.4375 -0.46875 -0.703125q-0.46875 -0.28125 -1.78125 -0.5625q-1.3125 -0.296875 -2.171875 -0.765625q-0.859375 -0.484375 -1.3125 -1.15625q-0.4375 -0.6875 -0.4375 -1.5625q0 -1.546875 1.28125 -2.546875q1.28125 -1.0 3.359375 -1.0q2.21875 0 3.578125 1.015625q1.359375 1.0 1.359375 2.640625l-3.53125 0q0 -1.359375 -1.421875 -1.359375q-0.546875 0 -0.921875 0.3125q-0.375 0.3125 -0.375 0.765625q0 0.46875 0.453125 0.765625q0.453125 0.28125 1.453125 0.46875q1.015625 0.1875 1.78125 0.453125q2.53125 0.875 2.53125 3.140625q0 1.53125 -1.375 2.5q-1.359375 0.96875 -3.53125 0.96875q-1.453125 0 -2.59375 -0.515625q-1.125 -0.515625 -1.765625 -1.40625q-0.640625 -0.90625 -0.640625 -1.890625l3.28125 0q0.03125 0.78125 0.53125 1.140625q0.5 0.359375 1.28125 0.359375q0.71875 0 1.078125 -0.296875q0.359375 -0.296875 0.359375 -0.765625z" fill-rule="nonzero"/><path fill="#ffffff" d="m922.7498 793.7491q0 -2.53125 0.671875 -4.71875q0.6875 -2.1875 1.875 -3.703125q1.1875 -1.53125 2.65625 -2.125l0.65625 1.71875q-1.453125 1.078125 -2.25 3.359375q-0.796875 2.265625 -0.8125 5.328125l0 0.453125q0 3.140625 0.796875 5.453125q0.796875 2.296875 2.265625 3.359375l-0.65625 1.734375q-1.4375 -0.578125 -2.65625 -2.125q-1.21875 -1.546875 -1.875 -3.6875q-0.65625 -2.15625 -0.671875 -4.578125l0 -0.46875zm7.420044 6.171875l0 -15.15625l4.890625 0q2.015625 0 3.609375 0.90625q1.609375 0.90625 2.5 2.578125q0.90625 1.65625 0.921875 3.71875l0 0.6875q0 2.09375 -0.890625 3.75q-0.875 1.640625 -2.46875 2.578125q-1.59375 0.921875 -3.5625 0.9375l-5.0 0zm3.65625 -12.34375l0 9.53125l1.28125 0q1.5625 0 2.40625 -1.109375q0.84375 -1.125 0.84375 -3.34375l0 -0.65625q0 -2.1875 -0.84375 -3.296875q-0.84375 -1.125 -2.453125 -1.125l-1.234375 0zm10.13208 12.34375l0 -15.15625l4.890625 0q2.015625 0 3.609375 0.90625q1.609375 0.90625 2.5 2.578125q0.90625 1.65625 0.921875 3.71875l0 0.6875q0 2.09375 -0.890625 3.75q-0.875 1.640625 -2.46875 2.578125q-1.59375 0.921875 -3.5625 0.9375l-5.0 0zm3.65625 -12.34375l0 9.53125l1.28125 0q1.5625 0 2.40625 -1.109375q0.84375 -1.125 0.84375 -3.34375l0 -0.65625q0 -2.1875 -0.84375 -3.296875q-0.84375 -1.125 -2.453125 -1.125l-1.234375 0zm15.772644 6.984375l-1.984375 0l0 5.359375l-3.65625 0l0 -15.15625l5.96875 0q2.703125 0 4.21875 1.203125q1.515625 1.1875 1.515625 3.375q0 1.578125 -0.640625 2.625q-0.640625 1.03125 -2.0 1.6875l3.171875 6.109375l0 0.15625l-3.921875 0l-2.671875 -5.359375zm-1.984375 -2.8125l2.3125 0q1.046875 0 1.5625 -0.546875q0.53125 -0.546875 0.53125 -1.515625q0 -0.984375 -0.53125 -1.546875q-0.53125 -0.5625 -1.5625 -0.5625l-2.3125 0l0 4.171875zm15.632019 2.296875q0 2.453125 -0.71875 4.65625q-0.71875 2.1875 -1.984375 3.765625q-1.265625 1.578125 -2.734375 2.140625l-0.65625 -1.734375q1.4375 -1.078125 2.234375 -3.328125q0.796875 -2.25 0.828125 -5.171875l0 -0.640625q0 -3.140625 -0.796875 -5.4375q-0.796875 -2.296875 -2.265625 -3.375l0.65625 -1.71875q1.46875 0.5625 2.71875 2.109375q1.25 1.546875 1.96875 3.71875q0.734375 2.171875 0.75 4.5625l0 0.453125z" fill-rule="nonzero"/><path fill="#8e7cc3" d="m925.33856 229.63518l24.425232 -24.425201l24.42517 24.425201l-12.212585 0l0 105.00786l12.212585 0l-24.42517 24.425201l-24.425232 -24.425201l12.2126465 0l0 -105.00786z" fill-rule="evenodd"/><path fill="#8e7cc3" d="m925.33856 598.5906l24.425232 -24.425232l24.42517 24.425232l-12.212585 0l0 129.43304l-24.42517 0l0 -129.43304z" fill-rule="evenodd"/><path fill="#000000" fill-opacity="0.0" d="m937.4836 261.13385l130.01581 0l0 42.015747l-130.01581 0z" fill-rule="evenodd"/><path fill="#000000" d="m990.499 285.5695l-4.375 0l-0.765625 2.484375l-3.421875 0l4.875 -13.265625l3.0 0l4.90625 13.265625l-3.4375 0l-0.78125 -2.484375zm-3.609375 -2.46875l2.84375 0l-1.421875 -4.59375l-1.421875 4.59375zm13.739014 -3.90625l2.15625 -4.40625l3.65625 0l-3.703125 6.578125l3.8125 6.6875l-3.6875 0l-2.234375 -4.484375l-2.234375 4.484375l-3.6875 0l3.796875 -6.6875l-3.6875 -6.578125l3.640625 0l2.171875 4.40625zm10.359192 8.859375l-3.1875 0l0 -13.265625l3.1875 0l0 13.265625zm10.145325 -5.1875l1.34375 0l0 2.375l-1.34375 0l0 2.8125l-3.078125 0l0 -2.8125l-5.125 0l-0.1875 -1.875l5.3125 -8.546875l0 -0.03125l3.078125 0l0 8.078125zm-5.453125 0l2.375 0l0 -4.078125l-0.1875 0.3125l-2.1875 3.765625z" fill-rule="nonzero"/><path fill="#000000" fill-opacity="0.0" d="m937.4836 630.084l130.01581 0l0 42.015747l-130.01581 0z" fill-rule="evenodd"/><path fill="#000000" d="m990.499 654.5196l-4.375 0l-0.765625 2.484375l-3.421875 0l4.875 -13.265625l3.0 0l4.90625 13.265625l-3.4375 0l-0.78125 -2.484375zm-3.609375 -2.46875l2.84375 0l-1.421875 -4.59375l-1.421875 4.59375zm13.739014 -3.90625l2.15625 -4.40625l3.65625 0l-3.703125 6.578125l3.8125 6.6875l-3.6875 0l-2.234375 -4.484375l-2.234375 4.484375l-3.6875 0l3.796875 -6.6875l-3.6875 -6.578125l3.640625 0l2.171875 4.40625zm10.359192 8.859375l-3.1875 0l0 -13.265625l3.1875 0l0 13.265625zm10.145325 -5.1875l1.34375 0l0 2.375l-1.34375 0l0 2.8125l-3.078125 0l0 -2.8125l-5.125 0l-0.1875 -1.875l5.3125 -8.546875l0 -0.03125l3.078125 0l0 8.078125zm-5.453125 0l2.375 0l0 -4.078125l-0.1875 0.3125l-2.1875 3.765625z" fill-rule="nonzero"/><path fill="#000000" fill-opacity="0.0" d="m817.6981 317.0525l131.68506 0l0 42.015747l-131.68506 0z" fill-rule="evenodd"/><path fill="#e67038" d="m852.4934 343.9725l0 -13.265625l4.28125 0q1.75 0 3.15625 0.796875q1.40625 0.796875 2.1875 2.25q0.796875 1.453125 0.796875 3.265625l0 0.609375q0 1.8125 -0.765625 3.265625q-0.765625 1.4375 -2.171875 2.25q-1.390625 0.8125 -3.125 0.828125l-4.359375 0zm3.203125 -10.796875l0 8.34375l1.109375 0q1.375 0 2.109375 -0.984375q0.734375 -0.984375 0.734375 -2.90625l0 -0.578125q0 -1.921875 -0.734375 -2.890625q-0.734375 -0.984375 -2.140625 -0.984375l-1.078125 0zm13.795349 6.109375l-1.734375 0l0 4.6875l-3.203125 0l0 -13.265625l5.21875 0q2.359375 0 3.6875 1.046875q1.328125 1.046875 1.328125 2.96875q0 1.375 -0.5625 2.296875q-0.546875 0.90625 -1.75 1.46875l2.78125 5.34375l0 0.140625l-3.4375 0l-2.328125 -4.6875zm-1.734375 -2.46875l2.015625 0q0.90625 0 1.359375 -0.46875q0.46875 -0.484375 0.46875 -1.328125q0 -0.859375 -0.46875 -1.34375q-0.453125 -0.5 -1.359375 -0.5l-2.015625 0l0 3.640625zm16.498413 4.671875l-4.375 0l-0.765625 2.484375l-3.421875 0l4.875 -13.265625l3.0 0l4.90625 13.265625l-3.4375 0l-0.78125 -2.484375zm-3.609375 -2.46875l2.84375 0l-1.421875 -4.59375l-1.421875 4.59375zm12.989014 -8.3125l2.953125 9.234375l2.953125 -9.234375l4.21875 0l0 13.265625l-3.21875 0l0 -3.09375l0.3125 -6.34375l-3.203125 9.4375l-2.109375 0l-3.21875 -9.453125l0.3125 6.359375l0 3.09375l-3.203125 0l0 -13.265625l4.203125 0zm21.164062 7.84375q0 2.6875 -1.203125 4.15625q-1.203125 1.453125 -3.40625 1.453125q-2.203125 0 -3.421875 -1.46875q-1.203125 -1.46875 -1.203125 -4.140625l0 -2.421875q0 -2.6875 1.203125 -4.140625q1.203125 -1.46875 3.40625 -1.46875q2.203125 0 3.40625 1.46875q1.21875 1.46875 1.21875 4.15625l0 2.40625zm-3.0625 -2.8125q0 -1.4375 -0.375 -2.140625q-0.375 -0.703125 -1.1875 -0.703125q-0.796875 0 -1.15625 0.65625q-0.359375 0.65625 -0.375 1.984375l0 3.390625q0 1.484375 0.359375 2.171875q0.375 0.6875 1.1875 0.6875q0.78125 0 1.15625 -0.671875q0.375 -0.671875 0.390625 -2.09375l0 -3.28125z" fill-rule="nonzero"/><path fill="#000000" fill-opacity="0.0" d="m817.12067 576.3123l131.68506 0l0 42.015747l-131.68506 0z" fill-rule="evenodd"/><path fill="#e67038" d="m851.916 603.23236l0 -13.265625l4.28125 0q1.75 0 3.15625 0.796875q1.40625 0.796875 2.1875 2.25q0.796875 1.453125 0.796875 3.265625l0 0.609375q0 1.8125 -0.765625 3.265625q-0.765625 1.4375 -2.171875 2.25q-1.390625 0.8125 -3.125 0.828125l-4.359375 0zm3.203125 -10.796875l0 8.34375l1.109375 0q1.375 0 2.109375 -0.984375q0.734375 -0.984375 0.734375 -2.90625l0 -0.578125q0 -1.921875 -0.734375 -2.890625q-0.734375 -0.984375 -2.140625 -0.984375l-1.078125 0zm13.795349 6.109375l-1.734375 0l0 4.6875l-3.203125 0l0 -13.265625l5.21875 0q2.359375 0 3.6875 1.046875q1.328125 1.046875 1.328125 2.96875q0 1.375 -0.5625 2.296875q-0.546875 0.90625 -1.75 1.46875l2.78125 5.34375l0 0.140625l-3.4375 0l-2.328125 -4.6875zm-1.734375 -2.46875l2.015625 0q0.90625 0 1.359375 -0.46875q0.46875 -0.484375 0.46875 -1.328125q0 -0.859375 -0.46875 -1.34375q-0.453125 -0.5 -1.359375 -0.5l-2.015625 0l0 3.640625zm16.498413 4.671875l-4.375 0l-0.765625 2.484375l-3.421875 0l4.875 -13.265625l3.0 0l4.90625 13.265625l-3.4375 0l-0.78125 -2.484375zm-3.609375 -2.46875l2.84375 0l-1.421875 -4.59375l-1.421875 4.59375zm12.988953 -8.3125l2.953125 9.234375l2.953125 -9.234375l4.21875 0l0 13.265625l-3.21875 0l0 -3.09375l0.3125 -6.34375l-3.203125 9.4375l-2.109375 0l-3.21875 -9.453125l0.3125 6.359375l0 3.09375l-3.203125 0l0 -13.265625l4.203125 0zm18.757812 13.265625l-3.078125 0l0 -9.796875l-3.015625 0.875l0 -2.328125l5.8125 -2.015625l0.28125 0l0 13.265625z" fill-rule="nonzero"/><path fill="#8e7cc3" d="m790.1391 442.1916l24.425232 24.425201l-24.425232 24.425201l0 -12.212585l-164.61414 0l0 -24.425201l164.61414 0z" fill-rule="evenodd"/><path fill="#8e7cc3" d="m194.62993 415.19946l121.133865 0l0 102.834656l-121.133865 0z" fill-rule="evenodd"/><path fill="#ffffff" d="m210.65877 443.8168l-3.421875 0l0 -14.21875l3.421875 0l0 14.21875zm5.2539062 -10.5625l0.09375 1.234375q1.09375 -1.4375 3.03125 -1.4375q1.640625 0 2.453125 0.984375q0.828125 0.984375 0.84375 2.96875l0 6.8125l-3.296875 0l0 -6.671875q0 -0.796875 -0.328125 -1.171875q-0.3125 -0.375 -1.15625 -0.375q-0.96875 0 -1.4375 0.75l0 7.46875l-3.296875 0l0 -10.5625l3.09375 0zm13.779297 7.59375q0 -0.421875 -0.4375 -0.671875q-0.4375 -0.25 -1.671875 -0.515625q-1.234375 -0.28125 -2.03125 -0.71875q-0.796875 -0.453125 -1.21875 -1.09375q-0.421875 -0.640625 -0.421875 -1.453125q0 -1.453125 1.203125 -2.390625q1.203125 -0.953125 3.140625 -0.953125q2.09375 0 3.359375 0.953125q1.28125 0.9375 1.28125 2.484375l-3.3125 0q0 -1.265625 -1.328125 -1.265625q-0.515625 0 -0.875 0.296875q-0.34375 0.28125 -0.34375 0.703125q0 0.4375 0.421875 0.71875q0.4375 0.265625 1.375 0.453125q0.9375 0.171875 1.65625 0.421875q2.375 0.8125 2.375 2.9375q0 1.4375 -1.28125 2.359375q-1.28125 0.90625 -3.328125 0.90625q-1.359375 0 -2.421875 -0.484375q-1.0625 -0.5 -1.65625 -1.34375q-0.59375 -0.84375 -0.59375 -1.765625l3.078125 0q0.015625 0.734375 0.484375 1.078125q0.46875 0.328125 1.203125 0.328125q0.671875 0 1.0 -0.265625q0.34375 -0.28125 0.34375 -0.71875zm8.541016 -10.21875l0 2.625l1.75 0l0 2.28125l-1.75 0l0 4.828125q0 0.59375 0.21875 0.828125q0.21875 0.234375 0.859375 0.234375q0.484375 0 0.8125 -0.046875l0 2.34375q-0.890625 0.296875 -1.859375 0.296875q-1.6875 0 -2.5 -0.796875q-0.8125 -0.8125 -0.8125 -2.4375l0 -5.25l-1.34375 0l0 -2.28125l1.34375 0l0 -2.625l3.28125 0zm9.427734 5.59375l-1.078125 -0.078125q-1.5625 0 -2.0 0.984375l0 6.6875l-3.28125 0l0 -10.5625l3.078125 0l0.109375 1.359375q0.828125 -1.5625 2.3125 -1.5625q0.53125 0 0.921875 0.125l-0.0625 3.046875zm7.484375 6.453125q-1.046875 1.34375 -2.828125 1.34375q-1.734375 0 -2.625 -1.015625q-0.890625 -1.015625 -0.890625 -2.90625l0 -6.84375l3.28125 0l0 6.859375q0 1.359375 1.328125 1.359375q1.125 0 1.609375 -0.8125l0 -7.40625l3.3124847 0l0 10.5625l-3.0937347 0l-0.09375 -1.140625zm9.451157 -1.203125q0.6875 0 1.0625 -0.375q0.390625 -0.375 0.390625 -1.046875l3.078125 0q0 1.734375 -1.25 2.859375q-1.234375 1.109375 -3.203125 1.109375q-2.296875 0 -3.625 -1.453125q-1.328125 -1.453125 -1.328125 -4.0l0 -0.140625q0 -1.609375 0.578125 -2.828125q0.59375 -1.21875 1.703125 -1.875q1.125 -0.671875 2.640625 -0.671875q2.0625 0 3.265625 1.140625q1.21875 1.140625 1.21875 3.09375l-3.078125 0q0 -0.8125 -0.40625 -1.25q-0.40625 -0.4375 -1.078125 -0.4375q-1.28125 0 -1.484375 1.625q-0.078125 0.515625 -0.078125 1.421875q0 1.59375 0.375 2.21875q0.390625 0.609375 1.21875 0.609375zm9.75 -10.84375l0 2.625l1.75 0l0 2.28125l-1.75 0l0 4.828125q0 0.59375 0.21875 0.828125q0.21875 0.234375 0.859375 0.234375q0.484375 0 0.8125 -0.046875l0 2.34375q-0.890625 0.296875 -1.859375 0.296875q-1.6875 0 -2.5 -0.796875q-0.8125 -0.8125 -0.8125 -2.4375l0 -5.25l-1.34375 0l0 -2.28125l1.34375 0l0 -2.625l3.28125 0zm6.5058594 13.1875l-3.296875 0l0 -10.5625l3.296875 0l0 10.5625zm-3.484375 -13.296875q0 -0.703125 0.5 -1.140625q0.515625 -0.453125 1.3125 -0.453125q0.8125 0 1.3125 0.453125q0.515625 0.4375 0.515625 1.140625q0 0.703125 -0.515625 1.15625q-0.5 0.453125 -1.3125 0.453125q-0.796875 0 -1.3125 -0.453125q-0.5 -0.453125 -0.5 -1.15625zm5.107422 7.921875q0 -1.59375 0.609375 -2.828125q0.609375 -1.234375 1.765625 -1.890625q1.15625 -0.671875 2.703125 -0.671875q2.375 0 3.734375 1.46875q1.375 1.46875 1.375 4.0l0 0.125q0 2.46875 -1.375 3.921875q-1.375 1.453125 -3.71875 1.453125q-2.25 0 -3.625 -1.359375q-1.359375 -1.359375 -1.46875 -3.671875l0 -0.546875zm3.28125 0.203125q0 1.453125 0.453125 2.140625q0.46875 0.6875 1.359375 0.6875q1.765625 0 1.796875 -2.703125l0 -0.328125q0 -2.84375 -1.8125 -2.84375q-1.640625 0 -1.78125 2.453125l-0.015625 0.59375zm11.386719 -5.390625l0.09375 1.234375q1.09375 -1.4375 3.03125 -1.4375q1.640625 0 2.453125 0.984375q0.828125 0.984375 0.84375 2.96875l0 6.8125l-3.296875 0l0 -6.671875q0 -0.796875 -0.328125 -1.171875q-0.3125 -0.375 -1.15625 -0.375q-0.96875 0 -1.4375 0.75l0 7.46875l-3.296875 0l0 -10.5625l3.09375 0z" fill-rule="nonzero"/><path fill="#ffffff" d="m227.82283 471.8168l0 -14.21875l5.109375 0q2.734375 0 4.15625 1.015625q1.4375 1.0 1.4375 2.90625q0 1.109375 -0.515625 1.890625q-0.5 0.78125 -1.484375 1.15625q1.125 0.28125 1.71875 1.09375q0.59375 0.796875 0.59375 1.953125q0 2.078125 -1.328125 3.140625q-1.328125 1.046875 -3.921875 1.0625l-5.765625 0zm3.421875 -6.046875l0 3.40625l2.25 0q0.921875 0 1.421875 -0.421875q0.5 -0.421875 0.5 -1.203125q0 -1.765625 -1.765625 -1.78125l-2.40625 0zm0 -2.25l1.796875 0q1.109375 0 1.59375 -0.40625q0.484375 -0.40625 0.484375 -1.1875q0 -0.890625 -0.53125 -1.28125q-0.515625 -0.40625 -1.65625 -0.40625l-1.6875 0l0 3.28125zm15.619141 7.15625q-1.046875 1.34375 -2.828125 1.34375q-1.734375 0 -2.625 -1.015625q-0.890625 -1.015625 -0.890625 -2.90625l0 -6.84375l3.28125 0l0 6.859375q0 1.359375 1.328125 1.359375q1.125 0 1.609375 -0.8125l0 -7.40625l3.3125 0l0 10.5625l-3.09375 0l-0.09375 -1.140625zm5.716797 1.140625l0 -8.28125l-1.53125 0l0 -2.28125l1.53125 0l0 -0.84375q0 -1.8125 1.0625 -2.796875q1.0625 -1.0 2.9843597 -1.0q0.703125 0 1.546875 0.203125l0 2.421875q-0.296875 -0.09375 -0.796875 -0.09375q-1.4999847 0 -1.4999847 1.296875l0 0.8125l2.0624847 0l0 2.28125l-2.0624847 0l0 8.28125l-3.296875 0zm7.2460785 0l0 -8.28125l-1.53125 0l0 -2.28125l1.53125 0l0 -0.84375q0 -1.8125 1.0625 -2.796875q1.0625 -1.0 2.984375 -1.0q0.703125 0 1.546875 0.203125l0 2.421875q-0.296875 -0.09375 -0.796875 -0.09375q-1.5 0 -1.5 1.296875l0 0.8125l2.0625 0l0 2.28125l-2.0625 0l0 8.28125l-3.296875 0zm11.386719 0.203125q-2.421875 0 -3.9375 -1.453125q-1.5 -1.453125 -1.5 -3.78125l0 -0.265625q0 -1.625 0.59375 -2.859375q0.609375 -1.25 1.765625 -1.921875q1.15625 -0.6875 2.734375 -0.6875q2.21875 0 3.5 1.390625q1.296875 1.375 1.296875 3.84375l0 1.28125l-6.53125 0q0.171875 0.890625 0.765625 1.40625q0.59375 0.5 1.546875 0.5q1.5625 0 2.4375 -1.09375l1.5 1.78125q-0.609375 0.84375 -1.75 1.359375q-1.125 0.5 -2.421875 0.5zm-0.359375 -8.421875q-1.453125 0 -1.71875 1.90625l3.3125 0l0 -0.25q0.015625 -0.796875 -0.40625 -1.21875q-0.40625 -0.4375 -1.1875 -0.4375zm12.529297 0.625l-1.078125 -0.078125q-1.5625 0 -2.0 0.984375l0 6.6875l-3.28125 0l0 -10.5625l3.078125 0l0.109375 1.359375q0.828125 -1.5625 2.3125 -1.5625q0.53125 0 0.921875 0.125l-0.0625 3.046875z" fill-rule="nonzero"/><path fill="#ffffff" d="m229.86482 494.03555q0 -2.390625 0.625 -4.4375q0.640625 -2.046875 1.75 -3.46875q1.125 -1.4375 2.5 -2.0l0.625 1.625q-1.375 1.0 -2.125 3.140625q-0.734375 2.125 -0.75 5.0l0 0.4375q0 2.9375 0.75 5.09375q0.75 2.15625 2.125 3.171875l-0.625 1.609375q-1.34375 -0.546875 -2.484375 -2.0q-1.140625 -1.4375 -1.765625 -3.453125q-0.609375 -2.015625 -0.625 -4.28125l0 -0.4375zm6.966797 5.78125l0 -14.21875l4.578125 0q1.890625 0 3.390625 0.859375q1.5 0.84375 2.34375 2.40625q0.84375 1.5625 0.859375 3.484375l0 0.65625q0 1.953125 -0.828125 3.5q-0.828125 1.546875 -2.328125 2.421875q-1.5 0.875 -3.34375 0.890625l-4.671875 0zm3.421875 -11.578125l0 8.9375l1.1875 0q1.484375 0 2.265625 -1.046875q0.796875 -1.046875 0.796875 -3.125l0 -0.609375q0 -2.0625 -0.796875 -3.109375q-0.78125 -1.046875 -2.296875 -1.046875l-1.15625 0zm9.5078125 11.578125l0 -14.21875l4.578125 0q1.8906097 0 3.3906097 0.859375q1.5 0.84375 2.34375 2.40625q0.84375 1.5625 0.859375 3.484375l0 0.65625q0 1.953125 -0.828125 3.5q-0.828125 1.546875 -2.328125 2.421875q-1.5 0.875 -3.3437347 0.890625l-4.671875 0zm3.421875 -11.578125l0 8.9375l1.1875 0q1.484375 0 2.2656097 -1.046875q0.796875 -1.046875 0.796875 -3.125l0 -0.609375q0 -2.0625 -0.796875 -3.109375q-0.78123474 -1.046875 -2.2968597 -1.046875l-1.15625 0zm14.789047 6.5625l-1.859375 0l0 5.015625l-3.421875 0l0 -14.21875l5.59375 0q2.53125 0 3.953125 1.125q1.421875 1.125 1.421875 3.171875q0 1.484375 -0.609375 2.46875q-0.59375 0.96875 -1.859375 1.578125l2.96875 5.734375l0 0.140625l-3.671875 0l-2.515625 -5.015625zm-1.859375 -2.65625l2.171875 0q0.96875 0 1.46875 -0.5q0.5 -0.515625 0.5 -1.4375q0 -0.921875 -0.5 -1.4375q-0.5 -0.53125 -1.46875 -0.53125l-2.171875 0l0 3.90625zm14.65625 2.15625q0 2.296875 -0.671875 4.359375q-0.671875 2.0625 -1.859375 3.546875q-1.1875 1.484375 -2.5625 2.0l-0.625 -1.609375q1.359375 -1.015625 2.09375 -3.125q0.75 -2.125 0.78125 -4.859375l0 -0.59375q0 -2.9375 -0.75 -5.09375q-0.75 -2.171875 -2.125 -3.171875l0.625 -1.625q1.375 0.546875 2.546875 2.0q1.171875 1.4375 1.84375 3.484375q0.6875 2.03125 0.703125 4.265625l0 0.421875z" fill-rule="nonzero"/><path fill="#8e7cc3" d="m480.37796 442.1916l24.425201 24.425201l-24.425201 24.425201l0 -12.212585l-164.61417 0l0 -24.425201l164.61417 0z" fill-rule="evenodd"/><path fill="#000000" fill-opacity="0.0" d="m337.57544 478.92914l130.01575 0l0 42.015747l-130.01575 0z" fill-rule="evenodd"/><path fill="#000000" d="m390.59088 503.36475l-4.375 0l-0.765625 2.484375l-3.421875 0l4.875 -13.265625l3.0 0l4.90625 13.265625l-3.4375 0l-0.78125 -2.484375zm-3.609375 -2.46875l2.84375 0l-1.421875 -4.59375l-1.421875 4.59375zm13.738983 -3.90625l2.15625 -4.40625l3.65625 0l-3.703125 6.578125l3.8125 6.6875l-3.6875 0l-2.234375 -4.484375l-2.234375 4.484375l-3.6875 0l3.796875 -6.6875l-3.6875 -6.578125l3.640625 0l2.171875 4.40625zm10.359253 8.859375l-3.1875 0l0 -13.265625l3.1875 0l0 13.265625zm10.145294 -5.1875l1.34375 0l0 2.375l-1.34375 0l0 2.8125l-3.078125 0l0 -2.8125l-5.125 0l-0.1875 -1.875l5.3125 -8.546875l0 -0.03125l3.078125 0l0 8.078125zm-5.453125 0l2.375 0l0 -4.078125l-0.1875 0.3125l-2.1875 3.765625z" fill-rule="nonzero"/></g></svg>