<svg version="1.1" viewBox="0.0 0.0 1280.0 960.0" fill="none" stroke="none" stroke-linecap="square" stroke-miterlimit="10" xmlns:xlink="http://www.w3.org/1999/xlink" xmlns="http://www.w3.org/2000/svg"><clipPath id="p.0"><path d="m0 0l1280.0 0l0 960.0l-1280.0 0l0 -960.0z" clip-rule="nonzero"/></clipPath><g clip-path="url(#p.0)"><path fill="#000000" fill-opacity="0.0" d="m0 0l1280.0 0l0 960.0l-1280.0 0z" fill-rule="evenodd"/><path fill="#f6b26b" d="m381.75854 96.727036l79.40155 0l0 765.5433l-79.40155 0z" fill-rule="evenodd"/><path fill="#e69138" d="m9.884515 394.99475l181.19684 0l0 169.00787l-181.19684 0z" fill-rule="evenodd"/><path fill="#ffffff" d="m57.490753 474.14807l-5.125 0l0 13.890625l-4.109375 0l0 -13.890625l-5.03125 0l0 -3.171875l14.265625 0l0 3.171875zm6.6484375 14.125q-2.921875 0 -4.734375 -1.734375q-1.796875 -1.75 -1.796875 -4.53125l0 -0.328125q0 -1.953125 0.71875 -3.4375q0.71875 -1.484375 2.09375 -2.296875q1.390625 -0.828125 3.296875 -0.828125q2.671875 0 4.21875 1.671875q1.546875 1.65625 1.546875 4.609375l0 1.546875l-7.859375 0q0.21875 1.0625 0.921875 1.671875q0.71875 0.609375 1.859375 0.609375q1.875 0 2.921875 -1.3125l1.8125 2.125q-0.734375 1.03125 -2.09375 1.640625q-1.359375 0.59375 -2.90625 0.59375zm-0.453125 -10.109375q-1.734375 0 -2.0625 2.296875l3.984375 0l0 -0.296875q0.03125 -0.953125 -0.484375 -1.46875q-0.5 -0.53125 -1.4375 -0.53125zm11.003906 -2.8125l0.125 1.5q1.3125 -1.734375 3.625 -1.734375q1.984375 0 2.953125 1.1875q0.984375 1.1875 1.015625 3.5625l0 8.171875l-3.953125 0l0 -8.0q0 -0.96875 -0.390625 -1.421875q-0.390625 -0.453125 -1.40625 -0.453125q-1.15625 0 -1.71875 0.921875l0 8.953125l-3.953125 0l0 -12.6875l3.703125 0zm16.550781 9.125q0 -0.5 -0.53125 -0.796875q-0.53125 -0.3125 -2.015625 -0.640625q-1.46875 -0.328125 -2.4375 -0.859375q-0.953125 -0.546875 -1.453125 -1.296875q-0.5 -0.765625 -0.5 -1.75q0 -1.75 1.4375 -2.875q1.4375 -1.140625 3.78125 -1.140625q2.5 0 4.015625 1.140625q1.53125 1.140625 1.53125 2.984375l-3.953125 0q0 -1.515625 -1.609375 -1.515625q-0.625 0 -1.046875 0.34375q-0.421875 0.34375 -0.421875 0.859375q0 0.53125 0.515625 0.859375q0.515625 0.328125 1.640625 0.546875q1.140625 0.203125 2.0 0.5q2.859375 0.984375 2.859375 3.515625q0 1.734375 -1.546875 2.828125q-1.546875 1.09375 -3.984375 1.09375q-1.640625 0 -2.921875 -0.578125q-1.265625 -0.59375 -1.984375 -1.59375q-0.71875 -1.015625 -0.71875 -2.125l3.703125 0q0.015625 0.875 0.578125 1.28125q0.5625 0.40625 1.4375 0.40625q0.8125 0 1.21875 -0.328125q0.40625 -0.328125 0.40625 -0.859375zm9.824219 3.5625l-3.96875 0l0 -12.6875l3.96875 0l0 12.6875zm-4.203125 -15.953125q0 -0.84375 0.609375 -1.375q0.609375 -0.546875 1.578125 -0.546875q0.984375 0 1.59375 0.546875q0.609375 0.53125 0.609375 1.375q0 0.84375 -0.609375 1.390625q-0.609375 0.53125 -1.59375 0.53125q-0.96875 0 -1.578125 -0.53125q-0.609375 -0.546875 -0.609375 -1.390625zm10.800781 15.953125l-3.96875 0l0 -18.0l3.96875 0l0 18.0zm14.917969 -6.03125l-2.21875 0l0 6.03125l-4.109375 0l0 -17.0625l6.703125 0q3.046875 0 4.75 1.34375q1.71875 1.34375 1.71875 3.8125q0 1.78125 -0.734375 2.953125q-0.71875 1.171875 -2.25 1.890625l3.5625 6.890625l0 0.171875l-4.40625 0l-3.015625 -6.03125zm-2.21875 -3.171875l2.59375 0q1.171875 0 1.765625 -0.609375q0.59375 -0.625 0.59375 -1.71875q0 -1.109375 -0.59375 -1.734375q-0.59375 -0.625 -1.765625 -0.625l-2.59375 0l0 4.6875zm24.351562 -4.6875l-5.125 0l0 13.890625l-4.109375 0l0 -13.890625l-5.03125 0l0 -3.171875l14.265625 0l0 3.171875zm5.8476562 10.71875l7.15625 0l0 3.171875l-11.265625 0l0 -17.0625l4.109375 0l0 13.890625z" fill-rule="nonzero"/><path fill="#000000" fill-opacity="0.0" d="m191.08136 479.4987l190.67719 0" fill-rule="evenodd"/><path stroke="#e69138" stroke-width="4.0" stroke-linejoin="round" stroke-linecap="butt" d="m215.08136 479.4987l142.67719 0" fill-rule="evenodd"/><path fill="#e69138" stroke="#e69138" stroke-width="4.0" stroke-linecap="butt" d="m215.08136 472.89175l-18.15239 6.6069336l18.15239 6.6069336z" fill-rule="evenodd"/><path fill="#e69138" stroke="#e69138" stroke-width="4.0" stroke-linecap="butt" d="m357.75854 486.10562l18.152374 -6.6069336l-18.152374 -6.6069336z" fill-rule="evenodd"/><path fill="#000000" fill-opacity="0.0" d="m346.12073 877.5407l150.67719 0l0 42.015747l-150.67719 0z" fill-rule="evenodd"/><path fill="#000000" d="m374.3161 904.4607l-3.078125 0l0 -9.796875l-3.015625 0.875l0 -2.328125l5.8125 -2.015625l0.28125 0l0 13.265625zm12.871582 -2.1875q0.640625 0 1.0 -0.34375q0.359375 -0.359375 0.34375 -0.984375l2.875 0q0 1.625 -1.15625 2.671875q-1.15625 1.03125 -3.0 1.03125q-2.140625 0 -3.390625 -1.34375q-1.234375 -1.359375 -1.234375 -3.75l0 -0.125q0 -1.484375 0.546875 -2.625q0.5625 -1.15625 1.59375 -1.765625q1.046875 -0.609375 2.46875 -0.609375q1.921875 0 3.046875 1.0625q1.125 1.0625 1.125 2.890625l-2.875 0q0 -0.765625 -0.375 -1.171875q-0.375 -0.421875 -1.0 -0.421875q-1.1875 0 -1.390625 1.515625q-0.0625 0.484375 -0.0625 1.34375q0 1.484375 0.34375 2.0625q0.359375 0.5625 1.140625 0.5625zm8.755005 2.1875l-3.078125 0l0 -14.0l3.078125 0l0 14.0zm1.5036316 -5.015625q0 -1.484375 0.578125 -2.625q0.578125 -1.15625 1.640625 -1.765625q1.078125 -0.625 2.53125 -0.625q2.21875 0 3.484375 1.375q1.28125 1.359375 1.28125 3.71875l0 0.109375q0 2.3125 -1.28125 3.671875q-1.28125 1.34375 -3.46875 1.34375q-2.09375 0 -3.375 -1.265625q-1.28125 -1.265625 -1.375 -3.421875l-0.015625 -0.515625zm3.078125 0.1875q0 1.359375 0.421875 2.0q0.4375 0.640625 1.265625 0.640625q1.640625 0 1.6875 -2.515625l0 -0.3125q0 -2.65625 -1.703125 -2.65625q-1.53125 0 -1.671875 2.28125l0 0.5625zm11.960297 2.640625q0.640625 0 1.0 -0.34375q0.359375 -0.359375 0.34375 -0.984375l2.875 0q0 1.625 -1.15625 2.671875q-1.15625 1.03125 -3.0 1.03125q-2.140625 0 -3.390625 -1.34375q-1.234375 -1.359375 -1.234375 -3.75l0 -0.125q0 -1.484375 0.546875 -2.625q0.5625 -1.15625 1.59375 -1.765625q1.046875 -0.609375 2.46875 -0.609375q1.921875 0 3.046875 1.0625q1.125 1.0625 1.125 2.890625l-2.875 0q0 -0.765625 -0.375 -1.171875q-0.375 -0.421875 -1.0 -0.421875q-1.1875 0 -1.390625 1.515625q-0.0625 0.484375 -0.0625 1.34375q0 1.484375 0.34375 2.0625q0.359375 0.5625 1.140625 0.5625zm9.473755 -1.484375l-0.859375 0.859375l0 2.8125l-3.0625 0l0 -14.0l3.0625 0l0 7.4375l0.3125 -0.421875l2.3125 -2.875l3.671875 0l-3.4375 4.0625l3.671875 5.796875l-3.515625 0l-2.15625 -3.671875zm15.06723 1.484375q0.640625 0 1.0 -0.34375q0.359375 -0.359375 0.34375 -0.984375l2.875 0q0 1.625 -1.15625 2.671875q-1.15625 1.03125 -3.0 1.03125q-2.140625 0 -3.390625 -1.34375q-1.234375 -1.359375 -1.234375 -3.75l0 -0.125q0 -1.484375 0.546875 -2.625q0.5625 -1.15625 1.59375 -1.765625q1.046875 -0.609375 2.46875 -0.609375q1.921875 0 3.046875 1.0625q1.125 1.0625 1.125 2.890625l-2.875 0q0 -0.765625 -0.375 -1.171875q-0.375 -0.421875 -1.0 -0.421875q-1.1875 0 -1.390625 1.515625q-0.0625 0.484375 -0.0625 1.34375q0 1.484375 0.34375 2.0625q0.359375 0.5625 1.140625 0.5625zm9.45813 -2.109375l1.640625 -5.5625l3.296875 0l-4.015625 11.515625l-0.1875 0.40625q-0.84375 1.921875 -3.015625 1.921875q-0.609375 0 -1.265625 -0.1875l0 -2.1875l0.40625 0q0.640625 0 0.984375 -0.1875q0.34375 -0.1875 0.5 -0.671875l0.25 -0.65625l-3.421875 -9.953125l3.28125 0l1.546875 5.5625zm9.781067 2.109375q0.640625 0 1.0 -0.34375q0.359375 -0.359375 0.34375 -0.984375l2.875 0q0 1.625 -1.15625 2.671875q-1.15625 1.03125 -3.0 1.03125q-2.140625 0 -3.390625 -1.34375q-1.234375 -1.359375 -1.234375 -3.75l0 -0.125q0 -1.484375 0.546875 -2.625q0.5625 -1.15625 1.59375 -1.765625q1.046875 -0.609375 2.46875 -0.609375q1.921875 0 3.046875 1.0625q1.125 1.0625 1.125 2.890625l-2.875 0q0 -0.765625 -0.375 -1.171875q-0.375 -0.421875 -1.0 -0.421875q-1.1875 0 -1.390625 1.515625q-0.0625 0.484375 -0.0625 1.34375q0 1.484375 0.34375 2.0625q0.359375 0.5625 1.140625 0.5625zm8.755005 2.1875l-3.078125 0l0 -14.0l3.078125 0l0 14.0zm6.659912 0.1875q-2.265625 0 -3.671875 -1.34375q-1.390625 -1.359375 -1.390625 -3.53125l0 -0.265625q0 -1.5 0.546875 -2.65625q0.5625 -1.15625 1.640625 -1.78125q1.078125 -0.640625 2.546875 -0.640625q2.078125 0 3.28125 1.296875q1.203125 1.28125 1.203125 3.578125l0 1.1875l-6.09375 0q0.15625 0.828125 0.703125 1.3125q0.5625 0.46875 1.453125 0.46875q1.453125 0 2.265625 -1.015625l1.40625 1.65625q-0.5625 0.796875 -1.625 1.265625q-1.046875 0.46875 -2.265625 0.46875zm-0.34375 -7.859375q-1.34375 0 -1.59375 1.78125l3.09375 0l0 -0.234375q0.015625 -0.734375 -0.375 -1.140625q-0.390625 -0.40625 -1.125 -0.40625z" fill-rule="nonzero"/><path fill="#38761d" d="m395.6483 668.5302l51.62207 0l0 175.59052l-51.62207 0z" fill-rule="evenodd"/><path fill="#38761d" d="m395.6483 483.979l51.62207 0l0 175.59058l-51.62207 0z" fill-rule="evenodd"/><path fill="#38761d" d="m395.6483 299.42783l51.62207 0l0 175.59055l-51.62207 0z" fill-rule="evenodd"/><path fill="#38761d" d="m395.6483 114.87664l51.62207 0l0 175.59055l-51.62207 0z" fill-rule="evenodd"/><path fill="#c27ba0" d="m558.3084 375.4029l79.40155 0l0 208.69293l-79.40155 0z" fill-rule="evenodd"/><path fill="#38761d" d="m572.1982 391.95407l51.62201 0l0 175.59055l-51.62201 0z" fill-rule="evenodd"/><path fill="#c27ba0" d="m645.57086 375.9042l79.40155 0l0 208.6929l-79.40155 0z" fill-rule="evenodd"/><path fill="#38761d" d="m659.46063 392.45538l51.62207 0l0 175.59058l-51.62207 0z" fill-rule="evenodd"/><path fill="#c27ba0" d="m732.8333 375.9042l79.40161 0l0 208.6929l-79.40161 0z" fill-rule="evenodd"/><path fill="#38761d" d="m746.7231 392.45538l51.62207 0l0 175.59058l-51.62207 0z" fill-rule="evenodd"/><path fill="#c27ba0" d="m820.0958 375.9042l79.40155 0l0 208.6929l-79.40155 0z" fill-rule="evenodd"/><path fill="#38761d" d="m833.98553 392.45538l51.62207 0l0 175.59058l-51.62207 0z" fill-rule="evenodd"/><path fill="#000000" fill-opacity="0.0" d="m653.56433 591.96063l150.67712 0l0 42.015747l-150.67712 0z" fill-rule="evenodd"/><path fill="#000000" d="m678.29425 613.6931l1.34375 0l0 2.375l-1.34375 0l0 2.8125l-3.078125 0l0 -2.8125l-5.125 0l-0.1875 -1.875l5.3125 -8.546875l0 -0.03125l3.078125 0l0 8.078125zm-5.453125 0l2.375 0l0 -4.078125l-0.1875 0.3125l-2.1875 3.765625zm17.012207 3.0q0.640625 0 1.0 -0.34375q0.359375 -0.359375 0.34375 -0.984375l2.875 0q0 1.625 -1.15625 2.671875q-1.15625 1.03125 -3.0 1.03125q-2.140625 0 -3.390625 -1.34375q-1.234375 -1.359375 -1.234375 -3.75l0 -0.125q0 -1.484375 0.546875 -2.625q0.5625 -1.15625 1.59375 -1.765625q1.046875 -0.609375 2.46875 -0.609375q1.921875 0 3.046875 1.0625q1.125 1.0625 1.125 2.890625l-2.875 0q0 -0.765625 -0.375 -1.171875q-0.375 -0.421875 -1.0 -0.421875q-1.1875 0 -1.390625 1.515625q-0.0625 0.484375 -0.0625 1.34375q0 1.484375 0.34375 2.0625q0.359375 0.5625 1.140625 0.5625zm8.755005 2.1875l-3.078125 0l0 -14.0l3.078125 0l0 14.0zm1.5036011 -5.015625q0 -1.484375 0.578125 -2.625q0.578125 -1.15625 1.640625 -1.765625q1.078125 -0.625 2.53125 -0.625q2.21875 0 3.484375 1.375q1.28125 1.359375 1.28125 3.71875l0 0.109375q0 2.3125 -1.28125 3.671875q-1.28125 1.34375 -3.46875 1.34375q-2.09375 0 -3.375 -1.265625q-1.28125 -1.265625 -1.375 -3.421875l-0.015625 -0.515625zm3.078125 0.1875q0 1.359375 0.421875 2.0q0.4375 0.640625 1.265625 0.640625q1.640625 0 1.6875 -2.515625l0 -0.3125q0 -2.65625 -1.703125 -2.65625q-1.53125 0 -1.671875 2.28125l0 0.5625zm11.960327 2.640625q0.640625 0 1.0 -0.34375q0.359375 -0.359375 0.34375 -0.984375l2.875 0q0 1.625 -1.15625 2.671875q-1.15625 1.03125 -3.0 1.03125q-2.140625 0 -3.390625 -1.34375q-1.234375 -1.359375 -1.234375 -3.75l0 -0.125q0 -1.484375 0.546875 -2.625q0.5625 -1.15625 1.59375 -1.765625q1.046875 -0.609375 2.46875 -0.609375q1.921875 0 3.046875 1.0625q1.125 1.0625 1.125 2.890625l-2.875 0q0 -0.765625 -0.375 -1.171875q-0.375 -0.421875 -1.0 -0.421875q-1.1875 0 -1.390625 1.515625q-0.0625 0.484375 -0.0625 1.34375q0 1.484375 0.34375 2.0625q0.359375 0.5625 1.140625 0.5625zm9.473755 -1.484375l-0.859375 0.859375l0 2.8125l-3.0625 0l0 -14.0l3.0625 0l0 7.4375l0.3125 -0.421875l2.3125 -2.875l3.671875 0l-3.4375 4.0625l3.671875 5.796875l-3.515625 0l-2.15625 -3.671875zm15.0672 1.484375q0.640625 0 1.0 -0.34375q0.359375 -0.359375 0.34375 -0.984375l2.875 0q0 1.625 -1.15625 2.671875q-1.15625 1.03125 -3.0 1.03125q-2.140625 0 -3.390625 -1.34375q-1.234375 -1.359375 -1.234375 -3.75l0 -0.125q0 -1.484375 0.546875 -2.625q0.5625 -1.15625 1.59375 -1.765625q1.046875 -0.609375 2.46875 -0.609375q1.921875 0 3.046875 1.0625q1.125 1.0625 1.125 2.890625l-2.875 0q0 -0.765625 -0.375 -1.171875q-0.375 -0.421875 -1.0 -0.421875q-1.1875 0 -1.390625 1.515625q-0.0625 0.484375 -0.0625 1.34375q0 1.484375 0.34375 2.0625q0.359375 0.5625 1.140625 0.5625zm9.45813 -2.109375l1.640625 -5.5625l3.296875 0l-4.015625 11.515625l-0.1875 0.40625q-0.84375 1.921875 -3.015625 1.921875q-0.609375 0 -1.265625 -0.1875l0 -2.1875l0.40625 0q0.640625 0 0.984375 -0.1875q0.34375 -0.1875 0.5 -0.671875l0.25 -0.65625l-3.421875 -9.953125l3.28125 0l1.546875 5.5625zm9.781067 2.109375q0.640625 0 1.0 -0.34375q0.359375 -0.359375 0.34375 -0.984375l2.875 0q0 1.625 -1.15625 2.671875q-1.15625 1.03125 -3.0 1.03125q-2.140625 0 -3.390625 -1.34375q-1.234375 -1.359375 -1.234375 -3.75l0 -0.125q0 -1.484375 0.546875 -2.625q0.5625 -1.15625 1.59375 -1.765625q1.046875 -0.609375 2.46875 -0.609375q1.921875 0 3.046875 1.0625q1.125 1.0625 1.125 2.890625l-2.875 0q0 -0.765625 -0.375 -1.171875q-0.375 -0.421875 -1.0 -0.421875q-1.1875 0 -1.390625 1.515625q-0.0625 0.484375 -0.0625 1.34375q0 1.484375 0.34375 2.0625q0.359375 0.5625 1.140625 0.5625zm8.755005 2.1875l-3.078125 0l0 -14.0l3.078125 0l0 14.0zm6.659912 0.1875q-2.265625 0 -3.671875 -1.34375q-1.390625 -1.359375 -1.390625 -3.53125l0 -0.265625q0 -1.5 0.546875 -2.65625q0.5625 -1.15625 1.640625 -1.78125q1.078125 -0.640625 2.546875 -0.640625q2.078125 0 3.28125 1.296875q1.203125 1.28125 1.203125 3.578125l0 1.1875l-6.09375 0q0.15625 0.828125 0.703125 1.3125q0.5625 0.46875 1.453125 0.46875q1.453125 0 2.265625 -1.015625l1.40625 1.65625q-0.5625 0.796875 -1.625 1.265625q-1.046875 0.46875 -2.265625 0.46875zm-0.34375 -7.859375q-1.34375 0 -1.59375 1.78125l3.09375 0l0 -0.234375q0.015625 -0.734375 -0.375 -1.140625q-0.390625 -0.40625 -1.125 -0.40625zm10.8914795 4.90625q0 -0.390625 -0.40625 -0.625q-0.40625 -0.25 -1.5625 -0.5q-1.140625 -0.25 -1.890625 -0.65625q-0.75 -0.421875 -1.140625 -1.015625q-0.390625 -0.59375 -0.390625 -1.359375q0 -1.359375 1.125 -2.234375q1.125 -0.875 2.9375 -0.875q1.9375 0 3.125 0.890625q1.1875 0.875 1.1875 2.3125l-3.078125 0q0 -1.1875 -1.25 -1.1875q-0.484375 0 -0.8125 0.265625q-0.328125 0.265625 -0.328125 0.671875q0 0.40625 0.40625 0.671875q0.40625 0.25 1.28125 0.421875q0.875 0.15625 1.546875 0.375q2.21875 0.765625 2.21875 2.75q0 1.34375 -1.203125 2.203125q-1.1875 0.84375 -3.09375 0.84375q-1.265625 0 -2.265625 -0.453125q-0.984375 -0.46875 -1.546875 -1.25q-0.5625 -0.78125 -0.5625 -1.640625l2.875 0q0.015625 0.671875 0.453125 1.0q0.4375 0.3125 1.125 0.3125q0.625 0 0.9375 -0.25q0.3125 -0.265625 0.3125 -0.671875z" fill-rule="nonzero"/><path fill="#c27ba0" d="m1068.6431 394.99475l181.19678 0l0 169.00787l-181.19678 0z" fill-rule="evenodd"/><path fill="#ffffff" d="m1136.441 471.16617l7.25 0l0 2.8125l-11.8125 0l0 -1.921875l7.234375 -10.421875l-7.28125 0l0 -2.8125l11.78125 0l0 1.875l-7.171875 10.46875zm14.460327 -5.765625l2.78125 -6.578125l3.953125 0l-4.890625 9.703125l0 5.453125l-3.703125 0l0 -5.453125l-4.875 -9.703125l3.921875 0l2.8125 6.578125zm20.501953 8.578125l-3.640625 0l-5.375 -9.4375l0 9.4375l-3.65625 0l0 -15.15625l3.65625 0l5.375 9.421875l0 -9.421875l3.640625 0l0 15.15625zm15.163086 -7.265625q0 2.09375 -0.703125 3.671875q-0.6875 1.5625 -1.921875 2.515625l2.453125 1.9375l-2.265625 1.90625l-3.25 -2.625q-0.453125 0.0625 -0.921875 0.0625q-1.9375 0 -3.4375 -0.890625q-1.5 -0.890625 -2.34375 -2.5625q-0.828125 -1.671875 -0.859375 -3.828125l0 -0.8125q0 -2.234375 0.8125 -3.921875q0.828125 -1.703125 2.34375 -2.625q1.515625 -0.9375 3.46875 -0.9375q1.921875 0 3.421875 0.921875q1.515625 0.921875 2.359375 2.609375q0.84375 1.6875 0.84375 3.875l0 0.703125zm-3.703125 -0.640625q0 -2.265625 -0.765625 -3.421875q-0.75 -1.171875 -2.15625 -1.171875q-1.453125 0 -2.1875 1.15625q-0.71875 1.140625 -0.734375 3.375l0 0.703125q0 2.234375 0.734375 3.4375q0.75 1.1875 2.203125 1.1875q1.40625 0 2.140625 -1.171875q0.75 -1.1875 0.765625 -3.390625l0 -0.703125z" fill-rule="nonzero"/><path fill="#ffffff" d="m1116.7394 484.82242l0 9.921875q0 1.6875 -0.71875 2.921875q-0.71875 1.234375 -2.0625 1.875q-1.328125 0.640625 -3.171875 0.640625q-2.765625 0 -4.359375 -1.4375q-1.59375 -1.4375 -1.625 -3.9375l0 -9.984375l3.671875 0l0 10.0625q0.0625 2.484375 2.3125 2.484375q1.140625 0 1.71875 -0.625q0.59375 -0.625 0.59375 -2.03125l0 -9.890625l3.640625 0zm5.829956 15.15625l-3.515625 0l0 -16.0l3.515625 0l0 16.0zm6.253784 -14.0625l0 2.796875l1.84375 0l0 2.4375l-1.84375 0l0 5.15625q0 0.625 0.21875 0.875q0.234375 0.25 0.90625 0.25q0.53125 0 0.875 -0.0625l0 2.515625q-0.9375 0.296875 -1.96875 0.296875q-1.8125 0 -2.6875 -0.84375q-0.859375 -0.859375 -0.859375 -2.59375l0 -5.59375l-1.4375 0l0 -2.4375l1.4375 0l0 -2.796875l3.515625 0zm10.039795 5.96875l-1.15625 -0.078125q-1.65625 0 -2.125 1.03125l0 7.140625l-3.5 0l0 -11.265625l3.28125 0l0.125 1.4375q0.875 -1.640625 2.46875 -1.640625q0.5625 0 0.96875 0.125l-0.0625 3.25zm7.300171 8.09375q-0.1875 -0.34375 -0.328125 -1.015625q-0.96875 1.21875 -2.703125 1.21875q-1.59375 0 -2.71875 -0.953125q-1.109375 -0.96875 -1.109375 -2.421875q0 -1.84375 1.34375 -2.78125q1.359375 -0.9375 3.953125 -0.9375l1.078125 0l0 -0.59375q0 -1.546875 -1.34375 -1.546875q-1.25 0 -1.25 1.234375l-3.515625 0q0 -1.640625 1.390625 -2.65625q1.390625 -1.015625 3.546875 -1.015625q2.15625 0 3.40625 1.046875q1.25 1.046875 1.28125 2.875l0 5.0q0.03125 1.546875 0.484375 2.375l0 0.171875l-3.515625 0zm-2.1875 -2.296875q0.65625 0 1.078125 -0.28125q0.4375 -0.28125 0.625 -0.625l0 -1.8125l-1.015625 0q-1.84375 0 -1.84375 1.65625q0 0.46875 0.328125 0.765625q0.328125 0.296875 0.828125 0.296875zm15.148315 -1.734375q0 -0.796875 -0.578125 -1.25q-0.5625 -0.453125 -1.984375 -0.921875q-1.421875 -0.484375 -2.328125 -0.9375q-2.953125 -1.4375 -2.953125 -3.96875q0 -1.265625 0.734375 -2.21875q0.734375 -0.96875 2.078125 -1.5q1.34375 -0.546875 3.015625 -0.546875q1.640625 0 2.9375 0.59375q1.296875 0.578125 2.015625 1.65625q0.71875 1.078125 0.71875 2.453125l-3.640625 0q0 -0.921875 -0.578125 -1.421875q-0.5625 -0.515625 -1.53125 -0.515625q-0.984375 0 -1.546875 0.4375q-0.5625 0.421875 -0.5625 1.09375q0 0.578125 0.625 1.0625q0.625 0.46875 2.1875 0.96875q1.578125 0.5 2.59375 1.09375q2.453125 1.40625 2.453125 3.90625q0 1.984375 -1.5 3.125q-1.5 1.125 -4.109375 1.125q-1.84375 0 -3.34375 -0.65625q-1.5 -0.65625 -2.25 -1.8125q-0.75 -1.15625 -0.75 -2.65625l3.65625 0q0 1.21875 0.625 1.796875q0.640625 0.578125 2.0625 0.578125q0.90625 0 1.421875 -0.390625q0.53125 -0.390625 0.53125 -1.09375zm10.13208 1.53125q0.734375 0 1.140625 -0.390625q0.40625 -0.40625 0.40625 -1.125l3.28125 0q0 1.84375 -1.328125 3.03125q-1.328125 1.1875 -3.421875 1.1875q-2.453125 0 -3.875 -1.53125q-1.40625 -1.546875 -1.40625 -4.28125l0 -0.140625q0 -1.703125 0.625 -3.015625q0.625 -1.3125 1.8125 -2.0q1.1875 -0.703125 2.8125 -0.703125q2.203125 0 3.484375 1.21875q1.296875 1.203125 1.296875 3.296875l-3.28125 0q0 -0.875 -0.4375 -1.34375q-0.421875 -0.46875 -1.140625 -0.46875q-1.359375 0 -1.59375 1.734375q-0.078125 0.546875 -0.078125 1.515625q0 1.703125 0.40625 2.359375q0.40625 0.65625 1.296875 0.65625zm12.658813 2.5q-0.1875 -0.34375 -0.328125 -1.015625q-0.96875 1.21875 -2.703125 1.21875q-1.59375 0 -2.71875 -0.953125q-1.109375 -0.96875 -1.109375 -2.421875q0 -1.84375 1.34375 -2.78125q1.359375 -0.9375 3.953125 -0.9375l1.078125 0l0 -0.59375q0 -1.546875 -1.34375 -1.546875q-1.25 0 -1.25 1.234375l-3.515625 0q0 -1.640625 1.390625 -2.65625q1.390625 -1.015625 3.546875 -1.015625q2.15625 0 3.40625 1.046875q1.25 1.046875 1.28125 2.875l0 5.0q0.03125 1.546875 0.484375 2.375l0 0.171875l-3.515625 0zm-2.1875 -2.296875q0.65625 0 1.078125 -0.28125q0.4375 -0.28125 0.625 -0.625l0 -1.8125l-1.015625 0q-1.84375 0 -1.84375 1.65625q0 0.46875 0.328125 0.765625q0.328125 0.296875 0.828125 0.296875zm10.867065 2.296875l-3.515625 0l0 -16.0l3.515625 0l0 16.0zm7.613159 0.203125q-2.59375 0 -4.203125 -1.546875q-1.59375 -1.546875 -1.59375 -4.015625l0 -0.296875q0 -1.734375 0.640625 -3.046875q0.640625 -1.328125 1.859375 -2.046875q1.234375 -0.71875 2.921875 -0.71875q2.375 0 3.75 1.46875q1.375 1.46875 1.375 4.109375l0 1.359375l-6.984375 0q0.1875 0.953125 0.828125 1.5q0.640625 0.53125 1.640625 0.53125q1.671875 0 2.609375 -1.171875l1.59375 1.90625q-0.640625 0.90625 -1.84375 1.4375q-1.203125 0.53125 -2.59375 0.53125zm-0.390625 -8.96875q-1.546875 0 -1.84375 2.03125l3.546875 0l0 -0.265625q0.015625 -0.84375 -0.4375 -1.296875q-0.4375 -0.46875 -1.265625 -0.46875zm12.877319 0.15625l3.546875 0l0 3.015625l-3.546875 0l0 4.078125l-3.28125 0l0 -4.078125l-3.5625 0l0 -3.015625l3.5625 0l0 -3.953125l3.28125 0l0 3.953125z" fill-rule="nonzero"/><path fill="#000000" fill-opacity="0.0" d="m899.4974 480.25067l169.13385 -0.7559204" fill-rule="evenodd"/><path stroke="#c27ba0" stroke-width="4.0" stroke-linejoin="round" stroke-linecap="butt" d="m923.49713 480.1434l121.13434 -0.54141235" fill-rule="evenodd"/><path fill="#c27ba0" stroke="#c27ba0" stroke-width="4.0" stroke-linecap="butt" d="m923.4676 473.53653l-18.12268 6.6879883l18.181763 6.5257263z" fill-rule="evenodd"/><path fill="#c27ba0" stroke="#c27ba0" stroke-width="4.0" stroke-linecap="butt" d="m1044.661 486.20886l18.12268 -6.6879883l-18.181763 -6.5257263z" fill-rule="evenodd"/><path fill="#000000" fill-opacity="0.0" d="m400.45145 285.90027l0 -166.4567l42.015747 0l0 166.4567z" fill-rule="evenodd"/><path fill="#ffffff" d="m427.37143 249.50996l0 3.078125l-9.796875 0l0.875 3.015625l-2.328125 0l-2.015625 -5.8125l0 -0.28125l13.265625 0zm0 -13.256989l0 9.25l-2.0 0l-4.484375 -4.265625q-1.796875 -1.578125 -2.859375 -1.578125q-0.84375 0 -1.296875 0.375q-0.453125 0.375 -0.453125 1.09375q0 0.703125 0.609375 1.140625q0.59375 0.4375 1.484375 0.4375l0 3.078125q-1.21875 0 -2.25 -0.609375q-1.03125 -0.625 -1.609375 -1.703125q-0.59375 -1.078125 -0.59375 -2.421875q0 -2.15625 1.0 -3.3125q0.984375 -1.15625 2.84375 -1.15625q0.78125 0 1.53125 0.296875q0.734375 0.28125 1.546875 0.90625q0.8125 0.609375 2.1875 1.96875l1.96875 1.71875l0 -5.21875l2.375 0zm-9.71875 -10.491364q0.96875 0 1.703125 0.484375q0.734375 0.46875 1.1875 1.296875q0.453125 -0.9375 1.265625 -1.484375q0.8125 -0.5625 1.90625 -0.5625q1.78125 0 2.8125 1.234375q1.03125 1.21875 1.03125 3.359375q0 2.15625 -1.03125 3.40625q-1.046875 1.25 -2.8125 1.25q-1.0625 0 -1.875 -0.546875q-0.828125 -0.546875 -1.296875 -1.546875q-0.453125 0.84375 -1.1875 1.328125q-0.734375 0.484375 -1.703125 0.484375q-1.734375 0 -2.734375 -1.171875q-1.0 -1.171875 -1.0 -3.171875q0 -2.015625 1.0 -3.1875q1.0 -1.171875 2.734375 -1.171875zm5.8125 2.8125q-0.8125 0 -1.25 0.421875q-0.453125 0.421875 -0.453125 1.125q0 0.6875 0.453125 1.109375q0.4375 0.421875 1.25 0.421875q0.796875 0 1.265625 -0.421875q0.453125 -0.4375 0.453125 -1.140625q0 -0.6875 -0.453125 -1.09375q-0.453125 -0.421875 -1.265625 -0.421875zm-7.1875 1.546875q0 0.625 0.40625 0.953125q0.40625 0.3125 1.125 0.3125q0.71875 0 1.15625 -0.328125q0.4375 -0.328125 0.4375 -0.96875q0 -0.625 -0.4375 -0.9375q-0.4375 -0.3125 -1.140625 -0.3125q-0.71875 0 -1.125 0.328125q-0.421875 0.3125 -0.421875 0.953125zm6.5625 -12.272614l0 5.46875l-2.375 0l0 -5.46875l2.375 0zm-0.3125 -11.546097q2.421875 0 3.734375 1.015625q1.296875 1.0 1.296875 2.8125q0 1.5 -1.203125 2.421875l1.015625 0.125l0 2.75l-14.0 0l0 -3.0625l4.9375 0q-0.96875 -0.859375 -0.96875 -2.21875q0 -1.828125 1.328125 -2.828125q1.3125 -1.015625 3.703125 -1.015625l0.15625 0zm-0.1875 3.078125q-1.421875 0 -2.03125 0.390625q-0.609375 0.375 -0.609375 1.15625q0 1.03125 0.796875 1.4375l3.921875 0q0.78125 -0.390625 0.78125 -1.453125q0 -1.09375 -1.0625 -1.375q-0.515625 -0.15625 -1.796875 -0.15625zm5.03125 -7.6595l0 3.078125l-9.859375 0l0 -3.078125l9.859375 0zm-12.390625 3.25q-0.65625 0 -1.078125 -0.46875q-0.421875 -0.46875 -0.421875 -1.21875q0 -0.765625 0.421875 -1.234375q0.421875 -0.484375 1.078125 -0.484375q0.65625 0 1.078125 0.484375q0.40625 0.46875 0.40625 1.234375q0 0.75 -0.40625 1.21875q-0.421875 0.46875 -1.078125 0.46875zm0.078125 -8.722397l2.453125 0l0 -1.625l2.140625 0l0 1.625l4.5 0q0.5625 0 0.78125 -0.203125q0.21875 -0.203125 0.21875 -0.78125q0 -0.46875 -0.0625 -0.765625l2.203125 0q0.265625 0.828125 0.265625 1.71875q0 1.59375 -0.75 2.359375q-0.75 0.75 -2.265625 0.75l-4.890625 0l0 1.25l-2.140625 0l0 -1.25l-2.453125 0l0 -3.078125zm8.265625 -15.98732l-5.8125 -0.984375l0 -2.953125l9.859375 2.328125l0 2.59375l-5.84375 1.625l5.84375 1.640625l0 2.609375l-9.859375 2.3125l0 -2.9375l5.953125 -0.984375l-5.953125 -1.5625l0 -2.140625l5.8125 -1.546875zm-0.96875 -4.639572q-1.484375 0 -2.625 -0.578125q-1.15625 -0.578125 -1.765625 -1.640625q-0.625 -1.078125 -0.625 -2.53125q0 -2.21875 1.375 -3.484375q1.359375 -1.28125 3.71875 -1.28125l0.109375 0q2.3125 0 3.671875 1.28125q1.34375 1.28125 1.34375 3.46875q0 2.09375 -1.265625 3.375q-1.265625 1.28125 -3.421875 1.375l-0.515625 0.015625zm0.1875 -3.078125q1.359375 0 2.0 -0.421875q0.640625 -0.4375 0.640625 -1.265625q0 -1.640625 -2.515625 -1.6875l-0.3125 0q-2.65625 0 -2.65625 1.703125q0 1.53125 2.28125 1.671875l0.5625 0zm-2.25 -13.757172l-0.078125 1.015625q0 1.453125 0.921875 1.859375l6.234375 0l0 3.0625l-9.859375 0l0 -2.875l1.265625 -0.09375q-1.4375 -0.78125 -1.4375 -2.15625q0 -0.5 0.109375 -0.859375l2.84375 0.046875zm2.078125 -0.5364227q-2.34375 0 -3.6875 -1.015625q-1.34375 -1.015625 -1.34375 -2.828125q0 -1.3125 1.03125 -2.21875l-5.0 0l0 -3.078125l14.0 0l0 2.765625l-1.0625 0.140625q1.25 0.953125 1.25 2.40625q0 1.765625 -1.34375 2.796875q-1.359375 1.03125 -3.84375 1.03125zm0.1875 -3.078125q2.625 0 2.625 -1.53125q0 -1.015625 -0.859375 -1.453125l-3.75 0q-0.875 0.421875 -0.875 1.4375q0 1.421875 2.296875 1.546875l0.5625 0z" fill-rule="nonzero"/><path fill="#000000" fill-opacity="0.0" d="m577.0026 563.4803l0 -166.45667l42.015747 0l0 166.45667z" fill-rule="evenodd"/><path fill="#ffffff" d="m603.9226 527.09l0 3.078125l-9.796875 0l0.875 3.015625l-2.328125 0l-2.015625 -5.8125l0 -0.28125l13.265625 0zm0 -13.257019l0 9.25l-2.0 0l-4.484375 -4.265625q-1.796875 -1.578125 -2.859375 -1.578125q-0.84375 0 -1.296875 0.375q-0.453125 0.375 -0.453125 1.09375q0 0.703125 0.609375 1.140625q0.59375 0.4375 1.484375 0.4375l0 3.078125q-1.21875 0 -2.25 -0.609375q-1.03125 -0.625 -1.609375 -1.703125q-0.59375 -1.078125 -0.59375 -2.421875q0 -2.15625 1.0 -3.3125q0.984375 -1.15625 2.84375 -1.15625q0.78125 0 1.53125 0.296875q0.734375 0.28125 1.546875 0.90625q0.8125 0.609375 2.1875 1.96875l1.96875 1.71875l0 -5.21875l2.375 0zm-9.71875 -10.491364q0.96875 0 1.703125 0.484375q0.734375 0.46875 1.1875 1.296875q0.453125 -0.9375 1.265625 -1.484375q0.8125 -0.5625 1.90625 -0.5625q1.78125 0 2.8125 1.234375q1.03125 1.21875 1.03125 3.359375q0 2.15625 -1.03125 3.40625q-1.046875 1.2500305 -2.8125 1.2500305q-1.0625 0 -1.875 -0.5469055q-0.828125 -0.546875 -1.296875 -1.546875q-0.453125 0.84375 -1.1875 1.328125q-0.734375 0.48440552 -1.703125 0.48440552q-1.734375 0 -2.734375 -1.1719055q-1.0 -1.171875 -1.0 -3.171875q0 -2.015625 1.0 -3.1875q1.0 -1.171875 2.734375 -1.171875zm5.8125 2.8125q-0.8125 0 -1.25 0.421875q-0.453125 0.421875 -0.453125 1.125q0 0.6875 0.453125 1.109375q0.4375 0.421875 1.25 0.421875q0.796875 0 1.265625 -0.421875q0.453125 -0.4375 0.453125 -1.140625q0 -0.6875 -0.453125 -1.09375q-0.453125 -0.421875 -1.265625 -0.421875zm-7.1875 1.546875q0 0.625 0.40625 0.953125q0.40625 0.3125 1.125 0.3125q0.71875 0 1.15625 -0.328125q0.4375 -0.328125 0.4375 -0.96875q0 -0.625 -0.4375 -0.9375q-0.4375 -0.3125 -1.140625 -0.3125q-0.71875 0 -1.125 0.328125q-0.421875 0.3125 -0.421875 0.953125zm6.5625 -12.272614l0 5.46875l-2.375 0l0 -5.46875l2.375 0zm-0.3125 -11.546082q2.421875 0 3.734375 1.015625q1.296875 1.0 1.296875 2.8125q0 1.5 -1.203125 2.421875l1.015625 0.125l0 2.75l-14.0 0l0 -3.0625l4.9375 0q-0.96875 -0.859375 -0.96875 -2.21875q0 -1.828125 1.328125 -2.828125q1.3125 -1.015625 3.703125 -1.015625l0.15625 0zm-0.1875 3.078125q-1.421875 0 -2.03125 0.390625q-0.609375 0.375 -0.609375 1.15625q0 1.03125 0.796875 1.4375l3.921875 0q0.78125 -0.390625 0.78125 -1.453125q0 -1.09375 -1.0625 -1.375q-0.515625 -0.15625 -1.796875 -0.15625zm5.03125 -7.6595154l0 3.078125l-9.859375 0l0 -3.078125l9.859375 0zm-12.390625 3.25q-0.65625 0 -1.078125 -0.46875q-0.421875 -0.46875 -0.421875 -1.21875q0 -0.765625 0.421875 -1.234375q0.421875 -0.484375 1.078125 -0.484375q0.65625 0 1.078125 0.484375q0.40625 0.46875 0.40625 1.234375q0 0.75 -0.40625 1.21875q-0.421875 0.46875 -1.078125 0.46875zm0.078125 -8.722382l2.453125 0l0 -1.625l2.140625 0l0 1.625l4.5 0q0.5625 0 0.78125 -0.203125q0.21875 -0.203125 0.21875 -0.78125q0 -0.46875 -0.0625 -0.765625l2.203125 0q0.265625 0.828125 0.265625 1.71875q0 1.59375 -0.75 2.359375q-0.75 0.75 -2.265625 0.75l-4.890625 0l0 1.25l-2.140625 0l0 -1.25l-2.453125 0l0 -3.078125zm8.265625 -15.987335l-5.8125 -0.984375l0 -2.953125l9.859375 2.328125l0 2.59375l-5.84375 1.625l5.84375 1.640625l0 2.609375l-9.859375 2.3125l0 -2.9375l5.953125 -0.984375l-5.953125 -1.5625l0 -2.140625l5.8125 -1.546875zm-0.96875 -4.639557q-1.484375 0 -2.625 -0.578125q-1.15625 -0.578125 -1.765625 -1.640625q-0.625 -1.078125 -0.625 -2.53125q0 -2.21875 1.375 -3.484375q1.359375 -1.28125 3.71875 -1.28125l0.109375 0q2.3125 0 3.671875 1.28125q1.34375 1.28125 1.34375 3.46875q0 2.09375 -1.265625 3.375q-1.265625 1.28125 -3.421875 1.375l-0.515625 0.015625zm0.1875 -3.078125q1.359375 0 2.0 -0.421875q0.640625 -0.4375 0.640625 -1.265625q0 -1.640625 -2.515625 -1.6875l-0.3125 0q-2.65625 0 -2.65625 1.703125q0 1.53125 2.28125 1.671875l0.5625 0zm-2.25 -13.757172l-0.078125 1.015625q0 1.453125 0.921875 1.859375l6.234375 0l0 3.0625l-9.859375 0l0 -2.875l1.265625 -0.09375q-1.4375 -0.78125 -1.4375 -2.15625q0 -0.5 0.109375 -0.859375l2.84375 0.046875zm2.078125 -0.536438q-2.34375 0 -3.6875 -1.015625q-1.34375 -1.015625 -1.34375 -2.828125q0 -1.3125 1.03125 -2.21875l-5.0 0l0 -3.078125l14.0 0l0 2.765625l-1.0625 0.140625q1.25 0.953125 1.25 2.40625q0 1.765625 -1.34375 2.796875q-1.359375 1.03125 -3.84375 1.03125zm0.1875 -3.078125q2.625 0 2.625 -1.53125q0 -1.015625 -0.859375 -1.453125l-3.75 0q-0.875 0.421875 -0.875 1.4375q0 1.421875 2.296875 1.546875l0.5625 0z" fill-rule="nonzero"/><path fill="#000000" fill-opacity="0.0" d="m218.02625 488.36484l150.67715 0l0 64.62991l-150.67715 0z" fill-rule="evenodd"/><path fill="#000000" d="m258.16824 508.80045l0.796875 -6.78125l7.765625 0l0 2.390625l-5.265625 0l-0.296875 2.625q0.328125 -0.1875 0.859375 -0.328125q0.53125 -0.15625 1.046875 -0.15625q1.96875 0 3.03125 1.171875q1.0625 1.171875 1.0625 3.296875q0 1.2656555 -0.578125 2.3125305q-0.5625 1.03125 -1.59375 1.59375q-1.015625 0.546875 -2.421875 0.546875q-1.25 0 -2.34375 -0.515625q-1.09375 -0.515625 -1.71875 -1.40625q-0.609375 -0.90625 -0.609375 -2.0312805l3.078125 0q0.046875 0.7187805 0.46875 1.1562805q0.421875 0.421875 1.109375 0.421875q1.546875 0 1.546875 -2.2969055q0 -2.125 -1.90625 -2.125q-1.0625 0 -1.59375 0.703125l-2.4375 -0.578125zm17.413239 6.4844055l-3.078125 0l0 -9.7969055l-3.015625 0.875l0 -2.328125l5.8125 -2.015625l0.28125 0l0 13.2656555zm13.256989 0l-9.25 0l0 -2.0l4.265625 -4.4844055q1.578125 -1.796875 1.578125 -2.859375q0 -0.84375 -0.375 -1.296875q-0.375 -0.453125 -1.09375 -0.453125q-0.703125 0 -1.140625 0.609375q-0.4375 0.59375 -0.4375 1.484375l-3.078125 0q0 -1.21875 0.609375 -2.25q0.625 -1.03125 1.703125 -1.609375q1.078125 -0.59375 2.421875 -0.59375q2.15625 0 3.3125 1.0q1.15625 0.984375 1.15625 2.84375q0 0.78125 -0.296875 1.53125q-0.28125 0.734375 -0.90625 1.546875q-0.609375 0.8125 -1.96875 2.1875l-1.71875 1.9687805l5.21875 0l0 2.375zm7.6007385 -4.5312805l-5.46875 0l0 -2.375l5.46875 0l0 2.375zm11.546112 -0.3125q0 2.4219055 -1.015625 3.7344055q-1.0 1.296875 -2.8125 1.296875q-1.5 0 -2.421875 -1.203125l-0.125 1.015625l-2.75 0l0 -14.0000305l3.0625 0l0 4.9375q0.859375 -0.96875 2.21875 -0.96875q1.828125 0 2.828125 1.328125q1.015625 1.3125 1.015625 3.703125l0 0.15625zm-3.078125 -0.1875q0 -1.421875 -0.390625 -2.03125q-0.375 -0.609375 -1.15625 -0.609375q-1.03125 0 -1.4375 0.796875l0 3.9219055q0.390625 0.78125 1.453125 0.78125q1.09375 0 1.375 -1.0625q0.15625 -0.5156555 0.15625 -1.7969055zm7.659485 5.0312805l-3.078125 0l0 -9.8594055l3.078125 0l0 9.8594055zm-3.25 -12.3906555q0 -0.65625 0.46875 -1.078125q0.46875 -0.421875 1.21875 -0.421875q0.765625 0 1.234375 0.421875q0.484375 0.421875 0.484375 1.078125q0 0.65625 -0.484375 1.078125q-0.46875 0.40625 -1.234375 0.40625q-0.75 0 -1.21875 -0.40625q-0.46875 -0.421875 -0.46875 -1.078125zm8.722412 0.078125l0 2.453125l1.625 0l0 2.140625l-1.625 0l0 4.5000305q0 0.5625 0.203125 0.78125q0.203125 0.21875 0.78125 0.21875q0.46875 0 0.765625 -0.0625l0 2.203125q-0.828125 0.265625 -1.71875 0.265625q-1.59375 0 -2.359375 -0.75q-0.75 -0.75 -0.75 -2.265625l0 -4.8906555l-1.25 0l0 -2.140625l1.25 0l0 -2.453125l3.078125 0zm7.982086 9.5469055q0 -0.390625 -0.40625 -0.6250305q-0.40625 -0.25 -1.5625 -0.5q-1.140625 -0.25 -1.890625 -0.65625q-0.75 -0.421875 -1.140625 -1.015625q-0.390625 -0.59375 -0.390625 -1.359375q0 -1.359375 1.125 -2.234375q1.125 -0.875 2.9375 -0.875q1.9375 0 3.125 0.890625q1.1875 0.875 1.1875 2.3125l-3.078125 0q0 -1.1875 -1.25 -1.1875q-0.484375 0 -0.8125 0.265625q-0.328125 0.265625 -0.328125 0.671875q0 0.40625 0.40625 0.671875q0.40625 0.25 1.28125 0.421875q0.875 0.15625 1.546875 0.375q2.21875 0.765625 2.21875 2.7500305q0 1.34375 -1.203125 2.203125q-1.1875 0.84375 -3.09375 0.84375q-1.265625 0 -2.265625 -0.453125q-0.984375 -0.46875 -1.546875 -1.25q-0.5625 -0.78125 -0.5625 -1.640625l2.875 0q0.015625 0.671875 0.453125 1.0q0.4375 0.3125 1.125 0.3125q0.625 0 0.9375 -0.25q0.3125 -0.265625 0.3125 -0.671875z" fill-rule="nonzero"/><path fill="#000000" d="m265.23764 537.6848l-3.078125 0l0 -9.796875l-3.015625 0.875l0 -2.328125l5.8125 -2.015625l0.28125 0l0 13.265625zm13.210114 -5.421875q0 2.6875 -1.203125 4.15625q-1.203125 1.453125 -3.40625 1.453125q-2.203125 0 -3.421875 -1.46875q-1.203125 -1.46875 -1.203125 -4.140625l0 -2.421875q0 -2.6875 1.203125 -4.140625q1.203125 -1.46875 3.40625 -1.46875q2.203125 0 3.40625 1.46875q1.21875 1.46875 1.21875 4.15625l0 2.40625zm-3.0625 -2.8125q0 -1.4375 -0.375 -2.140625q-0.375 -0.703125 -1.1875 -0.703125q-0.796875 0 -1.15625 0.65625q-0.359375 0.65625 -0.375 1.984375l0 3.390625q0 1.484375 0.359375 2.171875q0.375 0.6875 1.1875 0.6875q0.78125 0 1.15625 -0.671875q0.375 -0.671875 0.390625 -2.09375l0 -3.28125zm13.866364 2.8125q0 2.6875 -1.203125 4.15625q-1.203125 1.453125 -3.40625 1.453125q-2.203125 0 -3.421875 -1.46875q-1.203125 -1.46875 -1.203125 -4.140625l0 -2.421875q0 -2.6875 1.203125 -4.140625q1.203125 -1.46875 3.40625 -1.46875q2.203125 0 3.40625 1.46875q1.21875 1.46875 1.21875 4.15625l0 2.40625zm-3.0625 -2.8125q0 -1.4375 -0.375 -2.140625q-0.375 -0.703125 -1.1875 -0.703125q-0.796875 0 -1.15625 0.65625q-0.359375 0.65625 -0.375 1.984375l0 3.390625q0 1.484375 0.359375 2.171875q0.375 0.6875 1.1875 0.6875q0.78125 0 1.15625 -0.671875q0.375 -0.671875 0.390625 -2.09375l0 -3.28125zm9.053864 -5.03125l2.953125 9.234375l2.953125 -9.234375l4.21875 0l0 13.265625l-3.21875 0l0 -3.09375l0.3125 -6.34375l-3.203125 9.4375l-2.109375 0l-3.21875 -9.453125l0.3125 6.359375l0 3.09375l-3.203125 0l0 -13.265625l4.203125 0zm23.242188 13.265625l-3.1875 0l0 -5.53125l-4.703125 0l0 5.53125l-3.203125 0l0 -13.265625l3.203125 0l0 5.265625l4.703125 0l0 -5.265625l3.1875 0l0 13.265625zm5.499176 -2.375l4.484375 0l0 2.375l-8.375 0l0 -1.71875l4.375 -5.765625l-4.171875 0l0 -2.375l8.078125 0l0 1.65625l-4.390625 5.828125z" fill-rule="nonzero"/><path fill="#000000" fill-opacity="0.0" d="m908.7323 493.16797l150.67712 0l0 64.629944l-150.67712 0z" fill-rule="evenodd"/><path fill="#000000" d="m955.48364 520.08795l-3.078125 0l0 -9.7968445l-3.015625 0.875l0 -2.328125l5.8125 -2.015625l0.28125 0l0 13.2655945zm13.257019 0l-9.25 0l0 -2.0l4.265625 -4.484375q1.578125 -1.7968445 1.578125 -2.8593445q0 -0.84375 -0.375 -1.296875q-0.375 -0.453125 -1.09375 -0.453125q-0.703125 0 -1.140625 0.609375q-0.4375 0.59375 -0.4375 1.484375l-3.078125 0q0 -1.21875 0.609375 -2.25q0.625 -1.03125 1.703125 -1.609375q1.078125 -0.59375 2.421875 -0.59375q2.15625 0 3.3125 1.0q1.15625 0.984375 1.15625 2.84375q0 0.78125 -0.296875 1.5312195q-0.28125 0.734375 -0.90625 1.546875q-0.609375 0.8125 -1.96875 2.1875l-1.71875 1.96875l5.21875 0l0 2.375zm10.491333 -9.7187195q0 0.96875 -0.484375 1.7030945q-0.46875 0.734375 -1.296875 1.1875q0.9375 0.453125 1.484375 1.265625q0.5625 0.8125 0.5625 1.90625q0 1.78125 -1.234375 2.8125q-1.21875 1.03125 -3.359375 1.03125q-2.15625 0 -3.40625 -1.03125q-1.25 -1.046875 -1.25 -2.8125q0 -1.0625 0.546875 -1.875q0.546875 -0.828125 1.546875 -1.296875q-0.84375 -0.453125 -1.328125 -1.1875q-0.484375 -0.7343445 -0.484375 -1.7030945q0 -1.734375 1.171875 -2.734375q1.171875 -1.0 3.171875 -1.0q2.015625 0 3.1875 1.0q1.171875 1.0 1.171875 2.734375zm-2.8125 5.8124695q0 -0.8125 -0.421875 -1.25q-0.421875 -0.453125 -1.125 -0.453125q-0.6875 0 -1.109375 0.453125q-0.421875 0.4375 -0.421875 1.25q0 0.796875 0.421875 1.265625q0.4375 0.453125 1.140625 0.453125q0.6875 0 1.09375 -0.453125q0.421875 -0.453125 0.421875 -1.265625zm-1.546875 -7.1874695q-0.625 0 -0.953125 0.40625q-0.3125 0.40625 -0.3125 1.125q0 0.71875 0.328125 1.15625q0.328125 0.43746948 0.96875 0.43746948q0.625 0 0.9375 -0.43746948q0.3125 -0.4375 0.3125 -1.140625q0 -0.71875 -0.328125 -1.125q-0.3125 -0.421875 -0.953125 -0.421875zm12.272644 6.5624695l-5.46875 0l0 -2.375l5.46875 0l0 2.375zm11.546082 -0.3125q0 2.421875 -1.015625 3.734375q-1.0 1.296875 -2.8125 1.296875q-1.5 0 -2.421875 -1.203125l-0.125 1.015625l-2.75 0l0 -13.9999695l3.0625 0l0 4.9375q0.859375 -0.96875 2.21875 -0.96875q1.828125 0 2.828125 1.328125q1.015625 1.3124695 1.015625 3.7030945l0 0.15625zm-3.078125 -0.1875q0 -1.421875 -0.390625 -2.03125q-0.375 -0.609375 -1.15625 -0.609375q-1.03125 0 -1.4375 0.796875l0 3.921875q0.390625 0.78125 1.453125 0.78125q1.09375 0 1.375 -1.0625q0.15625 -0.515625 0.15625 -1.796875zm7.659485 5.03125l-3.078125 0l0 -9.8593445l3.078125 0l0 9.8593445zm-3.25 -12.3905945q0 -0.65625 0.46875 -1.078125q0.46875 -0.421875 1.21875 -0.421875q0.765625 0 1.234375 0.421875q0.484375 0.421875 0.484375 1.078125q0 0.65625 -0.484375 1.078125q-0.46875 0.40625 -1.234375 0.40625q-0.75 0 -1.21875 -0.40625q-0.46875 -0.421875 -0.46875 -1.078125zm8.722412 0.078125l0 2.453125l1.625 0l0 2.1405945l-1.625 0l0 4.5q0 0.5625 0.203125 0.78125q0.203125 0.21875 0.78125 0.21875q0.46875 0 0.765625 -0.0625l0 2.203125q-0.828125 0.265625 -1.71875 0.265625q-1.59375 0 -2.359375 -0.75q-0.75 -0.75 -0.75 -2.265625l0 -4.890625l-1.25 0l0 -2.1405945l1.25 0l0 -2.453125l3.078125 0zm7.9821167 9.5468445q0 -0.390625 -0.40625 -0.625q-0.40625 -0.25 -1.5625 -0.5q-1.140625 -0.25 -1.890625 -0.65625q-0.75 -0.421875 -1.140625 -1.015625q-0.390625 -0.59375 -0.390625 -1.359375q0 -1.3593445 1.125 -2.2343445q1.125 -0.875 2.9375 -0.875q1.9375 0 3.125 0.890625q1.1875 0.875 1.1875 2.3124695l-3.078125 0q0 -1.1875 -1.25 -1.1875q-0.484375 0 -0.8125 0.265625q-0.328125 0.265625 -0.328125 0.671875q0 0.40625 0.40625 0.671875q0.40625 0.25 1.28125 0.421875q0.875 0.15625 1.546875 0.375q2.21875 0.765625 2.21875 2.75q0 1.34375 -1.203125 2.203125q-1.1875 0.84375 -3.09375 0.84375q-1.265625 0 -2.265625 -0.453125q-0.984375 -0.46875 -1.546875 -1.25q-0.5625 -0.78125 -0.5625 -1.640625l2.875 0q0.015625 0.671875 0.453125 1.0q0.4375 0.3125 1.125 0.3125q0.625 0 0.9375 -0.25q0.3125 -0.265625 0.3125 -0.671875z" fill-rule="nonzero"/><path fill="#000000" d="m957.25616 537.3005l1.34375 0l0 2.375l-1.34375 0l0 2.8125l-3.078125 0l0 -2.8125l-5.125 0l-0.1875 -1.875l5.3125 -8.546875l0 -0.03125l3.078125 0l0 8.078125zm-5.453125 0l2.375 0l0 -4.078125l-0.1875 0.3125l-2.1875 3.765625zm17.350769 -0.234375q0 2.6875 -1.203125 4.15625q-1.203125 1.453125 -3.40625 1.453125q-2.203125 0 -3.421875 -1.46875q-1.203125 -1.46875 -1.203125 -4.140625l0 -2.421875q0 -2.6875 1.203125 -4.140625q1.203125 -1.46875 3.40625 -1.46875q2.203125 0 3.40625 1.46875q1.21875 1.46875 1.21875 4.15625l0 2.40625zm-3.0625 -2.8125q0 -1.4375 -0.375 -2.140625q-0.375 -0.703125 -1.1875 -0.703125q-0.796875 0 -1.15625 0.65625q-0.359375 0.65625 -0.375 1.984375l0 3.390625q0 1.484375 0.359375 2.171875q0.375 0.6875 1.1875 0.6875q0.78125 0 1.15625 -0.671875q0.375 -0.671875 0.390625 -2.09375l0 -3.28125zm13.866333 2.8125q0 2.6875 -1.203125 4.15625q-1.203125 1.453125 -3.40625 1.453125q-2.203125 0 -3.421875 -1.46875q-1.203125 -1.46875 -1.203125 -4.140625l0 -2.421875q0 -2.6875 1.203125 -4.140625q1.203125 -1.46875 3.40625 -1.46875q2.203125 0 3.40625 1.46875q1.21875 1.46875 1.21875 4.15625l0 2.40625zm-3.0625 -2.8125q0 -1.4375 -0.375 -2.140625q-0.375 -0.703125 -1.1875 -0.703125q-0.796875 0 -1.15625 0.65625q-0.359375 0.65625 -0.375 1.984375l0 3.390625q0 1.484375 0.359375 2.171875q0.375 0.6875 1.1875 0.6875q0.78125 0 1.15625 -0.671875q0.375 -0.671875 0.390625 -2.09375l0 -3.28125zm9.053894 -5.03125l2.953125 9.234375l2.953125 -9.234375l4.21875 0l0 13.265625l-3.21875 0l0 -3.09375l0.3125 -6.34375l-3.203125 9.4375l-2.109375 0l-3.21875 -9.453125l0.3125 6.359375l0 3.09375l-3.203125 0l0 -13.265625l4.203125 0zm23.242188 13.265625l-3.1875 0l0 -5.53125l-4.703125 0l0 5.53125l-3.203125 0l0 -13.265625l3.203125 0l0 5.265625l4.703125 0l0 -5.265625l3.1875 0l0 13.265625zm5.4991455 -2.375l4.484375 0l0 2.375l-8.375 0l0 -1.71875l4.375 -5.765625l-4.171875 0l0 -2.375l8.078125 0l0 1.65625l-4.390625 5.828125z" fill-rule="nonzero"/></g></svg>