<svg version="1.1" viewBox="0.0 0.0 838.0 518.0" fill="none" stroke="none" stroke-linecap="square" stroke-miterlimit="10" width="838" height="518" xmlns:xlink="http://www.w3.org/1999/xlink" xmlns="http://www.w3.org/2000/svg"><path fill="#ffffff" d="M0 0L838.0 0L838.0 518.0L0 518.0L0 0Z" fill-rule="nonzero"/><path stroke="#333333" stroke-width="1.0" stroke-linecap="butt" d="M84.5 472.5L812.5 472.5" fill-rule="nonzero"/><path stroke="#cccccc" stroke-width="1.0" stroke-linecap="butt" d="M84.5 339.5L812.5 339.5" fill-rule="nonzero"/><path stroke="#cccccc" stroke-width="1.0" stroke-linecap="butt" d="M84.5 206.5L812.5 206.5" fill-rule="nonzero"/><path stroke="#cccccc" stroke-width="1.0" stroke-linecap="butt" d="M84.5 74.5L812.5 74.5" fill-rule="nonzero"/><clipPath id="id_0"><path d="M84.9 74.166664L812.1 74.166664L812.1 472.1L84.9 472.1L84.9 74.166664Z" clip-rule="nonzero"/></clipPath><path stroke="#000000" stroke-width="2.0" stroke-linecap="butt" stroke-opacity="0.0" clip-path="url(#id_0)" d="M199.0 472.0L125.0 472.0L125.0 297.0C125.0 295.89542 125.89543 295.0 127.0 295.0L197.0 295.0C198.10457 295.0 199.0 295.89542 199.0 297.0Z" fill-rule="nonzero"/><path fill="#4285f4" clip-path="url(#id_0)" d="M199.0 472.0L125.0 472.0L125.0 297.0C125.0 295.89542 125.89543 295.0 127.0 295.0L197.0 295.0C198.10457 295.0 199.0 295.89542 199.0 297.0Z" fill-rule="nonzero"/><path stroke="#000000" stroke-width="2.0" stroke-linecap="butt" stroke-opacity="0.0" clip-path="url(#id_0)" d="M314.0 472.0L240.0 472.0L240.0 272.0C240.0 270.89542 240.89543 270.0 242.0 270.0L312.0 270.0C313.10458 270.0 314.0 270.89542 314.0 272.0Z" fill-rule="nonzero"/><path fill="#4285f4" clip-path="url(#id_0)" d="M314.0 472.0L240.0 472.0L240.0 272.0C240.0 270.89542 240.89543 270.0 242.0 270.0L312.0 270.0C313.10458 270.0 314.0 270.89542 314.0 272.0Z" fill-rule="nonzero"/><path stroke="#000000" stroke-width="2.0" stroke-linecap="butt" stroke-opacity="0.0" clip-path="url(#id_0)" d="M428.0 472.0L354.0 472.0L354.0 248.0C354.0 246.89543 354.89542 246.0 356.0 246.0L426.0 246.0C427.10458 246.0 428.0 246.89543 428.0 248.0Z" fill-rule="nonzero"/><path fill="#4285f4" clip-path="url(#id_0)" d="M428.0 472.0L354.0 472.0L354.0 248.0C354.0 246.89543 354.89542 246.0 356.0 246.0L426.0 246.0C427.10458 246.0 428.0 246.89543 428.0 248.0Z" fill-rule="nonzero"/><path stroke="#000000" stroke-width="2.0" stroke-linecap="butt" stroke-opacity="0.0" clip-path="url(#id_0)" d="M543.0 472.0L469.0 472.0L469.0 189.0C469.0 187.89543 469.89542 187.0 471.0 187.0L541.0 187.0C542.10455 187.0 543.0 187.89543 543.0 189.0Z" fill-rule="nonzero"/><path fill="#4285f4" clip-path="url(#id_0)" d="M543.0 472.0L469.0 472.0L469.0 189.0C469.0 187.89543 469.89542 187.0 471.0 187.0L541.0 187.0C542.10455 187.0 543.0 187.89543 543.0 189.0Z" fill-rule="nonzero"/><path stroke="#000000" stroke-width="2.0" stroke-linecap="butt" stroke-opacity="0.0" clip-path="url(#id_0)" d="M657.0 472.0L583.0 472.0L583.0 167.0C583.0 165.89543 583.89545 165.0 585.0 165.0L655.0 165.0C656.10455 165.0 657.0 165.89543 657.0 167.0Z" fill-rule="nonzero"/><path fill="#4285f4" clip-path="url(#id_0)" d="M657.0 472.0L583.0 472.0L583.0 167.0C583.0 165.89543 583.89545 165.0 585.0 165.0L655.0 165.0C656.10455 165.0 657.0 165.89543 657.0 167.0Z" fill-rule="nonzero"/><path stroke="#000000" stroke-width="2.0" stroke-linecap="butt" stroke-opacity="0.0" clip-path="url(#id_0)" d="M772.0 472.0L698.0 472.0L698.0 85.0C698.0 83.89543 698.89545 83.0 700.0 83.0L770.0 83.0C771.10455 83.0 772.0 83.89543 772.0 85.0Z" fill-rule="nonzero"/><path fill="#4285f4" clip-path="url(#id_0)" d="M772.0 472.0L698.0 472.0L698.0 85.0C698.0 83.89543 698.89545 83.0 700.0 83.0L770.0 83.0C771.10455 83.0 772.0 83.89543 772.0 85.0Z" fill-rule="nonzero"/><path fill="#000000" d="M36.900005 287.08646L31.493755 287.08646L31.493755 288.02396L30.681255 288.02396L30.681255 287.08646L30.00938 287.08646Q29.38438 287.08646 29.087505 286.97708Q28.66563 286.82083 28.41563 286.44583Q28.16563 286.0552 28.16563 285.3677Q28.16563 284.91458 28.275005 284.38333L29.181255 284.53958Q29.13438 284.8677 29.13438 285.16458Q29.13438 285.64896 29.337505 285.85208Q29.54063 286.03958 30.10313 286.03958L30.681255 286.03958L30.681255 284.82083L31.493755 284.82083L31.493755 286.03958L36.900005 286.03958L36.900005 287.08646ZM39.29063 284.33646L30.681255 284.33646L30.681255 283.38333L31.47813 283.38333Q31.00938 283.03958 30.775005 282.6177Q30.54063 282.1802 30.54063 281.57083Q30.54063 280.77396 30.94688 280.16458Q31.35313 279.5552 32.10313 279.25833Q32.85313 278.94583 33.743755 278.94583Q34.69688 278.94583 35.462505 279.28958Q36.22813 279.6177 36.63438 280.27396Q37.04063 280.9302 37.04063 281.64896Q37.04063 282.1802 36.82188 282.60208Q36.587505 283.02396 36.25938 283.28958L39.29063 283.28958L39.29063 284.33646ZM33.82188 283.38333Q35.025005 283.38333 35.60313 282.89896Q36.16563 282.41458 36.16563 281.72708Q36.16563 281.02396 35.57188 280.52396Q34.97813 280.02396 33.72813 280.02396Q32.54063 280.02396 31.962505 280.50833Q31.368755 280.9927 31.368755 281.6802Q31.368755 282.35208 31.993755 282.8677Q32.618755 283.38333 33.82188 283.38333ZM35.04063 277.75833L34.88438 276.72708Q35.50938 276.63333 35.837505 276.2427Q36.16563 275.83646 36.16563 275.10208Q36.16563 274.38333 35.88438 274.03958Q35.587505 273.6802 35.181255 273.6802Q34.82188 273.6802 34.618755 273.9927Q34.47813 274.21146 34.25938 275.07083Q33.962505 276.22708 33.75938 276.6802Q33.54063 277.1177 33.16563 277.35208Q32.79063 277.58646 32.32188 277.58646Q31.91563 277.58646 31.556255 277.39896Q31.19688 277.21146 30.962505 276.88333Q30.79063 276.63333 30.66563 276.21146Q30.54063 275.78958 30.54063 275.28958Q30.54063 274.57083 30.75938 274.02396Q30.962505 273.46146 31.32188 273.19583Q31.681255 272.9302 32.275005 272.83646L32.41563 273.8677Q31.94688 273.9302 31.681255 274.27396Q31.400005 274.60208 31.400005 275.22708Q31.400005 275.94583 31.650005 276.25833Q31.88438 276.57083 32.212505 276.57083Q32.41563 276.57083 32.57188 276.44583Q32.743755 276.3052 32.85313 276.03958Q32.91563 275.88333 33.118755 275.10208Q33.431255 273.97708 33.618755 273.53958Q33.806255 273.10208 34.16563 272.85208Q34.525005 272.60208 35.07188 272.60208Q35.60313 272.60208 36.07188 272.91458Q36.525005 273.21146 36.79063 273.78958Q37.04063 274.3677 37.04063 275.10208Q37.04063 276.32083 36.54063 276.96146Q36.025005 277.58646 35.04063 277.75833Z" fill-rule="nonzero"/><path fill="#000000" d="M72.4 471.86563Q72.4 470.33438 72.7125 469.4125Q73.025 468.475 73.63438 467.975Q74.25938 467.475 75.19688 467.475Q75.88438 467.475 76.4 467.75626Q76.93125 468.0375 77.275 468.56876Q77.61875 469.08438 77.80625 469.83438Q77.99375 470.58438 77.99375 471.86563Q77.99375 473.38126 77.68125 474.30313Q77.38438 475.225 76.75938 475.74063Q76.15 476.24063 75.19688 476.24063Q73.9625 476.24063 73.24375 475.35Q72.4 474.2875 72.4 471.86563ZM73.47813 471.86563Q73.47813 473.975 73.97813 474.67813Q74.47813 475.38126 75.19688 475.38126Q75.93125 475.38126 76.41563 474.67813Q76.91563 473.975 76.91563 471.86563Q76.91563 469.74063 76.41563 469.05313Q75.93125 468.35 75.18125 468.35Q74.4625 468.35 74.025 468.95938Q73.47813 469.74063 73.47813 471.86563Z" fill-rule="nonzero"/><path fill="#000000" d="M62.36875 343.45557L61.321877 343.45557L61.321877 336.73682Q60.93125 337.0962 60.30625 337.4712Q59.696877 337.83057 59.2125 338.00244L59.2125 336.98682Q60.0875 336.56494 60.74375 335.98682Q61.415627 335.39307 61.696877 334.83057L62.36875 334.83057L62.36875 343.45557ZM65.4 339.2212Q65.4 337.68994 65.7125 336.76807Q66.025 335.83057 66.63438 335.33057Q67.25938 334.83057 68.19688 334.83057Q68.88438 334.83057 69.4 335.11182Q69.93125 335.39307 70.275 335.92432Q70.61875 336.43994 70.80625 337.18994Q70.99375 337.93994 70.99375 339.2212Q70.99375 340.73682 70.68125 341.6587Q70.38438 342.58057 69.75938 343.0962Q69.15 343.5962 68.19688 343.5962Q66.9625 343.5962 66.24375 342.70557Q65.4 341.64307 65.4 339.2212ZM66.47813 339.2212Q66.47813 341.33057 66.97813 342.0337Q67.47813 342.73682 68.19688 342.73682Q68.93125 342.73682 69.41563 342.0337Q69.91563 341.33057 69.91563 339.2212Q69.91563 337.0962 69.41563 336.4087Q68.93125 335.70557 68.18125 335.70557Q67.4625 335.70557 67.025 336.31494Q66.47813 337.0962 66.47813 339.2212ZM72.4 339.2212Q72.4 337.68994 72.7125 336.76807Q73.025 335.83057 73.63438 335.33057Q74.25938 334.83057 75.19688 334.83057Q75.88438 334.83057 76.4 335.11182Q76.93125 335.39307 77.275 335.92432Q77.61875 336.43994 77.80625 337.18994Q77.99375 337.93994 77.99375 339.2212Q77.99375 340.73682 77.68125 341.6587Q77.38438 342.58057 76.75938 343.0962Q76.15 343.5962 75.19688 343.5962Q73.9625 343.5962 73.24375 342.70557Q72.4 341.64307 72.4 339.2212ZM73.47813 339.2212Q73.47813 341.33057 73.97813 342.0337Q74.47813 342.73682 75.19688 342.73682Q75.93125 342.73682 76.41563 342.0337Q76.91563 341.33057 76.91563 339.2212Q76.91563 337.0962 76.41563 336.4087Q75.93125 335.70557 75.18125 335.70557Q74.4625 335.70557 74.025 336.31494Q73.47813 337.0962 73.47813 339.2212Z" fill-rule="nonzero"/><path fill="#000000" d="M63.946877 209.79549L63.946877 210.81111L58.259377 210.81111Q58.259377 210.43611 58.384377 210.07674Q58.603127 209.49861 59.071877 208.93611Q59.55625 208.37361 60.4625 207.63924Q61.86875 206.48299 62.353127 205.81111Q62.853127 205.13924 62.853127 204.54549Q62.853127 203.92049 62.4 203.49861Q61.946877 203.06111 61.228127 203.06111Q60.4625 203.06111 60.009377 203.51424Q59.55625 203.96736 59.540627 204.77986L58.4625 204.67049Q58.571877 203.45174 59.290627 202.82674Q60.025 202.18611 61.259377 202.18611Q62.49375 202.18611 63.2125 202.87361Q63.93125 203.56111 63.93125 204.57674Q63.93125 205.09236 63.7125 205.59236Q63.509377 206.07674 63.009377 206.63924Q62.525 207.18611 61.4 208.13924Q60.446877 208.93611 60.165627 209.23299Q59.9 209.51424 59.728127 209.79549L63.946877 209.79549ZM65.4 206.57674Q65.4 205.04549 65.7125 204.12361Q66.025 203.18611 66.63438 202.68611Q67.25938 202.18611 68.19688 202.18611Q68.88438 202.18611 69.4 202.46736Q69.93125 202.74861 70.275 203.27986Q70.61875 203.79549 70.80625 204.54549Q70.99375 205.29549 70.99375 206.57674Q70.99375 208.09236 70.68125 209.01424Q70.38438 209.93611 69.75938 210.45174Q69.15 210.95174 68.19688 210.95174Q66.9625 210.95174 66.24375 210.06111Q65.4 208.99861 65.4 206.57674ZM66.47813 206.57674Q66.47813 208.68611 66.97813 209.38924Q67.47813 210.09236 68.19688 210.09236Q68.93125 210.09236 69.41563 209.38924Q69.91563 208.68611 69.91563 206.57674Q69.91563 204.45174 69.41563 203.76424Q68.93125 203.06111 68.18125 203.06111Q67.4625 203.06111 67.025 203.67049Q66.47813 204.45174 66.47813 206.57674ZM72.4 206.57674Q72.4 205.04549 72.7125 204.12361Q73.025 203.18611 73.63438 202.68611Q74.25938 202.18611 75.19688 202.18611Q75.88438 202.18611 76.4 202.46736Q76.93125 202.74861 77.275 203.27986Q77.61875 203.79549 77.80625 204.54549Q77.99375 205.29549 77.99375 206.57674Q77.99375 208.09236 77.68125 209.01424Q77.38438 209.93611 76.75938 210.45174Q76.15 210.95174 75.19688 210.95174Q73.9625 210.95174 73.24375 210.06111Q72.4 208.99861 72.4 206.57674ZM73.47813 206.57674Q73.47813 208.68611 73.97813 209.38924Q74.47813 210.09236 75.19688 210.09236Q75.93125 210.09236 76.41563 209.38924Q76.91563 208.68611 76.91563 206.57674Q76.91563 204.45174 76.41563 203.76424Q75.93125 203.06111 75.18125 203.06111Q74.4625 203.06111 74.025 203.67049Q73.47813 204.45174 73.47813 206.57674Z" fill-rule="nonzero"/><path fill="#000000" d="M58.4 75.90104L59.4625 75.760414Q59.634377 76.65104 60.071877 77.05729Q60.509377 77.447914 61.134377 77.447914Q61.884377 77.447914 62.4 76.93229Q62.915627 76.416664 62.915627 75.65104Q62.915627 74.93229 62.43125 74.46354Q61.9625 73.979164 61.228127 73.979164Q60.93125 73.979164 60.478127 74.104164L60.603127 73.166664Q60.7125 73.18229 60.775 73.18229Q61.446877 73.18229 61.978127 72.83854Q62.525 72.479164 62.525 71.74479Q62.525 71.166664 62.134377 70.791664Q61.74375 70.40104 61.11875 70.40104Q60.509377 70.40104 60.0875 70.791664Q59.68125 71.18229 59.571877 71.947914L58.509377 71.760414Q58.696877 70.71354 59.384377 70.135414Q60.071877 69.541664 61.0875 69.541664Q61.790627 69.541664 62.384377 69.854164Q62.978127 70.15104 63.290627 70.666664Q63.603127 71.18229 63.603127 71.77604Q63.603127 72.322914 63.30625 72.791664Q63.009377 73.24479 62.43125 73.510414Q63.18125 73.68229 63.603127 74.24479Q64.025 74.791664 64.025 75.635414Q64.025 76.760414 63.196877 77.541664Q62.384377 78.322914 61.134377 78.322914Q60.009377 78.322914 59.259377 77.65104Q58.509377 76.96354 58.4 75.90104ZM65.4 73.93229Q65.4 72.40104 65.7125 71.479164Q66.025 70.541664 66.63438 70.041664Q67.25938 69.541664 68.19688 69.541664Q68.88438 69.541664 69.4 69.822914Q69.93125 70.104164 70.275 70.635414Q70.61875 71.15104 70.80625 71.90104Q70.99375 72.65104 70.99375 73.93229Q70.99375 75.447914 70.68125 76.36979Q70.38438 77.291664 69.75938 77.80729Q69.15 78.30729 68.19688 78.30729Q66.9625 78.30729 66.24375 77.416664Q65.4 76.354164 65.4 73.93229ZM66.47813 73.93229Q66.47813 76.041664 66.97813 76.74479Q67.47813 77.447914 68.19688 77.447914Q68.93125 77.447914 69.41563 76.74479Q69.91563 76.041664 69.91563 73.93229Q69.91563 71.80729 69.41563 71.11979Q68.93125 70.416664 68.18125 70.416664Q67.4625 70.416664 67.025 71.02604Q66.47813 71.80729 66.47813 73.93229ZM72.4 73.93229Q72.4 72.40104 72.7125 71.479164Q73.025 70.541664 73.63438 70.041664Q74.25938 69.541664 75.19688 69.541664Q75.88438 69.541664 76.4 69.822914Q76.93125 70.104164 77.275 70.635414Q77.61875 71.15104 77.80625 71.90104Q77.99375 72.65104 77.99375 73.93229Q77.99375 75.447914 77.68125 76.36979Q77.38438 77.291664 76.75938 77.80729Q76.15 78.30729 75.19688 78.30729Q73.9625 78.30729 73.24375 77.416664Q72.4 76.354164 72.4 73.93229ZM73.47813 73.93229Q73.47813 76.041664 73.97813 76.74479Q74.47813 77.447914 75.19688 77.447914Q75.93125 77.447914 76.41563 76.74479Q76.91563 76.041664 76.91563 73.93229Q76.91563 71.80729 76.41563 71.11979Q75.93125 70.416664 75.18125 70.416664Q74.4625 70.416664 74.025 71.02604Q73.47813 71.80729 73.47813 73.93229Z" fill-rule="nonzero"/><path fill="#000000" d="M138.57579 489.1L138.57579 480.50626L141.81017 480.50626Q142.79454 480.50626 143.38829 480.77188Q143.98204 481.0375 144.31017 481.58438Q144.65392 482.11563 144.65392 482.70938Q144.65392 483.25626 144.35704 483.74063Q144.06017 484.225 143.45079 484.52188Q144.23204 484.75626 144.63829 485.31876Q145.06017 485.86563 145.06017 486.61563Q145.06017 487.20938 144.81017 487.74063Q144.56017 488.25626 144.18517 488.5375Q143.81017 488.81876 143.23204 488.95938Q142.66954 489.1 141.85704 489.1L138.57579 489.1ZM139.71642 484.11563L141.57579 484.11563Q142.32579 484.11563 142.65392 484.02188Q143.09142 483.89688 143.31017 483.6Q143.52892 483.2875 143.52892 482.83438Q143.52892 482.4125 143.32579 482.08438Q143.12267 481.75626 142.73204 481.64688Q142.35704 481.52188 141.43517 481.52188L139.71642 481.52188L139.71642 484.11563ZM139.71642 488.08438L141.85704 488.08438Q142.40392 488.08438 142.62267 488.0375Q143.02892 487.975 143.27892 487.81876Q143.54454 487.64688 143.71642 487.33438Q143.88829 487.02188 143.88829 486.61563Q143.88829 486.13126 143.63829 485.77188Q143.40392 485.4125 142.96642 485.27188Q142.52892 485.13126 141.70079 485.13126L139.71642 485.13126L139.71642 488.08438ZM150.56017 488.33438Q149.96642 488.83438 149.41954 489.0375Q148.88829 489.24063 148.26329 489.24063Q147.23204 489.24063 146.68517 488.74063Q146.13829 488.24063 146.13829 487.45938Q146.13829 487.00626 146.34142 486.63126Q146.54454 486.24063 146.88829 486.02188Q147.23204 485.7875 147.65392 485.67813Q147.95079 485.58438 148.59142 485.50626Q149.85704 485.36563 150.46642 485.14688Q150.46642 484.92813 150.46642 484.88126Q150.46642 484.225 150.16954 483.95938Q149.76329 483.61563 148.96642 483.61563Q148.23204 483.61563 147.87267 483.88126Q147.51329 484.13126 147.34142 484.7875L146.31017 484.64688Q146.45079 483.99063 146.77892 483.58438Q147.10704 483.17813 147.71642 482.95938Q148.32579 482.74063 149.12267 482.74063Q149.91954 482.74063 150.41954 482.92813Q150.91954 483.11563 151.15392 483.39688Q151.38829 483.67813 151.48204 484.11563Q151.52892 484.38126 151.52892 485.08438L151.52892 486.49063Q151.52892 487.95938 151.59142 488.35Q151.66954 488.74063 151.87267 489.1L150.76329 489.1Q150.60704 488.77188 150.56017 488.33438ZM150.46642 485.975Q149.88829 486.20938 148.74767 486.38126Q148.09142 486.475 147.82579 486.6Q147.56017 486.70938 147.40392 486.92813Q147.26329 487.14688 147.26329 487.42813Q147.26329 487.85 147.57579 488.13126Q147.90392 488.4125 148.51329 488.4125Q149.12267 488.4125 149.59142 488.14688Q150.07579 487.88126 150.29454 487.4125Q150.46642 487.05313 150.46642 486.36563L150.46642 485.975ZM153.07579 487.24063L154.10704 487.08438Q154.20079 487.70938 154.59142 488.0375Q154.99767 488.36563 155.73204 488.36563Q156.45079 488.36563 156.79454 488.08438Q157.15392 487.7875 157.15392 487.38126Q157.15392 487.02188 156.84142 486.81876Q156.62267 486.67813 155.76329 486.45938Q154.60704 486.1625 154.15392 485.95938Q153.71642 485.74063 153.48204 485.36563Q153.24767 484.99063 153.24767 484.52188Q153.24767 484.11563 153.43517 483.75626Q153.62267 483.39688 153.95079 483.1625Q154.20079 482.99063 154.62267 482.86563Q155.04454 482.74063 155.54454 482.74063Q156.26329 482.74063 156.81017 482.95938Q157.37267 483.1625 157.63829 483.52188Q157.90392 483.88126 157.99767 484.475L156.96642 484.61563Q156.90392 484.14688 156.56017 483.88126Q156.23204 483.6 155.60704 483.6Q154.88829 483.6 154.57579 483.85Q154.26329 484.08438 154.26329 484.4125Q154.26329 484.61563 154.38829 484.77188Q154.52892 484.94376 154.79454 485.05313Q154.95079 485.11563 155.73204 485.31876Q156.85704 485.63126 157.29454 485.81876Q157.73204 486.00626 157.98204 486.36563Q158.23204 486.725 158.23204 487.27188Q158.23204 487.80313 157.91954 488.27188Q157.62267 488.725 157.04454 488.99063Q156.46642 489.24063 155.73204 489.24063Q154.51329 489.24063 153.87267 488.74063Q153.24767 488.225 153.07579 487.24063ZM164.74767 487.1L165.84142 487.225Q165.59142 488.17813 164.88829 488.70938Q164.18517 489.24063 163.10704 489.24063Q161.74767 489.24063 160.93517 488.39688Q160.13829 487.55313 160.13829 486.0375Q160.13829 484.475 160.95079 483.61563Q161.76329 482.74063 163.04454 482.74063Q164.29454 482.74063 165.07579 483.58438Q165.87267 484.42813 165.87267 485.975Q165.87267 486.06876 165.87267 486.25626L161.23204 486.25626Q161.29454 487.2875 161.81017 487.83438Q162.32579 488.36563 163.10704 488.36563Q163.68517 488.36563 164.09142 488.06876Q164.51329 487.75626 164.74767 487.1ZM161.29454 485.39688L164.76329 485.39688Q164.70079 484.6 164.37267 484.20938Q163.85704 483.6 163.06017 483.6Q162.32579 483.6 161.82579 484.08438Q161.34142 484.56876 161.29454 485.39688ZM167.46642 489.1L167.46642 480.50626L168.52892 480.50626L168.52892 489.1L167.46642 489.1ZM170.49767 481.725L170.49767 480.50626L171.56017 480.50626L171.56017 481.725L170.49767 481.725ZM170.49767 489.1L170.49767 482.88126L171.56017 482.88126L171.56017 489.1L170.49767 489.1ZM173.49767 489.1L173.49767 482.88126L174.43517 482.88126L174.43517 483.75626Q175.12267 482.74063 176.41954 482.74063Q176.98204 482.74063 177.45079 482.94376Q177.93517 483.14688 178.16954 483.475Q178.40392 483.80313 178.49767 484.24063Q178.54454 484.5375 178.54454 485.27188L178.54454 489.1L177.49767 489.1L177.49767 485.31876Q177.49767 484.6625 177.37267 484.35Q177.24767 484.0375 176.93517 483.85Q176.62267 483.64688 176.20079 483.64688Q175.52892 483.64688 175.02892 484.08438Q174.54454 484.50626 174.54454 485.69376L174.54454 489.1L173.49767 489.1ZM184.74767 487.1L185.84142 487.225Q185.59142 488.17813 184.88829 488.70938Q184.18517 489.24063 183.10704 489.24063Q181.74767 489.24063 180.93517 488.39688Q180.13829 487.55313 180.13829 486.0375Q180.13829 484.475 180.95079 483.61563Q181.76329 482.74063 183.04454 482.74063Q184.29454 482.74063 185.07579 483.58438Q185.87267 484.42813 185.87267 485.975Q185.87267 486.06876 185.87267 486.25626L181.23204 486.25626Q181.29454 487.2875 181.81017 487.83438Q182.32579 488.36563 183.10704 488.36563Q183.68517 488.36563 184.09142 488.06876Q184.51329 487.75626 184.74767 487.1ZM181.29454 485.39688L184.76329 485.39688Q184.70079 484.6 184.37267 484.20938Q183.85704 483.6 183.06017 483.6Q182.32579 483.6 181.82579 484.08438Q181.34142 484.56876 181.29454 485.39688Z" fill-rule="nonzero"/><path fill="#000000" d="M247.64235 489.1L247.64235 480.50626L250.6111 480.50626Q251.6111 480.50626 252.14235 480.63126Q252.87672 480.80313 253.39235 481.24063Q254.07985 481.81876 254.40797 482.725Q254.75172 483.61563 254.75172 484.75626Q254.75172 485.74063 254.51735 486.49063Q254.2986 487.24063 253.93922 487.74063Q253.57985 488.24063 253.14235 488.52188Q252.72047 488.80313 252.12672 488.95938Q251.53297 489.1 250.75172 489.1L247.64235 489.1ZM248.78297 488.08438L250.6111 488.08438Q251.47047 488.08438 251.95485 487.92813Q252.43922 487.77188 252.72047 487.475Q253.12672 487.08438 253.34547 486.39688Q253.57985 485.70938 253.57985 484.74063Q253.57985 483.39688 253.12672 482.67813Q252.68922 481.94376 252.06422 481.69376Q251.59547 481.52188 250.59547 481.52188L248.78297 481.52188L248.78297 488.08438ZM260.59546 489.1L260.59546 488.17813Q259.86108 489.24063 258.61108 489.24063Q258.0642 489.24063 257.57983 489.0375Q257.11108 488.81876 256.8767 488.50626Q256.64233 488.17813 256.54858 487.70938Q256.48608 487.4125 256.48608 486.725L256.48608 482.88126L257.54858 482.88126L257.54858 486.33438Q257.54858 487.14688 257.61108 487.44376Q257.70483 487.85 258.01733 488.1Q258.34546 488.33438 258.82983 488.33438Q259.29858 488.33438 259.70483 488.1Q260.1267 487.85 260.29858 487.42813Q260.48608 487.00626 260.48608 486.20938L260.48608 482.88126L261.53296 482.88126L261.53296 489.1L260.59546 489.1ZM267.57983 488.33438Q266.98608 488.83438 266.4392 489.0375Q265.90796 489.24063 265.28296 489.24063Q264.2517 489.24063 263.70483 488.74063Q263.15796 488.24063 263.15796 487.45938Q263.15796 487.00626 263.36108 486.63126Q263.5642 486.24063 263.90796 486.02188Q264.2517 485.7875 264.67358 485.67813Q264.97046 485.58438 265.61108 485.50626Q266.8767 485.36563 267.48608 485.14688Q267.48608 484.92813 267.48608 484.88126Q267.48608 484.225 267.1892 483.95938Q266.78296 483.61563 265.98608 483.61563Q265.2517 483.61563 264.89233 483.88126Q264.53296 484.13126 264.36108 484.7875L263.32983 484.64688Q263.47046 483.99063 263.79858 483.58438Q264.1267 483.17813 264.73608 482.95938Q265.34546 482.74063 266.14233 482.74063Q266.9392 482.74063 267.4392 482.92813Q267.9392 483.11563 268.17358 483.39688Q268.40796 483.67813 268.5017 484.11563Q268.54858 484.38126 268.54858 485.08438L268.54858 486.49063Q268.54858 487.95938 268.61108 488.35Q268.6892 488.74063 268.89233 489.1L267.78296 489.1Q267.6267 488.77188 267.57983 488.33438ZM267.48608 485.975Q266.90796 486.20938 265.76733 486.38126Q265.11108 486.475 264.84546 486.6Q264.57983 486.70938 264.42358 486.92813Q264.28296 487.14688 264.28296 487.42813Q264.28296 487.85 264.59546 488.13126Q264.92358 488.4125 265.53296 488.4125Q266.14233 488.4125 266.61108 488.14688Q267.09546 487.88126 267.3142 487.4125Q267.48608 487.05313 267.48608 486.36563L267.48608 485.975ZM270.48608 489.1L270.48608 480.50626L271.54858 480.50626L271.54858 489.1L270.48608 489.1ZM282.78296 486.08438L283.90796 486.38126Q283.54858 487.77188 282.6267 488.50626Q281.70483 489.24063 280.36108 489.24063Q278.97046 489.24063 278.09546 488.67813Q277.22046 488.11563 276.76733 487.05313Q276.3142 485.975 276.3142 484.74063Q276.3142 483.39688 276.82983 482.39688Q277.34546 481.39688 278.28296 480.88126Q279.23608 480.36563 280.3767 480.36563Q281.65796 480.36563 282.53296 481.02188Q283.42358 481.67813 283.76733 482.86563L282.64233 483.13126Q282.34546 482.19376 281.76733 481.77188Q281.20483 481.33438 280.34546 481.33438Q279.36108 481.33438 278.6892 481.81876Q278.03296 482.2875 277.7517 483.08438Q277.48608 483.88126 277.48608 484.74063Q277.48608 485.83438 277.79858 486.64688Q278.1267 487.45938 278.79858 487.86563Q279.47046 488.27188 280.26733 488.27188Q281.22046 488.27188 281.8767 487.725Q282.54858 487.17813 282.78296 486.08438ZM285.48608 489.1L285.48608 480.50626L286.54858 480.50626L286.54858 489.1L285.48608 489.1ZM288.1267 485.99063Q288.1267 484.25626 289.07983 483.42813Q289.8767 482.74063 291.03296 482.74063Q292.3142 482.74063 293.1267 483.58438Q293.95483 484.4125 293.95483 485.89688Q293.95483 487.1 293.59546 487.7875Q293.23608 488.475 292.53296 488.86563Q291.84546 489.24063 291.03296 489.24063Q289.73608 489.24063 288.92358 488.4125Q288.1267 487.56876 288.1267 485.99063ZM289.20483 485.99063Q289.20483 487.17813 289.72046 487.77188Q290.2517 488.36563 291.03296 488.36563Q291.82983 488.36563 292.34546 487.77188Q292.86108 487.17813 292.86108 485.95938Q292.86108 484.80313 292.32983 484.20938Q291.8142 483.61563 291.03296 483.61563Q290.2517 483.61563 289.72046 484.20938Q289.20483 484.7875 289.20483 485.99063ZM299.57983 486.81876L300.61108 486.95938Q300.4392 488.02188 299.73608 488.63126Q299.03296 489.24063 298.01733 489.24063Q296.73608 489.24063 295.95483 488.4125Q295.1892 487.56876 295.1892 486.00626Q295.1892 485.00626 295.51733 484.25626Q295.86108 483.49063 296.53296 483.11563Q297.22046 482.74063 298.03296 482.74063Q299.03296 482.74063 299.67358 483.25626Q300.32983 483.75626 300.51733 484.70938L299.48608 484.86563Q299.34546 484.24063 298.97046 483.92813Q298.59546 483.6 298.0642 483.6Q297.26733 483.6 296.76733 484.17813Q296.26733 484.74063 296.26733 485.975Q296.26733 487.24063 296.7517 487.80313Q297.23608 488.36563 298.0017 488.36563Q298.6267 488.36563 299.03296 487.99063Q299.45483 487.61563 299.57983 486.81876ZM301.51733 489.1L301.51733 480.50626L302.57983 480.50626L302.57983 485.4125L305.0642 482.88126L306.4392 482.88126L304.04858 485.17813L306.67358 489.1L305.3767 489.1L303.3142 485.9125L302.57983 486.63126L302.57983 489.1L301.51733 489.1Z" fill-rule="nonzero"/><path fill="#000000" d="M370.80264 480.50626L371.94327 480.50626L371.94327 485.475Q371.94327 486.77188 371.6464 487.5375Q371.34952 488.2875 370.5839 488.77188Q369.81827 489.24063 368.5839 489.24063Q367.38077 489.24063 366.59952 488.83438Q365.8339 488.4125 365.50577 487.63126Q365.17764 486.83438 365.17764 485.475L365.17764 480.50626L366.31827 480.50626L366.31827 485.45938Q366.31827 486.58438 366.5214 487.11563Q366.74014 487.64688 367.24014 487.94376Q367.75577 488.225 368.49014 488.225Q369.74014 488.225 370.2714 487.6625Q370.80264 487.08438 370.80264 485.45938L370.80264 480.50626ZM374.00577 489.1L374.00577 480.50626L375.06827 480.50626L375.06827 489.1L374.00577 489.1ZM379.3339 488.1625L379.49014 489.08438Q379.03702 489.17813 378.69327 489.17813Q378.11514 489.17813 377.80264 489.00626Q377.49014 488.81876 377.34952 488.52188Q377.22452 488.225 377.22452 487.27188L377.22452 483.69376L376.4589 483.69376L376.4589 482.88126L377.22452 482.88126L377.22452 481.33438L378.2714 480.70938L378.2714 482.88126L379.3339 482.88126L379.3339 483.69376L378.2714 483.69376L378.2714 487.33438Q378.2714 487.7875 378.31827 487.9125Q378.38077 488.0375 378.50577 488.11563Q378.63077 488.19376 378.86514 488.19376Q379.05264 488.19376 379.3339 488.1625ZM380.0214 489.1L380.0214 482.88126L380.97452 482.88126L380.97452 483.81876Q381.3339 483.1625 381.63077 482.95938Q381.94327 482.74063 382.31827 482.74063Q382.84952 482.74063 383.3964 483.06876L383.03702 484.05313Q382.6464 483.81876 382.2714 483.81876Q381.91202 483.81876 381.63077 484.0375Q381.36514 484.24063 381.25577 484.61563Q381.06827 485.17813 381.06827 485.83438L381.06827 489.1L380.0214 489.1ZM388.09952 488.33438Q387.50577 488.83438 386.9589 489.0375Q386.42764 489.24063 385.80264 489.24063Q384.7714 489.24063 384.22452 488.74063Q383.67764 488.24063 383.67764 487.45938Q383.67764 487.00626 383.88077 486.63126Q384.0839 486.24063 384.42764 486.02188Q384.7714 485.7875 385.19327 485.67813Q385.49014 485.58438 386.13077 485.50626Q387.3964 485.36563 388.00577 485.14688Q388.00577 484.92813 388.00577 484.88126Q388.00577 484.225 387.7089 483.95938Q387.30264 483.61563 386.50577 483.61563Q385.7714 483.61563 385.41202 483.88126Q385.05264 484.13126 384.88077 484.7875L383.84952 484.64688Q383.99014 483.99063 384.31827 483.58438Q384.6464 483.17813 385.25577 482.95938Q385.86514 482.74063 386.66202 482.74063Q387.4589 482.74063 387.9589 482.92813Q388.4589 483.11563 388.69327 483.39688Q388.92764 483.67813 389.0214 484.11563Q389.06827 484.38126 389.06827 485.08438L389.06827 486.49063Q389.06827 487.95938 389.13077 488.35Q389.2089 488.74063 389.41202 489.1L388.30264 489.1Q388.1464 488.77188 388.09952 488.33438ZM388.00577 485.975Q387.42764 486.20938 386.28702 486.38126Q385.63077 486.475 385.36514 486.6Q385.09952 486.70938 384.94327 486.92813Q384.80264 487.14688 384.80264 487.42813Q384.80264 487.85 385.11514 488.13126Q385.44327 488.4125 386.05264 488.4125Q386.66202 488.4125 387.13077 488.14688Q387.61514 487.88126 387.8339 487.4125Q388.00577 487.05313 388.00577 486.36563L388.00577 485.975ZM394.17764 489.1L394.17764 480.50626L397.99014 480.50626Q399.1464 480.50626 399.74014 480.74063Q400.3339 480.975 400.69327 481.56876Q401.05264 482.14688 401.05264 482.85Q401.05264 483.77188 400.4589 484.39688Q399.86514 485.02188 398.63077 485.19376Q399.0839 485.4125 399.31827 485.61563Q399.81827 486.06876 400.25577 486.75626L401.75577 489.1L400.31827 489.1L399.19327 487.31876Q398.69327 486.5375 398.36514 486.13126Q398.05264 485.725 397.78702 485.56876Q397.53702 485.39688 397.2714 485.31876Q397.0839 485.2875 396.6464 485.2875L395.31827 485.2875L395.31827 489.1L394.17764 489.1ZM395.31827 484.30313L397.7714 484.30313Q398.53702 484.30313 398.97452 484.14688Q399.42764 483.975 399.6464 483.63126Q399.88077 483.27188 399.88077 482.85Q399.88077 482.24063 399.42764 481.85Q398.99014 481.45938 398.03702 481.45938L395.31827 481.45938L395.31827 484.30313ZM402.22452 489.1L405.5214 480.50626L406.74014 480.50626L410.25577 489.1L408.97452 489.1L407.9589 486.49063L404.38077 486.49063L403.42764 489.1L402.22452 489.1ZM404.7089 485.56876L407.61514 485.56876L406.72452 483.19376Q406.30264 482.11563 406.11514 481.4125Q405.94327 482.24063 405.6464 483.05313L404.7089 485.56876ZM410.13077 489.1L410.13077 480.50626L411.84952 480.50626L413.88077 486.58438Q414.16202 487.44376 414.28702 487.86563Q414.42764 487.39688 414.74014 486.49063L416.80264 480.50626L418.3339 480.50626L418.3339 489.1L417.24014 489.1L417.24014 481.9125L414.74014 489.1L413.7089 489.1L411.22452 481.7875L411.22452 489.1L410.13077 489.1Z" fill-rule="nonzero"/><path fill="#000000" d="M480.02548 489.1L480.02548 480.50626L481.08798 480.50626L481.08798 489.1L480.02548 489.1ZM482.6661 485.99063Q482.6661 484.25626 483.61923 483.42813Q484.4161 482.74063 485.57236 482.74063Q486.8536 482.74063 487.6661 483.58438Q488.49423 484.4125 488.49423 485.89688Q488.49423 487.1 488.13486 487.7875Q487.77548 488.475 487.07236 488.86563Q486.38486 489.24063 485.57236 489.24063Q484.27548 489.24063 483.46298 488.4125Q482.6661 487.56876 482.6661 485.99063ZM483.74423 485.99063Q483.74423 487.17813 484.25986 487.77188Q484.7911 488.36563 485.57236 488.36563Q486.36923 488.36563 486.88486 487.77188Q487.40048 487.17813 487.40048 485.95938Q487.40048 484.80313 486.86923 484.20938Q486.3536 483.61563 485.57236 483.61563Q484.7911 483.61563 484.25986 484.20938Q483.74423 484.7875 483.74423 485.99063ZM494.11923 486.81876L495.15048 486.95938Q494.9786 488.02188 494.27548 488.63126Q493.57236 489.24063 492.55673 489.24063Q491.27548 489.24063 490.49423 488.4125Q489.7286 487.56876 489.7286 486.00626Q489.7286 485.00626 490.05673 484.25626Q490.40048 483.49063 491.07236 483.11563Q491.75986 482.74063 492.57236 482.74063Q493.57236 482.74063 494.21298 483.25626Q494.86923 483.75626 495.05673 484.70938L494.02548 484.86563Q493.88486 484.24063 493.50986 483.92813Q493.13486 483.6 492.6036 483.6Q491.80673 483.6 491.30673 484.17813Q490.80673 484.74063 490.80673 485.975Q490.80673 487.24063 491.2911 487.80313Q491.77548 488.36563 492.5411 488.36563Q493.1661 488.36563 493.57236 487.99063Q493.99423 487.61563 494.11923 486.81876ZM500.11923 488.33438Q499.52548 488.83438 498.9786 489.0375Q498.44736 489.24063 497.82236 489.24063Q496.7911 489.24063 496.24423 488.74063Q495.69736 488.24063 495.69736 487.45938Q495.69736 487.00626 495.90048 486.63126Q496.1036 486.24063 496.44736 486.02188Q496.7911 485.7875 497.21298 485.67813Q497.50986 485.58438 498.15048 485.50626Q499.4161 485.36563 500.02548 485.14688Q500.02548 484.92813 500.02548 484.88126Q500.02548 484.225 499.7286 483.95938Q499.32236 483.61563 498.52548 483.61563Q497.7911 483.61563 497.43173 483.88126Q497.07236 484.13126 496.90048 484.7875L495.86923 484.64688Q496.00986 483.99063 496.33798 483.58438Q496.6661 483.17813 497.27548 482.95938Q497.88486 482.74063 498.68173 482.74063Q499.4786 482.74063 499.9786 482.92813Q500.4786 483.11563 500.71298 483.39688Q500.94736 483.67813 501.0411 484.11563Q501.08798 484.38126 501.08798 485.08438L501.08798 486.49063Q501.08798 487.95938 501.15048 488.35Q501.2286 488.74063 501.43173 489.1L500.32236 489.1Q500.1661 488.77188 500.11923 488.33438ZM500.02548 485.975Q499.44736 486.20938 498.30673 486.38126Q497.65048 486.475 497.38486 486.6Q497.11923 486.70938 496.96298 486.92813Q496.82236 487.14688 496.82236 487.42813Q496.82236 487.85 497.13486 488.13126Q497.46298 488.4125 498.07236 488.4125Q498.68173 488.4125 499.15048 488.14688Q499.63486 487.88126 499.8536 487.4125Q500.02548 487.05313 500.02548 486.36563L500.02548 485.975ZM503.02548 489.1L503.02548 480.50626L504.08798 480.50626L504.08798 489.1L503.02548 489.1ZM505.63486 486.52188L505.63486 485.45938L508.88486 485.45938L508.88486 486.52188L505.63486 486.52188ZM511.77548 489.1L509.4161 482.88126L510.52548 482.88126L511.86923 486.6Q512.0724 487.20938 512.2599 487.85Q512.4005 487.36563 512.6505 486.67813L514.04114 482.88126L515.11926 482.88126L512.7599 489.1L511.77548 489.1ZM519.11926 488.33438Q518.5255 488.83438 517.97864 489.0375Q517.4474 489.24063 516.8224 489.24063Q515.79114 489.24063 515.24426 488.74063Q514.6974 488.24063 514.6974 487.45938Q514.6974 487.00626 514.9005 486.63126Q515.10364 486.24063 515.4474 486.02188Q515.79114 485.7875 516.213 485.67813Q516.5099 485.58438 517.1505 485.50626Q518.41614 485.36563 519.0255 485.14688Q519.0255 484.92813 519.0255 484.88126Q519.0255 484.225 518.72864 483.95938Q518.3224 483.61563 517.5255 483.61563Q516.79114 483.61563 516.43176 483.88126Q516.0724 484.13126 515.9005 484.7875L514.86926 484.64688Q515.0099 483.99063 515.338 483.58438Q515.66614 483.17813 516.2755 482.95938Q516.8849 482.74063 517.68176 482.74063Q518.47864 482.74063 518.97864 482.92813Q519.47864 483.11563 519.713 483.39688Q519.9474 483.67813 520.04114 484.11563Q520.088 484.38126 520.088 485.08438L520.088 486.49063Q520.088 487.95938 520.1505 488.35Q520.22864 488.74063 520.43176 489.1L519.3224 489.1Q519.16614 488.77188 519.11926 488.33438ZM519.0255 485.975Q518.4474 486.20938 517.30676 486.38126Q516.6505 486.475 516.3849 486.6Q516.11926 486.70938 515.963 486.92813Q515.8224 487.14688 515.8224 487.42813Q515.8224 487.85 516.1349 488.13126Q516.463 488.4125 517.0724 488.4125Q517.68176 488.4125 518.1505 488.14688Q518.6349 487.88126 518.85364 487.4125Q519.0255 487.05313 519.0255 486.36563L519.0255 485.975ZM522.04114 489.1L522.04114 482.88126L522.99426 482.88126L522.99426 483.81876Q523.35364 483.1625 523.6505 482.95938Q523.963 482.74063 524.338 482.74063Q524.86926 482.74063 525.41614 483.06876L525.05676 484.05313Q524.66614 483.81876 524.29114 483.81876Q523.93176 483.81876 523.6505 484.0375Q523.3849 484.24063 523.2755 484.61563Q523.088 485.17813 523.088 485.83438L523.088 489.1L522.04114 489.1ZM525.6349 487.24063L526.66614 487.08438Q526.7599 487.70938 527.1505 488.0375Q527.55676 488.36563 528.29114 488.36563Q529.0099 488.36563 529.35364 488.08438Q529.713 487.7875 529.713 487.38126Q529.713 487.02188 529.4005 486.81876Q529.18176 486.67813 528.3224 486.45938Q527.16614 486.1625 526.713 485.95938Q526.2755 485.74063 526.04114 485.36563Q525.80676 484.99063 525.80676 484.52188Q525.80676 484.11563 525.99426 483.75626Q526.18176 483.39688 526.5099 483.1625Q526.7599 482.99063 527.18176 482.86563Q527.60364 482.74063 528.10364 482.74063Q528.8224 482.74063 529.36926 482.95938Q529.93176 483.1625 530.1974 483.52188Q530.463 483.88126 530.55676 484.475L529.5255 484.61563Q529.463 484.14688 529.11926 483.88126Q528.79114 483.6 528.16614 483.6Q527.4474 483.6 527.1349 483.85Q526.8224 484.08438 526.8224 484.4125Q526.8224 484.61563 526.9474 484.77188Q527.088 484.94376 527.35364 485.05313Q527.5099 485.11563 528.29114 485.31876Q529.41614 485.63126 529.85364 485.81876Q530.29114 486.00626 530.54114 486.36563Q530.79114 486.725 530.79114 487.27188Q530.79114 487.80313 530.47864 488.27188Q530.18176 488.725 529.60364 488.99063Q529.0255 489.24063 528.29114 489.24063Q527.0724 489.24063 526.43176 488.74063Q525.80676 488.225 525.6349 487.24063Z" fill-rule="nonzero"/><path fill="#000000" d="M587.54517 489.1L587.54517 480.50626L588.60767 480.50626L588.60767 489.1L587.54517 489.1ZM590.1858 485.99063Q590.1858 484.25626 591.1389 483.42813Q591.9358 482.74063 593.09204 482.74063Q594.3733 482.74063 595.1858 483.58438Q596.0139 484.4125 596.0139 485.89688Q596.0139 487.1 595.65454 487.7875Q595.29517 488.475 594.59204 488.86563Q593.90454 489.24063 593.09204 489.24063Q591.79517 489.24063 590.98267 488.4125Q590.1858 487.56876 590.1858 485.99063ZM591.2639 485.99063Q591.2639 487.17813 591.77954 487.77188Q592.3108 488.36563 593.09204 488.36563Q593.8889 488.36563 594.40454 487.77188Q594.92017 487.17813 594.92017 485.95938Q594.92017 484.80313 594.3889 484.20938Q593.8733 483.61563 593.09204 483.61563Q592.3108 483.61563 591.77954 484.20938Q591.2639 484.7875 591.2639 485.99063ZM601.6389 486.81876L602.67017 486.95938Q602.4983 488.02188 601.79517 488.63126Q601.09204 489.24063 600.0764 489.24063Q598.79517 489.24063 598.0139 488.4125Q597.2483 487.56876 597.2483 486.00626Q597.2483 485.00626 597.5764 484.25626Q597.92017 483.49063 598.59204 483.11563Q599.27954 482.74063 600.09204 482.74063Q601.09204 482.74063 601.73267 483.25626Q602.3889 483.75626 602.5764 484.70938L601.54517 484.86563Q601.40454 484.24063 601.02954 483.92813Q600.65454 483.6 600.1233 483.6Q599.3264 483.6 598.8264 484.17813Q598.3264 484.74063 598.3264 485.975Q598.3264 487.24063 598.8108 487.80313Q599.29517 488.36563 600.0608 488.36563Q600.6858 488.36563 601.09204 487.99063Q601.5139 487.61563 601.6389 486.81876ZM607.6389 488.33438Q607.04517 488.83438 606.4983 489.0375Q605.96704 489.24063 605.34204 489.24063Q604.3108 489.24063 603.7639 488.74063Q603.21704 488.24063 603.21704 487.45938Q603.21704 487.00626 603.42017 486.63126Q603.6233 486.24063 603.96704 486.02188Q604.3108 485.7875 604.73267 485.67813Q605.02954 485.58438 605.67017 485.50626Q606.9358 485.36563 607.54517 485.14688Q607.54517 484.92813 607.54517 484.88126Q607.54517 484.225 607.2483 483.95938Q606.84204 483.61563 606.04517 483.61563Q605.3108 483.61563 604.9514 483.88126Q604.59204 484.13126 604.42017 484.7875L603.3889 484.64688Q603.52954 483.99063 603.85767 483.58438Q604.1858 483.17813 604.79517 482.95938Q605.40454 482.74063 606.2014 482.74063Q606.9983 482.74063 607.4983 482.92813Q607.9983 483.11563 608.23267 483.39688Q608.46704 483.67813 608.5608 484.11563Q608.60767 484.38126 608.60767 485.08438L608.60767 486.49063Q608.60767 487.95938 608.67017 488.35Q608.7483 488.74063 608.9514 489.1L607.84204 489.1Q607.6858 488.77188 607.6389 488.33438ZM607.54517 485.975Q606.96704 486.20938 605.8264 486.38126Q605.17017 486.475 604.90454 486.6Q604.6389 486.70938 604.48267 486.92813Q604.34204 487.14688 604.34204 487.42813Q604.34204 487.85 604.65454 488.13126Q604.98267 488.4125 605.59204 488.4125Q606.2014 488.4125 606.67017 488.14688Q607.15454 487.88126 607.3733 487.4125Q607.54517 487.05313 607.54517 486.36563L607.54517 485.975ZM610.54517 489.1L610.54517 480.50626L611.60767 480.50626L611.60767 489.1L610.54517 489.1ZM613.15454 486.52188L613.15454 485.45938L616.40454 485.45938L616.40454 486.52188L613.15454 486.52188ZM621.6389 486.81876L622.67017 486.95938Q622.4983 488.02188 621.79517 488.63126Q621.09204 489.24063 620.0764 489.24063Q618.79517 489.24063 618.0139 488.4125Q617.2483 487.56876 617.2483 486.00626Q617.2483 485.00626 617.5764 484.25626Q617.92017 483.49063 618.59204 483.11563Q619.27954 482.74063 620.09204 482.74063Q621.09204 482.74063 621.73267 483.25626Q622.3889 483.75626 622.5764 484.70938L621.54517 484.86563Q621.40454 484.24063 621.02954 483.92813Q620.65454 483.6 620.1233 483.6Q619.3264 483.6 618.8264 484.17813Q618.3264 484.74063 618.3264 485.975Q618.3264 487.24063 618.8108 487.80313Q619.29517 488.36563 620.0608 488.36563Q620.6858 488.36563 621.09204 487.99063Q621.5139 487.61563 621.6389 486.81876ZM623.1858 485.99063Q623.1858 484.25626 624.1389 483.42813Q624.9358 482.74063 626.09204 482.74063Q627.3733 482.74063 628.1858 483.58438Q629.0139 484.4125 629.0139 485.89688Q629.0139 487.1 628.65454 487.7875Q628.29517 488.475 627.59204 488.86563Q626.90454 489.24063 626.09204 489.24063Q624.79517 489.24063 623.98267 488.4125Q623.1858 487.56876 623.1858 485.99063ZM624.2639 485.99063Q624.2639 487.17813 624.77954 487.77188Q625.3108 488.36563 626.09204 488.36563Q626.8889 488.36563 627.40454 487.77188Q627.92017 487.17813 627.92017 485.95938Q627.92017 484.80313 627.3889 484.20938Q626.8733 483.61563 626.09204 483.61563Q625.3108 483.61563 624.77954 484.20938Q624.2639 484.7875 624.2639 485.99063ZM630.5764 489.1L630.5764 482.88126L631.5139 482.88126L631.5139 483.75626Q632.2014 482.74063 633.4983 482.74063Q634.0608 482.74063 634.52954 482.94376Q635.0139 483.14688 635.2483 483.475Q635.48267 483.80313 635.5764 484.24063Q635.6233 484.5375 635.6233 485.27188L635.6233 489.1L634.5764 489.1L634.5764 485.31876Q634.5764 484.6625 634.4514 484.35Q634.3264 484.0375 634.0139 483.85Q633.7014 483.64688 633.27954 483.64688Q632.60767 483.64688 632.10767 484.08438Q631.6233 484.50626 631.6233 485.69376L631.6233 489.1L630.5764 489.1ZM637.15454 487.24063L638.1858 487.08438Q638.27954 487.70938 638.67017 488.0375Q639.0764 488.36563 639.8108 488.36563Q640.52954 488.36563 640.8733 488.08438Q641.23267 487.7875 641.23267 487.38126Q641.23267 487.02188 640.92017 486.81876Q640.7014 486.67813 639.84204 486.45938Q638.6858 486.1625 638.23267 485.95938Q637.79517 485.74063 637.5608 485.36563Q637.3264 484.99063 637.3264 484.52188Q637.3264 484.11563 637.5139 483.75626Q637.7014 483.39688 638.02954 483.1625Q638.27954 482.99063 638.7014 482.86563Q639.1233 482.74063 639.6233 482.74063Q640.34204 482.74063 640.8889 482.95938Q641.4514 483.1625 641.71704 483.52188Q641.98267 483.88126 642.0764 484.475L641.04517 484.61563Q640.98267 484.14688 640.6389 483.88126Q640.3108 483.6 639.6858 483.6Q638.96704 483.6 638.65454 483.85Q638.34204 484.08438 638.34204 484.4125Q638.34204 484.61563 638.46704 484.77188Q638.60767 484.94376 638.8733 485.05313Q639.02954 485.11563 639.8108 485.31876Q640.9358 485.63126 641.3733 485.81876Q641.8108 486.00626 642.0608 486.36563Q642.3108 486.725 642.3108 487.27188Q642.3108 487.80313 641.9983 488.27188Q641.7014 488.725 641.1233 488.99063Q640.54517 489.24063 639.8108 489.24063Q638.59204 489.24063 637.9514 488.74063Q637.3264 488.225 637.15454 487.24063ZM646.8733 488.1625L647.02954 489.08438Q646.5764 489.17813 646.23267 489.17813Q645.65454 489.17813 645.34204 489.00626Q645.02954 488.81876 644.8889 488.52188Q644.7639 488.225 644.7639 487.27188L644.7639 483.69376L643.9983 483.69376L643.9983 482.88126L644.7639 482.88126L644.7639 481.33438L645.8108 480.70938L645.8108 482.88126L646.8733 482.88126L646.8733 483.69376L645.8108 483.69376L645.8108 487.33438Q645.8108 487.7875 645.85767 487.9125Q645.92017 488.0375 646.04517 488.11563Q646.17017 488.19376 646.40454 488.19376Q646.59204 488.19376 646.8733 488.1625ZM647.15454 487.24063L648.1858 487.08438Q648.27954 487.70938 648.67017 488.0375Q649.0764 488.36563 649.8108 488.36563Q650.52954 488.36563 650.8733 488.08438Q651.23267 487.7875 651.23267 487.38126Q651.23267 487.02188 650.92017 486.81876Q650.7014 486.67813 649.84204 486.45938Q648.6858 486.1625 648.23267 485.95938Q647.79517 485.74063 647.5608 485.36563Q647.3264 484.99063 647.3264 484.52188Q647.3264 484.11563 647.5139 483.75626Q647.7014 483.39688 648.02954 483.1625Q648.27954 482.99063 648.7014 482.86563Q649.1233 482.74063 649.6233 482.74063Q650.34204 482.74063 650.8889 482.95938Q651.4514 483.1625 651.71704 483.52188Q651.98267 483.88126 652.0764 484.475L651.04517 484.61563Q650.98267 484.14688 650.6389 483.88126Q650.3108 483.6 649.6858 483.6Q648.96704 483.6 648.65454 483.85Q648.34204 484.08438 648.34204 484.4125Q648.34204 484.61563 648.46704 484.77188Q648.60767 484.94376 648.8733 485.05313Q649.02954 485.11563 649.8108 485.31876Q650.9358 485.63126 651.3733 485.81876Q651.8108 486.00626 652.0608 486.36563Q652.3108 486.725 652.3108 487.27188Q652.3108 487.80313 651.9983 488.27188Q651.7014 488.725 651.1233 488.99063Q650.54517 489.24063 649.8108 489.24063Q648.59204 489.24063 647.9514 488.74063Q647.3264 488.225 647.15454 487.24063Z" fill-rule="nonzero"/><path fill="#000000" d="M676.0648 489.1L676.0648 480.50626L677.1273 480.50626L677.1273 489.1L676.0648 489.1ZM678.70544 485.99063Q678.70544 484.25626 679.65857 483.42813Q680.45544 482.74063 681.6117 482.74063Q682.89294 482.74063 683.70544 483.58438Q684.53357 484.4125 684.53357 485.89688Q684.53357 487.1 684.1742 487.7875Q683.8148 488.475 683.1117 488.86563Q682.4242 489.24063 681.6117 489.24063Q680.3148 489.24063 679.5023 488.4125Q678.70544 487.56876 678.70544 485.99063ZM679.78357 485.99063Q679.78357 487.17813 680.2992 487.77188Q680.83044 488.36563 681.6117 488.36563Q682.40857 488.36563 682.9242 487.77188Q683.4398 487.17813 683.4398 485.95938Q683.4398 484.80313 682.90857 484.20938Q682.39294 483.61563 681.6117 483.61563Q680.83044 483.61563 680.2992 484.20938Q679.78357 484.7875 679.78357 485.99063ZM690.15857 486.81876L691.1898 486.95938Q691.01794 488.02188 690.3148 488.63126Q689.6117 489.24063 688.59607 489.24063Q687.3148 489.24063 686.53357 488.4125Q685.76794 487.56876 685.76794 486.00626Q685.76794 485.00626 686.09607 484.25626Q686.4398 483.49063 687.1117 483.11563Q687.7992 482.74063 688.6117 482.74063Q689.6117 482.74063 690.2523 483.25626Q690.90857 483.75626 691.09607 484.70938L690.0648 484.86563Q689.9242 484.24063 689.5492 483.92813Q689.1742 483.6 688.64294 483.6Q687.84607 483.6 687.34607 484.17813Q686.84607 484.74063 686.84607 485.975Q686.84607 487.24063 687.33044 487.80313Q687.8148 488.36563 688.58044 488.36563Q689.20544 488.36563 689.6117 487.99063Q690.03357 487.61563 690.15857 486.81876ZM696.15857 488.33438Q695.5648 488.83438 695.01794 489.0375Q694.4867 489.24063 693.8617 489.24063Q692.83044 489.24063 692.28357 488.74063Q691.7367 488.24063 691.7367 487.45938Q691.7367 487.00626 691.9398 486.63126Q692.14294 486.24063 692.4867 486.02188Q692.83044 485.7875 693.2523 485.67813Q693.5492 485.58438 694.1898 485.50626Q695.45544 485.36563 696.0648 485.14688Q696.0648 484.92813 696.0648 484.88126Q696.0648 484.225 695.76794 483.95938Q695.3617 483.61563 694.5648 483.61563Q693.83044 483.61563 693.47107 483.88126Q693.1117 484.13126 692.9398 484.7875L691.90857 484.64688Q692.0492 483.99063 692.3773 483.58438Q692.70544 483.17813 693.3148 482.95938Q693.9242 482.74063 694.72107 482.74063Q695.51794 482.74063 696.01794 482.92813Q696.51794 483.11563 696.7523 483.39688Q696.9867 483.67813 697.08044 484.11563Q697.1273 484.38126 697.1273 485.08438L697.1273 486.49063Q697.1273 487.95938 697.1898 488.35Q697.26794 488.74063 697.47107 489.1L696.3617 489.1Q696.20544 488.77188 696.15857 488.33438ZM696.0648 485.975Q695.4867 486.20938 694.34607 486.38126Q693.6898 486.475 693.4242 486.6Q693.15857 486.70938 693.0023 486.92813Q692.8617 487.14688 692.8617 487.42813Q692.8617 487.85 693.1742 488.13126Q693.5023 488.4125 694.1117 488.4125Q694.72107 488.4125 695.1898 488.14688Q695.6742 487.88126 695.89294 487.4125Q696.0648 487.05313 696.0648 486.36563L696.0648 485.975ZM699.0648 489.1L699.0648 480.50626L700.1273 480.50626L700.1273 489.1L699.0648 489.1ZM701.6742 486.52188L701.6742 485.45938L704.9242 485.45938L704.9242 486.52188L701.6742 486.52188ZM707.8148 489.1L705.45544 482.88126L706.5648 482.88126L707.90857 486.6Q708.1117 487.20938 708.2992 487.85Q708.4398 487.36563 708.6898 486.67813L710.08044 482.88126L711.15857 482.88126L708.7992 489.1L707.8148 489.1ZM715.15857 488.33438Q714.5648 488.83438 714.01794 489.0375Q713.4867 489.24063 712.8617 489.24063Q711.83044 489.24063 711.28357 488.74063Q710.7367 488.24063 710.7367 487.45938Q710.7367 487.00626 710.9398 486.63126Q711.14294 486.24063 711.4867 486.02188Q711.83044 485.7875 712.2523 485.67813Q712.5492 485.58438 713.1898 485.50626Q714.45544 485.36563 715.0648 485.14688Q715.0648 484.92813 715.0648 484.88126Q715.0648 484.225 714.76794 483.95938Q714.3617 483.61563 713.5648 483.61563Q712.83044 483.61563 712.47107 483.88126Q712.1117 484.13126 711.9398 484.7875L710.90857 484.64688Q711.0492 483.99063 711.3773 483.58438Q711.70544 483.17813 712.3148 482.95938Q712.9242 482.74063 713.72107 482.74063Q714.51794 482.74063 715.01794 482.92813Q715.51794 483.11563 715.7523 483.39688Q715.9867 483.67813 716.08044 484.11563Q716.1273 484.38126 716.1273 485.08438L716.1273 486.49063Q716.1273 487.95938 716.1898 488.35Q716.26794 488.74063 716.47107 489.1L715.3617 489.1Q715.20544 488.77188 715.15857 488.33438ZM715.0648 485.975Q714.4867 486.20938 713.34607 486.38126Q712.6898 486.475 712.4242 486.6Q712.15857 486.70938 712.0023 486.92813Q711.8617 487.14688 711.8617 487.42813Q711.8617 487.85 712.1742 488.13126Q712.5023 488.4125 713.1117 488.4125Q713.72107 488.4125 714.1898 488.14688Q714.6742 487.88126 714.89294 487.4125Q715.0648 487.05313 715.0648 486.36563L715.0648 485.975ZM718.08044 489.1L718.08044 482.88126L719.03357 482.88126L719.03357 483.81876Q719.39294 483.1625 719.6898 482.95938Q720.0023 482.74063 720.3773 482.74063Q720.90857 482.74063 721.45544 483.06876L721.09607 484.05313Q720.70544 483.81876 720.33044 483.81876Q719.97107 483.81876 719.6898 484.0375Q719.4242 484.24063 719.3148 484.61563Q719.1273 485.17813 719.1273 485.83438L719.1273 489.1L718.08044 489.1ZM721.6742 487.24063L722.70544 487.08438Q722.7992 487.70938 723.1898 488.0375Q723.59607 488.36563 724.33044 488.36563Q725.0492 488.36563 725.39294 488.08438Q725.7523 487.7875 725.7523 487.38126Q725.7523 487.02188 725.4398 486.81876Q725.22107 486.67813 724.3617 486.45938Q723.20544 486.1625 722.7523 485.95938Q722.3148 485.74063 722.08044 485.36563Q721.84607 484.99063 721.84607 484.52188Q721.84607 484.11563 722.03357 483.75626Q722.22107 483.39688 722.5492 483.1625Q722.7992 482.99063 723.22107 482.86563Q723.64294 482.74063 724.14294 482.74063Q724.8617 482.74063 725.40857 482.95938Q725.97107 483.1625 726.2367 483.52188Q726.5023 483.88126 726.59607 484.475L725.5648 484.61563Q725.5023 484.14688 725.15857 483.88126Q724.83044 483.6 724.20544 483.6Q723.4867 483.6 723.1742 483.85Q722.8617 484.08438 722.8617 484.4125Q722.8617 484.61563 722.9867 484.77188Q723.1273 484.94376 723.39294 485.05313Q723.5492 485.11563 724.33044 485.31876Q725.45544 485.63126 725.89294 485.81876Q726.33044 486.00626 726.58044 486.36563Q726.83044 486.725 726.83044 487.27188Q726.83044 487.80313 726.51794 488.27188Q726.22107 488.725 725.64294 488.99063Q725.0648 489.24063 724.33044 489.24063Q723.1117 489.24063 722.47107 488.74063Q721.84607 488.225 721.6742 487.24063ZM728.6742 486.52188L728.6742 485.45938L731.9242 485.45938L731.9242 486.52188L728.6742 486.52188ZM737.15857 488.33438Q736.5648 488.83438 736.01794 489.0375Q735.4867 489.24063 734.8617 489.24063Q733.83044 489.24063 733.28357 488.74063Q732.7367 488.24063 732.7367 487.45938Q732.7367 487.00626 732.9398 486.63126Q733.14294 486.24063 733.4867 486.02188Q733.83044 485.7875 734.2523 485.67813Q734.5492 485.58438 735.1898 485.50626Q736.45544 485.36563 737.0648 485.14688Q737.0648 484.92813 737.0648 484.88126Q737.0648 484.225 736.76794 483.95938Q736.3617 483.61563 735.5648 483.61563Q734.83044 483.61563 734.47107 483.88126Q734.1117 484.13126 733.9398 484.7875L732.90857 484.64688Q733.0492 483.99063 733.3773 483.58438Q733.70544 483.17813 734.3148 482.95938Q734.9242 482.74063 735.72107 482.74063Q736.51794 482.74063 737.01794 482.92813Q737.51794 483.11563 737.7523 483.39688Q737.9867 483.67813 738.08044 484.11563Q738.1273 484.38126 738.1273 485.08438L738.1273 486.49063Q738.1273 487.95938 738.1898 488.35Q738.26794 488.74063 738.47107 489.1L737.3617 489.1Q737.20544 488.77188 737.15857 488.33438ZM737.0648 485.975Q736.4867 486.20938 735.34607 486.38126Q734.6898 486.475 734.4242 486.6Q734.15857 486.70938 734.0023 486.92813Q733.8617 487.14688 733.8617 487.42813Q733.8617 487.85 734.1742 488.13126Q734.5023 488.4125 735.1117 488.4125Q735.72107 488.4125 736.1898 488.14688Q736.6742 487.88126 736.89294 487.4125Q737.0648 487.05313 737.0648 486.36563L737.0648 485.975ZM740.09607 489.1L740.09607 482.88126L741.03357 482.88126L741.03357 483.75626Q741.72107 482.74063 743.01794 482.74063Q743.58044 482.74063 744.0492 482.94376Q744.53357 483.14688 744.76794 483.475Q745.0023 483.80313 745.09607 484.24063Q745.14294 484.5375 745.14294 485.27188L745.14294 489.1L744.09607 489.1L744.09607 485.31876Q744.09607 484.6625 743.97107 484.35Q743.84607 484.0375 743.53357 483.85Q743.22107 483.64688 742.7992 483.64688Q742.1273 483.64688 741.6273 484.08438Q741.14294 484.50626 741.14294 485.69376L741.14294 489.1L740.09607 489.1ZM751.1273 489.1L751.1273 488.31876Q750.53357 489.24063 749.39294 489.24063Q748.64294 489.24063 748.01794 488.83438Q747.39294 488.4125 747.0492 487.67813Q746.70544 486.94376 746.70544 485.99063Q746.70544 485.06876 747.01794 484.30313Q747.33044 483.5375 747.95544 483.14688Q748.58044 482.74063 749.34607 482.74063Q749.90857 482.74063 750.34607 482.975Q750.78357 483.20938 751.0648 483.58438L751.0648 480.50626L752.1117 480.50626L752.1117 489.1L751.1273 489.1ZM747.7992 485.99063Q747.7992 487.19376 748.2992 487.7875Q748.7992 488.36563 749.4867 488.36563Q750.1742 488.36563 750.65857 487.80313Q751.14294 487.24063 751.14294 486.08438Q751.14294 484.80313 750.64294 484.20938Q750.15857 483.61563 749.4398 483.61563Q748.7367 483.61563 748.26794 484.19376Q747.7992 484.75626 747.7992 485.99063ZM753.6742 486.52188L753.6742 485.45938L756.9242 485.45938L756.9242 486.52188L753.6742 486.52188ZM762.15857 486.81876L763.1898 486.95938Q763.01794 488.02188 762.3148 488.63126Q761.6117 489.24063 760.59607 489.24063Q759.3148 489.24063 758.53357 488.4125Q757.76794 487.56876 757.76794 486.00626Q757.76794 485.00626 758.09607 484.25626Q758.4398 483.49063 759.1117 483.11563Q759.7992 482.74063 760.6117 482.74063Q761.6117 482.74063 762.2523 483.25626Q762.90857 483.75626 763.09607 484.70938L762.0648 484.86563Q761.9242 484.24063 761.5492 483.92813Q761.1742 483.6 760.64294 483.6Q759.84607 483.6 759.34607 484.17813Q758.84607 484.74063 758.84607 485.975Q758.84607 487.24063 759.33044 487.80313Q759.8148 488.36563 760.58044 488.36563Q761.20544 488.36563 761.6117 487.99063Q762.03357 487.61563 762.15857 486.81876ZM763.70544 485.99063Q763.70544 484.25626 764.65857 483.42813Q765.45544 482.74063 766.6117 482.74063Q767.89294 482.74063 768.70544 483.58438Q769.53357 484.4125 769.53357 485.89688Q769.53357 487.1 769.1742 487.7875Q768.8148 488.475 768.1117 488.86563Q767.4242 489.24063 766.6117 489.24063Q765.3148 489.24063 764.5023 488.4125Q763.70544 487.56876 763.70544 485.99063ZM764.78357 485.99063Q764.78357 487.17813 765.2992 487.77188Q765.83044 488.36563 766.6117 488.36563Q767.40857 488.36563 767.9242 487.77188Q768.4398 487.17813 768.4398 485.95938Q768.4398 484.80313 767.90857 484.20938Q767.39294 483.61563 766.6117 483.61563Q765.83044 483.61563 765.2992 484.20938Q764.78357 484.7875 764.78357 485.99063ZM771.09607 489.1L771.09607 482.88126L772.03357 482.88126L772.03357 483.75626Q772.72107 482.74063 774.01794 482.74063Q774.58044 482.74063 775.0492 482.94376Q775.53357 483.14688 775.76794 483.475Q776.0023 483.80313 776.09607 484.24063Q776.14294 484.5375 776.14294 485.27188L776.14294 489.1L775.09607 489.1L775.09607 485.31876Q775.09607 484.6625 774.97107 484.35Q774.84607 484.0375 774.53357 483.85Q774.22107 483.64688 773.7992 483.64688Q773.1273 483.64688 772.6273 484.08438Q772.14294 484.50626 772.14294 485.69376L772.14294 489.1L771.09607 489.1ZM777.6742 487.24063L778.70544 487.08438Q778.7992 487.70938 779.1898 488.0375Q779.59607 488.36563 780.33044 488.36563Q781.0492 488.36563 781.39294 488.08438Q781.7523 487.7875 781.7523 487.38126Q781.7523 487.02188 781.4398 486.81876Q781.22107 486.67813 780.3617 486.45938Q779.20544 486.1625 778.7523 485.95938Q778.3148 485.74063 778.08044 485.36563Q777.84607 484.99063 777.84607 484.52188Q777.84607 484.11563 778.03357 483.75626Q778.22107 483.39688 778.5492 483.1625Q778.7992 482.99063 779.22107 482.86563Q779.64294 482.74063 780.14294 482.74063Q780.8617 482.74063 781.40857 482.95938Q781.97107 483.1625 782.2367 483.52188Q782.5023 483.88126 782.59607 484.475L781.5648 484.61563Q781.5023 484.14688 781.15857 483.88126Q780.83044 483.6 780.20544 483.6Q779.4867 483.6 779.1742 483.85Q778.8617 484.08438 778.8617 484.4125Q778.8617 484.61563 778.9867 484.77188Q779.1273 484.94376 779.39294 485.05313Q779.5492 485.11563 780.33044 485.31876Q781.45544 485.63126 781.89294 485.81876Q782.33044 486.00626 782.58044 486.36563Q782.83044 486.725 782.83044 487.27188Q782.83044 487.80313 782.51794 488.27188Q782.22107 488.725 781.64294 488.99063Q781.0648 489.24063 780.33044 489.24063Q779.1117 489.24063 778.47107 488.74063Q777.84607 488.225 777.6742 487.24063ZM787.39294 488.1625L787.5492 489.08438Q787.09607 489.17813 786.7523 489.17813Q786.1742 489.17813 785.8617 489.00626Q785.5492 488.81876 785.40857 488.52188Q785.28357 488.225 785.28357 487.27188L785.28357 483.69376L784.51794 483.69376L784.51794 482.88126L785.28357 482.88126L785.28357 481.33438L786.33044 480.70938L786.33044 482.88126L787.39294 482.88126L787.39294 483.69376L786.33044 483.69376L786.33044 487.33438Q786.33044 487.7875 786.3773 487.9125Q786.4398 488.0375 786.5648 488.11563Q786.6898 488.19376 786.9242 488.19376Q787.1117 488.19376 787.39294 488.1625ZM787.6742 487.24063L788.70544 487.08438Q788.7992 487.70938 789.1898 488.0375Q789.59607 488.36563 790.33044 488.36563Q791.0492 488.36563 791.39294 488.08438Q791.7523 487.7875 791.7523 487.38126Q791.7523 487.02188 791.4398 486.81876Q791.22107 486.67813 790.3617 486.45938Q789.20544 486.1625 788.7523 485.95938Q788.3148 485.74063 788.08044 485.36563Q787.84607 484.99063 787.84607 484.52188Q787.84607 484.11563 788.03357 483.75626Q788.22107 483.39688 788.5492 483.1625Q788.7992 482.99063 789.22107 482.86563Q789.64294 482.74063 790.14294 482.74063Q790.8617 482.74063 791.40857 482.95938Q791.97107 483.1625 792.2367 483.52188Q792.5023 483.88126 792.59607 484.475L791.5648 484.61563Q791.5023 484.14688 791.15857 483.88126Q790.83044 483.6 790.20544 483.6Q789.4867 483.6 789.1742 483.85Q788.8617 484.08438 788.8617 484.4125Q788.8617 484.61563 788.9867 484.77188Q789.1273 484.94376 789.39294 485.05313Q789.5492 485.11563 790.33044 485.31876Q791.45544 485.63126 791.89294 485.81876Q792.33044 486.00626 792.58044 486.36563Q792.83044 486.725 792.83044 487.27188Q792.83044 487.80313 792.51794 488.27188Q792.22107 488.725 791.64294 488.99063Q791.0648 489.24063 790.33044 489.24063Q789.1117 489.24063 788.47107 488.74063Q787.84607 488.225 787.6742 487.24063Z" fill-rule="nonzero"/><path fill="#757575" d="M27.478125 44.9L27.478125 30.587502L33.821877 30.587502Q35.728127 30.587502 36.728127 30.978127Q37.728127 31.353127 38.321877 32.3375Q38.915627 33.30625 38.915627 34.49375Q38.915627 36.009377 37.93125 37.05625Q36.946877 38.103127 34.884377 38.384377Q35.634377 38.74375 36.025 39.103127Q36.853127 39.853127 37.603127 41.009377L40.0875 44.9L37.7125 44.9L35.80625 41.915627Q34.978127 40.634377 34.446877 39.946877Q33.915627 39.259377 33.478127 38.99375Q33.05625 38.7125 32.61875 38.603127Q32.290627 38.540627 31.571875 38.540627L29.36875 38.540627L29.36875 44.9L27.478125 44.9ZM29.36875 36.9L33.446877 36.9Q34.74375 36.9 35.4625 36.634377Q36.196877 36.36875 36.571877 35.775Q36.9625 35.18125 36.9625 34.49375Q36.9625 33.478127 36.228127 32.821877Q35.49375 32.165627 33.9 32.165627L29.36875 32.165627L29.36875 36.9ZM48.321877 41.55625L50.134377 41.790627Q49.7125 43.36875 48.540627 44.259377Q47.384377 45.134377 45.571877 45.134377Q43.30625 45.134377 41.9625 43.74375Q40.634377 42.3375 40.634377 39.80625Q40.634377 37.18125 41.978127 35.74375Q43.321877 34.290627 45.478127 34.290627Q47.55625 34.290627 48.86875 35.7125Q50.196877 37.11875 50.196877 39.696877Q50.196877 39.853127 50.18125 40.165627L42.446877 40.165627Q42.540627 41.86875 43.415627 42.775Q44.290627 43.68125 45.5875 43.68125Q46.55625 43.68125 47.228127 43.18125Q47.915627 42.665627 48.321877 41.55625ZM42.540627 38.7125L48.3375 38.7125Q48.228127 37.415627 47.68125 36.759377Q46.8375 35.74375 45.49375 35.74375Q44.290627 35.74375 43.4625 36.55625Q42.634377 37.353127 42.540627 38.7125ZM51.509377 41.80625L53.259377 41.525Q53.4 42.571877 54.071877 43.134377Q54.74375 43.68125 55.946877 43.68125Q57.15 43.68125 57.728127 43.196877Q58.321877 42.696877 58.321877 42.040627Q58.321877 41.446877 57.80625 41.103127Q57.446877 40.86875 56.009377 40.509377Q54.071877 40.009377 53.321877 39.665627Q52.5875 39.30625 52.196877 38.68125Q51.80625 38.040627 51.80625 37.275Q51.80625 36.5875 52.11875 35.99375Q52.446877 35.4 52.99375 35.009377Q53.4 34.7125 54.103127 34.509377Q54.821877 34.290627 55.634377 34.290627Q56.853127 34.290627 57.775 34.65Q58.696877 34.99375 59.134377 35.603127Q59.571877 36.196877 59.74375 37.196877L58.025 37.43125Q57.9 36.634377 57.3375 36.196877Q56.775 35.74375 55.759377 35.74375Q54.540627 35.74375 54.025 36.15Q53.509377 36.540627 53.509377 37.071877Q53.509377 37.415627 53.728127 37.696877Q53.93125 37.978127 54.4 38.165627Q54.665627 38.259377 55.946877 38.603127Q57.821877 39.103127 58.55625 39.43125Q59.290627 39.74375 59.7125 40.353127Q60.134377 40.946877 60.134377 41.853127Q60.134377 42.728127 59.61875 43.509377Q59.103127 44.290627 58.134377 44.7125Q57.165627 45.134377 55.946877 45.134377Q53.93125 45.134377 52.86875 44.290627Q51.80625 43.446877 51.509377 41.80625ZM62.43125 44.9L62.43125 30.587502L64.36875 30.587502L71.88438 41.821877L71.88438 30.587502L73.69688 30.587502L73.69688 44.9L71.75938 44.9L64.24375 33.65L64.24375 44.9L62.43125 44.9ZM82.32188 41.55625L84.13438 41.790627Q83.7125 43.36875 82.54063 44.259377Q81.38438 45.134377 79.57188 45.134377Q77.30625 45.134377 75.9625 43.74375Q74.63438 42.3375 74.63438 39.80625Q74.63438 37.18125 75.97813 35.74375Q77.32188 34.290627 79.47813 34.290627Q81.55625 34.290627 82.86875 35.7125Q84.19688 37.11875 84.19688 39.696877Q84.19688 39.853127 84.18125 40.165627L76.44688 40.165627Q76.54063 41.86875 77.41563 42.775Q78.29063 43.68125 79.5875 43.68125Q80.55625 43.68125 81.22813 43.18125Q81.91563 42.665627 82.32188 41.55625ZM76.54063 38.7125L82.3375 38.7125Q82.22813 37.415627 81.68125 36.759377Q80.8375 35.74375 79.49375 35.74375Q78.29063 35.74375 77.4625 36.55625Q76.63438 37.353127 76.54063 38.7125ZM90.05625 43.321877L90.30625 44.884377Q89.57188 45.040627 88.97813 45.040627Q88.025 45.040627 87.49375 44.74375Q86.97813 44.43125 86.75938 43.946877Q86.54063 43.446877 86.54063 41.86875L86.54063 35.9L85.25938 35.9L85.25938 34.525L86.54063 34.525L86.54063 31.962502L88.29063 30.900002L88.29063 34.525L90.05625 34.525L90.05625 35.9L88.29063 35.9L88.29063 41.9625Q88.29063 42.7125 88.38438 42.93125Q88.47813 43.134377 88.68125 43.275Q88.9 43.4 89.29063 43.4Q89.57188 43.4 90.05625 43.321877ZM100.9625 43.2125L100.9625 44.9L91.50938 44.9Q91.49375 44.259377 91.7125 43.68125Q92.07188 42.7125 92.86875 41.775Q93.66563 40.8375 95.16563 39.603127Q97.50938 37.696877 98.32188 36.5875Q99.15 35.4625 99.15 34.4625Q99.15 33.415627 98.4 32.696877Q97.65 31.978127 96.44688 31.978127Q95.18125 31.978127 94.41563 32.74375Q93.65 33.509377 93.65 34.853127L91.8375 34.665627Q92.025 32.65 93.22813 31.587502Q94.44688 30.525002 96.49375 30.525002Q98.54063 30.525002 99.74375 31.665627Q100.94688 32.80625 100.94688 34.49375Q100.94688 35.353127 100.5875 36.196877Q100.24375 37.025 99.43125 37.946877Q98.61875 38.853127 96.72813 40.4625Q95.13438 41.790627 94.68125 42.259377Q94.24375 42.728127 93.94688 43.2125L100.9625 43.2125ZM102.72813 37.8375Q102.72813 35.30625 103.24375 33.759377Q103.775 32.196877 104.80625 31.368752Q105.8375 30.525002 107.4 30.525002Q108.55625 30.525002 109.41563 30.993752Q110.29063 31.446877 110.85313 32.321877Q111.41563 33.196877 111.74375 34.4625Q112.07188 35.7125 112.07188 37.8375Q112.07188 40.353127 111.54063 41.9Q111.025 43.446877 109.99375 44.30625Q108.97813 45.15 107.4 45.15Q105.32188 45.15 104.15 43.665627Q102.72813 41.86875 102.72813 37.8375ZM104.54063 37.8375Q104.54063 41.36875 105.35313 42.540627Q106.18125 43.696877 107.4 43.696877Q108.60313 43.696877 109.43125 42.525Q110.25938 41.353127 110.25938 37.8375Q110.25938 34.30625 109.43125 33.15Q108.60313 31.978127 107.38438 31.978127Q106.16563 31.978127 105.44688 33.009377Q104.54063 34.30625 104.54063 37.8375ZM112.9 45.15L117.05625 30.337502L118.4625 30.337502L114.32188 45.15L112.9 45.15ZM130.66562 39.884377L132.55624 40.353127Q131.9625 42.696877 130.41562 43.93125Q128.86874 45.15 126.61875 45.15Q124.30625 45.15 122.85313 44.2125Q121.41563 43.259377 120.65 41.478127Q119.9 39.68125 119.9 37.634377Q119.9 35.4 120.74375 33.74375Q121.60313 32.071877 123.18125 31.212502Q124.75938 30.337502 126.65 30.337502Q128.80624 30.337502 130.25937 31.431252Q131.72812 32.525 132.30624 34.509377L130.44687 34.946877Q129.94687 33.384377 128.99374 32.68125Q128.05624 31.962502 126.61875 31.962502Q124.9625 31.962502 123.85313 32.759377Q122.74375 33.540627 122.29063 34.884377Q121.85313 36.2125 121.85313 37.61875Q121.85313 39.446877 122.38438 40.821877Q122.91563 42.18125 124.04063 42.853127Q125.16563 43.525 126.4625 43.525Q128.05624 43.525 129.16562 42.603127Q130.275 41.68125 130.66562 39.884377ZM134.75937 44.9L134.75937 30.587502L136.66562 30.587502L136.66562 44.9L134.75937 44.9ZM140.54062 44.9L140.54062 30.587502L150.19687 30.587502L150.19687 32.275L142.43124 32.275L142.43124 36.7125L149.15 36.7125L149.15 38.4L142.43124 38.4L142.43124 44.9L140.54062 44.9ZM150.86874 44.9L156.36874 30.587502L158.41562 30.587502L164.275 44.9L162.11874 44.9L160.44687 40.55625L154.4625 40.55625L152.88437 44.9L150.86874 44.9ZM155.00937 39.025L159.85312 39.025L158.36874 35.05625Q157.68124 33.24375 157.35312 32.0875Q157.07187 33.4625 156.57187 34.821877L155.00937 39.025ZM165.47812 44.9L165.47812 30.587502L171.82187 30.587502Q173.72812 30.587502 174.72812 30.978127Q175.72812 31.353127 176.32187 32.3375Q176.91562 33.30625 176.91562 34.49375Q176.91562 36.009377 175.93124 37.05625Q174.94687 38.103127 172.88437 38.384377Q173.63437 38.74375 174.025 39.103127Q174.85312 39.853127 175.60312 41.009377L178.0875 44.9L175.7125 44.9L173.80624 41.915627Q172.97812 40.634377 172.44687 39.946877Q171.91562 39.259377 171.47812 38.99375Q171.05624 38.7125 170.61874 38.603127Q170.29062 38.540627 169.57187 38.540627L167.36874 38.540627L167.36874 44.9L165.47812 44.9ZM167.36874 36.9L171.44687 36.9Q172.74374 36.9 173.4625 36.634377Q174.19687 36.36875 174.57187 35.775Q174.9625 35.18125 174.9625 34.49375Q174.9625 33.478127 174.22812 32.821877Q173.49374 32.165627 171.9 32.165627L167.36874 32.165627L167.36874 36.9ZM184.57187 39.7125Q184.57187 36.8375 186.16562 35.446877Q187.50937 34.290627 189.43124 34.290627Q191.57187 34.290627 192.91562 35.696877Q194.275 37.103127 194.275 39.571877Q194.275 41.571877 193.68124 42.728127Q193.0875 43.86875 191.93124 44.509377Q190.79062 45.134377 189.43124 45.134377Q187.24374 45.134377 185.9 43.74375Q184.57187 42.3375 184.57187 39.7125ZM186.36874 39.7125Q186.36874 41.7125 187.22812 42.696877Q188.10312 43.68125 189.43124 43.68125Q190.74374 43.68125 191.60312 42.696877Q192.47812 41.696877 192.47812 39.65Q192.47812 37.728127 191.60312 36.74375Q190.72812 35.74375 189.43124 35.74375Q188.10312 35.74375 187.22812 36.74375Q186.36874 37.728127 186.36874 39.7125ZM196.2125 44.9L196.2125 34.525L197.80624 34.525L197.80624 36.009377Q198.94687 34.290627 201.10312 34.290627Q202.04062 34.290627 202.82187 34.634377Q203.61874 34.9625 204.00937 35.509377Q204.4 36.05625 204.55624 36.80625Q204.65 37.30625 204.65 38.525L204.65 44.9L202.88437 44.9L202.88437 38.5875Q202.88437 37.509377 202.68124 36.978127Q202.47812 36.446877 201.94687 36.134377Q201.43124 35.821877 200.72812 35.821877Q199.60312 35.821877 198.79062 36.540627Q197.97812 37.24375 197.97812 39.228127L197.97812 44.9L196.2125 44.9ZM211.30624 44.9L211.30624 43.134377L218.63437 33.978127Q219.41562 32.99375 220.11874 32.275L212.13437 32.275L212.13437 30.587502L222.38437 30.587502L222.38437 32.275L214.35312 42.196877L213.47812 43.2125L222.61874 43.2125L222.61874 44.9L211.30624 44.9ZM234.66562 39.884377L236.55624 40.353127Q235.9625 42.696877 234.41562 43.93125Q232.86874 45.15 230.61874 45.15Q228.30624 45.15 226.85312 44.2125Q225.41562 43.259377 224.65 41.478127Q223.9 39.68125 223.9 37.634377Q223.9 35.4 224.74374 33.74375Q225.60312 32.071877 227.18124 31.212502Q228.75937 30.337502 230.65 30.337502Q232.80624 30.337502 234.25937 31.431252Q235.72812 32.525 236.30624 34.509377L234.44687 34.946877Q233.94687 33.384377 232.99374 32.68125Q232.05624 31.962502 230.61874 31.962502Q228.9625 31.962502 227.85312 32.759377Q226.74374 33.540627 226.29062 34.884377Q225.85312 36.2125 225.85312 37.61875Q225.85312 39.446877 226.38437 40.821877Q226.91562 42.18125 228.04062 42.853127Q229.16562 43.525 230.4625 43.525Q232.05624 43.525 233.16562 42.603127Q234.275 41.68125 234.66562 39.884377ZM247.8375 30.587502L249.72812 30.587502L249.72812 38.853127Q249.72812 41.009377 249.24374 42.290627Q248.75937 43.55625 247.47812 44.353127Q246.2125 45.15 244.13437 45.15Q242.11874 45.15 240.8375 44.4625Q239.57187 43.759377 239.025 42.446877Q238.47812 41.134377 238.47812 38.853127L238.47812 30.587502L240.36874 30.587502L240.36874 38.8375Q240.36874 40.7125 240.7125 41.603127Q241.05624 42.478127 241.9 42.9625Q242.74374 43.43125 243.97812 43.43125Q246.05624 43.43125 246.94687 42.49375Q247.8375 41.540627 247.8375 38.8375L247.8375 30.587502ZM257.35312 44.9L255.5875 44.9L255.5875 33.696877Q254.9625 34.30625 253.93124 34.915627Q252.9 35.509377 252.07187 35.821877L252.07187 34.11875Q253.55624 33.43125 254.65 32.446877Q255.75937 31.446877 256.2125 30.525002L257.35312 30.525002L257.35312 44.9ZM261.72812 37.8375Q261.72812 35.30625 262.24374 33.759377Q262.775 32.196877 263.80624 31.368752Q264.8375 30.525002 266.4 30.525002Q267.55624 30.525002 268.41562 30.993752Q269.29062 31.446877 269.85312 32.321877Q270.41562 33.196877 270.74374 34.4625Q271.07187 35.7125 271.07187 37.8375Q271.07187 40.353127 270.54062 41.9Q270.025 43.446877 268.99374 44.30625Q267.97812 45.15 266.4 45.15Q264.32187 45.15 263.15 43.665627Q261.72812 41.86875 261.72812 37.8375ZM263.54062 37.8375Q263.54062 41.36875 264.35312 42.540627Q265.18124 43.696877 266.4 43.696877Q267.60312 43.696877 268.43124 42.525Q269.25937 41.353127 269.25937 37.8375Q269.25937 34.30625 268.43124 33.15Q267.60312 31.978127 266.38437 31.978127Q265.16562 31.978127 264.44687 33.009377Q263.54062 34.30625 263.54062 37.8375ZM278.36874 44.9L278.36874 41.478127L272.15 41.478127L272.15 39.853127L278.68124 30.587502L280.11874 30.587502L280.11874 39.853127L282.05624 39.853127L282.05624 41.478127L280.11874 41.478127L280.11874 44.9L278.36874 44.9ZM278.36874 39.853127L278.36874 33.4L273.88437 39.853127L278.36874 39.853127Z" fill-rule="nonzero"/></svg>