<svg version="1.1" viewBox="0.0 0.0 1024.0 768.0" fill="none" stroke="none" stroke-linecap="square" stroke-miterlimit="10" xmlns:xlink="http://www.w3.org/1999/xlink" xmlns="http://www.w3.org/2000/svg"><clipPath id="p.0"><path d="m0 0l1024.0 0l0 768.0l-1024.0 0l0 -768.0z" clip-rule="nonzero"/></clipPath><g clip-path="url(#p.0)"><path fill="#000000" fill-opacity="0.0" d="m0 0l1024.0 0l0 768.0l-1024.0 0z" fill-rule="evenodd"/><path fill="#ead1dc" d="m117.8189 268.3517l786.2362 0l0 207.59055l-786.2362 0z" fill-rule="evenodd"/><path fill="#000000" d="m131.02202 292.81857l5.5625 0l0 2.453125l-8.765617 0l0 -13.265625l3.2031174 0l0 10.8125zm12.314667 2.453125q-0.15625 -0.296875 -0.28125 -0.890625q-0.84375 1.078125 -2.375 1.078125q-1.390625 0 -2.375 -0.84375q-0.96875 -0.84375 -0.96875 -2.125q0 -1.59375 1.1875 -2.40625q1.1875 -0.828125 3.4375 -0.828125l0.953125 0l0 -0.53125q0 -1.34375 -1.171875 -1.34375q-1.09375 0 -1.09375 1.0625l-3.078125 0q0 -1.421875 1.21875 -2.3125q1.21875 -0.890625 3.09375 -0.890625q1.890625 0 2.984375 0.921875q1.09375 0.90625 1.125 2.515625l0 4.359375q0.015625 1.359375 0.421875 2.078125l0 0.15625l-3.078125 0zm-1.921875 -2.0q0.578125 0 0.953125 -0.25q0.390625 -0.25 0.546875 -0.5625l0 -1.5625l-0.890625 0q-1.609375 0 -1.609375 1.4375q0 0.421875 0.28125 0.6875q0.28125 0.25 0.71875 0.25zm10.077805 -2.296875l1.640625 -5.5625l3.296875 0l-4.015625 11.515625l-0.1875 0.40625q-0.84375 1.921875 -3.015625 1.921875q-0.609375 0 -1.265625 -0.1875l0 -2.1875l0.40625 0q0.640625 0 0.984375 -0.1875q0.34375 -0.1875 0.5 -0.671875l0.25 -0.65625l-3.421875 -9.953125l3.28125 0l1.546875 5.5625zm10.374817 4.484375q-2.265625 0 -3.671875 -1.34375q-1.390625 -1.359375 -1.390625 -3.53125l0 -0.265625q0 -1.5 0.546875 -2.65625q0.5625 -1.15625 1.640625 -1.78125q1.078125 -0.640625 2.546875 -0.640625q2.078125 0 3.28125 1.296875q1.203125 1.28125 1.203125 3.578125l0 1.1875l-6.09375 0q0.15625 0.828125 0.703125 1.3125q0.5625 0.46875 1.453125 0.46875q1.453125 0 2.265625 -1.015625l1.40625 1.65625q-0.5625 0.796875 -1.625 1.265625q-1.046875 0.46875 -2.265625 0.46875zm-0.34375 -7.859375q-1.34375 0 -1.59375 1.78125l3.09375 0l0 -0.234375q0.015625 -0.734375 -0.375 -1.140625q-0.390625 -0.40625 -1.125 -0.40625zm11.703964 0.59375l-1.015625 -0.078125q-1.453125 0 -1.859375 0.921875l0 6.234375l-3.0625 0l0 -9.859375l2.875 0l0.09375 1.265625q0.78125 -1.4375 2.15625 -1.4375q0.5 0 0.859375 0.109375l-0.046875 2.84375zm16.964813 7.078125l-3.171875 0l-4.703125 -8.25l0 8.25l-3.203125 0l0 -13.265625l3.203125 0l4.6875 8.25l0 -8.25l3.1875 0l0 13.265625z" fill-rule="nonzero"/><path fill="#a64d79" d="m129.06924 320.50656l759.4646 0l0 54.86615l-759.4646 0z" fill-rule="evenodd"/><path fill="#ffffff" d="m457.16342 352.4065l5.5625 0l0 2.453125l-8.765625 0l0 -13.265625l3.203125 0l0 10.8125zm6.3771667 -2.5625q0 -1.484375 0.578125 -2.625q0.578125 -1.15625 1.640625 -1.765625q1.078125 -0.625 2.53125 -0.625q2.21875 0 3.484375 1.375q1.28125 1.359375 1.28125 3.71875l0 0.109375q0 2.3125 -1.28125 3.671875q-1.28125 1.34375 -3.46875 1.34375q-2.09375 0 -3.375 -1.265625q-1.28125 -1.265625 -1.375 -3.421875l-0.015625 -0.515625zm3.078125 0.1875q0 1.359375 0.421875 2.0q0.4375 0.640625 1.265625 0.640625q1.640625 0 1.6875 -2.515625l0 -0.3125q0 -2.65625 -1.703125 -2.65625q-1.53125 0 -1.671875 2.28125l0 0.5625zm13.335297 4.828125q-0.15625 -0.296875 -0.28125 -0.890625q-0.84375 1.078125 -2.375 1.078125q-1.390625 0 -2.375 -0.84375q-0.96875 -0.84375 -0.96875 -2.125q0 -1.59375 1.1875 -2.40625q1.1875 -0.828125 3.4375 -0.828125l0.953125 0l0 -0.53125q0 -1.34375 -1.171875 -1.34375q-1.09375 0 -1.09375 1.0625l-3.078125 0q0 -1.421875 1.21875 -2.3125q1.21875 -0.890625 3.09375 -0.890625q1.890625 0 2.984375 0.921875q1.09375 0.90625 1.125 2.515625l0 4.359375q0.015625 1.359375 0.421875 2.078125l0 0.15625l-3.078125 0zm-1.921875 -2.0q0.578125 0 0.953125 -0.25q0.390625 -0.25 0.546875 -0.5625l0 -1.5625l-0.890625 0q-1.609375 0 -1.609375 1.4375q0 0.421875 0.28125 0.6875q0.28125 0.25 0.71875 0.25zm5.8864136 -3.0q0 -2.34375 1.015625 -3.6875q1.015625 -1.34375 2.828125 -1.34375q1.3125 0 2.21875 1.03125l0 -5.0l3.078125 0l0 14.0l-2.765625 0l-0.140625 -1.0625q-0.953125 1.25 -2.40625 1.25q-1.765625 0 -2.796875 -1.34375q-1.03125 -1.359375 -1.03125 -3.84375zm3.078125 0.1875q0 2.625 1.53125 2.625q1.015625 0 1.453125 -0.859375l0 -3.75q-0.421875 -0.875 -1.4375 -0.875q-1.421875 0 -1.546875 2.296875l0 0.5625zm20.968079 0.765625l0.984375 -5.8125l2.953125 0l-2.328125 9.859375l-2.59375 0l-1.625 -5.84375l-1.640625 5.84375l-2.609375 0l-2.3125 -9.859375l2.9375 0l0.984375 5.953125l1.5625 -5.953125l2.140625 0l1.546875 5.8125zm9.795868 4.234375q-2.265625 0 -3.671875 -1.34375q-1.390625 -1.359375 -1.390625 -3.53125l0 -0.265625q0 -1.5 0.546875 -2.65625q0.5625 -1.15625 1.640625 -1.78125q1.078125 -0.640625 2.546875 -0.640625q2.078125 0 3.28125 1.296875q1.203125 1.28125 1.203125 3.578125l0 1.1875l-6.09375 0q0.15625 0.828125 0.703125 1.3125q0.5625 0.46875 1.453125 0.46875q1.453125 0 2.265625 -1.015625l1.40625 1.65625q-0.5625 0.796875 -1.625 1.265625q-1.046875 0.46875 -2.265625 0.46875zm-0.34375 -7.859375q-1.34375 0 -1.59375 1.78125l3.09375 0l0 -0.234375q0.015625 -0.734375 -0.375 -1.140625q-0.390625 -0.40625 -1.125 -0.40625zm8.9696045 7.671875l-3.078125 0l0 -9.859375l3.078125 0l0 9.859375zm-3.25 -12.390625q0 -0.65625 0.46875 -1.078125q0.46875 -0.421875 1.21875 -0.421875q0.765625 0 1.234375 0.421875q0.484375 0.421875 0.484375 1.078125q0 0.65625 -0.484375 1.078125q-0.46875 0.40625 -1.234375 0.40625q-0.75 0 -1.21875 -0.40625q-0.46875 -0.421875 -0.46875 -1.078125zm4.784851 7.390625q0 -1.5 0.484375 -2.640625q0.5 -1.15625 1.421875 -1.765625q0.921875 -0.625 2.140625 -0.625q1.53125 0 2.40625 1.03125l0.109375 -0.859375l2.78125 0l0 9.484375q0 1.296875 -0.609375 2.25q-0.59375 0.96875 -1.75 1.484375q-1.140625 0.515625 -2.65625 0.515625q-1.078125 0 -2.09375 -0.40625q-1.015625 -0.40625 -1.5625 -1.0625l1.28125 -1.8125q0.859375 1.015625 2.265625 1.015625q2.046875 0 2.046875 -2.09375l0 -0.3125q-0.890625 0.984375 -2.234375 0.984375q-1.8125 0 -2.921875 -1.375q-1.109375 -1.390625 -1.109375 -3.703125l0 -0.109375zm3.078125 0.1875q0 1.21875 0.453125 1.921875q0.453125 0.703125 1.28125 0.703125q0.984375 0 1.453125 -0.65625l0 -4.15625q-0.453125 -0.671875 -1.4375 -0.671875q-0.8125 0 -1.28125 0.734375q-0.46875 0.734375 -0.46875 2.125zm11.012268 -3.984375q0.984375 -1.234375 2.515625 -1.234375q1.625 0 2.453125 0.96875q0.84375 0.953125 0.859375 2.84375l0 6.21875l-3.078125 0l0 -6.15625q0 -0.78125 -0.328125 -1.140625q-0.3125 -0.375 -1.078125 -0.375q-0.953125 0 -1.34375 0.609375l0 7.0625l-3.0625 0l0 -14.0l3.0625 0l0 5.203125zm11.108704 -3.515625l0 2.453125l1.625 0l0 2.140625l-1.625 0l0 4.5q0 0.5625 0.203125 0.78125q0.203125 0.21875 0.78125 0.21875q0.46875 0 0.765625 -0.0625l0 2.203125q-0.828125 0.265625 -1.71875 0.265625q-1.59375 0 -2.359375 -0.75q-0.75 -0.75 -0.75 -2.265625l0 -4.890625l-1.25 0l0 -2.140625l1.25 0l0 -2.453125l3.078125 0zm7.9821167 9.546875q0 -0.390625 -0.40625 -0.625q-0.40625 -0.25 -1.5625 -0.5q-1.140625 -0.25 -1.890625 -0.65625q-0.75 -0.421875 -1.140625 -1.015625q-0.390625 -0.59375 -0.390625 -1.359375q0 -1.359375 1.125 -2.234375q1.125 -0.875 2.9375 -0.875q1.9375 0 3.125 0.890625q1.1875 0.875 1.1875 2.3125l-3.078125 0q0 -1.1875 -1.25 -1.1875q-0.484375 0 -0.8125 0.265625q-0.328125 0.265625 -0.328125 0.671875q0 0.40625 0.40625 0.671875q0.40625 0.25 1.28125 0.421875q0.875 0.15625 1.546875 0.375q2.21875 0.765625 2.21875 2.75q0 1.34375 -1.203125 2.203125q-1.1875 0.84375 -3.09375 0.84375q-1.265625 0 -2.265625 -0.453125q-0.984375 -0.46875 -1.546875 -1.25q-0.5625 -0.78125 -0.5625 -1.640625l2.875 0q0.015625 0.671875 0.453125 1.0q0.4375 0.3125 1.125 0.3125q0.625 0 0.9375 -0.25q0.3125 -0.265625 0.3125 -0.671875z" fill-rule="nonzero"/><path fill="#b45f06" d="m129.07144 393.13385l759.4646 0l0 54.86615l-759.4646 0z" fill-rule="evenodd"/><path fill="#ffffff" d="m482.35107 423.00256q-0.0625 1.375 -0.75 2.4375q-0.6875 1.0625 -1.921875 1.65625q-1.234375 0.578125 -2.8125 0.578125q-2.609375 0 -4.125 -1.703125q-1.5 -1.703125 -1.5 -4.8125l0 -0.65625q0 -1.953125 0.671875 -3.40625q0.6875 -1.46875 1.953125 -2.265625q1.28125 -0.796875 2.96875 -0.796875q2.40625 0 3.875 1.28125q1.46875 1.265625 1.671875 3.484375l-3.1875 0q-0.046875 -1.203125 -0.625 -1.734375q-0.5625 -0.53125 -1.734375 -0.53125q-1.203125 0 -1.765625 0.890625q-0.546875 0.890625 -0.578125 2.859375l0 0.9375q0 2.125 0.53125 3.03125q0.546875 0.90625 1.84375 0.90625q1.09375 0 1.671875 -0.515625q0.59375 -0.515625 0.625 -1.640625l3.1875 0zm0.97753906 -0.53125q0 -1.484375 0.578125 -2.625q0.578125 -1.15625 1.640625 -1.765625q1.078125 -0.625 2.53125 -0.625q2.21875 0 3.484375 1.375q1.28125 1.359375 1.28125 3.71875l0 0.109375q0 2.3125 -1.28125 3.671875q-1.28125 1.34375 -3.46875 1.34375q-2.09375 0 -3.375 -1.265625q-1.28125 -1.265625 -1.375 -3.421875l-0.015625 -0.515625zm3.078125 0.1875q0 1.359375 0.421875 2.0q0.4375 0.640625 1.265625 0.640625q1.640625 0 1.6875 -2.515625l0 -0.3125q0 -2.65625 -1.703125 -2.65625q-1.53125 0 -1.671875 2.28125l0 0.5625zm10.694672 -5.03125l0.09375 1.15625q1.046875 -1.328125 2.8125 -1.328125q1.875 0 2.53125 1.484375q1.0 -1.484375 2.890625 -1.484375q3.0 0 3.078125 3.625l0 6.40625l-3.078125 0l0 -6.21875q0 -0.765625 -0.25 -1.109375q-0.25 -0.34375 -0.9375 -0.34375q-0.90625 0 -1.34375 0.8125l0 0.125l0 6.734375l-3.078125 0l0 -6.203125q0 -0.78125 -0.25 -1.125q-0.234375 -0.34375 -0.9375 -0.34375q-0.875 0 -1.34375 0.8125l0 6.859375l-3.0625 0l0 -9.859375l2.875 0zm22.319122 5.0q0 2.296875 -1.046875 3.671875q-1.03125 1.375 -2.78125 1.375q-1.359375 0 -2.234375 -1.0l0 4.609375l-3.0624695 0l0 -13.65625l2.8593445 0l0.09375 0.90625q0.890625 -1.078125 2.328125 -1.078125q1.8125 0 2.828125 1.34375q1.015625 1.34375 1.015625 3.6875l0 0.140625zm-3.078125 -0.1875q0 -2.625 -1.53125 -2.625q-1.09375 0 -1.453125 0.78125l0 3.890625q0.40625 0.8125 1.46875 0.8125q1.46875 0 1.515625 -2.53125l0 -0.328125zm10.30011 3.984375q-0.984375 1.25 -2.640625 1.25q-1.609375 0 -2.453125 -0.9375q-0.828125 -0.953125 -0.828125 -2.71875l0 -6.390625l3.0625 0l0 6.40625q0 1.265625 1.234375 1.265625q1.0625 0 1.5 -0.75l0 -6.921875l3.09375 0l0 9.859375l-2.875 0l-0.09375 -1.0625zm8.224609 -11.25l0 2.453125l1.625 0l0 2.140625l-1.625 0l0 4.5q0 0.5625 0.203125 0.78125q0.203125 0.21875 0.78125 0.21875q0.46875 0 0.765625 -0.0625l0 2.203125q-0.828125 0.265625 -1.71875 0.265625q-1.59375 0 -2.359375 -0.75q-0.75 -0.75 -0.75 -2.265625l0 -4.890625l-1.25 0l0 -2.140625l1.25 0l0 -2.453125l3.078125 0zm7.5914917 12.5q-2.265625 0 -3.671875 -1.34375q-1.390625 -1.359375 -1.390625 -3.53125l0 -0.265625q0 -1.5 0.546875 -2.65625q0.5625 -1.15625 1.640625 -1.78125q1.078125 -0.640625 2.546875 -0.640625q2.078125 0 3.28125 1.296875q1.203125 1.28125 1.203125 3.578125l0 1.1875l-6.09375 0q0.15625 0.828125 0.703125 1.3125q0.5625 0.46875 1.453125 0.46875q1.453125 0 2.265625 -1.015625l1.40625 1.65625q-0.5625 0.796875 -1.625 1.265625q-1.046875 0.46875 -2.265625 0.46875zm-0.34375 -7.859375q-1.34375 0 -1.59375 1.78125l3.09375 0l0 -0.234375q0.015625 -0.734375 -0.375 -1.140625q-0.390625 -0.40625 -1.125 -0.40625z" fill-rule="nonzero"/><path fill="#ead1dc" d="m117.8189 97.57218l786.2362 0l0 131.93701l-786.2362 0z" fill-rule="evenodd"/><path fill="#000000" d="m131.02202 122.039055l5.5625 0l0 2.453125l-8.765617 0l0 -13.265625l3.2031174 0l0 10.8125zm12.314667 2.453125q-0.15625 -0.296875 -0.28125 -0.890625q-0.84375 1.078125 -2.375 1.078125q-1.390625 0 -2.375 -0.84375q-0.96875 -0.84375 -0.96875 -2.125q0 -1.59375 1.1875 -2.40625q1.1875 -0.828125 3.4375 -0.828125l0.953125 0l0 -0.53125q0 -1.34375 -1.171875 -1.34375q-1.09375 0 -1.09375 1.0625l-3.078125 0q0 -1.421875 1.21875 -2.3125q1.21875 -0.890625 3.09375 -0.890625q1.890625 0 2.984375 0.921875q1.09375 0.90625 1.125 2.515625l0 4.359375q0.015625 1.359375 0.421875 2.078125l0 0.15625l-3.078125 0zm-1.921875 -2.0q0.578125 0 0.953125 -0.25q0.390625 -0.25 0.546875 -0.5625l0 -1.5625l-0.890625 0q-1.609375 0 -1.609375 1.4375q0 0.421875 0.28125 0.6875q0.28125 0.25 0.71875 0.25zm10.077805 -2.296875l1.640625 -5.5625l3.296875 0l-4.015625 11.515625l-0.1875 0.40625q-0.84375 1.9218674 -3.015625 1.9218674q-0.609375 0 -1.265625 -0.1875l0 -2.1874924l0.40625 0q0.640625 0 0.984375 -0.1875q0.34375 -0.1875 0.5 -0.671875l0.25 -0.65625l-3.421875 -9.953125l3.28125 0l1.546875 5.5625zm10.374817 4.484375q-2.265625 0 -3.671875 -1.34375q-1.390625 -1.359375 -1.390625 -3.53125l0 -0.265625q0 -1.5 0.546875 -2.65625q0.5625 -1.15625 1.640625 -1.78125q1.078125 -0.640625 2.546875 -0.640625q2.078125 0 3.28125 1.296875q1.203125 1.28125 1.203125 3.578125l0 1.1875l-6.09375 0q0.15625 0.828125 0.703125 1.3125q0.5625 0.46875 1.453125 0.46875q1.453125 0 2.265625 -1.015625l1.40625 1.65625q-0.5625 0.796875 -1.625 1.265625q-1.046875 0.46875 -2.265625 0.46875zm-0.34375 -7.859375q-1.34375 0 -1.59375 1.78125l3.09375 0l0 -0.234375q0.015625 -0.734375 -0.375 -1.140625q-0.390625 -0.40625 -1.125 -0.40625zm11.703964 0.59375l-1.015625 -0.078125q-1.453125 0 -1.859375 0.921875l0 6.234375l-3.0625 0l0 -9.859375l2.875 0l0.09375 1.265625q0.78125 -1.4375 2.15625 -1.4375q0.5 0 0.859375 0.109375l-0.046875 2.84375zm16.964813 7.078125l-3.171875 0l-4.703125 -8.25l0 8.25l-3.203125 0l0 -13.265625l3.203125 0l4.6875 8.25l0 -8.25l3.1875 0l0 13.265625zm12.52655 -4.53125l-5.46875 0l0 -2.375l5.46875 0l0 2.375zm13.78569 4.53125l-3.078125 0l0 -9.796875l-3.015625 0.875l0 -2.328125l5.8125 -2.015625l0.28125 0l0 13.265625z" fill-rule="nonzero"/><path fill="#ead1dc" d="m119.944885 510.39633l786.2362 0l0 176.03146l-786.2362 0z" fill-rule="evenodd"/><path fill="#000000" d="m133.14801 534.8632l5.5625 0l0 2.453125l-8.765625 0l0 -13.265625l3.203125 0l0 10.8125zm12.314667 2.453125q-0.15625 -0.296875 -0.28125 -0.890625q-0.84375 1.078125 -2.375 1.078125q-1.390625 0 -2.375 -0.84375q-0.96875 -0.84375 -0.96875 -2.125q0 -1.59375 1.1875 -2.40625q1.1875 -0.828125 3.4375 -0.828125l0.953125 0l0 -0.53125q0 -1.34375 -1.171875 -1.34375q-1.09375 0 -1.09375 1.0625l-3.078125 0q0 -1.421875 1.21875 -2.3125q1.21875 -0.890625 3.09375 -0.890625q1.890625 0 2.984375 0.921875q1.09375 0.90625 1.125 2.515625l0 4.359375q0.015625 1.359375 0.421875 2.078125l0 0.15625l-3.078125 0zm-1.921875 -2.0q0.578125 0 0.953125 -0.25q0.390625 -0.25 0.546875 -0.5625l0 -1.5625l-0.890625 0q-1.609375 0 -1.609375 1.4375q0 0.421875 0.28125 0.6875q0.28125 0.25 0.71875 0.25zm10.077805 -2.296875l1.640625 -5.5625l3.296875 0l-4.015625 11.515625l-0.1875 0.40625q-0.84375 1.921875 -3.015625 1.921875q-0.609375 0 -1.265625 -0.1875l0 -2.1875l0.40625 0q0.640625 0 0.984375 -0.1875q0.34375 -0.1875 0.5 -0.671875l0.25 -0.65625l-3.421875 -9.953125l3.28125 0l1.546875 5.5625zm10.374817 4.484375q-2.265625 0 -3.671875 -1.34375q-1.390625 -1.359375 -1.390625 -3.53125l0 -0.265625q0 -1.5 0.546875 -2.65625q0.5625 -1.15625 1.640625 -1.78125q1.078125 -0.640625 2.546875 -0.640625q2.078125 0 3.28125 1.296875q1.203125 1.28125 1.203125 3.578125l0 1.1875l-6.09375 0q0.15625 0.828125 0.703125 1.3125q0.5625 0.46875 1.453125 0.46875q1.453125 0 2.265625 -1.015625l1.40625 1.65625q-0.5625 0.796875 -1.625 1.265625q-1.046875 0.46875 -2.265625 0.46875zm-0.34375 -7.859375q-1.34375 0 -1.59375 1.78125l3.09375 0l0 -0.234375q0.015625 -0.734375 -0.375 -1.140625q-0.390625 -0.40625 -1.125 -0.40625zm11.703964 0.59375l-1.015625 -0.078125q-1.453125 0 -1.859375 0.921875l0 6.234375l-3.0625 0l0 -9.859375l2.875 0l0.09375 1.265625q0.78125 -1.4375 2.15625 -1.4375q0.5 0 0.859375 0.109375l-0.046875 2.84375zm16.964813 7.078125l-3.171875 0l-4.703125 -8.25l0 8.25l-3.203125 0l0 -13.265625l3.203125 0l4.6875 8.25l0 -8.25l3.1875 0l0 13.265625zm12.0578 -7.53125l3.109375 0l0 2.640625l-3.109375 0l0 3.5625l-2.859375 0l0 -3.5625l-3.125 0l0 -2.640625l3.125 0l0 -3.453125l2.859375 0l0 3.453125zm15.830383 7.53125l-3.078125 0l0 -9.796875l-3.015625 0.875l0 -2.328125l5.8125 -2.015625l0.28125 0l0 13.265625z" fill-rule="nonzero"/><path fill="#a64d79" d="m131.19418 562.85565l759.4646 0l0 54.86615l-759.4646 0z" fill-rule="evenodd"/><path fill="#ffffff" d="m459.28836 594.7556l5.5625 0l0 2.453125l-8.765625 0l0 -13.265625l3.203125 0l0 10.8125zm6.3771667 -2.5625q0 -1.484375 0.578125 -2.625q0.578125 -1.15625 1.640625 -1.765625q1.078125 -0.625 2.53125 -0.625q2.21875 0 3.484375 1.375q1.28125 1.359375 1.28125 3.71875l0 0.109375q0 2.3125 -1.28125 3.671875q-1.28125 1.34375 -3.46875 1.34375q-2.09375 0 -3.375 -1.265625q-1.28125 -1.265625 -1.375 -3.421875l-0.015625 -0.515625zm3.078125 0.1875q0 1.359375 0.421875 2.0q0.4375 0.640625 1.265625 0.640625q1.640625 0 1.6875 -2.515625l0 -0.3125q0 -2.65625 -1.703125 -2.65625q-1.53125 0 -1.671875 2.28125l0 0.5625zm13.335297 4.828125q-0.15625 -0.296875 -0.28125 -0.890625q-0.84375 1.078125 -2.375 1.078125q-1.390625 0 -2.375 -0.84375q-0.96875 -0.84375 -0.96875 -2.125q0 -1.59375 1.1875 -2.40625q1.1875 -0.828125 3.4375 -0.828125l0.953125 0l0 -0.53125q0 -1.34375 -1.171875 -1.34375q-1.09375 0 -1.09375 1.0625l-3.078125 0q0 -1.421875 1.21875 -2.3125q1.21875 -0.890625 3.09375 -0.890625q1.890625 0 2.984375 0.921875q1.09375 0.90625 1.125 2.515625l0 4.359375q0.015625 1.359375 0.421875 2.078125l0 0.15625l-3.078125 0zm-1.921875 -2.0q0.578125 0 0.953125 -0.25q0.390625 -0.25 0.546875 -0.5625l0 -1.5625l-0.890625 0q-1.609375 0 -1.609375 1.4375q0 0.421875 0.28125 0.6875q0.28125 0.25 0.71875 0.25zm5.8864136 -3.0q0 -2.34375 1.015625 -3.6875q1.015625 -1.34375 2.828125 -1.34375q1.3125 0 2.21875 1.03125l0 -5.0l3.078125 0l0 14.0l-2.765625 0l-0.140625 -1.0625q-0.953125 1.25 -2.40625 1.25q-1.765625 0 -2.796875 -1.34375q-1.03125 -1.359375 -1.03125 -3.84375zm3.078125 0.1875q0 2.625 1.53125 2.625q1.015625 0 1.453125 -0.859375l0 -3.75q-0.421875 -0.875 -1.4375 -0.875q-1.421875 0 -1.546875 2.296875l0 0.5625zm20.968079 0.765625l0.984375 -5.8125l2.9531555 0l-2.3281555 9.859375l-2.59375 0l-1.625 -5.84375l-1.640625 5.84375l-2.609375 0l-2.3125 -9.859375l2.9375 0l0.984375 5.953125l1.5625 -5.953125l2.140625 0l1.546875 5.8125zm9.795868 4.234375q-2.265625 0 -3.671875 -1.34375q-1.390625 -1.359375 -1.390625 -3.53125l0 -0.265625q0 -1.5 0.546875 -2.65625q0.5625 -1.15625 1.640625 -1.78125q1.078125 -0.640625 2.546875 -0.640625q2.078125 0 3.28125 1.296875q1.203125 1.28125 1.203125 3.578125l0 1.1875l-6.09375 0q0.15625 0.828125 0.703125 1.3125q0.5625 0.46875 1.453125 0.46875q1.453125 0 2.265625 -1.015625l1.40625 1.65625q-0.5625 0.796875 -1.625 1.265625q-1.046875 0.46875 -2.265625 0.46875zm-0.34375 -7.859375q-1.34375 0 -1.59375 1.78125l3.09375 0l0 -0.234375q0.015625 -0.734375 -0.375 -1.140625q-0.390625 -0.40625 -1.125 -0.40625zm8.9696045 7.671875l-3.078125 0l0 -9.859375l3.078125 0l0 9.859375zm-3.25 -12.390625q0 -0.65625 0.46875 -1.078125q0.46875 -0.421875 1.21875 -0.421875q0.765625 0 1.234375 0.421875q0.484375 0.421875 0.484375 1.078125q0 0.65625 -0.484375 1.078125q-0.46875 0.40625 -1.234375 0.40625q-0.75 0 -1.21875 -0.40625q-0.46875 -0.421875 -0.46875 -1.078125zm4.784851 7.390625q0 -1.5 0.484375 -2.640625q0.5 -1.15625 1.421875 -1.765625q0.921875 -0.625 2.140625 -0.625q1.53125 0 2.40625 1.03125l0.109375 -0.859375l2.78125 0l0 9.484375q0 1.296875 -0.609375 2.25q-0.59375 0.96875 -1.75 1.484375q-1.140625 0.515625 -2.65625 0.515625q-1.078125 0 -2.09375 -0.40625q-1.015625 -0.40625 -1.5625 -1.0625l1.28125 -1.8125q0.859375 1.015625 2.265625 1.015625q2.046875 0 2.046875 -2.09375l0 -0.3125q-0.890625 0.984375 -2.234375 0.984375q-1.8125 0 -2.921875 -1.375q-1.109375 -1.390625 -1.109375 -3.703125l0 -0.109375zm3.078125 0.1875q0 1.21875 0.453125 1.921875q0.453125 0.703125 1.28125 0.703125q0.984375 0 1.453125 -0.65625l0 -4.15625q-0.453125 -0.671875 -1.4375 -0.671875q-0.8125 0 -1.28125 0.734375q-0.46875 0.734375 -0.46875 2.125zm11.012268 -3.984375q0.984375 -1.234375 2.515625 -1.234375q1.625 0 2.453125 0.96875q0.84375 0.953125 0.859375 2.84375l0 6.21875l-3.078125 0l0 -6.15625q0 -0.78125 -0.328125 -1.140625q-0.3125 -0.375 -1.078125 -0.375q-0.953125 0 -1.34375 0.609375l0 7.0625l-3.0625 0l0 -14.0l3.0625 0l0 5.203125zm11.108704 -3.515625l0 2.453125l1.625 0l0 2.140625l-1.625 0l0 4.5q0 0.5625 0.203125 0.78125q0.203125 0.21875 0.78125 0.21875q0.46875 0 0.765625 -0.0625l0 2.203125q-0.828125 0.265625 -1.71875 0.265625q-1.59375 0 -2.359375 -0.75q-0.75 -0.75 -0.75 -2.265625l0 -4.890625l-1.25 0l0 -2.140625l1.25 0l0 -2.453125l3.078125 0zm7.9821167 9.546875q0 -0.390625 -0.40625 -0.625q-0.40625 -0.25 -1.5625 -0.5q-1.140625 -0.25 -1.890625 -0.65625q-0.75 -0.421875 -1.140625 -1.015625q-0.390625 -0.59375 -0.390625 -1.359375q0 -1.359375 1.125 -2.234375q1.125 -0.875 2.9375 -0.875q1.9375 0 3.125 0.890625q1.1875 0.875 1.1875 2.3125l-3.078125 0q0 -1.1875 -1.25 -1.1875q-0.484375 0 -0.8125 0.265625q-0.328125 0.265625 -0.328125 0.671875q0 0.40625 0.40625 0.671875q0.40625 0.25 1.28125 0.421875q0.875 0.15625 1.546875 0.375q2.21875 0.765625 2.21875 2.75q0 1.34375 -1.203125 2.203125q-1.1875 0.84375 -3.09375 0.84375q-1.265625 0 -2.265625 -0.453125q-0.984375 -0.46875 -1.546875 -1.25q-0.5625 -0.78125 -0.5625 -1.640625l2.875 0q0.015625 0.671875 0.453125 1.0q0.4375 0.3125 1.125 0.3125q0.625 0 0.9375 -0.25q0.3125 -0.265625 0.3125 -0.671875z" fill-rule="nonzero"/><path fill="#000000" fill-opacity="0.0" d="m436.37042 81.57218l153.3858 0l0 59.77952l-153.3858 0z" fill-rule="evenodd"/><path fill="#000000" d="m505.25967 117.24406q1.296875 0 2.15625 0.78125q0.859375 0.765625 0.859375 1.984375q0 1.203125 -0.859375 1.96875q-0.859375 0.765625 -2.15625 0.765625q-1.328125 0 -2.1875 -0.78125q-0.84375 -0.78125 -0.84375 -1.96875q0 -1.1875 0.84375 -1.96875q0.859375 -0.78125 2.1875 -0.78125zm7.9687805 0q1.296875 0 2.15625 0.78125q0.859375 0.765625 0.859375 1.984375q0 1.203125 -0.859375 1.96875q-0.859375 0.765625 -2.15625 0.765625q-1.3281555 0 -2.1875305 -0.78125q-0.84375 -0.78125 -0.84375 -1.96875q0 -1.1875 0.84375 -1.96875q0.859375 -0.78125 2.1875305 -0.78125zm7.9375 0q1.296875 0 2.15625 0.78125q0.859375 0.765625 0.859375 1.984375q0 1.203125 -0.859375 1.96875q-0.859375 0.765625 -2.15625 0.765625q-1.328125 0 -2.1875 -0.78125q-0.84375 -0.78125 -0.84375 -1.96875q0 -1.1875 0.84375 -1.96875q0.859375 -0.78125 2.1875 -0.78125z" fill-rule="nonzero"/><path fill="#000000" fill-opacity="0.0" d="m434.24442 606.01575l153.38583 0l0 59.77954l-153.38583 0z" fill-rule="evenodd"/><path fill="#000000" d="m503.1337 641.6876q1.296875 0 2.15625 0.78125q0.859375 0.765625 0.859375 1.984375q0 1.203125 -0.859375 1.96875q-0.859375 0.765625 -2.15625 0.765625q-1.328125 0 -2.1875 -0.78125q-0.84375 -0.78125 -0.84375 -1.96875q0 -1.1875 0.84375 -1.96875q0.859375 -0.78125 2.1875 -0.78125zm7.96875 0q1.2968445 0 2.1562195 0.78125q0.859375 0.765625 0.859375 1.984375q0 1.203125 -0.859375 1.96875q-0.859375 0.765625 -2.1562195 0.765625q-1.328125 0 -2.1875 -0.78125q-0.84375 -0.78125 -0.84375 -1.96875q0 -1.1875 0.84375 -1.96875q0.859375 -0.78125 2.1875 -0.78125zm7.9374695 0q1.296875 0 2.15625 0.78125q0.859375 0.765625 0.859375 1.984375q0 1.203125 -0.859375 1.96875q-0.859375 0.765625 -2.15625 0.765625q-1.328125 0 -2.1875 -0.78125q-0.84375 -0.78125 -0.84375 -1.96875q0 -1.1875 0.84375 -1.96875q0.859375 -0.78125 2.1875 -0.78125z" fill-rule="nonzero"/><path fill="#b45f06" d="m129.07144 153.13387l759.4646 0l0 54.866135l-759.4646 0z" fill-rule="evenodd"/><path fill="#ffffff" d="m482.35107 183.00255q-0.0625 1.375 -0.75 2.4375q-0.6875 1.0625 -1.921875 1.65625q-1.234375 0.578125 -2.8125 0.578125q-2.609375 0 -4.125 -1.703125q-1.5 -1.703125 -1.5 -4.8125l0 -0.65625q0 -1.953125 0.671875 -3.40625q0.6875 -1.46875 1.953125 -2.265625q1.28125 -0.796875 2.96875 -0.796875q2.40625 0 3.875 1.28125q1.46875 1.265625 1.671875 3.484375l-3.1875 0q-0.046875 -1.203125 -0.625 -1.734375q-0.5625 -0.53125 -1.734375 -0.53125q-1.203125 0 -1.765625 0.890625q-0.546875 0.890625 -0.578125 2.859375l0 0.9375q0 2.125 0.53125 3.03125q0.546875 0.90625 1.84375 0.90625q1.09375 0 1.671875 -0.515625q0.59375 -0.515625 0.625 -1.640625l3.1875 0zm0.97753906 -0.53125q0 -1.484375 0.578125 -2.625q0.578125 -1.15625 1.640625 -1.765625q1.078125 -0.625 2.53125 -0.625q2.21875 0 3.484375 1.375q1.28125 1.359375 1.28125 3.71875l0 0.109375q0 2.3125 -1.28125 3.671875q-1.28125 1.34375 -3.46875 1.34375q-2.09375 0 -3.375 -1.265625q-1.28125 -1.265625 -1.375 -3.421875l-0.015625 -0.515625zm3.078125 0.1875q0 1.359375 0.421875 2.0q0.4375 0.640625 1.265625 0.640625q1.640625 0 1.6875 -2.515625l0 -0.3125q0 -2.65625 -1.703125 -2.65625q-1.53125 0 -1.671875 2.28125l0 0.5625zm10.694672 -5.03125l0.09375 1.15625q1.046875 -1.328125 2.8125 -1.328125q1.875 0 2.53125 1.484375q1.0 -1.484375 2.890625 -1.484375q3.0 0 3.078125 3.625l0 6.40625l-3.078125 0l0 -6.21875q0 -0.765625 -0.25 -1.109375q-0.25 -0.34375 -0.9375 -0.34375q-0.90625 0 -1.34375 0.8125l0 0.125l0 6.734375l-3.078125 0l0 -6.203125q0 -0.78125 -0.25 -1.125q-0.234375 -0.34375 -0.9375 -0.34375q-0.875 0 -1.34375 0.8125l0 6.859375l-3.0625 0l0 -9.859375l2.875 0zm22.319122 5.0q0 2.296875 -1.046875 3.671875q-1.03125 1.375 -2.78125 1.375q-1.359375 0 -2.234375 -1.0l0 4.609375l-3.0624695 0l0 -13.65625l2.8593445 0l0.09375 0.90625q0.890625 -1.078125 2.328125 -1.078125q1.8125 0 2.828125 1.34375q1.015625 1.34375 1.015625 3.6875l0 0.140625zm-3.078125 -0.1875q0 -2.625 -1.53125 -2.625q-1.09375 0 -1.453125 0.78125l0 3.890625q0.40625 0.8125 1.46875 0.8125q1.46875 0 1.515625 -2.53125l0 -0.328125zm10.30011 3.984375q-0.984375 1.25 -2.640625 1.25q-1.609375 0 -2.453125 -0.9375q-0.828125 -0.953125 -0.828125 -2.71875l0 -6.390625l3.0625 0l0 6.40625q0 1.265625 1.234375 1.265625q1.0625 0 1.5 -0.75l0 -6.921875l3.09375 0l0 9.859375l-2.875 0l-0.09375 -1.0625zm8.224609 -11.25l0 2.453125l1.625 0l0 2.140625l-1.625 0l0 4.5q0 0.5625 0.203125 0.78125q0.203125 0.21875 0.78125 0.21875q0.46875 0 0.765625 -0.0625l0 2.203125q-0.828125 0.265625 -1.71875 0.265625q-1.59375 0 -2.359375 -0.75q-0.75 -0.75 -0.75 -2.265625l0 -4.890625l-1.25 0l0 -2.140625l1.25 0l0 -2.453125l3.078125 0zm7.5914917 12.5q-2.265625 0 -3.671875 -1.34375q-1.390625 -1.359375 -1.390625 -3.53125l0 -0.265625q0 -1.5 0.546875 -2.65625q0.5625 -1.15625 1.640625 -1.78125q1.078125 -0.640625 2.546875 -0.640625q2.078125 0 3.28125 1.296875q1.203125 1.28125 1.203125 3.578125l0 1.1875l-6.09375 0q0.15625 0.828125 0.703125 1.3125q0.5625 0.46875 1.453125 0.46875q1.453125 0 2.265625 -1.015625l1.40625 1.65625q-0.5625 0.796875 -1.625 1.265625q-1.046875 0.46875 -2.265625 0.46875zm-0.34375 -7.859375q-1.34375 0 -1.59375 1.78125l3.09375 0l0 -0.234375q0.015625 -0.734375 -0.375 -1.140625q-0.390625 -0.40625 -1.125 -0.40625z" fill-rule="nonzero"/></g></svg>