<svg version="1.1" viewBox="0.0 0.0 1024.0 768.0" fill="none" stroke="none" stroke-linecap="square" stroke-miterlimit="10" xmlns:xlink="http://www.w3.org/1999/xlink" xmlns="http://www.w3.org/2000/svg"><clipPath id="p.0"><path d="m0 0l1024.0 0l0 768.0l-1024.0 0l0 -768.0z" clip-rule="nonzero"/></clipPath><g clip-path="url(#p.0)"><path fill="#000000" fill-opacity="0.0" d="m0 0l1024.0 0l0 768.0l-1024.0 0z" fill-rule="evenodd"/><path fill="#ead1dc" d="m196.7559 189.18636l786.2362 0l0 335.4331l-786.2362 0z" fill-rule="evenodd"/><path fill="#000000" d="m209.95903 213.65323l5.5625 0l0 2.453125l-8.765625 0l0 -13.265625l3.203125 0l0 10.8125zm12.314667 2.453125q-0.15625 -0.296875 -0.28125 -0.890625q-0.84375 1.078125 -2.375 1.078125q-1.390625 0 -2.375 -0.84375q-0.96875 -0.84375 -0.96875 -2.125q0 -1.59375 1.1875 -2.40625q1.1875 -0.828125 3.4375 -0.828125l0.953125 0l0 -0.53125q0 -1.34375 -1.171875 -1.34375q-1.09375 0 -1.09375 1.0625l-3.078125 0q0 -1.421875 1.21875 -2.3125q1.21875 -0.890625 3.09375 -0.890625q1.890625 0 2.984375 0.921875q1.09375 0.90625 1.125 2.515625l0 4.359375q0.015625 1.359375 0.421875 2.078125l0 0.15625l-3.078125 0zm-1.921875 -2.0q0.578125 0 0.953125 -0.25q0.390625 -0.25 0.546875 -0.5625l0 -1.5625l-0.890625 0q-1.609375 0 -1.609375 1.4375q0 0.421875 0.28125 0.6875q0.28125 0.25 0.71875 0.25zm10.077805 -2.296875l1.640625 -5.5625l3.296875 0l-4.015625 11.515625l-0.1875 0.40625q-0.84375 1.921875 -3.015625 1.921875q-0.609375 0 -1.265625 -0.1875l0 -2.1875l0.40625 0q0.640625 0 0.984375 -0.1875q0.34375 -0.1875 0.5 -0.671875l0.25 -0.65625l-3.421875 -9.953125l3.28125 0l1.546875 5.5625zm10.374817 4.484375q-2.265625 0 -3.671875 -1.34375q-1.390625 -1.359375 -1.390625 -3.53125l0 -0.265625q0 -1.5 0.546875 -2.65625q0.5625 -1.15625 1.640625 -1.78125q1.078125 -0.640625 2.546875 -0.640625q2.078125 0 3.28125 1.296875q1.203125 1.28125 1.203125 3.578125l0 1.1875l-6.09375 0q0.15625 0.828125 0.703125 1.3125q0.5625 0.46875 1.453125 0.46875q1.453125 0 2.265625 -1.015625l1.40625 1.65625q-0.5625 0.796875 -1.625 1.265625q-1.046875 0.46875 -2.265625 0.46875zm-0.34375 -7.859375q-1.34375 0 -1.59375 1.78125l3.09375 0l0 -0.234375q0.015625 -0.734375 -0.375 -1.140625q-0.390625 -0.40625 -1.125 -0.40625zm11.703964 0.59375l-1.015625 -0.078125q-1.453125 0 -1.859375 0.921875l0 6.234375l-3.0625 0l0 -9.859375l2.875 0l0.09375 1.265625q0.78125 -1.4375 2.15625 -1.4375q0.5 0 0.859375 0.109375l-0.046875 2.84375zm16.964828 7.078125l-3.171875 0l-4.703125 -8.25l0 8.25l-3.203125 0l0 -13.265625l3.203125 0l4.6875 8.25l0 -8.25l3.1875 0l0 13.265625z" fill-rule="nonzero"/><path fill="#a64d79" d="m208.00626 241.3412l759.4646 0l0 54.866135l-759.4646 0z" fill-rule="evenodd"/><path fill="#ffffff" d="m536.10046 273.24115l5.5625 0l0 2.453125l-8.765625 0l0 -13.265625l3.203125 0l0 10.8125zm6.377136 -2.5625q0 -1.484375 0.578125 -2.625q0.578125 -1.15625 1.640625 -1.765625q1.078125 -0.625 2.53125 -0.625q2.21875 0 3.484375 1.375q1.28125 1.359375 1.28125 3.71875l0 0.109375q0 2.3125 -1.28125 3.671875q-1.28125 1.34375 -3.46875 1.34375q-2.09375 0 -3.375 -1.265625q-1.28125 -1.265625 -1.375 -3.421875l-0.015625 -0.515625zm3.078125 0.1875q0 1.359375 0.421875 2.0q0.4375 0.640625 1.265625 0.640625q1.640625 0 1.6875 -2.515625l0 -0.3125q0 -2.65625 -1.703125 -2.65625q-1.53125 0 -1.671875 2.28125l0 0.5625zm13.335327 4.828125q-0.15625 -0.296875 -0.28125 -0.890625q-0.84375 1.078125 -2.375 1.078125q-1.390625 0 -2.375 -0.84375q-0.96875 -0.84375 -0.96875 -2.125q0 -1.59375 1.1875 -2.40625q1.1875 -0.828125 3.4375 -0.828125l0.953125 0l0 -0.53125q0 -1.34375 -1.171875 -1.34375q-1.09375 0 -1.09375 1.0625l-3.078125 0q0 -1.421875 1.21875 -2.3125q1.21875 -0.890625 3.09375 -0.890625q1.890625 0 2.984375 0.921875q1.09375 0.90625 1.125 2.515625l0 4.359375q0.015625 1.359375 0.421875 2.078125l0 0.15625l-3.078125 0zm-1.921875 -2.0q0.578125 0 0.953125 -0.25q0.390625 -0.25 0.546875 -0.5625l0 -1.5625l-0.890625 0q-1.609375 0 -1.609375 1.4375q0 0.421875 0.28125 0.6875q0.28125 0.25 0.71875 0.25zm5.8864136 -3.0q0 -2.34375 1.015625 -3.6875q1.015625 -1.34375 2.828125 -1.34375q1.3125 0 2.21875 1.03125l0 -5.0l3.078125 0l0 14.0l-2.765625 0l-0.140625 -1.0625q-0.953125 1.25 -2.40625 1.25q-1.765625 0 -2.796875 -1.34375q-1.03125 -1.359375 -1.03125 -3.84375zm3.078125 0.1875q0 2.625 1.53125 2.625q1.015625 0 1.453125 -0.859375l0 -3.75q-0.421875 -0.875 -1.4375 -0.875q-1.421875 0 -1.546875 2.296875l0 0.5625zm20.968079 0.765625l0.984375 -5.8125l2.953125 0l-2.328125 9.859375l-2.59375 0l-1.625 -5.84375l-1.640625 5.84375l-2.609375 0l-2.3125 -9.859375l2.9375 0l0.984375 5.953125l1.5625 -5.953125l2.140625 0l1.546875 5.8125zm9.795837 4.234375q-2.265625 0 -3.671875 -1.34375q-1.390625 -1.359375 -1.390625 -3.53125l0 -0.265625q0 -1.5 0.546875 -2.65625q0.5625 -1.15625 1.640625 -1.78125q1.078125 -0.640625 2.546875 -0.640625q2.078125 0 3.28125 1.296875q1.203125 1.28125 1.203125 3.578125l0 1.1875l-6.09375 0q0.15625 0.828125 0.703125 1.3125q0.5625 0.46875 1.453125 0.46875q1.453125 0 2.265625 -1.015625l1.40625 1.65625q-0.5625 0.796875 -1.625 1.265625q-1.046875 0.46875 -2.265625 0.46875zm-0.34375 -7.859375q-1.34375 0 -1.59375 1.78125l3.09375 0l0 -0.234375q0.015625 -0.734375 -0.375 -1.140625q-0.390625 -0.40625 -1.125 -0.40625zm8.9696045 7.671875l-3.078125 0l0 -9.859375l3.078125 0l0 9.859375zm-3.25 -12.390625q0 -0.65625 0.46875 -1.078125q0.46875 -0.421875 1.21875 -0.421875q0.765625 0 1.234375 0.421875q0.484375 0.421875 0.484375 1.078125q0 0.65625 -0.484375 1.078125q-0.46875 0.40625 -1.234375 0.40625q-0.75 0 -1.21875 -0.40625q-0.46875 -0.421875 -0.46875 -1.078125zm4.784851 7.390625q0 -1.5 0.484375 -2.640625q0.5 -1.15625 1.421875 -1.765625q0.921875 -0.625 2.140625 -0.625q1.53125 0 2.40625 1.03125l0.109375 -0.859375l2.78125 0l0 9.484375q0 1.296875 -0.609375 2.25q-0.59375 0.96875 -1.75 1.484375q-1.140625 0.515625 -2.65625 0.515625q-1.078125 0 -2.09375 -0.40625q-1.015625 -0.40625 -1.5625 -1.0625l1.28125 -1.8125q0.859375 1.015625 2.265625 1.015625q2.046875 0 2.046875 -2.09375l0 -0.3125q-0.890625 0.984375 -2.234375 0.984375q-1.8125 0 -2.921875 -1.375q-1.109375 -1.390625 -1.109375 -3.703125l0 -0.109375zm3.078125 0.1875q0 1.21875 0.453125 1.921875q0.453125 0.703125 1.28125 0.703125q0.984375 0 1.453125 -0.65625l0 -4.15625q-0.453125 -0.671875 -1.4375 -0.671875q-0.8125 0 -1.28125 0.734375q-0.46875 0.734375 -0.46875 2.125zm11.012268 -3.984375q0.984375 -1.234375 2.515625 -1.234375q1.625 0 2.453125 0.96875q0.84375 0.953125 0.859375 2.84375l0 6.21875l-3.078125 0l0 -6.15625q0 -0.78125 -0.328125 -1.140625q-0.3125 -0.375 -1.078125 -0.375q-0.953125 0 -1.34375 0.609375l0 7.0625l-3.0625 0l0 -14.0l3.0625 0l0 5.203125zm11.108704 -3.515625l0 2.453125l1.625 0l0 2.140625l-1.625 0l0 4.5q0 0.5625 0.203125 0.78125q0.203125 0.21875 0.78125 0.21875q0.46875 0 0.765625 -0.0625l0 2.203125q-0.828125 0.265625 -1.71875 0.265625q-1.59375 0 -2.359375 -0.75q-0.75 -0.75 -0.75 -2.265625l0 -4.890625l-1.25 0l0 -2.140625l1.25 0l0 -2.453125l3.078125 0zm7.9821167 9.546875q0 -0.390625 -0.40625 -0.625q-0.40625 -0.25 -1.5625 -0.5q-1.140625 -0.25 -1.890625 -0.65625q-0.75 -0.421875 -1.140625 -1.015625q-0.390625 -0.59375 -0.390625 -1.359375q0 -1.359375 1.125 -2.234375q1.125 -0.875 2.9375 -0.875q1.9375 0 3.125 0.890625q1.1875 0.875 1.1875 2.3125l-3.078125 0q0 -1.1875 -1.25 -1.1875q-0.484375 0 -0.8125 0.265625q-0.328125 0.265625 -0.328125 0.671875q0 0.40625 0.40625 0.671875q0.40625 0.25 1.28125 0.421875q0.875 0.15625 1.546875 0.375q2.21875 0.765625 2.21875 2.75q0 1.34375 -1.203125 2.203125q-1.1875 0.84375 -3.09375 0.84375q-1.265625 0 -2.265625 -0.453125q-0.984375 -0.46875 -1.546875 -1.25q-0.5625 -0.78125 -0.5625 -1.640625l2.875 0q0.015625 0.671875 0.453125 1.0q0.4375 0.3125 1.125 0.3125q0.625 0 0.9375 -0.25q0.3125 -0.265625 0.3125 -0.671875z" fill-rule="nonzero"/><path fill="#45818e" d="m208.00844 309.65353l759.4646 0l0 54.86615l-759.4646 0z" fill-rule="evenodd"/><path fill="#ffffff" d="m522.821 341.5535l5.5625 0l0 2.453125l-8.765625 0l0 -13.265625l3.203125 0l0 10.8125zm6.3771973 -2.5625q0 -1.484375 0.578125 -2.625q0.578125 -1.15625 1.640625 -1.765625q1.078125 -0.625 2.53125 -0.625q2.21875 0 3.484375 1.375q1.28125 1.359375 1.28125 3.71875l0 0.109375q0 2.3125 -1.28125 3.671875q-1.28125 1.34375 -3.46875 1.34375q-2.09375 0 -3.375 -1.265625q-1.28125 -1.265625 -1.375 -3.421875l-0.015625 -0.515625zm3.078125 0.1875q0 1.359375 0.421875 2.0q0.4375 0.640625 1.265625 0.640625q1.640625 0 1.6875 -2.515625l0 -0.3125q0 -2.65625 -1.703125 -2.65625q-1.53125 0 -1.671875 2.28125l0 0.5625zm13.335266 4.828125q-0.15625 -0.296875 -0.28125 -0.890625q-0.84375 1.078125 -2.375 1.078125q-1.390625 0 -2.375 -0.84375q-0.96875 -0.84375 -0.96875 -2.125q0 -1.59375 1.1875 -2.40625q1.1875 -0.828125 3.4375 -0.828125l0.953125 0l0 -0.53125q0 -1.34375 -1.171875 -1.34375q-1.09375 0 -1.09375 1.0625l-3.078125 0q0 -1.421875 1.21875 -2.3125q1.21875 -0.890625 3.09375 -0.890625q1.890625 0 2.984375 0.921875q1.09375 0.90625 1.125 2.515625l0 4.359375q0.015625 1.359375 0.421875 2.078125l0 0.15625l-3.078125 0zm-1.921875 -2.0q0.578125 0 0.953125 -0.25q0.390625 -0.25 0.546875 -0.5625l0 -1.5625l-0.890625 0q-1.609375 0 -1.609375 1.4375q0 0.421875 0.28125 0.6875q0.28125 0.25 0.71875 0.25zm5.8864136 -3.0q0 -2.34375 1.015625 -3.6875q1.015625 -1.34375 2.828125 -1.34375q1.3125 0 2.21875 1.03125l0 -5.0l3.078125 0l0 14.0l-2.765625 0l-0.140625 -1.0625q-0.953125 1.25 -2.40625 1.25q-1.765625 0 -2.796875 -1.34375q-1.03125 -1.359375 -1.03125 -3.84375zm3.078125 0.1875q0 2.625 1.53125 2.625q1.015625 0 1.453125 -0.859375l0 -3.75q-0.421875 -0.875 -1.4375 -0.875q-1.421875 0 -1.546875 2.296875l0 0.5625zm17.999329 4.8125q-0.15625 -0.296875 -0.28125 -0.890625q-0.84375 1.078125 -2.375 1.078125q-1.390625 0 -2.375 -0.84375q-0.96875 -0.84375 -0.96875 -2.125q0 -1.59375 1.1875 -2.40625q1.1875 -0.828125 3.4375 -0.828125l0.953125 0l0 -0.53125q0 -1.34375 -1.171875 -1.34375q-1.09375 0 -1.09375 1.0625l-3.078125 0q0 -1.421875 1.21875 -2.3125q1.21875 -0.890625 3.09375 -0.890625q1.890625 0 2.984375 0.921875q1.09375 0.90625 1.125 2.515625l0 4.359375q0.015625 1.359375 0.421875 2.078125l0 0.15625l-3.078125 0zm-1.921875 -2.0q0.578125 0 0.953125 -0.25q0.390625 -0.25 0.546875 -0.5625l0 -1.5625l-0.890625 0q-1.609375 0 -1.609375 1.4375q0 0.421875 0.28125 0.6875q0.28125 0.25 0.71875 0.25zm10.448914 -0.1875q0.640625 0 1.0 -0.34375q0.359375 -0.359375 0.34375 -0.984375l2.875 0q0 1.625 -1.15625 2.671875q-1.15625 1.03125 -3.0 1.03125q-2.140625 0 -3.390625 -1.34375q-1.234375 -1.359375 -1.234375 -3.75l0 -0.125q0 -1.484375 0.546875 -2.625q0.5625 -1.15625 1.59375 -1.765625q1.046875 -0.609375 2.46875 -0.609375q1.921875 0 3.046875 1.0625q1.125 1.0625 1.125 2.890625l-2.875 0q0 -0.765625 -0.375 -1.171875q-0.375 -0.421875 -1.0 -0.421875q-1.1875 0 -1.390625 1.515625q-0.0625 0.484375 -0.0625 1.34375q0 1.484375 0.34375 2.0625q0.359375 0.5625 1.140625 0.5625zm9.098755 -10.125l0 2.453125l1.625 0l0 2.140625l-1.625 0l0 4.5q0 0.5625 0.203125 0.78125q0.203125 0.21875 0.78125 0.21875q0.46875 0 0.765625 -0.0625l0 2.203125q-0.828125 0.265625 -1.71875 0.265625q-1.59375 0 -2.359375 -0.75q-0.75 -0.75 -0.75 -2.265625l0 -4.890625l-1.25 0l0 -2.140625l1.25 0l0 -2.453125l3.078125 0zm6.0602417 12.3125l-3.078125 0l0 -9.859375l3.078125 0l0 9.859375zm-3.25 -12.390625q0 -0.65625 0.46875 -1.078125q0.46875 -0.421875 1.21875 -0.421875q0.765625 0 1.234375 0.421875q0.484375 0.421875 0.484375 1.078125q0 0.65625 -0.484375 1.078125q-0.46875 0.40625 -1.234375 0.40625q-0.75 0 -1.21875 -0.40625q-0.46875 -0.421875 -0.46875 -1.078125zm9.081787 8.734375l1.546875 -6.203125l3.234375 0l-3.203125 9.859375l-3.140625 0l-3.21875 -9.859375l3.25 0l1.53125 6.203125zm11.110474 3.65625q-0.15625 -0.296875 -0.28125 -0.890625q-0.84375 1.078125 -2.375 1.078125q-1.390625 0 -2.375 -0.84375q-0.96875 -0.84375 -0.96875 -2.125q0 -1.59375 1.1875 -2.40625q1.1875 -0.828125 3.4375 -0.828125l0.953125 0l0 -0.53125q0 -1.34375 -1.171875 -1.34375q-1.09375 0 -1.09375 1.0625l-3.078125 0q0 -1.421875 1.21875 -2.3125q1.21875 -0.890625 3.09375 -0.890625q1.890625 0 2.984375 0.921875q1.09375 0.90625 1.125 2.515625l0 4.359375q0.015625 1.359375 0.421875 2.078125l0 0.15625l-3.078125 0zm-1.921875 -2.0q0.578125 0 0.953125 -0.25q0.390625 -0.25 0.546875 -0.5625l0 -1.5625l-0.890625 0q-1.609375 0 -1.609375 1.4375q0 0.421875 0.28125 0.6875q0.28125 0.25 0.71875 0.25zm9.855164 -10.3125l0 2.453125l1.625 0l0 2.140625l-1.625 0l0 4.5q0 0.5625 0.203125 0.78125q0.203125 0.21875 0.78125 0.21875q0.46875 0 0.765625 -0.0625l0 2.203125q-0.828125 0.265625 -1.71875 0.265625q-1.59375 0 -2.359375 -0.75q-0.75 -0.75 -0.75 -2.265625l0 -4.890625l-1.25 0l0 -2.140625l1.25 0l0 -2.453125l3.078125 0zm6.0602417 12.3125l-3.078125 0l0 -9.859375l3.078125 0l0 9.859375zm-3.25 -12.390625q0 -0.65625 0.46875 -1.078125q0.46875 -0.421875 1.21875 -0.421875q0.765625 0 1.234375 0.421875q0.484375 0.421875 0.484375 1.078125q0 0.65625 -0.484375 1.078125q-0.46875 0.40625 -1.234375 0.40625q-0.75 0 -1.21875 -0.40625q-0.46875 -0.421875 -0.46875 -1.078125zm4.753601 7.375q0 -1.484375 0.578125 -2.625q0.578125 -1.15625 1.640625 -1.765625q1.078125 -0.625 2.53125 -0.625q2.21875 0 3.484375 1.375q1.28125 1.359375 1.28125 3.71875l0 0.109375q0 2.3125 -1.28125 3.671875q-1.28125 1.34375 -3.46875 1.34375q-2.09375 0 -3.375 -1.265625q-1.28125 -1.265625 -1.375 -3.421875l-0.015625 -0.515625zm3.078125 0.1875q0 1.359375 0.421875 2.0q0.4375 0.640625 1.265625 0.640625q1.640625 0 1.6875 -2.515625l0 -0.3125q0 -2.65625 -1.703125 -2.65625q-1.53125 0 -1.671875 2.28125l0 0.5625zm10.616577 -5.03125l0.09375 1.15625q1.015625 -1.328125 2.8125 -1.328125q1.546875 0 2.296875 0.921875q0.765625 0.90625 0.796875 2.765625l0 6.34375l-3.078125 0l0 -6.21875q0 -0.75 -0.3125 -1.09375q-0.296875 -0.359375 -1.09375 -0.359375q-0.890625 0 -1.328125 0.71875l0 6.953125l-3.078125 0l0 -9.859375l2.890625 0zm12.849609 7.09375q0 -0.390625 -0.40625 -0.625q-0.40625 -0.25 -1.5625 -0.5q-1.140625 -0.25 -1.890625 -0.65625q-0.75 -0.421875 -1.140625 -1.015625q-0.390625 -0.59375 -0.390625 -1.359375q0 -1.359375 1.125 -2.234375q1.125 -0.875 2.9375 -0.875q1.9375 0 3.125 0.890625q1.1875 0.875 1.1875 2.3125l-3.078125 0q0 -1.1875 -1.25 -1.1875q-0.484375 0 -0.8125 0.265625q-0.328125 0.265625 -0.328125 0.671875q0 0.40625 0.40625 0.671875q0.40625 0.25 1.28125 0.421875q0.875 0.15625 1.546875 0.375q2.21875 0.765625 2.21875 2.75q0 1.34375 -1.203125 2.203125q-1.1875 0.84375 -3.09375 0.84375q-1.265625 0 -2.265625 -0.453125q-0.984375 -0.46875 -1.546875 -1.25q-0.5625 -0.78125 -0.5625 -1.640625l2.875 0q0.015625 0.671875 0.453125 1.0q0.4375 0.3125 1.125 0.3125q0.625 0 0.9375 -0.25q0.3125 -0.265625 0.3125 -0.671875z" fill-rule="nonzero"/><path fill="#b45f06" d="m208.00845 377.9685l759.4646 0l0 54.86615l-759.4646 0z" fill-rule="evenodd"/><path fill="#ffffff" d="m561.2881 407.8372q-0.0625 1.375 -0.75 2.4375q-0.6875 1.0625 -1.921875 1.65625q-1.234375 0.578125 -2.8125 0.578125q-2.609375 0 -4.125 -1.703125q-1.5 -1.703125 -1.5 -4.8125l0 -0.65625q0 -1.953125 0.671875 -3.40625q0.6875 -1.46875 1.953125 -2.265625q1.28125 -0.796875 2.96875 -0.796875q2.40625 0 3.875 1.28125q1.46875 1.265625 1.671875 3.484375l-3.1875 0q-0.046875 -1.203125 -0.625 -1.734375q-0.5625 -0.53125 -1.734375 -0.53125q-1.203125 0 -1.765625 0.890625q-0.546875 0.890625 -0.578125 2.859375l0 0.9375q0 2.125 0.53125 3.03125q0.546875 0.90625 1.84375 0.90625q1.09375 0 1.671875 -0.515625q0.59375 -0.515625 0.625 -1.640625l3.1875 0zm0.97753906 -0.53125q0 -1.484375 0.578125 -2.625q0.578125 -1.15625 1.640625 -1.765625q1.078125 -0.625 2.53125 -0.625q2.21875 0 3.484375 1.375q1.28125 1.359375 1.28125 3.71875l0 0.109375q0 2.3125 -1.28125 3.671875q-1.28125 1.34375 -3.46875 1.34375q-2.09375 0 -3.375 -1.265625q-1.28125 -1.265625 -1.375 -3.421875l-0.015625 -0.515625zm3.078125 0.1875q0 1.359375 0.421875 2.0q0.4375 0.640625 1.265625 0.640625q1.640625 0 1.6875 -2.515625l0 -0.3125q0 -2.65625 -1.703125 -2.65625q-1.53125 0 -1.671875 2.28125l0 0.5625zm10.694641 -5.03125l0.09375 1.15625q1.046875 -1.328125 2.8125 -1.328125q1.875 0 2.53125 1.484375q1.0 -1.484375 2.890625 -1.484375q3.0 0 3.078125 3.625l0 6.40625l-3.078125 0l0 -6.21875q0 -0.765625 -0.25 -1.109375q-0.25 -0.34375 -0.9375 -0.34375q-0.90625 0 -1.34375 0.8125l0 0.125l0 6.734375l-3.078125 0l0 -6.203125q0 -0.78125 -0.25 -1.125q-0.234375 -0.34375 -0.9375 -0.34375q-0.875 0 -1.34375 0.8125l0 6.859375l-3.0625 0l0 -9.859375l2.875 0zm22.319153 5.0q0 2.296875 -1.046875 3.671875q-1.03125 1.375 -2.78125 1.375q-1.359375 0 -2.234375 -1.0l0 4.609375l-3.0625 0l0 -13.65625l2.859375 0l0.09375 0.90625q0.890625 -1.078125 2.328125 -1.078125q1.8125 0 2.828125 1.34375q1.015625 1.34375 1.015625 3.6875l0 0.140625zm-3.078125 -0.1875q0 -2.625 -1.53125 -2.625q-1.09375 0 -1.453125 0.78125l0 3.890625q0.40625 0.8125 1.46875 0.8125q1.46875 0 1.515625 -2.53125l0 -0.328125zm10.30011 3.984375q-0.984375 1.25 -2.640625 1.25q-1.609375 0 -2.453125 -0.9375q-0.828125 -0.953125 -0.828125 -2.71875l0 -6.390625l3.0625 0l0 6.40625q0 1.265625 1.234375 1.265625q1.0625 0 1.5 -0.75l0 -6.921875l3.09375 0l0 9.859375l-2.875 0l-0.09375 -1.0625zm8.224609 -11.25l0 2.453125l1.625 0l0 2.140625l-1.625 0l0 4.5q0 0.5625 0.203125 0.78125q0.203125 0.21875 0.78125 0.21875q0.46875 0 0.765625 -0.0625l0 2.203125q-0.828125 0.265625 -1.71875 0.265625q-1.59375 0 -2.359375 -0.75q-0.75 -0.75 -0.75 -2.265625l0 -4.890625l-1.25 0l0 -2.140625l1.25 0l0 -2.453125l3.078125 0zm7.5914917 12.5q-2.265625 0 -3.671875 -1.34375q-1.390625 -1.359375 -1.390625 -3.53125l0 -0.265625q0 -1.5 0.546875 -2.65625q0.5625 -1.15625 1.640625 -1.78125q1.078125 -0.640625 2.546875 -0.640625q2.078125 0 3.28125 1.296875q1.203125 1.28125 1.203125 3.578125l0 1.1875l-6.09375 0q0.15625 0.828125 0.703125 1.3125q0.5625 0.46875 1.453125 0.46875q1.453125 0 2.265625 -1.015625l1.40625 1.65625q-0.5625 0.796875 -1.625 1.265625q-1.046875 0.46875 -2.265625 0.46875zm-0.34375 -7.859375q-1.34375 0 -1.59375 1.78125l3.09375 0l0 -0.234375q0.015625 -0.734375 -0.375 -1.140625q-0.390625 -0.40625 -1.125 -0.40625z" fill-rule="nonzero"/><path fill="#38761d" d="m208.00844 446.28085l759.4646 0l0 54.86612l-759.4646 0z" fill-rule="evenodd"/><path fill="#ffffff" d="m526.3934 477.10266q0 -0.703125 -0.5 -1.09375q-0.5 -0.390625 -1.75 -0.796875q-1.234375 -0.421875 -2.03125 -0.8125q-2.578125 -1.265625 -2.578125 -3.484375q0 -1.109375 0.640625 -1.9375q0.640625 -0.84375 1.8125 -1.3125q1.1875 -0.484375 2.640625 -0.484375q1.4375 0 2.5625 0.515625q1.140625 0.515625 1.765625 1.453125q0.640625 0.9375 0.640625 2.15625l-3.1875 0q0 -0.8125 -0.5 -1.25q-0.5 -0.453125 -1.34375 -0.453125q-0.859375 0 -1.359375 0.375q-0.5 0.375 -0.5 0.96875q0 0.5 0.546875 0.921875q0.546875 0.40625 1.921875 0.859375q1.375 0.4375 2.265625 0.953125q2.15625 1.234375 2.15625 3.40625q0 1.75 -1.3125 2.75q-1.3125 0.984375 -3.609375 0.984375q-1.609375 0 -2.921875 -0.578125q-1.296875 -0.578125 -1.96875 -1.578125q-0.65625 -1.015625 -0.65625 -2.328125l3.21875 0q0 1.0625 0.546875 1.578125q0.546875 0.5 1.78125 0.5q0.796875 0 1.25 -0.34375q0.46875 -0.34375 0.46875 -0.96875zm10.240906 3.53125q-0.15625 -0.296875 -0.28125 -0.890625q-0.84375 1.078125 -2.375 1.078125q-1.390625 0 -2.375 -0.84375q-0.96875 -0.84375 -0.96875 -2.125q0 -1.59375 1.1875 -2.40625q1.1875 -0.828125 3.4375 -0.828125l0.953125 0l0 -0.53125q0 -1.34375 -1.171875 -1.34375q-1.09375 0 -1.09375 1.0625l-3.078125 0q0 -1.421875 1.21875 -2.3125q1.21875 -0.890625 3.09375 -0.890625q1.890625 0 2.984375 0.921875q1.09375 0.90625 1.125 2.515625l0 4.359375q0.015625 1.359375 0.421875 2.078125l0 0.15625l-3.078125 0zm-1.921875 -2.0q0.578125 0 0.953125 -0.25q0.390625 -0.25 0.546875 -0.5625l0 -1.5625l-0.890625 0q-1.609375 0 -1.609375 1.4375q0 0.421875 0.28125 0.6875q0.28125 0.25 0.71875 0.25zm10.077759 -1.65625l1.546875 -6.203125l3.234375 0l-3.203125 9.859375l-3.140625 0l-3.21875 -9.859375l3.25 0l1.53125 6.203125zm10.347534 3.84375q-2.265625 0 -3.671875 -1.34375q-1.390625 -1.359375 -1.390625 -3.53125l0 -0.265625q0 -1.5 0.546875 -2.65625q0.5625 -1.15625 1.640625 -1.78125q1.078125 -0.640625 2.546875 -0.640625q2.078125 0 3.28125 1.296875q1.203125 1.28125 1.203125 3.578125l0 1.1875l-6.09375 0q0.15625 0.828125 0.703125 1.3125q0.5625 0.46875 1.453125 0.46875q1.453125 0 2.265625 -1.015625l1.40625 1.65625q-0.5625 0.796875 -1.625 1.265625q-1.046875 0.46875 -2.265625 0.46875zm-0.34375 -7.859375q-1.34375 0 -1.59375 1.78125l3.09375 0l0 -0.234375q0.015625 -0.734375 -0.375 -1.140625q-0.390625 -0.40625 -1.125 -0.40625zm15.9279175 7.671875q-0.15625 -0.296875 -0.28125 -0.890625q-0.84375 1.078125 -2.375 1.078125q-1.390625 0 -2.375 -0.84375q-0.96875 -0.84375 -0.96875 -2.125q0 -1.59375 1.1875 -2.40625q1.1875 -0.828125 3.4375 -0.828125l0.953125 0l0 -0.53125q0 -1.34375 -1.171875 -1.34375q-1.09375 0 -1.09375 1.0625l-3.078125 0q0 -1.421875 1.21875 -2.3125q1.21875 -0.890625 3.09375 -0.890625q1.890625 0 2.984375 0.921875q1.09375 0.90625 1.125 2.515625l0 4.359375q0.015625 1.359375 0.421875 2.078125l0 0.15625l-3.078125 0zm-1.921875 -2.0q0.578125 0 0.953125 -0.25q0.390625 -0.25 0.546875 -0.5625l0 -1.5625l-0.890625 0q-1.609375 0 -1.609375 1.4375q0 0.421875 0.28125 0.6875q0.28125 0.25 0.71875 0.25zm10.448914 -0.1875q0.640625 0 1.0 -0.34375q0.359375 -0.359375 0.34375 -0.984375l2.875 0q0 1.625 -1.15625 2.671875q-1.15625 1.03125 -3.0 1.03125q-2.140625 0 -3.390625 -1.34375q-1.234375 -1.359375 -1.234375 -3.75l0 -0.125q0 -1.484375 0.546875 -2.625q0.5625 -1.15625 1.59375 -1.765625q1.046875 -0.609375 2.46875 -0.609375q1.921875 0 3.046875 1.0625q1.125 1.0625 1.125 2.890625l-2.875 0q0 -0.765625 -0.375 -1.171875q-0.375 -0.421875 -1.0 -0.421875q-1.1875 0 -1.390625 1.515625q-0.0625 0.484375 -0.0625 1.34375q0 1.484375 0.34375 2.0625q0.359375 0.5625 1.140625 0.5625zm9.098755 -10.125l0 2.453125l1.625 0l0 2.140625l-1.625 0l0 4.5q0 0.5625 0.203125 0.78125q0.203125 0.21875 0.78125 0.21875q0.46875 0 0.765625 -0.0625l0 2.203125q-0.828125 0.265625 -1.71875 0.265625q-1.59375 0 -2.359375 -0.75q-0.75 -0.75 -0.75 -2.265625l0 -4.890625l-1.25 0l0 -2.140625l1.25 0l0 -2.453125l3.078125 0zm6.0601807 12.3125l-3.078125 0l0 -9.859375l3.078125 0l0 9.859375zm-3.25 -12.390625q0 -0.65625 0.46875 -1.078125q0.46875 -0.421875 1.21875 -0.421875q0.765625 0 1.234375 0.421875q0.484375 0.421875 0.484375 1.078125q0 0.65625 -0.484375 1.078125q-0.46875 0.40625 -1.234375 0.40625q-0.75 0 -1.21875 -0.40625q-0.46875 -0.421875 -0.46875 -1.078125zm9.081787 8.734375l1.546875 -6.203125l3.234375 0l-3.203125 9.859375l-3.140625 0l-3.21875 -9.859375l3.25 0l1.53125 6.203125zm11.110535 3.65625q-0.15625 -0.296875 -0.28125 -0.890625q-0.84375 1.078125 -2.375 1.078125q-1.390625 0 -2.375 -0.84375q-0.96875 -0.84375 -0.96875 -2.125q0 -1.59375 1.1875 -2.40625q1.1875 -0.828125 3.4375 -0.828125l0.953125 0l0 -0.53125q0 -1.34375 -1.171875 -1.34375q-1.09375 0 -1.09375 1.0625l-3.078125 0q0 -1.421875 1.21875 -2.3125q1.21875 -0.890625 3.09375 -0.890625q1.890625 0 2.984375 0.921875q1.09375 0.90625 1.125 2.515625l0 4.359375q0.015625 1.359375 0.421875 2.078125l0 0.15625l-3.078125 0zm-1.921875 -2.0q0.578125 0 0.953125 -0.25q0.390625 -0.25 0.546875 -0.5625l0 -1.5625l-0.890625 0q-1.609375 0 -1.609375 1.4375q0 0.421875 0.28125 0.6875q0.28125 0.25 0.71875 0.25zm9.855103 -10.3125l0 2.453125l1.625 0l0 2.140625l-1.625 0l0 4.5q0 0.5625 0.203125 0.78125q0.203125 0.21875 0.78125 0.21875q0.46875 0 0.765625 -0.0625l0 2.203125q-0.828125 0.265625 -1.71875 0.265625q-1.59375 0 -2.359375 -0.75q-0.75 -0.75 -0.75 -2.265625l0 -4.890625l-1.25 0l0 -2.140625l1.25 0l0 -2.453125l3.078125 0zm6.0602417 12.3125l-3.078125 0l0 -9.859375l3.078125 0l0 9.859375zm-3.25 -12.390625q0 -0.65625 0.46875 -1.078125q0.46875 -0.421875 1.21875 -0.421875q0.765625 0 1.234375 0.421875q0.484375 0.421875 0.484375 1.078125q0 0.65625 -0.484375 1.078125q-0.46875 0.40625 -1.234375 0.40625q-0.75 0 -1.21875 -0.40625q-0.46875 -0.421875 -0.46875 -1.078125zm4.753662 7.375q0 -1.484375 0.578125 -2.625q0.578125 -1.15625 1.640625 -1.765625q1.078125 -0.625 2.53125 -0.625q2.21875 0 3.484375 1.375q1.28125 1.359375 1.28125 3.71875l0 0.109375q0 2.3125 -1.28125 3.671875q-1.28125 1.34375 -3.46875 1.34375q-2.09375 0 -3.375 -1.265625q-1.28125 -1.265625 -1.375 -3.421875l-0.015625 -0.515625zm3.078125 0.1875q0 1.359375 0.421875 2.0q0.4375 0.640625 1.265625 0.640625q1.640625 0 1.6875 -2.515625l0 -0.3125q0 -2.65625 -1.703125 -2.65625q-1.53125 0 -1.671875 2.28125l0 0.5625zm10.616516 -5.03125l0.09375 1.15625q1.015625 -1.328125 2.8125 -1.328125q1.546875 0 2.296875 0.921875q0.765625 0.90625 0.796875 2.765625l0 6.34375l-3.078125 0l0 -6.21875q0 -0.75 -0.3125 -1.09375q-0.296875 -0.359375 -1.09375 -0.359375q-0.890625 0 -1.328125 0.71875l0 6.953125l-3.078125 0l0 -9.859375l2.890625 0zm12.849609 7.09375q0 -0.390625 -0.40625 -0.625q-0.40625 -0.25 -1.5625 -0.5q-1.140625 -0.25 -1.890625 -0.65625q-0.75 -0.421875 -1.140625 -1.015625q-0.390625 -0.59375 -0.390625 -1.359375q0 -1.359375 1.125 -2.234375q1.125 -0.875 2.9375 -0.875q1.9375 0 3.125 0.890625q1.1875 0.875 1.1875 2.3125l-3.078125 0q0 -1.1875 -1.25 -1.1875q-0.484375 0 -0.8125 0.265625q-0.328125 0.265625 -0.328125 0.671875q0 0.40625 0.40625 0.671875q0.40625 0.25 1.28125 0.421875q0.875 0.15625 1.546875 0.375q2.21875 0.765625 2.21875 2.75q0 1.34375 -1.203125 2.203125q-1.1875 0.84375 -3.09375 0.84375q-1.265625 0 -2.265625 -0.453125q-0.984375 -0.46875 -1.546875 -1.25q-0.5625 -0.78125 -0.5625 -1.640625l2.875 0q0.015625 0.671875 0.453125 1.0q0.4375 0.3125 1.125 0.3125q0.625 0 0.9375 -0.25q0.3125 -0.265625 0.3125 -0.671875z" fill-rule="nonzero"/><path fill="#ead1dc" d="m196.7559 18.406824l786.2362 0l0 131.937l-786.2362 0z" fill-rule="evenodd"/><path fill="#000000" d="m209.95903 42.8737l5.5625 0l0 2.453125l-8.765625 0l0 -13.265625l3.203125 0l0 10.8125zm12.314667 2.453125q-0.15625 -0.296875 -0.28125 -0.890625q-0.84375 1.078125 -2.375 1.078125q-1.390625 0 -2.375 -0.84375q-0.96875 -0.84375 -0.96875 -2.125q0 -1.59375 1.1875 -2.40625q1.1875 -0.828125 3.4375 -0.828125l0.953125 0l0 -0.53125q0 -1.34375 -1.171875 -1.34375q-1.09375 0 -1.09375 1.0625l-3.078125 0q0 -1.421875 1.21875 -2.3125q1.21875 -0.890625 3.09375 -0.890625q1.890625 0 2.984375 0.921875q1.09375 0.90625 1.125 2.515625l0 4.359375q0.015625 1.359375 0.421875 2.078125l0 0.15625l-3.078125 0zm-1.921875 -2.0q0.578125 0 0.953125 -0.25q0.390625 -0.25 0.546875 -0.5625l0 -1.5625l-0.890625 0q-1.609375 0 -1.609375 1.4375q0 0.421875 0.28125 0.6875q0.28125 0.25 0.71875 0.25zm10.077805 -2.296875l1.640625 -5.5625l3.296875 0l-4.015625 11.515625l-0.1875 0.40625q-0.84375 1.921875 -3.015625 1.921875q-0.609375 0 -1.265625 -0.1875l0 -2.1875l0.40625 0q0.640625 0 0.984375 -0.1875q0.34375 -0.1875 0.5 -0.671875l0.25 -0.65625l-3.421875 -9.953125l3.28125 0l1.546875 5.5625zm10.374817 4.484375q-2.265625 0 -3.671875 -1.34375q-1.390625 -1.359375 -1.390625 -3.53125l0 -0.265625q0 -1.5 0.546875 -2.65625q0.5625 -1.15625 1.640625 -1.78125q1.078125 -0.640625 2.546875 -0.640625q2.078125 0 3.28125 1.296875q1.203125 1.28125 1.203125 3.578125l0 1.1875l-6.09375 0q0.15625 0.828125 0.703125 1.3125q0.5625 0.46875 1.453125 0.46875q1.453125 0 2.265625 -1.015625l1.40625 1.65625q-0.5625 0.796875 -1.625 1.265625q-1.046875 0.46875 -2.265625 0.46875zm-0.34375 -7.859375q-1.34375 0 -1.59375 1.78125l3.09375 0l0 -0.234375q0.015625 -0.734375 -0.375 -1.140625q-0.390625 -0.40625 -1.125 -0.40625zm11.703964 0.59375l-1.015625 -0.078125q-1.453125 0 -1.859375 0.921875l0 6.234375l-3.0625 0l0 -9.859375l2.875 0l0.09375 1.265625q0.78125 -1.4375 2.15625 -1.4375q0.5 0 0.859375 0.109375l-0.046875 2.84375zm16.964828 7.078125l-3.171875 0l-4.703125 -8.25l0 8.25l-3.203125 0l0 -13.265625l3.203125 0l4.6875 8.25l0 -8.25l3.1875 0l0 13.265625zm12.52655 -4.53125l-5.46875 0l0 -2.375l5.46875 0l0 2.375zm13.785675 4.53125l-3.078125 0l0 -9.796875l-3.015625 0.875l0 -2.328125l5.8125 -2.015625l0.28125 0l0 13.265625z" fill-rule="nonzero"/><path fill="#38761d" d="m208.00525 75.29921l759.46454 0l0 54.86615l-759.46454 0z" fill-rule="evenodd"/><path fill="#ffffff" d="m526.3902 106.12103q0 -0.703125 -0.5 -1.09375q-0.5 -0.390625 -1.75 -0.796875q-1.234375 -0.421875 -2.03125 -0.8125q-2.578125 -1.265625 -2.578125 -3.484375q0 -1.109375 0.640625 -1.9375q0.640625 -0.84375 1.8125 -1.3125q1.1875 -0.484375 2.640625 -0.484375q1.4375 0 2.5625 0.515625q1.140625 0.515625 1.765625 1.453125q0.640625 0.9375 0.640625 2.15625l-3.1875 0q0 -0.8125 -0.5 -1.25q-0.5 -0.453125 -1.34375 -0.453125q-0.859375 0 -1.359375 0.375q-0.5 0.375 -0.5 0.96875q0 0.5 0.546875 0.921875q0.546875 0.40625 1.921875 0.859375q1.375 0.4375 2.265625 0.953125q2.15625 1.234375 2.15625 3.40625q0 1.75 -1.3125 2.75q-1.3125 0.984375 -3.609375 0.984375q-1.609375 0 -2.921875 -0.578125q-1.296875 -0.578125 -1.96875 -1.578125q-0.65625 -1.015625 -0.65625 -2.328125l3.21875 0q0 1.0625 0.546875 1.578125q0.546875 0.5 1.78125 0.5q0.796875 0 1.25 -0.34375q0.46875 -0.34375 0.46875 -0.96875zm10.240845 3.53125q-0.15625 -0.296875 -0.28125 -0.890625q-0.84375 1.078125 -2.375 1.078125q-1.390625 0 -2.375 -0.84375q-0.96875 -0.84375 -0.96875 -2.125q0 -1.59375 1.1875 -2.40625q1.1875 -0.828125 3.4375 -0.828125l0.953125 0l0 -0.53125q0 -1.34375 -1.171875 -1.34375q-1.09375 0 -1.09375 1.0625l-3.078125 0q0 -1.421875 1.21875 -2.3125q1.21875 -0.890625 3.09375 -0.890625q1.890625 0 2.984375 0.921875q1.09375 0.90625 1.125 2.515625l0 4.359375q0.015625 1.359375 0.421875 2.078125l0 0.15625l-3.078125 0zm-1.921875 -2.0q0.578125 0 0.953125 -0.25q0.390625 -0.25 0.546875 -0.5625l0 -1.5625l-0.890625 0q-1.609375 0 -1.609375 1.4375q0 0.421875 0.28125 0.6875q0.28125 0.25 0.71875 0.25zm10.07782 -1.65625l1.546875 -6.203125l3.234375 0l-3.203125 9.859375l-3.140625 0l-3.21875 -9.859375l3.25 0l1.53125 6.203125zm10.347473 3.84375q-2.265625 0 -3.671875 -1.34375q-1.390625 -1.359375 -1.390625 -3.53125l0 -0.265625q0 -1.5 0.546875 -2.65625q0.5625 -1.15625 1.640625 -1.78125q1.078125 -0.640625 2.546875 -0.640625q2.078125 0 3.28125 1.296875q1.203125 1.28125 1.203125 3.578125l0 1.1875l-6.09375 0q0.15625 0.828125 0.703125 1.3125q0.5625 0.46875 1.453125 0.46875q1.453125 0 2.265625 -1.015625l1.40625 1.65625q-0.5625 0.796875 -1.625 1.265625q-1.046875 0.46875 -2.265625 0.46875zm-0.34375 -7.859375q-1.34375 0 -1.59375 1.78125l3.09375 0l0 -0.234375q0.015625 -0.734375 -0.375 -1.140625q-0.390625 -0.40625 -1.125 -0.40625zm15.9279785 7.671875q-0.15625 -0.296875 -0.28125 -0.890625q-0.84375 1.078125 -2.375 1.078125q-1.390625 0 -2.375 -0.84375q-0.96875 -0.84375 -0.96875 -2.125q0 -1.59375 1.1875 -2.40625q1.1875 -0.828125 3.4375 -0.828125l0.953125 0l0 -0.53125q0 -1.34375 -1.171875 -1.34375q-1.09375 0 -1.09375 1.0625l-3.078125 0q0 -1.421875 1.21875 -2.3125q1.21875 -0.890625 3.09375 -0.890625q1.890625 0 2.984375 0.921875q1.09375 0.90625 1.125 2.515625l0 4.359375q0.015625 1.359375 0.421875 2.078125l0 0.15625l-3.078125 0zm-1.921875 -2.0q0.578125 0 0.953125 -0.25q0.390625 -0.25 0.546875 -0.5625l0 -1.5625l-0.890625 0q-1.609375 0 -1.609375 1.4375q0 0.421875 0.28125 0.6875q0.28125 0.25 0.71875 0.25zm10.448853 -0.1875q0.640625 0 1.0 -0.34375q0.359375 -0.359375 0.34375 -0.984375l2.875 0q0 1.625 -1.15625 2.671875q-1.15625 1.03125 -3.0 1.03125q-2.140625 0 -3.390625 -1.34375q-1.234375 -1.359375 -1.234375 -3.75l0 -0.125q0 -1.484375 0.546875 -2.625q0.5625 -1.15625 1.59375 -1.765625q1.046875 -0.609375 2.46875 -0.609375q1.921875 0 3.046875 1.0625q1.125 1.0625 1.125 2.890625l-2.875 0q0 -0.765625 -0.375 -1.171875q-0.375 -0.421875 -1.0 -0.421875q-1.1875 0 -1.390625 1.515625q-0.0625 0.484375 -0.0625 1.34375q0 1.484375 0.34375 2.0625q0.359375 0.5625 1.140625 0.5625zm9.098755 -10.125l0 2.453125l1.625 0l0 2.140625l-1.625 0l0 4.5q0 0.5625 0.203125 0.78125q0.203125 0.21875 0.78125 0.21875q0.46875 0 0.765625 -0.0625l0 2.203125q-0.828125 0.265625 -1.71875 0.265625q-1.59375 0 -2.359375 -0.75q-0.75 -0.75 -0.75 -2.265625l0 -4.890625l-1.25 0l0 -2.140625l1.25 0l0 -2.453125l3.078125 0zm6.0602417 12.3125l-3.078125 0l0 -9.859375l3.078125 0l0 9.859375zm-3.25 -12.390625q0 -0.65625 0.46875 -1.078125q0.46875 -0.421875 1.21875 -0.421875q0.765625 0 1.234375 0.421875q0.484375 0.421875 0.484375 1.078125q0 0.65625 -0.484375 1.078125q-0.46875 0.40625 -1.234375 0.40625q-0.75 0 -1.21875 -0.40625q-0.46875 -0.421875 -0.46875 -1.078125zm9.081787 8.734375l1.546875 -6.203125l3.234375 0l-3.203125 9.859375l-3.140625 0l-3.21875 -9.859375l3.25 0l1.53125 6.203125zm11.110474 3.65625q-0.15625 -0.296875 -0.28125 -0.890625q-0.84375 1.078125 -2.375 1.078125q-1.390625 0 -2.375 -0.84375q-0.96875 -0.84375 -0.96875 -2.125q0 -1.59375 1.1875 -2.40625q1.1875 -0.828125 3.4375 -0.828125l0.953125 0l0 -0.53125q0 -1.34375 -1.171875 -1.34375q-1.09375 0 -1.09375 1.0625l-3.078125 0q0 -1.421875 1.21875 -2.3125q1.21875 -0.890625 3.09375 -0.890625q1.890625 0 2.984375 0.921875q1.09375 0.90625 1.125 2.515625l0 4.359375q0.015625 1.359375 0.421875 2.078125l0 0.15625l-3.078125 0zm-1.921875 -2.0q0.578125 0 0.953125 -0.25q0.390625 -0.25 0.546875 -0.5625l0 -1.5625l-0.890625 0q-1.609375 0 -1.609375 1.4375q0 0.421875 0.28125 0.6875q0.28125 0.25 0.71875 0.25zm9.855164 -10.3125l0 2.453125l1.625 0l0 2.140625l-1.625 0l0 4.5q0 0.5625 0.203125 0.78125q0.203125 0.21875 0.78125 0.21875q0.46875 0 0.765625 -0.0625l0 2.203125q-0.828125 0.265625 -1.71875 0.265625q-1.59375 0 -2.359375 -0.75q-0.75 -0.75 -0.75 -2.265625l0 -4.890625l-1.25 0l0 -2.140625l1.25 0l0 -2.453125l3.078125 0zm6.0602417 12.3125l-3.078125 0l0 -9.859375l3.078125 0l0 9.859375zm-3.25 -12.390625q0 -0.65625 0.46875 -1.078125q0.46875 -0.421875 1.21875 -0.421875q0.765625 0 1.234375 0.421875q0.484375 0.421875 0.484375 1.078125q0 0.65625 -0.484375 1.078125q-0.46875 0.40625 -1.234375 0.40625q-0.75 0 -1.21875 -0.40625q-0.46875 -0.421875 -0.46875 -1.078125zm4.753662 7.375q0 -1.484375 0.578125 -2.625q0.578125 -1.15625 1.640625 -1.765625q1.078125 -0.625 2.53125 -0.625q2.21875 0 3.484375 1.375q1.28125 1.359375 1.28125 3.71875l0 0.109375q0 2.3125 -1.28125 3.671875q-1.28125 1.34375 -3.46875 1.34375q-2.09375 0 -3.375 -1.265625q-1.28125 -1.265625 -1.375 -3.421875l-0.015625 -0.515625zm3.078125 0.1875q0 1.359375 0.421875 2.0q0.4375 0.640625 1.265625 0.640625q1.640625 0 1.6875 -2.515625l0 -0.3125q0 -2.65625 -1.703125 -2.65625q-1.53125 0 -1.671875 2.28125l0 0.5625zm10.616516 -5.03125l0.09375 1.15625q1.015625 -1.328125 2.8125 -1.328125q1.546875 0 2.296875 0.921875q0.765625 0.90625 0.796875 2.765625l0 6.34375l-3.078125 0l0 -6.21875q0 -0.75 -0.3125 -1.09375q-0.296875 -0.359375 -1.09375 -0.359375q-0.890625 0 -1.328125 0.71875l0 6.953125l-3.078125 0l0 -9.859375l2.890625 0zm12.849609 7.09375q0 -0.390625 -0.40625 -0.625q-0.40625 -0.25 -1.5625 -0.5q-1.140625 -0.25 -1.890625 -0.65625q-0.75 -0.421875 -1.140625 -1.015625q-0.390625 -0.59375 -0.390625 -1.359375q0 -1.359375 1.125 -2.234375q1.125 -0.875 2.9375 -0.875q1.9375 0 3.125 0.890625q1.1875 0.875 1.1875 2.3125l-3.078125 0q0 -1.1875 -1.25 -1.1875q-0.484375 0 -0.8125 0.265625q-0.328125 0.265625 -0.328125 0.671875q0 0.40625 0.40625 0.671875q0.40625 0.25 1.28125 0.421875q0.875 0.15625 1.546875 0.375q2.21875 0.765625 2.21875 2.75q0 1.34375 -1.203125 2.203125q-1.1875 0.84375 -3.09375 0.84375q-1.265625 0 -2.265625 -0.453125q-0.984375 -0.46875 -1.546875 -1.25q-0.5625 -0.78125 -0.5625 -1.640625l2.875 0q0.015625 0.671875 0.453125 1.0q0.4375 0.3125 1.125 0.3125q0.625 0 0.9375 -0.25q0.3125 -0.265625 0.3125 -0.671875z" fill-rule="nonzero"/><path fill="#ead1dc" d="m198.8819 559.23096l786.2362 0l0 176.0315l-786.2362 0z" fill-rule="evenodd"/><path fill="#000000" d="m212.08502 583.6978l5.5625 0l0 2.453125l-8.765625 0l0 -13.265625l3.203125 0l0 10.8125zm12.314667 2.453125q-0.15625 -0.296875 -0.28125 -0.890625q-0.84375 1.078125 -2.375 1.078125q-1.390625 0 -2.375 -0.84375q-0.96875 -0.84375 -0.96875 -2.125q0 -1.59375 1.1875 -2.40625q1.1875 -0.828125 3.4375 -0.828125l0.953125 0l0 -0.53125q0 -1.34375 -1.171875 -1.34375q-1.09375 0 -1.09375 1.0625l-3.078125 0q0 -1.421875 1.21875 -2.3125q1.21875 -0.890625 3.09375 -0.890625q1.890625 0 2.984375 0.921875q1.09375 0.90625 1.125 2.515625l0 4.359375q0.015625 1.359375 0.421875 2.078125l0 0.15625l-3.078125 0zm-1.921875 -2.0q0.578125 0 0.953125 -0.25q0.390625 -0.25 0.546875 -0.5625l0 -1.5625l-0.890625 0q-1.609375 0 -1.609375 1.4375q0 0.421875 0.28125 0.6875q0.28125 0.25 0.71875 0.25zm10.077805 -2.296875l1.640625 -5.5625l3.296875 0l-4.015625 11.515625l-0.1875 0.40625q-0.84375 1.921875 -3.015625 1.921875q-0.609375 0 -1.265625 -0.1875l0 -2.1875l0.40625 0q0.640625 0 0.984375 -0.1875q0.34375 -0.1875 0.5 -0.671875l0.25 -0.65625l-3.421875 -9.953125l3.28125 0l1.546875 5.5625zm10.374817 4.484375q-2.265625 0 -3.671875 -1.34375q-1.390625 -1.359375 -1.390625 -3.53125l0 -0.265625q0 -1.5 0.546875 -2.65625q0.5625 -1.15625 1.640625 -1.78125q1.078125 -0.640625 2.546875 -0.640625q2.078125 0 3.28125 1.296875q1.203125 1.28125 1.203125 3.578125l0 1.1875l-6.09375 0q0.15625 0.828125 0.703125 1.3125q0.5625 0.46875 1.453125 0.46875q1.453125 0 2.265625 -1.015625l1.40625 1.65625q-0.5625 0.796875 -1.625 1.265625q-1.046875 0.46875 -2.265625 0.46875zm-0.34375 -7.859375q-1.34375 0 -1.59375 1.78125l3.09375 0l0 -0.234375q0.015625 -0.734375 -0.375 -1.140625q-0.390625 -0.40625 -1.125 -0.40625zm11.703964 0.59375l-1.015625 -0.078125q-1.453125 0 -1.859375 0.921875l0 6.234375l-3.0625 0l0 -9.859375l2.875 0l0.09375 1.265625q0.78125 -1.4375 2.15625 -1.4375q0.5 0 0.859375 0.109375l-0.046875 2.84375zm16.964813 7.078125l-3.171875 0l-4.703125 -8.25l0 8.25l-3.203125 0l0 -13.265625l3.203125 0l4.6875 8.25l0 -8.25l3.1875 0l0 13.265625zm12.0578 -7.53125l3.109375 0l0 2.640625l-3.109375 0l0 3.5625l-2.859375 0l0 -3.5625l-3.125 0l0 -2.640625l3.125 0l0 -3.453125l2.859375 0l0 3.453125zm15.830383 7.53125l-3.078125 0l0 -9.796875l-3.015625 0.875l0 -2.328125l5.8125 -2.015625l0.28125 0l0 13.265625z" fill-rule="nonzero"/><path fill="#a64d79" d="m210.1312 611.6903l759.4646 0l0 54.86615l-759.4646 0z" fill-rule="evenodd"/><path fill="#ffffff" d="m538.2254 643.5902l5.5625 0l0 2.453125l-8.765625 0l0 -13.265625l3.203125 0l0 10.8125zm6.377136 -2.5625q0 -1.484375 0.578125 -2.625q0.578125 -1.15625 1.640625 -1.765625q1.078125 -0.625 2.53125 -0.625q2.21875 0 3.484375 1.375q1.28125 1.359375 1.28125 3.71875l0 0.109375q0 2.3125 -1.28125 3.671875q-1.28125 1.34375 -3.46875 1.34375q-2.09375 0 -3.375 -1.265625q-1.28125 -1.265625 -1.375 -3.421875l-0.015625 -0.515625zm3.078125 0.1875q0 1.359375 0.421875 2.0q0.4375 0.640625 1.265625 0.640625q1.640625 0 1.6875 -2.515625l0 -0.3125q0 -2.65625 -1.703125 -2.65625q-1.53125 0 -1.671875 2.28125l0 0.5625zm13.335327 4.828125q-0.15625 -0.296875 -0.28125 -0.890625q-0.84375 1.078125 -2.375 1.078125q-1.390625 0 -2.375 -0.84375q-0.96875 -0.84375 -0.96875 -2.125q0 -1.59375 1.1875 -2.40625q1.1875 -0.828125 3.4375 -0.828125l0.953125 0l0 -0.53125q0 -1.34375 -1.171875 -1.34375q-1.09375 0 -1.09375 1.0625l-3.078125 0q0 -1.421875 1.21875 -2.3125q1.21875 -0.890625 3.09375 -0.890625q1.890625 0 2.984375 0.921875q1.09375 0.90625 1.125 2.515625l0 4.359375q0.015625 1.359375 0.421875 2.078125l0 0.15625l-3.078125 0zm-1.921875 -2.0q0.578125 0 0.953125 -0.25q0.390625 -0.25 0.546875 -0.5625l0 -1.5625l-0.890625 0q-1.609375 0 -1.609375 1.4375q0 0.421875 0.28125 0.6875q0.28125 0.25 0.71875 0.25zm5.8864136 -3.0q0 -2.34375 1.015625 -3.6875q1.015625 -1.34375 2.828125 -1.34375q1.3125 0 2.21875 1.03125l0 -5.0l3.078125 0l0 14.0l-2.765625 0l-0.140625 -1.0625q-0.953125 1.25 -2.40625 1.25q-1.765625 0 -2.796875 -1.34375q-1.03125 -1.359375 -1.03125 -3.84375zm3.078125 0.1875q0 2.625 1.53125 2.625q1.015625 0 1.453125 -0.859375l0 -3.75q-0.421875 -0.875 -1.4375 -0.875q-1.421875 0 -1.546875 2.296875l0 0.5625zm20.968079 0.765625l0.984375 -5.8125l2.953125 0l-2.328125 9.859375l-2.59375 0l-1.625 -5.84375l-1.640625 5.84375l-2.609375 0l-2.3125 -9.859375l2.9375 0l0.984375 5.953125l1.5625 -5.953125l2.140625 0l1.546875 5.8125zm9.795837 4.234375q-2.265625 0 -3.671875 -1.34375q-1.390625 -1.359375 -1.390625 -3.53125l0 -0.265625q0 -1.5 0.546875 -2.65625q0.5625 -1.15625 1.640625 -1.78125q1.078125 -0.640625 2.546875 -0.640625q2.078125 0 3.28125 1.296875q1.203125 1.28125 1.203125 3.578125l0 1.1875l-6.09375 0q0.15625 0.828125 0.703125 1.3125q0.5625 0.46875 1.453125 0.46875q1.453125 0 2.265625 -1.015625l1.40625 1.65625q-0.5625 0.796875 -1.625 1.265625q-1.046875 0.46875 -2.265625 0.46875zm-0.34375 -7.859375q-1.34375 0 -1.59375 1.78125l3.09375 0l0 -0.234375q0.015625 -0.734375 -0.375 -1.140625q-0.390625 -0.40625 -1.125 -0.40625zm8.9696045 7.671875l-3.078125 0l0 -9.859375l3.078125 0l0 9.859375zm-3.25 -12.390625q0 -0.65625 0.46875 -1.078125q0.46875 -0.421875 1.21875 -0.421875q0.765625 0 1.234375 0.421875q0.484375 0.421875 0.484375 1.078125q0 0.65625 -0.484375 1.078125q-0.46875 0.40625 -1.234375 0.40625q-0.75 0 -1.21875 -0.40625q-0.46875 -0.421875 -0.46875 -1.078125zm4.784851 7.390625q0 -1.5 0.484375 -2.640625q0.5 -1.15625 1.421875 -1.765625q0.921875 -0.625 2.140625 -0.625q1.53125 0 2.40625 1.03125l0.109375 -0.859375l2.78125 0l0 9.484375q0 1.296875 -0.609375 2.25q-0.59375 0.96875 -1.75 1.484375q-1.140625 0.515625 -2.65625 0.515625q-1.078125 0 -2.09375 -0.40625q-1.015625 -0.40625 -1.5625 -1.0625l1.28125 -1.8125q0.859375 1.015625 2.265625 1.015625q2.046875 0 2.046875 -2.09375l0 -0.3125q-0.890625 0.984375 -2.234375 0.984375q-1.8125 0 -2.921875 -1.375q-1.109375 -1.390625 -1.109375 -3.703125l0 -0.109375zm3.078125 0.1875q0 1.21875 0.453125 1.921875q0.453125 0.703125 1.28125 0.703125q0.984375 0 1.453125 -0.65625l0 -4.15625q-0.453125 -0.671875 -1.4375 -0.671875q-0.8125 0 -1.28125 0.734375q-0.46875 0.734375 -0.46875 2.125zm11.012268 -3.984375q0.984375 -1.234375 2.515625 -1.234375q1.625 0 2.453125 0.96875q0.84375 0.953125 0.859375 2.84375l0 6.21875l-3.078125 0l0 -6.15625q0 -0.78125 -0.328125 -1.140625q-0.3125 -0.375 -1.078125 -0.375q-0.953125 0 -1.34375 0.609375l0 7.0625l-3.0625 0l0 -14.0l3.0625 0l0 5.203125zm11.108704 -3.515625l0 2.453125l1.625 0l0 2.140625l-1.625 0l0 4.5q0 0.5625 0.203125 0.78125q0.203125 0.21875 0.78125 0.21875q0.46875 0 0.765625 -0.0625l0 2.203125q-0.828125 0.265625 -1.71875 0.265625q-1.59375 0 -2.359375 -0.75q-0.75 -0.75 -0.75 -2.265625l0 -4.890625l-1.25 0l0 -2.140625l1.25 0l0 -2.453125l3.078125 0zm7.9821167 9.546875q0 -0.390625 -0.40625 -0.625q-0.40625 -0.25 -1.5625 -0.5q-1.140625 -0.25 -1.890625 -0.65625q-0.75 -0.421875 -1.140625 -1.015625q-0.390625 -0.59375 -0.390625 -1.359375q0 -1.359375 1.125 -2.234375q1.125 -0.875 2.9375 -0.875q1.9375 0 3.125 0.890625q1.1875 0.875 1.1875 2.3125l-3.078125 0q0 -1.1875 -1.25 -1.1875q-0.484375 0 -0.8125 0.265625q-0.328125 0.265625 -0.328125 0.671875q0 0.40625 0.40625 0.671875q0.40625 0.25 1.28125 0.421875q0.875 0.15625 1.546875 0.375q2.21875 0.765625 2.21875 2.75q0 1.34375 -1.203125 2.203125q-1.1875 0.84375 -3.09375 0.84375q-1.265625 0 -2.265625 -0.453125q-0.984375 -0.46875 -1.546875 -1.25q-0.5625 -0.78125 -0.5625 -1.640625l2.875 0q0.015625 0.671875 0.453125 1.0q0.4375 0.3125 1.125 0.3125q0.625 0 0.9375 -0.25q0.3125 -0.265625 0.3125 -0.671875z" fill-rule="nonzero"/><path fill="#000000" fill-opacity="0.0" d="m515.30743 2.406824l153.3858 0l0 59.779526l-153.3858 0z" fill-rule="evenodd"/><path fill="#000000" d="m584.19666 38.0787q1.296875 0 2.15625 0.78125q0.859375 0.765625 0.859375 1.984375q0 1.203125 -0.859375 1.96875q-0.859375 0.765625 -2.15625 0.765625q-1.328125 0 -2.1875 -0.78125q-0.84375 -0.78125 -0.84375 -1.96875q0 -1.1875 0.84375 -1.96875q0.859375 -0.78125 2.1875 -0.78125zm7.96875 0q1.296875 0 2.15625 0.78125q0.859375 0.765625 0.859375 1.984375q0 1.203125 -0.859375 1.96875q-0.859375 0.765625 -2.15625 0.765625q-1.328125 0 -2.1875 -0.78125q-0.84375 -0.78125 -0.84375 -1.96875q0 -1.1875 0.84375 -1.96875q0.859375 -0.78125 2.1875 -0.78125zm7.9375 0q1.296875 0 2.15625 0.78125q0.859375 0.765625 0.859375 1.984375q0 1.203125 -0.859375 1.96875q-0.859375 0.765625 -2.15625 0.765625q-1.328125 0 -2.1875 -0.78125q-0.84375 -0.78125 -0.84375 -1.96875q0 -1.1875 0.84375 -1.96875q0.859375 -0.78125 2.1875 -0.78125z" fill-rule="nonzero"/><path fill="#000000" fill-opacity="0.0" d="m513.18146 654.8504l153.3858 0l0 59.77954l-153.3858 0z" fill-rule="evenodd"/><path fill="#000000" d="m582.0707 690.5223q1.296875 0 2.15625 0.78125q0.859375 0.765625 0.859375 1.984375q0 1.203125 -0.859375 1.96875q-0.859375 0.765625 -2.15625 0.765625q-1.328125 0 -2.1875 -0.78125q-0.84375 -0.78125 -0.84375 -1.96875q0 -1.1875 0.84375 -1.96875q0.859375 -0.78125 2.1875 -0.78125zm7.96875 0q1.296875 0 2.15625 0.78125q0.859375 0.765625 0.859375 1.984375q0 1.203125 -0.859375 1.96875q-0.859375 0.765625 -2.15625 0.765625q-1.328125 0 -2.1875 -0.78125q-0.84375 -0.78125 -0.84375 -1.96875q0 -1.1875 0.84375 -1.96875q0.859375 -0.78125 2.1875 -0.78125zm7.9375 0q1.296875 0 2.15625 0.78125q0.859375 0.765625 0.859375 1.984375q0 1.203125 -0.859375 1.96875q-0.859375 0.765625 -2.15625 0.765625q-1.328125 0 -2.1875 -0.78125q-0.84375 -0.78125 -0.84375 -1.96875q0 -1.1875 0.84375 -1.96875q0.859375 -0.78125 2.1875 -0.78125z" fill-rule="nonzero"/><path fill="#000000" fill-opacity="0.0" d="m11.808731 78.49606l153.38583 0l0 48.472443l-153.38583 0z" fill-rule="evenodd"/><path fill="#000000" d="m42.054382 110.536064l-3.953125 0l0 -12.609375l-3.890625 1.140625l0 -3.0l7.484375 -2.59375l0.359375 0l0 17.0625zm22.953125 -6.25q0 2.953125 -1.328125 4.71875q-1.328125 1.765625 -3.59375 1.765625q-1.734375 0 -2.859375 -1.28125l0 5.921875l-3.953125 0l0 -17.5625l3.6875 0l0.125 1.171875q1.125 -1.40625 2.984375 -1.40625q2.34375 0 3.640625 1.734375q1.296875 1.734375 1.296875 4.75l0 0.1875zm-3.9375 -0.25q0 -3.375 -1.96875 -3.375q-1.40625 0 -1.875 1.015625l0 4.984375q0.515625 1.0625 1.890625 1.0625q1.890625 0 1.953125 -3.265625l0 -0.421875zm12.824219 6.5q-0.203125 -0.390625 -0.375 -1.140625q-1.09375 1.375 -3.046875 1.375q-1.796875 0 -3.046875 -1.078125q-1.25 -1.09375 -1.25 -2.734375q0 -2.0625 1.515625 -3.109375q1.53125 -1.0625 4.4375 -1.0625l1.21875 0l0 -0.671875q0 -1.734375 -1.515625 -1.734375q-1.40625 0 -1.40625 1.375l-3.953125 0q0 -1.84375 1.5625 -2.984375q1.578125 -1.15625 4.0 -1.15625q2.421875 0 3.828125 1.1875q1.40625 1.1875 1.4375 3.25l0 5.609375q0.03125 1.75 0.546875 2.671875l0 0.203125l-3.953125 0zm-2.46875 -2.578125q0.734375 0 1.21875 -0.3125q0.484375 -0.328125 0.703125 -0.71875l0 -2.03125l-1.15625 0q-2.0625 0 -2.0625 1.859375q0 0.53125 0.359375 0.875q0.375 0.328125 0.9375 0.328125zm15.738281 -6.53125l-1.296875 -0.09375q-1.875 0 -2.390625 1.171875l0 8.03125l-3.953125 0l0 -12.6875l3.703125 0l0.125 1.640625q1.0 -1.875 2.78125 -1.875q0.625 0 1.09375 0.140625l-0.0625 3.671875zm6.6015625 -6.71875l0 3.140625l2.09375 0l0 2.75l-2.09375 0l0 5.796875q0 0.71875 0.25 1.0q0.265625 0.28125 1.03125 0.28125q0.59375 0 0.984375 -0.078125l0 2.828125q-1.0625 0.34375 -2.21875 0.34375q-2.046875 0 -3.015625 -0.953125q-0.96875 -0.96875 -0.96875 -2.921875l0 -6.296875l-1.625 0l0 -2.75l1.625 0l0 -3.140625l3.9375 0zm7.8164062 15.828125l-3.96875 0l0 -12.6875l3.96875 0l0 12.6875zm-4.203125 -15.953125q0 -0.84375 0.609375 -1.375q0.609375 -0.546875 1.578125 -0.546875q0.984375 0 1.59375 0.546875q0.609375 0.53125 0.609375 1.375q0 0.84375 -0.609375 1.390625q-0.609375 0.53125 -1.59375 0.53125q-0.96875 0 -1.578125 -0.53125q-0.609375 -0.546875 -0.609375 -1.390625zm11.222656 0.125l0 3.140625l2.09375 0l0 2.75l-2.09375 0l0 5.796875q0 0.71875 0.25 1.0q0.265625 0.28125 1.03125 0.28125q0.59375 0 0.984375 -0.078125l0 2.828125q-1.0625 0.34375 -2.21875 0.34375q-2.046875 0 -3.015625 -0.953125q-0.96875 -0.96875 -0.96875 -2.921875l0 -6.296875l-1.625 0l0 -2.75l1.625 0l0 -3.140625l3.9375 0zm7.8164062 15.828125l-3.96875 0l0 -12.6875l3.96875 0l0 12.6875zm-4.203125 -15.953125q0 -0.84375 0.609375 -1.375q0.609375 -0.546875 1.578125 -0.546875q0.984375 0 1.59375 0.546875q0.609375 0.53125 0.609375 1.375q0 0.84375 -0.609375 1.390625q-0.609375 0.53125 -1.59375 0.53125q-0.96875 0 -1.578125 -0.53125q-0.609375 -0.546875 -0.609375 -1.390625zm6.1289062 9.5q0 -1.90625 0.734375 -3.390625q0.75 -1.484375 2.125 -2.28125q1.390625 -0.796875 3.25 -0.796875q2.84375 0 4.484375 1.765625q1.640625 1.765625 1.640625 4.796875l0 0.140625q0 2.96875 -1.65625 4.71875q-1.640625 1.734375 -4.453125 1.734375q-2.703125 0 -4.34375 -1.625q-1.640625 -1.625 -1.765625 -4.40625l-0.015625 -0.65625zm3.953125 0.234375q0 1.765625 0.546875 2.59375q0.546875 0.8125 1.625 0.8125q2.109375 0 2.15625 -3.25l0 -0.390625q0 -3.421875 -2.171875 -3.421875q-1.984375 0 -2.140625 2.953125l-0.015625 0.703125zm13.6484375 -6.46875l0.125 1.5q1.3125 -1.734375 3.625 -1.734375q1.984375 0 2.953125 1.1875q0.984375 1.1875 1.015625 3.5625l0 8.171875l-3.953125 0l0 -8.0q0 -0.96875 -0.390625 -1.421875q-0.390625 -0.453125 -1.40625 -0.453125q-1.15625 0 -1.71875 0.921875l0 8.953125l-3.953125 0l0 -12.6875l3.703125 0z" fill-rule="nonzero"/><path fill="#000000" fill-opacity="0.0" d="m11.808731 381.16534l153.38583 0l0 48.472443l-153.38583 0z" fill-rule="evenodd"/><path fill="#000000" d="m42.054382 413.20535l-3.953125 0l0 -12.609375l-3.890625 1.140625l0 -3.0l7.484375 -2.59375l0.359375 0l0 17.0625zm22.953125 -6.25q0 2.953125 -1.328125 4.71875q-1.328125 1.765625 -3.59375 1.765625q-1.734375 0 -2.859375 -1.28125l0 5.921875l-3.953125 0l0 -17.5625l3.6875 0l0.125 1.171875q1.125 -1.40625 2.984375 -1.40625q2.34375 0 3.640625 1.734375q1.296875 1.734375 1.296875 4.75l0 0.1875zm-3.9375 -0.25q0 -3.375 -1.96875 -3.375q-1.40625 0 -1.875 1.015625l0 4.984375q0.515625 1.0625 1.890625 1.0625q1.890625 0 1.953125 -3.265625l0 -0.421875zm12.824219 6.5q-0.203125 -0.390625 -0.375 -1.140625q-1.09375 1.375 -3.046875 1.375q-1.796875 0 -3.046875 -1.078125q-1.25 -1.09375 -1.25 -2.734375q0 -2.0625 1.515625 -3.109375q1.53125 -1.0625 4.4375 -1.0625l1.21875 0l0 -0.671875q0 -1.734375 -1.515625 -1.734375q-1.40625 0 -1.40625 1.375l-3.953125 0q0 -1.84375 1.5625 -2.984375q1.578125 -1.15625 4.0 -1.15625q2.421875 0 3.828125 1.1875q1.40625 1.1875 1.4375 3.25l0 5.609375q0.03125 1.75 0.546875 2.671875l0 0.203125l-3.953125 0zm-2.46875 -2.578125q0.734375 0 1.21875 -0.3125q0.484375 -0.328125 0.703125 -0.71875l0 -2.03125l-1.15625 0q-2.0625 0 -2.0625 1.859375q0 0.53125 0.359375 0.875q0.375 0.328125 0.9375 0.328125zm15.738281 -6.53125l-1.296875 -0.09375q-1.875 0 -2.390625 1.171875l0 8.03125l-3.953125 0l0 -12.6875l3.703125 0l0.125 1.640625q1.0 -1.875 2.78125 -1.875q0.625 0 1.09375 0.140625l-0.0625 3.671875zm6.6015625 -6.71875l0 3.140625l2.09375 0l0 2.75l-2.09375 0l0 5.796875q0 0.71875 0.25 1.0q0.265625 0.28125 1.03125 0.28125q0.59375 0 0.984375 -0.078125l0 2.828125q-1.0625 0.34375 -2.21875 0.34375q-2.046875 0 -3.015625 -0.953125q-0.96875 -0.96875 -0.96875 -2.921875l0 -6.296875l-1.625 0l0 -2.75l1.625 0l0 -3.140625l3.9375 0zm7.8164062 15.828125l-3.96875 0l0 -12.6875l3.96875 0l0 12.6875zm-4.203125 -15.953125q0 -0.84375 0.609375 -1.375q0.609375 -0.546875 1.578125 -0.546875q0.984375 0 1.59375 0.546875q0.609375 0.53125 0.609375 1.375q0 0.84375 -0.609375 1.390625q-0.609375 0.53125 -1.59375 0.53125q-0.96875 0 -1.578125 -0.53125q-0.609375 -0.546875 -0.609375 -1.390625zm11.222656 0.125l0 3.140625l2.09375 0l0 2.75l-2.09375 0l0 5.796875q0 0.71875 0.25 1.0q0.265625 0.28125 1.03125 0.28125q0.59375 0 0.984375 -0.078125l0 2.828125q-1.0625 0.34375 -2.21875 0.34375q-2.046875 0 -3.015625 -0.953125q-0.96875 -0.96875 -0.96875 -2.921875l0 -6.296875l-1.625 0l0 -2.75l1.625 0l0 -3.140625l3.9375 0zm7.8164062 15.828125l-3.96875 0l0 -12.6875l3.96875 0l0 12.6875zm-4.203125 -15.953125q0 -0.84375 0.609375 -1.375q0.609375 -0.546875 1.578125 -0.546875q0.984375 0 1.59375 0.546875q0.609375 0.53125 0.609375 1.375q0 0.84375 -0.609375 1.390625q-0.609375 0.53125 -1.59375 0.53125q-0.96875 0 -1.578125 -0.53125q-0.609375 -0.546875 -0.609375 -1.390625zm6.1289062 9.5q0 -1.90625 0.734375 -3.390625q0.75 -1.484375 2.125 -2.28125q1.390625 -0.796875 3.25 -0.796875q2.84375 0 4.484375 1.765625q1.640625 1.765625 1.640625 4.796875l0 0.140625q0 2.96875 -1.65625 4.71875q-1.640625 1.734375 -4.453125 1.734375q-2.703125 0 -4.34375 -1.625q-1.640625 -1.625 -1.765625 -4.40625l-0.015625 -0.65625zm3.953125 0.234375q0 1.765625 0.546875 2.59375q0.546875 0.8125 1.625 0.8125q2.109375 0 2.15625 -3.25l0 -0.390625q0 -3.421875 -2.171875 -3.421875q-1.984375 0 -2.140625 2.953125l-0.015625 0.703125zm13.6484375 -6.46875l0.125 1.5q1.3125 -1.734375 3.625 -1.734375q1.984375 0 2.953125 1.1875q0.984375 1.1875 1.015625 3.5625l0 8.171875l-3.953125 0l0 -8.0q0 -0.96875 -0.390625 -1.421875q-0.390625 -0.453125 -1.40625 -0.453125q-1.15625 0 -1.71875 0.921875l0 8.953125l-3.953125 0l0 -12.6875l3.703125 0z" fill-rule="nonzero"/><path fill="#000000" fill-opacity="0.0" d="m197.10896 501.1496c-8.813019 0 -15.957367 -7.144348 -15.957367 -15.957367l0 -63.833282c0 -8.813019 -7.1443634 -15.957367 -15.957367 -15.957367c8.813004 0 15.957367 -7.144348 15.957367 -15.957367l0 -63.833313l0 0c0 -8.812988 7.144348 -15.957367 15.957367 -15.957367l786.4697 0c4.2321777 0 8.291016 1.6812134 11.283569 4.673828c2.9926147 2.9925842 4.673828 7.0513916 4.673828 11.283539l0 63.833313c0 8.813019 7.144348 15.957367 15.957336 15.957367c-8.812988 0 -15.957336 7.144348 -15.957336 15.957367l0 63.833282c0 8.813019 -7.144348 15.957367 -15.957397 15.957367z" fill-rule="evenodd"/><path fill="#000000" fill-opacity="0.0" d="m197.10896 501.1496c-8.813019 0 -15.957367 -7.144348 -15.957367 -15.957367l0 -63.833282c0 -8.813019 -7.1443634 -15.957367 -15.957367 -15.957367c8.813004 0 15.957367 -7.144348 15.957367 -15.957367l0 -63.833313l0 0c0 -8.812988 7.144348 -15.957367 15.957367 -15.957367m786.4697 0c4.2321777 0 8.291016 1.6812134 11.283569 4.673828c2.9926147 2.9925842 4.673828 7.0513916 4.673828 11.283539l0 63.833313c0 8.813019 7.144348 15.957367 15.957336 15.957367c-8.812988 0 -15.957336 7.144348 -15.957336 15.957367l0 63.833282c0 8.813019 -7.144348 15.957367 -15.957397 15.957367" fill-rule="evenodd"/><path stroke="#741b47" stroke-width="2.0" stroke-linejoin="round" stroke-linecap="butt" d="m197.10896 501.1496c-8.813019 0 -15.957367 -7.144348 -15.957367 -15.957367l0 -63.833282c0 -8.813019 -7.1443634 -15.957367 -15.957367 -15.957367c8.813004 0 15.957367 -7.144348 15.957367 -15.957367l0 -63.833313l0 0c0 -8.812988 7.144348 -15.957367 15.957367 -15.957367m786.4697 0c4.2321777 0 8.291016 1.6812134 11.283569 4.673828c2.9926147 2.9925842 4.673828 7.0513916 4.673828 11.283539l0 63.833313c0 8.813019 7.144348 15.957367 15.957336 15.957367c-8.812988 0 -15.957336 7.144348 -15.957336 15.957367l0 63.833282c0 8.813019 -7.144348 15.957367 -15.957397 15.957367" fill-rule="evenodd"/><path fill="#000000" fill-opacity="0.0" d="m11.808731 244.53806l153.38583 0l0 48.472443l-153.38583 0z" fill-rule="evenodd"/><path fill="#000000" d="m58.29071 276.57806l-3.953125 0l0 -12.609375l-3.890625 1.140625l0 -3.0l7.484375 -2.59375l0.359375 0l0 17.0625zm17.828125 -3.5625q0 -0.5 -0.53125 -0.796875q-0.53125 -0.3125 -2.015625 -0.640625q-1.46875 -0.328125 -2.4375 -0.859375q-0.953125 -0.546875 -1.453125 -1.296875q-0.5 -0.765625 -0.5 -1.75q0 -1.75 1.4375 -2.875q1.4375 -1.140625 3.78125 -1.140625q2.5 0 4.015625 1.140625q1.53125 1.140625 1.53125 2.984375l-3.953125 0q0 -1.515625 -1.609375 -1.515625q-0.625 0 -1.046875 0.34375q-0.421875 0.34375 -0.421875 0.859375q0 0.53125 0.515625 0.859375q0.515625 0.328125 1.640625 0.546875q1.140625 0.203125 2.0 0.5q2.859375 0.984375 2.859375 3.515625q0 1.734375 -1.546875 2.828125q-1.546875 1.09375 -3.984375 1.09375q-1.640625 0 -2.921875 -0.578125q-1.265625 -0.59375 -1.984375 -1.59375q-0.71875 -1.015625 -0.71875 -2.125l3.703125 0q0.015625 0.875 0.578125 1.28125q0.5625 0.40625 1.4375 0.40625q0.8125 0 1.21875 -0.328125q0.40625 -0.328125 0.40625 -0.859375zm10.246094 -12.265625l0 3.140625l2.09375 0l0 2.75l-2.09375 0l0 5.796875q0 0.71875 0.25 1.0q0.265625 0.28125 1.03125 0.28125q0.59375 0 0.984375 -0.078125l0 2.828125q-1.0625 0.34375 -2.21875 0.34375q-2.046875 0 -3.015625 -0.953125q-0.96875 -0.96875 -0.96875 -2.921875l0 -6.296875l-1.625 0l0 -2.75l1.625 0l0 -3.140625l3.9375 0zm10.785156 15.828125q-0.203125 -0.390625 -0.375 -1.140625q-1.09375 1.375 -3.046875 1.375q-1.796875 0 -3.046875 -1.078125q-1.25 -1.09375 -1.25 -2.734375q0 -2.0625 1.515625 -3.109375q1.53125 -1.0625 4.4375 -1.0625l1.21875 0l0 -0.671875q0 -1.734375 -1.515625 -1.734375q-1.40625 0 -1.40625 1.375l-3.953125 0q0 -1.84375 1.5625 -2.984375q1.578125 -1.15625 4.0 -1.15625q2.421875 0 3.828125 1.1875q1.40625 1.1875 1.4375 3.25l0 5.609375q0.03125 1.75 0.546875 2.671875l0 0.203125l-3.953125 0zm-2.46875 -2.578125q0.734375 0 1.21875 -0.3125q0.484375 -0.328125 0.703125 -0.71875l0 -2.03125l-1.15625 0q-2.0625 0 -2.0625 1.859375q0 0.53125 0.359375 0.875q0.375 0.328125 0.9375 0.328125zm7.5976562 -3.859375q0 -1.921875 0.625 -3.390625q0.640625 -1.484375 1.828125 -2.28125q1.1875 -0.8125 2.75 -0.8125q1.984375 0 3.09375 1.34375l0.140625 -1.109375l3.59375 0l0 12.203125q0 1.6875 -0.78125 2.921875q-0.78125 1.234375 -2.265625 1.890625q-1.46875 0.671875 -3.40625 0.671875q-1.40625 0 -2.71875 -0.53125q-1.296875 -0.53125 -1.984375 -1.375l1.65625 -2.3125q1.09375 1.296875 2.90625 1.296875q2.625 0 2.625 -2.703125l0 -0.390625q-1.140625 1.25 -2.875 1.25q-2.328125 0 -3.765625 -1.765625q-1.421875 -1.78125 -1.421875 -4.765625l0 -0.140625zm3.96875 0.25q0 1.5625 0.578125 2.46875q0.59375 0.90625 1.640625 0.90625q1.28125 0 1.875 -0.859375l0 -5.328125q-0.578125 -0.875 -1.84375 -0.875q-1.0625 0 -1.65625 0.953125q-0.59375 0.9375 -0.59375 2.734375zm16.445312 6.421875q-2.921875 0 -4.734375 -1.734375q-1.796875 -1.75 -1.796875 -4.53125l0 -0.328125q0 -1.953125 0.71875 -3.4375q0.71875 -1.484375 2.09375 -2.296875q1.390625 -0.828125 3.296875 -0.828125q2.671875 0 4.21875 1.671875q1.546875 1.65625 1.546875 4.609375l0 1.546875l-7.859375 0q0.21875 1.0625 0.921875 1.671875q0.71875 0.609375 1.859375 0.609375q1.875 0 2.921875 -1.3125l1.8125 2.125q-0.734375 1.03125 -2.09375 1.640625q-1.359375 0.59375 -2.90625 0.59375zm-0.453125 -10.109375q-1.734375 0 -2.0625 2.296875l3.984375 0l0 -0.296875q0.03125 -0.953125 -0.484375 -1.46875q-0.5 -0.53125 -1.4375 -0.53125z" fill-rule="nonzero"/><path fill="#000000" fill-opacity="0.0" d="m11.808731 614.88715l153.38583 0l0 48.472412l-153.38583 0z" fill-rule="evenodd"/><path fill="#000000" d="m52.144226 646.9271l-3.953125 0l0 -12.609375l-3.890625 1.140625l0 -3.0l7.484375 -2.59375l0.359375 0l0 17.0625zm17.828125 -3.5625q0 -0.5 -0.53125 -0.796875q-0.53125 -0.3125 -2.015625 -0.640625q-1.46875 -0.328125 -2.4375 -0.859375q-0.953125 -0.546875 -1.453125 -1.296875q-0.5 -0.765625 -0.5 -1.75q0 -1.75 1.4375 -2.875q1.4375 -1.140625 3.78125 -1.140625q2.5 0 4.015625 1.140625q1.53125 1.140625 1.53125 2.984375l-3.953125 0q0 -1.515625 -1.609375 -1.515625q-0.625 0 -1.046875 0.34375q-0.421875 0.34375 -0.421875 0.859375q0 0.53125 0.515625 0.859375q0.515625 0.328125 1.640625 0.546875q1.140625 0.203125 2.0 0.5q2.859375 0.984375 2.859375 3.515625q0 1.734375 -1.546875 2.828125q-1.546875 1.09375 -3.984375 1.09375q-1.640625 0 -2.921875 -0.578125q-1.265625 -0.59375 -1.984375 -1.59375q-0.71875 -1.015625 -0.71875 -2.125l3.703125 0q0.015625 0.875 0.578125 1.28125q0.5625 0.40625 1.4375 0.40625q0.8125 0 1.21875 -0.328125q0.40625 -0.328125 0.40625 -0.859375zm10.246094 -12.265625l0 3.140625l2.09375 0l0 2.75l-2.09375 0l0 5.796875q0 0.71875 0.25 1.0q0.265625 0.28125 1.03125 0.28125q0.59375 0 0.984375 -0.078125l0 2.828125q-1.0625 0.34375 -2.21875 0.34375q-2.046875 0 -3.015625 -0.953125q-0.96875 -0.96875 -0.96875 -2.921875l0 -6.296875l-1.625 0l0 -2.75l1.625 0l0 -3.140625l3.9375 0zm10.785156 15.828125q-0.203125 -0.390625 -0.375 -1.140625q-1.09375 1.375 -3.046875 1.375q-1.796875 0 -3.046875 -1.078125q-1.25 -1.09375 -1.25 -2.734375q0 -2.0625 1.515625 -3.109375q1.53125 -1.0625 4.4375 -1.0625l1.21875 0l0 -0.671875q0 -1.734375 -1.515625 -1.734375q-1.40625 0 -1.40625 1.375l-3.953125 0q0 -1.84375 1.5625 -2.984375q1.578125 -1.15625 4.0 -1.15625q2.421875 0 3.828125 1.1875q1.40625 1.1875 1.4375 3.25l0 5.609375q0.03125 1.75 0.546875 2.671875l0 0.203125l-3.953125 0zm-2.46875 -2.578125q0.734375 0 1.21875 -0.3125q0.484375 -0.328125 0.703125 -0.71875l0 -2.03125l-1.15625 0q-2.0625 0 -2.0625 1.859375q0 0.53125 0.359375 0.875q0.375 0.328125 0.9375 0.328125zm7.5976562 -3.859375q0 -1.921875 0.625 -3.390625q0.640625 -1.484375 1.828125 -2.28125q1.1875 -0.8125 2.75 -0.8125q1.984375 0 3.09375 1.34375l0.140625 -1.109375l3.59375 0l0 12.203125q0 1.6875 -0.78125 2.921875q-0.78125 1.234375 -2.265625 1.890625q-1.46875 0.671875 -3.40625 0.671875q-1.40625 0 -2.71875 -0.53125q-1.296875 -0.53125 -1.984375 -1.375l1.65625 -2.3125q1.09375 1.296875 2.90625 1.296875q2.625 0 2.625 -2.703125l0 -0.390625q-1.140625 1.25 -2.875 1.25q-2.328125 0 -3.765625 -1.765625q-1.421875 -1.78125 -1.421875 -4.765625l0 -0.140625zm3.96875 0.25q0 1.5625 0.578125 2.46875q0.59375 0.90625 1.640625 0.90625q1.28125 0 1.875 -0.859375l0 -5.328125q-0.578125 -0.875 -1.84375 -0.875q-1.0625 0 -1.65625 0.953125q-0.59375 0.9375 -0.59375 2.734375zm16.445312 6.421875q-2.921875 0 -4.734375 -1.734375q-1.796875 -1.75 -1.796875 -4.53125l0 -0.328125q0 -1.953125 0.71875 -3.4375q0.71875 -1.484375 2.09375 -2.296875q1.390625 -0.828125 3.296875 -0.828125q2.671875 0 4.21875 1.671875q1.546875 1.65625 1.546875 4.609375l0 1.546875l-7.859375 0q0.21875 1.0625 0.921875 1.671875q0.71875 0.609375 1.859375 0.609375q1.875 0 2.921875 -1.3125l1.8125 2.125q-0.734375 1.03125 -2.09375 1.640625q-1.359375 0.59375 -2.90625 0.59375zm-0.453125 -10.109375q-1.734375 0 -2.0625 2.296875l3.984375 0l0 -0.296875q0.03125 -0.953125 -0.484375 -1.46875q-0.5 -0.53125 -1.4375 -0.53125zm14.019531 6.3125q0 -0.5 -0.53125 -0.796875q-0.53125 -0.3125 -2.015625 -0.640625q-1.46875 -0.328125 -2.4375 -0.859375q-0.953125 -0.546875 -1.453125 -1.296875q-0.5 -0.765625 -0.5 -1.75q0 -1.75 1.4375 -2.875q1.4375 -1.140625 3.78125 -1.140625q2.5 0 4.015625 1.140625q1.53125 1.140625 1.53125 2.984375l-3.953125 0q0 -1.515625 -1.609375 -1.515625q-0.625 0 -1.046875 0.34375q-0.421875 0.34375 -0.421875 0.859375q0 0.53125 0.515625 0.859375q0.515625 0.328125 1.640625 0.546875q1.140625 0.203125 2.0 0.5q2.859375 0.984375 2.859375 3.515625q0 1.734375 -1.546875 2.828125q-1.546875 1.09375 -3.984375 1.09375q-1.640625 0 -2.921875 -0.578125q-1.265625 -0.59375 -1.984375 -1.59375q-0.71875 -1.015625 -0.71875 -2.125l3.703125 0q0.015625 0.875 0.578125 1.28125q0.5625 0.40625 1.4375 0.40625q0.8125 0 1.21875 -0.328125q0.40625 -0.328125 0.40625 -0.859375z" fill-rule="nonzero"/></g></svg>